<svg width="980" height="784" viewBox="0 0 980 784" fill="none" xmlns="http://www.w3.org/2000/svg">
<path d="M147 686L0 343H441V0L637 343L686 0L980 784L147 686Z" fill="#F9363C"/>
<path d="M545.963 549.93C468.298 545.859 407.47 490.256 405.728 423.819L684.869 480.066C660.003 524.137 606.425 553.098 545.963 549.93Z" fill="white"/>
<path d="M558.831 542.996C522.348 541.084 494.322 509.958 496.233 473.475C496.8 462.661 499.944 452.596 505.023 443.828L627.923 468.592C628.408 472.442 628.562 476.388 628.352 480.399C626.439 516.882 595.314 544.908 558.831 542.996Z" fill="black"/>
</svg>
