<svg width="980" height="784" viewBox="0 0 980 784" fill="none" xmlns="http://www.w3.org/2000/svg">
<path d="M147 686L0 343H441V0L637 343L686 0L980 784L147 686Z" fill="#F9363C"/>
<path d="M542.333 423.938C623.407 428.187 686.146 488.592 682.464 558.857L388.867 543.47C392.549 473.205 461.258 419.689 542.333 423.938Z" fill="white"/>
<path d="M542.532 435.643C586.259 437.935 619.849 475.241 617.557 518.967C616.87 532.087 613.028 544.293 606.809 554.892L466.142 547.52C461.065 536.329 458.522 523.788 459.209 510.669C461.501 466.942 498.805 433.352 542.532 435.643Z" fill="black"/>
<path d="M562.108 543.399C562.108 523.779 546.203 507.874 526.583 507.874C546.203 507.874 562.108 491.969 562.108 472.349C562.108 491.969 578.014 507.874 597.633 507.874C578.014 507.874 562.108 523.779 562.108 543.399Z" fill="white"/>
<circle cx="588.44" cy="477.861" r="9.1875" fill="white"/>
</svg>
