<svg width="980" height="784" viewBox="0 0 980 784" fill="none" xmlns="http://www.w3.org/2000/svg">
<path d="M147 686L0 343H441V0L637 343L686 0L980 784L147 686Z" fill="#F9363C"/>
<path d="M542.333 423.938C623.408 428.186 686.147 488.592 682.464 558.856L388.867 543.47C392.549 473.205 461.259 419.689 542.333 423.938Z" fill="white"/>
<circle cx="538.999" cy="487.549" r="24.8715" transform="rotate(3 538.999 487.549)" fill="black"/>
<path d="M826.872 270.112C805.027 295.225 765.01 330.015 840.96 356.475" stroke="black" stroke-width="29.4"/>
<path d="M765.672 437.907C770.822 405.023 786.497 367.47 841.01 399.32" stroke="black" stroke-width="29.4"/>
<path d="M676.167 363.687C709.124 359.03 744.922 349.884 725.779 428" stroke="black" stroke-width="29.4"/>
<path d="M747.861 243.103C761.275 273.565 781.079 316.312 700.699 319.053" stroke="black" stroke-width="29.4"/>
</svg>
