<svg width="980" height="784" viewBox="0 0 980 784" fill="none" xmlns="http://www.w3.org/2000/svg">
<path d="M147 686L0 343H441V0L637 343L686 0L980 784L147 686Z" fill="#F9363C"/>
<path d="M689.959 497.366C694.187 510.305 696.131 524.014 695.392 538.122L401.794 522.737C404.112 478.5 432.208 440.906 472.933 420.181L689.959 497.366Z" fill="white"/>
<path d="M614.204 470.422C615.446 476.089 615.964 482.015 615.645 488.089C614.715 505.838 606.865 521.584 594.852 532.856L499.522 527.86C488.754 515.394 482.597 498.913 483.527 481.163C484.561 461.447 494.126 444.203 508.458 432.817L614.204 470.422Z" fill="black"/>
<path d="M583.617 615.154C583.617 632.744 569.358 647.004 551.767 647.004C534.177 647.004 519.917 632.744 519.917 615.154C519.917 597.564 551.767 554.516 551.767 554.516C551.767 554.516 583.617 597.564 583.617 615.154Z" fill="white"/>
</svg>
