<svg width="980" height="784" viewBox="0 0 980 784" fill="none" xmlns="http://www.w3.org/2000/svg">
<path d="M147 686L0 343H441V0L637 343L686 0L980 784L147 686Z" fill="#F9363C"/>
<path d="M542.334 423.938C623.409 428.186 686.148 488.592 682.465 558.856L388.868 543.47C392.551 473.205 461.26 419.689 542.334 423.938Z" fill="white"/>
<path d="M542.52 435.642C586.246 437.934 619.834 475.24 617.542 518.967C616.855 532.086 613.014 544.292 606.795 554.891L466.132 547.519C461.055 536.328 458.508 523.787 459.196 510.668C461.487 466.942 498.794 433.351 542.52 435.642Z" fill="black"/>
</svg>
