<svg width="100" height="80" viewBox="0 0 100 80" fill="none" xmlns="http://www.w3.org/2000/svg">
<path d="M15 70L0 35H45V0L65 35L70 0L100 80L15 70Z" fill="#F9363C"/>
<path d="M70.4046 50.752C70.836 52.0722 71.0344 53.4711 70.959 54.9108L41 53.3408C41.2366 48.8269 44.1034 44.9907 48.2591 42.876L70.4046 50.752Z" fill="white"/>
<path d="M62.6758 48.0023C62.8025 48.5805 62.8554 49.1852 62.8229 49.805C62.7279 51.6162 61.9269 53.2228 60.7011 54.373L50.9736 53.8633C49.8748 52.5912 49.2466 50.9095 49.3414 49.0983C49.4469 47.0865 50.4229 45.3269 51.8854 44.165L62.6758 48.0023Z" fill="black"/>
<path d="M59.5547 62.771C59.5547 64.5659 58.0996 66.021 56.3047 66.021C54.5098 66.021 53.0547 64.5659 53.0547 62.771C53.0547 60.9761 56.3047 56.5835 56.3047 56.5835C56.3047 56.5835 59.5547 60.9761 59.5547 62.771Z" fill="white"/>
</svg>
