<svg width="49" height="20" viewBox="0 0 49 20" fill="none" xmlns="http://www.w3.org/2000/svg">
<path d="M41.8672 0H44.8439V13.3023C44.8439 13.8837 45.1695 14.2093 45.7509 14.2093H46.6811V16.5116H44.9835C43.123 16.5116 41.8672 15.3488 41.8672 13.4186V0Z" fill="black"/>
<path d="M28.7366 7.95325C29.225 5.37185 31.2018 3.90674 34.2483 3.90674C37.8064 3.90674 39.6669 5.74395 39.6669 9.20906V13.4416C39.6669 14.1393 39.9692 14.3486 40.4343 14.3486H40.9227V16.5114L40.225 16.5346C39.2715 16.5579 37.318 16.5812 37.0855 14.6277C36.5041 15.8602 35.1087 16.7905 32.9692 16.7905C30.4808 16.7905 28.5273 15.4649 28.5273 13.2788C28.5273 10.9067 30.318 10.0928 33.225 9.53464L36.6669 8.86023C36.6669 6.95325 35.8529 6.04627 34.2483 6.04627C32.9227 6.04627 32.0622 6.7672 31.7832 8.11604L28.7366 7.95325ZM31.6204 13.1858C31.6204 14.023 32.3413 14.6974 33.7832 14.6974C35.4576 14.6974 36.7366 13.4649 36.7366 11.0463V10.8835L34.3878 11.3021C32.8297 11.5812 31.6204 11.7905 31.6204 13.1858Z" fill="black"/>
<path d="M16.6719 4.18604H19.5556L22.8579 13.3953L26.044 4.18604H28.9277L24.0207 17.8139C23.4858 19.3256 22.4858 20 20.8347 20H18.8114V17.7209H20.323C21.044 17.7209 21.3928 17.4884 21.6486 16.907L21.9975 16H21.137L16.6719 4.18604Z" fill="black"/>
<path d="M11.1553 16.7905C7.45767 16.7905 5.03906 14.2556 5.03906 10.3486C5.03906 6.44162 7.45767 3.90674 11.1553 3.90674C14.8298 3.90674 17.2484 6.44162 17.2484 10.3486C17.2484 14.2556 14.8298 16.7905 11.1553 16.7905ZM8.13208 10.3486C8.13208 12.8835 9.22511 14.3719 11.1553 14.3719C13.0623 14.3719 14.1786 12.8835 14.1786 10.3486C14.1786 7.81371 13.0623 6.32534 11.1553 6.32534C9.22511 6.32534 8.13208 7.81371 8.13208 10.3486Z" fill="black"/>
<path d="M0 0H2.97674V13.3023C2.97674 13.8837 3.30232 14.2093 3.88372 14.2093H4.81395V16.5116H3.11628C1.25581 16.5116 0 15.3488 0 13.4186V0Z" fill="black"/>
</svg>
