<svg width="40" height="40" viewBox="0 0 40 40" fill="none" xmlns="http://www.w3.org/2000/svg">
<path d="M19.999 36C20.2944 36 20.706 35.8621 21.0672 35.6709C30.1787 30.6234 33.0488 28.4876 33.0488 22.9523V10.7114C33.0488 8.99109 32.4289 8.4343 30.9319 7.82988C28.6311 6.9233 23.5828 5.02934 21.2831 4.2327C20.8541 4.08635 20.4341 4 19.999 4C19.5638 4 19.1438 4.09757 18.721 4.2327C16.4252 5.03715 11.3617 6.92949 9.06596 7.82988C7.58016 8.413 6.94922 8.99109 6.94922 10.7114V22.9523C6.94922 28.4876 9.95156 30.3973 18.9307 35.6709C19.3031 35.8733 19.6984 36 19.999 36Z" fill="#F9363C"/>
<path d="M20 14C24.9706 14 29 17.5817 29 22H11C11 17.5817 15.0294 14 20 14Z" fill="white"/>
<circle cx="19.9492" cy="18" r="4" fill="black"/>
</svg>
