<svg width="100" height="80" viewBox="0 0 100 80" fill="none" xmlns="http://www.w3.org/2000/svg">
<path d="M15 70L0 35H45V0L65 35L70 0L100 80L15 70Z" fill="#34C759"/>
<path d="M55.3388 43.2592C63.6117 43.6927 70.0136 49.8565 69.6379 57.0264L39.679 55.4563C40.0548 48.2864 47.0659 42.8256 55.3388 43.2592Z" fill="white"/>
<path d="M55.36 44.4537C59.8218 44.6875 63.2501 48.494 63.0163 52.9559C62.9462 54.2951 62.5518 55.5402 61.9167 56.6221L47.5682 55.8701C47.0497 54.7278 46.7877 53.4483 46.8579 52.109C47.0918 47.6474 50.8984 44.2201 55.36 44.4537Z" fill="black"/>
<path d="M57.3555 55.4492C57.3555 53.4472 55.7325 51.8242 53.7305 51.8242C55.7325 51.8242 57.3555 50.2013 57.3555 48.1992C57.3555 50.2013 58.9784 51.8242 60.9805 51.8242C58.9784 51.8242 57.3555 53.4472 57.3555 55.4492Z" fill="white"/>
<circle cx="60.043" cy="48.7617" r="0.9375" fill="white"/>
</svg>
