<svg width="64" height="65" viewBox="0 0 64 65" fill="none" xmlns="http://www.w3.org/2000/svg">
<path d="M15.5452 55.558C18.9016 57.8598 23.2021 60.3438 28.6348 63.3534C29.3431 63.7284 30.1502 63.9995 30.7298 63.9996C31.3193 63.9996 32.0953 63.7505 32.8259 63.3534C50.4418 53.0072 56.332 49.2603 56.332 38.4006V14.8086L15.5452 55.558Z" fill="#B9B9BB"/>
<path d="M30.7298 1.21924C29.8762 1.21929 29.0524 1.38903 28.2109 1.67611C23.6994 3.239 13.7951 6.95419 9.28117 8.7328C6.34431 9.91858 5.12758 11.0111 5.12752 14.3859V38.4006C5.12752 42.1499 5.8007 45.1037 7.41517 47.7725L48.0688 7.14972C43.1497 5.28014 36.6423 2.86912 33.2376 1.67611C32.4081 1.41099 31.5835 1.21924 30.7298 1.21924Z" fill="#B9B9BB"/>
<path d="M4.05345 61.7904C3.31387 62.5396 2.11696 62.5202 1.35747 61.7904C0.588287 61.061 0.618401 59.834 1.35747 59.0944L59.9491 0.547172C60.6567 -0.182391 61.8759 -0.182391 62.645 0.547172C63.4042 1.25473 63.3845 2.50362 62.645 3.253L4.05345 61.7904Z" fill="#B9B9BB"/>
</svg>
