<svg width="36" height="36" viewBox="0 0 36 36" fill="none" xmlns="http://www.w3.org/2000/svg">
<path d="M14.3363 25.5483C14.044 26.5472 14.4419 27.7643 15.5511 27.9907C15.8158 28.0444 16.1729 28.0208 16.4398 28.063C20.3397 28.6747 19.1966 34.3095 15.2758 33.8179C13.7101 33.6215 12.12 31.6611 13.5101 30.353C14.5342 29.3906 16.5194 29.9039 15.8314 31.4722L15.6937 30.9438C15.456 30.7253 15.2304 30.4855 14.9008 30.4019C14.854 30.5725 14.8016 30.4574 14.6654 30.4731C14.3241 30.5138 14.1651 30.6206 13.9105 30.8599L14.0179 30.9126C13.8955 30.9738 13.9715 31.069 13.9506 31.1372C13.9467 31.1494 13.8711 31.1499 13.8607 31.1909C13.8316 31.3066 13.8543 31.4769 13.8031 31.605H13.9115L14.0179 31.2593L14.0717 31.7397C14.0763 31.4015 14.1104 30.9377 14.4984 30.8325C13.9054 31.3158 14.2394 32.0441 14.8363 32.3364C16.7803 33.2898 18.4502 30.5818 16.5385 29.4595L15.8334 29.231C17.1489 29.2249 17.8138 30.4418 17.4349 31.6323C17.5098 31.6452 17.5072 31.5429 17.5277 31.4868C17.9019 30.4758 17.3907 29.3443 16.3246 29.0864C15.7393 28.9453 15.4063 28.959 14.808 28.7319C14.68 28.6837 14.7431 28.7438 14.5658 28.646C14.1716 28.4274 13.8806 28.1592 13.6176 27.7896C13.5546 27.788 13.8047 28.3467 13.5922 28.1626C13.5814 28.1532 13.564 27.9945 13.5326 27.937C13.4279 27.7426 13.057 27.2865 13.057 27.0151V26.1079C13.058 26.0979 13.1287 26.0248 13.1625 26.0278L13.1761 26.5229L13.3236 26.8823L13.2689 26.4849L13.431 25.8677V26.8022C13.4313 26.836 13.5144 27.09 13.5902 27.0962C13.522 26.7249 13.491 26.327 13.6068 25.9634C13.6251 25.9066 13.6203 25.8027 13.6976 25.8149V26.6958C13.6982 26.736 13.784 26.8527 13.7513 26.936H13.8041C13.8316 26.6608 13.7658 26.322 13.8041 26.0552H13.8031C13.8165 25.9617 13.9243 25.6618 14.017 25.6021L13.9642 26.4819L14.1234 27.0425C14.0498 26.5486 13.986 25.9509 14.3363 25.5483ZM13.5082 32.438C13.5074 32.4372 13.507 32.4359 13.5062 32.4351L13.431 32.6411C13.6373 32.7309 13.7254 32.9407 13.9125 33.0972C14.399 33.5031 15.0265 33.7054 15.6566 33.7124C16.4671 33.7222 17.2824 33.4082 17.808 32.7817C17.8586 32.722 17.9381 32.6946 17.9144 32.5942C17.9133 32.5953 17.9117 32.5961 17.9105 32.5972V32.5952C17.2749 33.1716 16.5305 33.5085 15.7767 33.5239C15.1912 33.5353 14.6003 33.3532 14.0502 32.936L14.0052 32.9116C13.9575 32.8915 13.9008 32.8802 13.8549 32.8384C13.7207 32.7181 13.6342 32.5631 13.5101 32.4351L13.5082 32.438ZM13.5931 32.228C13.5919 32.2264 13.5905 32.2248 13.5892 32.2231C14.0369 33.2612 15.4922 33.625 16.5502 33.27C16.6066 33.2511 16.6613 33.2295 16.7152 33.2065C16.8306 33.1573 16.9414 33.1019 17.0424 33.0337C17.0893 33.0024 17.1373 32.9849 17.1576 32.9429C17.1679 32.9228 17.1742 32.8983 17.1664 32.8618C15.9765 33.5937 14.4341 33.3489 13.5902 32.2212C13.5912 32.2234 13.5922 32.2258 13.5931 32.228ZM14.5502 32.8354C14.7501 32.9542 14.9662 33.0338 15.1898 33.0806C15.5613 33.1591 15.9539 33.1456 16.3295 33.062C16.4455 33.0359 16.6771 32.967 16.7445 32.8628C16.742 32.8635 16.7392 32.864 16.7367 32.8647C16.7374 32.8637 16.7389 32.8629 16.7396 32.8618C16.3553 32.9684 15.9882 33.0557 15.5863 33.0542L14.5551 32.8364L14.5502 32.8354ZM21.8881 24.5327C21.957 24.5675 21.8893 24.6795 21.8754 24.7339C21.6974 25.4288 21.3141 26.1333 21.1293 26.8696C20.7764 28.2704 20.6811 30.1663 21.9506 31.1421C22.9538 31.9135 24.5218 31.7782 24.6322 30.3833L24.6381 30.2456C24.791 30.2781 24.6429 30.6647 24.85 30.6187L24.7933 30.1704L24.9037 30.1118L24.7142 30.0356C24.7769 29.8264 24.5868 29.7717 24.4242 29.7065L24.4769 29.5513C23.9845 29.3894 23.564 29.7087 23.0892 29.6567L23.1947 29.3911L23.0082 29.5503C22.9749 29.2836 23.3067 29.0209 23.5482 28.9165C25.2512 28.1826 26.522 30.7928 24.9828 32.2183C23.1132 33.9498 19.9941 32.6603 19.4594 30.2974L20.1625 31.5425C21.3884 33.1221 24.1764 33.5907 25.1722 31.5532L24.6918 32.0337C23.3784 33.2374 21.2849 32.6291 20.3236 31.2759C19.7559 30.4765 19.5178 29.4865 19.5101 28.5122C19.5011 27.3049 20.0998 26.1809 20.3138 25.0142C20.4056 25.0044 20.3726 25.1986 20.3695 25.2563C20.3303 25.8851 20.0521 26.4373 19.9125 27.0415C19.5765 28.4968 19.6306 30.1062 20.5834 31.3237C21.27 32.2013 22.8743 32.8724 23.9437 32.4067C24.1289 32.3258 24.7769 31.8214 24.85 31.6587C24.8606 31.6356 24.8639 31.5717 24.8246 31.5796C23.8142 32.8938 22.0515 32.5169 20.972 31.5073C19.1306 29.7835 20.011 27.2475 20.5795 25.1978C20.603 25.1127 20.5223 25.0395 20.6859 25.0669C20.6782 25.9161 20.2355 26.6816 20.1127 27.5093C19.9493 28.6109 20.0596 30.2438 20.7953 31.1245C21.6047 32.0933 23.1723 32.6735 24.3168 31.9517C24.3509 31.7055 24.0402 32.0117 23.9174 32.061C23.2861 32.3125 22.5538 32.1582 21.9486 31.8921C20.3731 31.1985 20.0487 29.5496 20.1508 27.9731C20.2199 26.9023 20.7105 25.9966 20.9008 24.9595C20.9923 24.9467 20.9522 25.0811 20.9535 25.145C20.9704 25.774 20.6783 26.1202 20.5931 26.6548C20.5838 26.7117 20.5368 26.8394 20.6322 26.8267L21.1674 24.9058C21.2352 24.8902 21.2554 25.0048 21.2562 25.0464C21.2616 25.3539 21.1944 25.5342 21.1361 25.811C21.1244 25.8657 21.0687 25.9859 21.1654 25.9731L21.8881 24.5327ZM12.7113 29.231C12.6461 30.0233 11.8069 30.7555 11.1019 31.0396C10.9585 31.0971 10.4839 31.2601 10.3617 31.2603H9.48083C9.46885 31.1671 9.60211 31.2087 9.66736 31.2065C9.82535 31.2004 9.98398 31.2181 10.142 31.1997C11.2604 31.0715 12.3439 30.3102 12.7113 29.231ZM17.5668 19.5171C18.2295 20.1791 18.234 21.3378 17.9242 22.1694C17.3642 23.6737 15.6762 24.4959 14.1527 24.5903C14.0952 24.5942 13.9005 24.6267 13.9105 24.5347C15.2914 24.4111 16.5443 24.0751 17.349 22.8745C17.4803 22.6788 17.7371 22.3562 17.6742 22.1323C17.2423 23.0237 16.6162 23.6341 15.6849 23.9878C14.4944 24.4402 12.8034 24.0068 12.139 25.4058C11.5422 26.6615 12.476 27.8356 12.1869 29.0845C12.1324 29.3189 11.9858 29.5223 11.9886 29.7651L12.2396 29.189C12.6099 27.9655 11.7874 26.745 12.3627 25.5483C12.4628 25.537 12.4043 25.6559 12.392 25.7104C12.3536 25.8782 12.2755 26.0293 12.2562 26.2153C12.1534 27.2264 12.6732 28.0581 12.4554 29.0845C12.3886 29.3991 12.0654 30.1533 11.7748 30.2456C11.6574 30.4603 11.4678 30.637 11.1879 30.6724C11.2649 30.6022 11.5751 30.2886 11.6302 30.2603C11.6917 30.2294 11.7416 30.2539 11.7738 30.2446C11.821 30.158 11.9481 29.9152 11.9076 29.8188C11.6729 30.1548 11.3673 30.426 11.0267 30.647L11.0804 30.7544C10.9724 30.8124 10.8703 30.7326 10.7562 30.7485C10.6582 30.7623 10.5539 30.8504 10.4506 30.8706C9.28369 31.0954 8.14445 30.735 7.50232 29.7124C7.31413 29.8366 7.67397 30.0876 7.58435 30.2456C6.88404 29.49 6.73707 28.3687 7.07751 27.4175C7.29357 27.3625 7.09481 27.6593 7.23669 27.6831C7.26741 27.4453 7.34311 27.1339 7.55701 26.9897L7.37048 27.7896C7.48996 27.6527 7.54774 27.2313 7.66345 27.1216C7.88333 26.9149 7.62015 27.5682 7.66541 27.5767L7.98474 27.2026C7.81213 28.0289 7.71841 28.7813 8.30603 29.4702C9.17526 30.4887 11.0292 30.3147 11.3861 28.9233C11.7618 27.4589 10.0695 26.1618 11.2386 24.3989C12.2437 22.8832 13.9075 23.5126 15.2806 22.9419C16.204 22.5574 16.919 21.6691 16.7787 20.6245C16.7411 20.3461 16.5871 20.1486 16.5258 19.8901L16.7123 19.9966L17.059 20.7446C17.0896 20.4333 16.9488 20.1473 16.7924 19.8911C17.0269 19.8583 16.9693 20.2243 17.1664 20.2104L16.9789 19.731L17.3256 20.1577L17.2201 19.731L17.4857 19.9976L17.3802 19.5708L17.5922 19.731L17.5668 19.5171ZM14.1254 28.1118C14.2716 28.2987 14.431 28.4333 14.598 28.5337C15.2106 28.903 15.9356 28.798 16.5736 29.0073C16.941 29.1285 17.2793 29.355 17.5502 29.8374C17.7564 30.2047 17.7517 30.4114 17.8099 30.8071C17.8169 30.8545 17.8098 30.8762 17.8187 30.8853C17.8257 30.8965 17.8475 30.8933 17.9164 30.8882C17.9132 30.6656 17.8761 30.4394 17.8109 30.2212C17.809 30.2147 17.807 30.2082 17.8051 30.2017C17.7879 30.1461 17.7676 30.0918 17.7465 30.0376C17.7413 30.0242 17.7363 30.0108 17.7308 29.9976C17.7086 29.9435 17.6847 29.8905 17.6586 29.8384C17.6497 29.8207 17.6406 29.8031 17.6312 29.7856C17.6071 29.7406 17.5813 29.6969 17.5541 29.6538C17.5397 29.6309 17.5244 29.6087 17.5092 29.5864C17.3979 29.4245 17.2674 29.2772 17.1117 29.1577C16.9845 29.0602 16.8536 28.9886 16.7201 28.9351C16.247 28.7445 15.7404 28.7784 15.2386 28.6821C15.1898 28.6727 15.1409 28.6631 15.0922 28.6509C15.0269 28.6345 14.9617 28.6161 14.8969 28.5933L14.1254 28.1118ZM23.2006 25.3872C23.2668 26.4961 24.5049 26.665 25.1439 27.314C25.7827 27.963 25.9199 29.1985 26.9144 29.3315C27.5059 29.4105 28.1622 28.9969 28.3256 28.4292L28.3265 28.4321L28.3793 28.6978C28.3923 28.7154 28.4448 28.6665 28.4594 28.645C28.4966 28.5875 28.7172 27.9479 28.7386 27.856C28.8264 27.4765 28.4834 27.1702 28.4037 26.8267C28.1532 26.8104 28.2347 26.6461 28.1488 26.5249C27.8832 26.1515 26.8838 26.0386 26.5101 26.2954L26.6703 26.0825C26.5285 26.0457 26.4458 26.1727 26.35 26.2065C26.2902 26.227 26.211 26.1982 26.1498 26.2241C26.0482 26.268 26.1289 26.4086 25.9496 26.2944L25.976 26.4019L25.7338 26.2954L25.682 26.4019C25.2609 26.0244 26.266 25.61 26.5736 25.5317C29.5414 24.7758 30.4136 29.9826 27.2299 30.1382C27.0796 30.1459 26.375 30.057 26.2963 29.978C26.2679 29.9496 26.257 29.8649 26.3636 29.8833C26.51 29.9093 26.6669 29.9173 26.8041 29.9771L26.8304 29.8706C26.6902 29.8844 26.5713 29.8529 26.4418 29.8062C25.7805 29.5707 25.4093 28.6955 25.015 28.1899C24.9452 28.101 24.7718 28.0054 24.7611 27.9878C24.7284 27.9303 24.7763 27.8524 24.7142 27.7827C24.5405 27.5902 23.7288 27.3293 23.4496 27.1392C22.9249 26.7809 22.6368 26.0674 22.7211 25.4399L22.9779 26.1704C23.0303 26.2958 23.2189 26.6742 23.307 26.7485C23.3438 26.7799 23.4006 26.8045 23.4144 26.7485C23.1605 26.447 22.8515 25.6841 23.2006 25.3872ZM21.224 27.8423C21.4619 27.5802 21.9718 27.8021 22.2103 28.0054C22.7233 28.4434 22.8068 29.2419 22.3676 29.7612C22.3055 29.8347 22.1225 30.007 22.0394 30.0229C21.9567 30.0383 21.8763 29.9649 21.8226 29.9907L21.8217 29.9897C21.8104 29.9956 21.8107 30.0493 21.8002 30.0708L21.4906 29.8716C21.5765 29.9107 21.7613 29.8718 21.8265 29.8188C21.9343 29.7314 21.7493 29.5918 22.0775 29.7114C21.9794 29.3932 22.1965 29.1692 22.1185 28.7905C22.0402 28.4117 21.7144 28.354 21.5111 28.1646C21.4294 28.0881 21.4933 28.1181 21.3431 27.9917C21.3132 27.9664 21.3557 27.8171 21.224 27.8423ZM20.3138 28.3247C20.3008 28.7036 20.3232 29.0822 20.3822 29.4565C20.3909 29.512 20.3945 29.6692 20.4476 29.7046L20.473 29.7114L20.476 29.7124L20.3168 28.3257C20.3165 28.3332 20.316 28.3407 20.3158 28.3481L20.3138 28.3247ZM19.5677 25.8159C19.3484 26.9788 19.1211 28.1517 19.2484 29.3384L19.142 28.8843C19.0952 28.0259 19.1969 27.1825 19.3802 26.3472L19.5677 25.8159ZM13.5765 20.5151L13.5345 20.9038H13.5365C13.7961 20.8304 13.5834 19.9946 13.6693 19.9946L13.7494 20.9028L13.9623 20.2095L13.9095 21.063C14.1118 20.8866 14.1234 20.5132 14.1234 20.2632C14.1989 20.249 14.1945 20.3476 14.2006 20.3989C14.2296 20.6197 14.206 20.8422 14.1761 21.063L14.4164 20.3696C14.4853 20.6479 14.452 20.9591 14.2836 21.1968L14.389 21.2769L14.6293 20.5835C14.7535 21.4295 14.1997 22.2339 13.5072 22.6636C13.3737 22.6881 13.4499 22.5957 13.4867 22.5474C13.6049 22.3903 13.8342 22.2908 13.9086 22.0776L12.975 22.6118H12.8939L13.3744 22.3433C13.3038 22.1781 13.0719 22.403 12.9613 22.438C12.7719 22.4963 12.5586 22.5412 12.3607 22.5581L12.4672 22.7173C12.1964 22.659 11.7999 22.7382 11.5521 22.686C11.0781 22.5862 10.7068 22.1599 10.3041 21.9175L10.4652 22.2378C10.2619 22.1104 10.0933 21.9203 9.87927 21.8091C9.75504 21.7439 9.45798 21.5842 9.42322 21.7563L9.63708 21.9165C8.56313 21.4202 7.46619 22.1416 7.36169 23.2876L7.44763 23.8384C7.31511 22.885 7.81932 22.0066 8.8363 21.9712C8.70668 22.1253 8.47476 22.1491 8.30603 22.2671C8.00389 22.478 7.79664 22.8307 7.7406 23.1958C7.56728 24.3181 8.59476 25.0232 8.93005 25.9614C9.1164 26.4837 9.06072 26.8895 9.17029 27.3765C9.38892 28.3522 10.3539 27.9906 10.1722 27.1499L10.3851 27.23C10.2041 26.8196 10.0965 26.5552 9.70837 26.3052C9.48818 26.1634 9.14432 26.1336 9.11365 25.8276C9.08336 25.5221 9.53146 25.7095 9.70642 25.7739C10.0101 25.8859 10.2012 26.0208 10.3324 26.3237L10.225 26.3755L10.4379 26.7515C10.4218 26.9884 10.3084 26.5494 10.224 26.6431C10.3858 26.9729 10.4457 27.319 10.4388 27.6841L10.5453 26.9897C10.7087 27.6164 10.6393 28.4324 9.84412 28.5024C9.59569 28.5247 9.35683 28.4092 9.11072 28.4282C9.09758 28.196 8.88065 28.2648 8.99646 28.0562L8.89099 28.1108C8.89112 28.055 8.92549 28.0032 8.91248 27.9458C8.87016 27.7596 8.69165 27.5266 8.63708 27.3228C8.52741 26.9124 8.49927 26.4852 8.30212 26.0825L8.19568 26.1636C8.05839 26.0332 8.17402 25.8128 7.95544 25.7085L7.90271 25.8159C7.74085 25.7552 7.32841 25.1332 7.17029 24.978C7.15645 24.9643 7.07545 25.0175 7.04919 24.9644L7.02185 24.8003L6.8158 24.8501C5.76712 23.4845 6.52207 21.3801 8.19373 20.9819C9.8261 20.5932 10.9001 22.2179 12.2963 21.8813C13.1807 21.668 13.3652 20.723 13.3744 19.9429L13.5765 20.5151ZM17.056 22.7788C17.0568 22.7769 17.0582 22.7749 17.059 22.7729C16.6648 23.1725 16.2071 23.5568 15.6703 23.7593C14.5389 24.1863 13.117 23.7873 12.2279 24.8003C11.5413 25.5835 11.6445 26.5389 11.8431 27.481L12.0404 28.1636C12.0406 28.1587 12.0393 28.1538 12.0394 28.1489L12.0443 28.1636C12.0619 27.7156 11.8733 27.3098 11.8334 26.855C11.7521 25.9275 11.8814 25.073 12.723 24.5444C13.6903 23.938 14.7679 24.2384 15.8187 23.7974C16.2728 23.6071 16.8787 23.2477 17.0629 22.7729C17.0608 22.775 17.0581 22.7767 17.056 22.7788ZM27.1517 26.5093C27.273 26.317 27.6038 26.4274 27.7572 26.5171C28.1928 26.7725 28.2933 27.3422 27.9799 27.7388C27.8901 27.8523 27.5421 28.0993 27.4193 28.0034C27.4114 27.9967 27.349 27.8397 27.4164 27.8159L27.7386 27.6851C27.5776 27.7157 27.3182 27.8161 27.2054 27.6313C27.4493 27.704 27.5277 27.3467 27.7386 27.4702L27.6302 27.2837L27.7416 27.2271C27.6878 26.905 27.4891 26.5822 27.1517 26.5093ZM16.4164 25.0669C16.3581 25.3814 16.2314 25.6788 16.2045 26.0024C16.1975 26.0872 16.1582 26.3658 16.2562 26.4019C16.2501 26.0758 16.3167 25.6053 16.4916 25.3276C16.5358 25.2572 16.498 25.2006 16.6302 25.228C16.5482 25.7473 16.3968 26.0821 16.5502 26.6167C16.8425 27.6367 18.0271 27.8584 18.6869 27.0435C18.895 26.9557 18.6542 27.5426 18.6078 27.605C18.3792 27.9101 17.8139 27.9204 17.4564 27.8989C16.947 27.869 16.5482 27.6369 16.1761 27.3101L16.3099 27.5503C16.1757 27.6285 15.975 27.2591 15.9252 27.1333C15.6853 26.5295 15.7203 25.627 16.1498 25.1216C16.0186 25.5219 15.9167 25.888 15.9427 26.3159C15.9466 26.3789 15.9735 26.648 16.0433 26.6694C16.0678 26.4079 16.0096 26.0951 16.0433 25.8413L16.0609 25.7544C16.116 25.5332 16.2714 25.1952 16.4164 25.0669ZM19.9945 25.2817C19.9829 26.1168 19.5662 26.8939 19.5668 27.7358C19.4744 27.7477 19.5171 27.6147 19.514 27.5503C19.5095 27.4285 19.5079 27.3049 19.5209 27.1831L19.9945 25.2817ZM22.6273 26.3608C22.9679 27.1173 23.5627 27.4064 24.3207 27.6304C24.2525 27.7568 23.9312 27.6033 23.8265 27.564C23.0303 27.2663 22.5242 26.7408 22.4535 25.8687L22.6273 26.3608ZM26.0306 27.311C26.0224 26.8708 26.6951 26.5402 27.0433 26.8569C26.8478 27.0264 26.6355 27.1824 26.4261 27.3335C26.3665 27.3767 26.323 27.5046 26.1908 27.4712V27.2573L26.0306 27.311ZM3.84802 24.8003C3.33415 23.3934 4.70351 22.2094 6.06287 22.5591H6.06189C6.07237 22.8352 5.65675 22.6994 5.63611 22.7183C5.62078 22.7413 5.67105 22.8406 5.59998 22.8813C5.47359 22.9545 5.33145 22.8674 5.24255 22.8765C5.1848 22.8851 4.55008 23.4337 4.46228 23.5474C4.39185 23.6385 4.29213 23.7692 4.25818 23.8765C4.2436 23.924 4.20811 24.0676 4.30017 24.0522C4.38927 23.7776 4.60673 23.356 4.94177 23.3599C4.51681 23.6483 4.35803 24.0878 4.46228 24.5864L4.58044 23.9858C4.62217 23.9369 4.80988 23.6052 4.88806 23.6802C4.68812 23.9326 4.59746 24.3204 4.78064 24.6147C4.99928 24.9653 5.38602 24.8144 5.7113 24.8589C6.45124 24.959 6.83263 25.9783 6.24841 26.5083C5.92031 26.8064 5.88873 26.5528 5.67029 26.5757C5.6368 26.5795 5.26184 26.7045 5.23572 26.7222C5.0317 26.8886 5.05771 27.2414 5.07458 27.4692C4.71789 27.2076 4.75637 26.5861 5.13611 26.356C5.40331 26.1943 6.18714 26.2557 5.95935 25.6782C5.80055 25.2758 5.33985 25.4034 4.99548 25.3882L5.20837 25.4937C4.91079 25.5504 4.72127 25.4244 4.4613 25.3354L4.91443 25.6548C4.37917 25.6532 4.02067 25.2742 3.84802 24.8003ZM15.8304 25.3345C15.629 25.9352 15.6503 26.5319 15.7758 27.1479C15.6666 27.089 15.5943 26.8441 15.5775 26.7358C15.5108 26.3049 15.5432 25.679 15.8304 25.3345ZM29.1254 23.3579C29.0115 23.7004 28.922 23.9977 28.9662 24.3687L29.1224 23.7563L29.3383 23.4653C29.1841 23.9869 29.1422 24.4651 29.5492 24.8823C30.2833 25.6341 31.1314 24.8158 31.8119 25.2358C32.4109 25.6063 32.3142 26.4563 31.6879 26.7212C31.8433 26.5395 31.8834 26.3507 31.8451 26.1108C31.7361 25.4393 30.9316 25.897 30.4896 25.9233C30.2066 25.9402 29.5764 25.8903 29.3392 25.7339C29.185 25.6319 29.4065 25.6878 29.392 25.6011L28.8842 25.1743L28.9652 25.3862C28.8555 25.4698 28.5109 24.9503 28.4633 24.8481C28.2631 24.4233 28.2894 24.0107 28.432 23.5728C28.5228 23.5594 28.4884 23.699 28.4838 23.7573C28.4707 23.9383 28.4114 24.0836 28.4535 24.2837C28.4649 24.3374 28.4602 24.4389 28.5375 24.4253C28.4923 24.051 28.612 23.7453 28.7523 23.4116C28.8801 23.4645 28.7138 23.7083 28.7025 23.8159C28.6872 23.9738 28.6846 24.1874 28.6976 24.3462C28.703 24.4083 28.7145 24.5854 28.8051 24.5854C28.7989 24.1728 28.7642 23.6332 29.1254 23.3579ZM15.4291 25.6011C15.5502 25.723 15.4154 25.9478 15.4037 26.1089C15.3892 26.3112 15.4113 26.5169 15.4017 26.7192L15.2914 26.2681L15.4291 25.6011ZM18.8754 23.6802C19.021 24.5853 18.901 25.5007 18.3412 26.2417L18.2347 26.2153L18.3939 25.7612L18.1273 26.188L17.9691 26.1079C18.137 25.9483 18.2514 25.6717 18.2875 25.4409L18.0375 25.854C17.8127 26.0504 17.5225 26.4045 17.2211 26.3755C17.494 26.2213 17.7365 26.0075 17.8607 25.7085C17.6345 25.9209 17.3865 26.0934 17.0844 26.187C16.9289 26.1855 16.9693 26.1825 17.0765 26.1235C17.2183 26.0453 17.3366 25.9445 17.434 25.8149L16.9789 25.9741C16.9169 25.754 17.2765 25.6044 17.433 25.4126C17.8085 24.9508 17.9145 24.36 17.9681 23.7856C18.1399 23.828 18.0971 24.4799 18.1547 24.48L18.3412 23.7856V24.7466C18.624 24.5233 18.3655 23.9936 18.6078 23.7856C18.7182 24.1876 18.6101 24.5496 18.6078 24.9331C18.6077 24.9946 18.5722 25.1333 18.6615 25.1206L18.8754 23.6802ZM19.0902 23.7856C19.1432 23.7638 19.1946 23.9075 19.1957 23.9194C19.1957 24.1701 19.2209 24.4794 19.1957 24.7202C19.1788 24.8749 18.9948 25.586 18.9125 25.6899C18.9063 25.6976 18.772 25.7914 18.7689 25.7339C18.9806 25.108 19.1048 24.4507 19.0902 23.7856ZM19.4594 23.9468C19.4663 24.4337 19.4278 24.9348 19.2455 25.3872C19.145 25.3987 19.2119 25.284 19.2191 25.228C19.2506 24.985 19.3118 24.7437 19.347 24.5015C19.3707 24.335 19.2946 24.0465 19.4594 23.9468ZM26.1937 24.2378C26.0658 22.4182 27.672 21.1504 29.4203 21.7065C30.1756 21.9476 30.6872 22.6116 31.2885 23.0933C31.4871 23.3962 31.4357 23.7796 31.5023 24.1079C31.536 24.2741 31.6914 24.5518 31.6888 24.6694C31.685 24.8528 31.535 24.7662 31.4437 24.6733L31.4418 24.6753C31.3329 24.5656 31.2178 24.3169 31.2094 24.1597L31.1019 24.3726C30.8708 24.2818 30.9806 23.9258 30.9086 23.7847C30.8602 23.6896 30.7114 23.621 30.6615 23.5015C30.6301 23.4271 30.6671 23.3197 30.6517 23.3013C30.6096 23.2515 30.5003 23.2697 30.474 23.2407C30.4526 23.2169 30.4622 23.0858 30.3871 22.98C29.965 22.3837 28.782 22.2175 28.1322 22.4419C26.8419 22.8868 26.8158 24.3055 27.4203 25.3335C26.6342 25.153 26.6496 24.0452 26.8597 23.4116C26.9288 23.2038 27.0478 23.0768 27.1 22.8774C26.484 23.4789 26.5818 24.3486 26.7797 25.1196C26.6938 25.0635 26.6107 24.8563 26.5785 24.7612C26.3875 24.2013 26.473 23.8075 26.6195 23.2515C26.2929 23.671 26.3345 24.2402 26.3529 24.7456C26.244 24.6758 26.2029 24.3636 26.1937 24.2378ZM9.16052 24.4868C9.38969 24.3482 9.3988 24.5393 9.53455 24.6099C9.63038 24.6596 9.73637 24.6655 9.83142 24.7153H9.8324C9.90049 24.7513 9.97529 24.8408 9.90564 24.9067L10.225 24.854C10.1874 25.1217 9.63828 25.123 9.43494 25.0317C9.34689 24.9919 9.38596 24.9112 9.33337 24.856C9.19147 24.7079 9.14288 24.7614 9.16052 24.4868ZM8.35876 22.9858C9.30238 23.1086 10.8964 23.4578 10.5453 24.7456L10.5463 24.7466L10.226 24.6392L10.2787 24.4253C10.235 24.512 10.0821 24.3766 10.0775 24.3628C10.0547 24.2938 10.2004 24.2204 9.90173 24.0786C9.71306 23.9889 9.79571 24.017 9.63708 23.9204C9.4784 23.8238 9.07412 23.6687 8.88904 23.6011C8.7272 23.5412 8.52787 23.495 8.35681 23.4644C8.37695 23.2775 8.6758 23.4617 8.6781 23.3843L8.34998 23.2271L8.35876 22.9858ZM13.4799 23.8931C13.1987 23.9158 12.8795 23.9948 12.6107 24.1411C12.5032 24.1995 12.4033 24.2681 12.3177 24.3491C12.2749 24.3897 12.2358 24.4335 12.2006 24.48L12.7875 24.1333L13.4818 23.894C13.4793 23.8942 13.4765 23.8938 13.474 23.894L13.4799 23.8931ZM25.6049 14.7339C25.7359 14.987 25.6024 15.2327 25.8685 15.4321L25.7611 15.4849C25.9536 15.7088 26.1263 16.3147 26.0697 16.5933C26.0406 16.7373 25.8986 16.8702 25.8715 17.0356C25.7587 17.739 26.4271 19.1689 26.6674 19.8657C26.6551 20.2147 26.3238 20.2859 26.0277 20.2622L26.1879 20.0493C26.0321 19.9988 25.7811 20.0598 25.7328 19.8872L25.6 19.8892L25.6537 19.9946L25.2025 20.105L25.1439 19.9907L24.7797 20.0981C24.552 19.941 24.831 19.8179 24.9056 19.6753C24.5609 19.7383 24.442 20.0135 24.4779 20.3423C24.5377 20.8883 25.0845 20.5834 25.1761 20.6567C25.236 20.7051 25.2447 21.0037 25.4135 21.062L25.5199 20.7964L25.7074 21.1685C25.5103 21.2375 25.4328 21.176 25.2533 21.1108C24.6651 21.1884 24.2249 21.6776 23.6781 21.8901C24.2465 22.167 24.8922 21.4941 25.4437 21.9526C25.6524 22.6583 24.6273 22.0603 24.3187 22.4243L24.4789 22.396L24.5267 22.606L24.4261 22.6636H24.639L24.5326 22.8247C25.0801 22.9422 25.384 23.4139 25.1449 23.9507H25.016L25.0121 24.106L24.8519 24.0522L24.7455 24.2661L24.639 23.9985L24.5863 24.3716L24.3724 23.9448C24.3303 24.066 24.5519 24.4065 24.3187 24.3726L24.1576 23.7856C24.1125 23.9636 24.3239 24.2175 24.1049 24.3188C24.0405 24.134 24.0065 23.9359 23.9506 23.7495C23.9247 23.6622 23.9934 23.5995 23.8373 23.6255C23.8641 23.7788 23.9243 23.9224 23.9427 24.0796C23.9504 24.1449 23.9859 24.4127 23.891 24.4253C23.7775 24.1607 23.7542 23.8623 23.6791 23.5962C23.6584 23.5234 23.673 23.4302 23.5707 23.4116L23.6498 24.3726L23.3558 23.1987V24.0796C23.3561 24.1174 23.474 24.2638 23.3832 24.3198C23.3103 24.2584 23.2799 24.1557 23.2631 24.0659C23.033 22.8648 22.9843 21.5379 22.9828 20.3169C22.8901 20.3046 22.933 20.4379 22.9301 20.5024C22.9117 20.9465 22.944 21.3946 22.9271 21.8394L23.1439 24.1851C23.0128 24.3016 23.0061 24.0404 22.9916 23.9644C22.7323 22.6356 22.8257 21.2253 22.7152 19.8882C22.6226 19.8759 22.6653 20.0091 22.6625 20.0737C22.608 21.4299 22.75 22.8348 22.8773 24.1841C22.7968 24.247 22.7368 23.9353 22.7299 23.9038C22.4522 22.5866 22.621 21.1716 22.5013 19.8345L22.3959 20.4487C22.4304 21.6753 22.4249 22.9155 22.6097 24.1313C22.5438 24.2073 22.4698 23.9243 22.4652 23.9028C22.3348 23.3819 22.3064 22.5976 22.2865 22.0522C22.2582 21.2691 22.3748 20.4321 22.2084 19.6743L22.2367 24.0522C21.9498 22.5463 22.1331 20.9873 22.0219 19.4614C21.9391 19.4476 21.9595 19.5586 21.9496 19.6177C21.9312 19.7304 21.9183 19.9528 21.9144 20.0718C21.8837 21.0859 21.9335 22.107 21.9711 23.1157C21.978 23.3058 21.9758 23.5154 21.9681 23.7056C21.9658 23.77 22.0081 23.904 21.9154 23.8911C21.6846 22.3401 21.8977 20.7549 21.7543 19.1938L21.6439 20.1294L21.7035 23.1685L21.6488 23.731C21.4302 22.4998 21.5829 21.2163 21.5453 19.9683C21.5353 19.6377 21.4678 19.3138 21.4877 18.981L21.3793 19.646L21.4349 23.6782L21.2748 23.3315V18.9009C21.2733 18.8905 21.2029 18.8176 21.1693 18.8208C21.1102 20.4134 21.0625 22.0314 21.1683 23.6255C21.0886 23.6385 21.1021 23.5254 21.0883 23.4663C21.0538 23.3167 21.0162 23.1115 21.0062 22.9604C20.9272 21.736 20.9257 19.9095 21.0062 18.686C21.0104 18.6199 21.1049 17.8084 21.222 17.9683V18.5015L21.3275 18.0054L21.5961 17.8608L21.5433 18.0737L21.7308 17.9761L21.8978 18.1851C22.2913 18.0027 22.4492 18.3665 22.7552 18.5444C23.164 18.7821 23.5369 18.8296 23.9994 18.7153L23.9467 18.8745C24.5109 18.7239 24.8333 18.1918 25.4935 18.3413C25.4939 18.2703 25.238 18.2409 25.1947 18.2407C25.0635 18.2407 24.9359 18.3136 24.8002 18.2876C24.9085 18.1323 25.1632 18.1167 25.3334 18.1274L25.0668 18.0737L25.2797 17.9146L24.8002 18.0483L25.3871 17.7544L24.9066 17.8071L25.3344 17.5933L25.1742 17.4868C25.1592 17.3805 25.264 17.3471 25.2816 17.2437C25.4158 16.4602 23.7264 16.4326 23.2406 16.4878C22.5034 16.5714 21.8453 16.9507 21.1703 17.2192L22.2914 16.5796C22.1604 16.5651 22.053 16.6474 21.932 16.6743C21.8783 16.6866 21.7435 16.7275 21.7572 16.6333C22.242 16.4691 22.7313 16.2844 23.2513 16.2583C23.251 16.165 23.0178 16.1988 22.9554 16.2026C22.6956 16.2188 22.4399 16.2938 22.1869 16.3413C22.1316 16.3521 22.0121 16.4113 22.0248 16.313L23.4125 15.9917H22.6381C22.5968 15.9921 22.322 16.1441 22.2914 15.9917C22.4648 16.0016 22.7622 15.8306 22.9056 15.8306H23.6791V15.7778C23.6128 15.7982 23.5252 15.725 23.4926 15.7241H22.6644C22.6617 15.6463 22.8551 15.644 22.9193 15.6333C23.2415 15.5819 23.5161 15.5776 23.8383 15.6167C23.8589 15.5604 23.6644 15.5117 23.6517 15.5112H22.8783C22.8692 15.3793 22.8661 15.4205 22.9594 15.4067C23.3066 15.3554 23.5993 15.3457 23.9467 15.4048C23.9575 15.3294 23.8002 15.3224 23.7455 15.314C23.6258 15.2956 23.5088 15.3086 23.3929 15.2925C23.3116 15.2818 23.0714 15.2662 23.0394 15.1929C23.4191 15.1331 23.7333 15.1603 24.1068 15.2446C24.0974 15.1657 23.9154 15.1178 23.851 15.1001C23.6401 15.0426 23.4189 15.0203 23.1996 15.0317C23.1976 14.946 23.3873 14.9224 23.4418 14.9224C23.6511 14.924 23.8929 15.0218 24.1068 15.0317L23.4135 14.7651C23.7593 14.6767 24.2742 15.0209 24.5511 15.0151C24.632 15.0135 25.0268 14.9275 25.1234 14.8999C25.2624 14.8604 25.5152 14.6634 25.6049 14.7339ZM32.9193 23.2231C33.0136 23.4569 33.0248 23.5592 32.9144 23.7876L32.808 23.7603C32.9727 23.3974 32.5406 23.0011 32.8881 22.6675L32.9193 23.2231ZM20.9574 18.1294L20.8236 23.4136C20.8066 23.1483 20.7151 22.8718 20.7074 22.6089C20.6737 21.3883 20.6983 19.6903 20.7972 18.4761C20.8034 18.3969 20.8158 18.0789 20.9574 18.1294ZM20.5824 23.147L20.5472 23.1353C20.4791 23.1027 20.492 23.0245 20.476 22.9595C20.2497 22.062 20.2325 20.7425 20.2601 19.8081C20.2701 19.4667 20.2846 18.9707 20.3207 18.6401C20.3261 18.5886 20.3443 18.4391 20.4222 18.4487L20.3715 20.396C20.4413 20.9253 20.4018 21.4649 20.4232 21.9995C20.4255 22.0647 20.3833 22.198 20.476 22.1851C20.64 20.9669 20.4175 19.6898 20.5824 18.4731C20.593 18.3936 20.5896 18.3092 20.6898 18.2886L20.5824 23.147ZM28.806 22.4517C29.0376 22.4509 29.3192 22.4726 29.5385 22.5454C29.6339 22.5771 30.4251 23.0129 30.3002 23.145L29.6185 22.6792L28.806 22.4517ZM27.2572 18.4468C27.4688 18.6056 27.5106 18.9735 27.6371 19.2144C28.5991 21.0482 30.1567 20.1187 31.7416 20.5015C32.4447 20.671 32.9469 20.9091 33.0697 21.6812C33.085 21.7792 33.1351 22.4046 33.1185 22.4644C33.002 22.8545 32.5883 22.3099 32.4965 22.1489C32.3883 21.9587 32.4351 21.7274 32.2748 21.5962L32.2738 21.5972C32.1297 22.124 32.6404 22.2531 32.5961 22.7446C32.5432 23.319 31.8912 23.1237 32.0599 22.9849C32.909 22.9065 32.2748 22.2635 32.139 21.9175C32.0678 21.735 32.0869 21.5538 31.9642 21.3452C31.7786 21.0301 31.3446 20.8611 30.9926 20.9292C31.2175 21.1229 31.6949 21.0346 31.7924 21.3833C31.1788 20.8595 30.3757 21.3676 29.6586 21.2759L30.0677 21.1763L30.1918 21.063C29.598 21.1604 28.9922 21.0677 28.433 20.8452L28.4847 20.7427C28.4127 20.7342 28.3379 20.789 28.2689 20.7661C28.2244 20.7508 27.6458 20.2049 27.5775 20.1274C27.3061 19.8168 27.0778 19.3844 26.9896 18.981L27.2562 19.355L27.1508 18.8218L27.3627 19.1938L27.2572 18.4468ZM20.1 19.0366C20.1925 19.0245 20.1507 19.1577 20.1537 19.2222C20.2051 20.4565 20.1251 21.7019 20.2582 22.9302L20.1615 22.6841C20.0089 21.4775 20.0079 20.2478 20.1 19.0366ZM19.9916 22.6108C19.9086 22.6077 19.9088 22.4282 19.8959 22.3628C19.7893 21.7945 19.7371 20.9157 19.7777 20.3403C19.7838 20.2491 19.7726 20.1636 19.8607 20.103L19.9916 22.6108ZM19.5697 20.0513C19.662 20.0392 19.6197 20.1714 19.6224 20.2368C19.6523 20.9756 19.6942 21.7127 19.7279 22.4507C19.6478 22.453 19.6367 22.2653 19.6283 22.2056C19.5233 21.4924 19.5038 20.7675 19.5697 20.0513ZM19.4076 21.0923L19.4603 22.3989L19.3011 21.4644V20.4243L19.4076 21.0923ZM23.1449 21.812L23.1459 21.811V21.813C23.2254 21.8088 23.226 21.5722 23.2299 21.5083C23.2398 21.3342 23.1892 21.1335 23.2191 20.9517L23.1459 20.5366L23.1449 20.5308V21.812ZM2.0199 20.5942C1.24686 18.8889 2.58796 16.9723 4.47205 17.395C4.89445 17.4902 5.36571 17.7735 5.57068 18.1636C5.61042 18.2385 5.88085 18.8211 5.89197 18.8618C5.91573 18.9615 5.87458 19.0475 5.84314 19.1372L5.76306 19.1519C5.59487 19.1531 5.53999 18.9457 5.36755 18.9302C5.41758 19.2535 5.67225 19.2562 5.90076 19.3843C5.88815 19.6265 5.58179 19.4089 5.47791 19.3267C5.13352 19.0521 4.73722 18.0621 4.31384 17.9819C4.22498 17.9651 3.91686 17.9188 3.87244 18.021C4.22596 17.9788 4.32558 18.0369 4.5365 18.2915C4.58699 18.3529 4.60186 18.4581 4.64783 18.5063C4.69493 18.556 4.76938 18.5013 4.77673 18.5034C4.79206 18.5264 4.79617 18.7337 4.84509 18.8374C4.88637 18.9245 5.36721 19.4561 5.31384 19.5161C5.21644 19.5322 5.15443 19.4493 5.09998 19.3833C4.9151 19.1608 4.79233 18.8422 4.64197 18.6128C4.01758 17.6573 2.63789 18.4716 2.69861 19.4624L2.91931 18.9106C3.25074 18.4558 3.81904 18.144 4.35291 18.4761C4.18034 18.5006 4.03346 18.4322 3.85095 18.4536C2.64898 18.598 2.44519 20.2723 3.724 20.7065C4.78943 21.0676 5.42475 20.2304 6.23865 19.7739C7.36392 19.1436 8.59241 19.073 9.75525 19.6382C9.96169 19.7387 11.4719 20.6028 11.5277 20.6909C11.5454 20.7196 11.5079 20.786 11.5082 20.7935C11.5956 20.8548 12.0285 20.766 11.9867 20.9575C10.652 21.2268 9.76774 20.0098 8.48376 19.896C7.34935 19.7963 6.32869 20.4564 5.42126 21.0386L4.45935 21.438C5.43891 21.3988 6.15247 20.5979 7.03845 20.2534C8.08253 19.8477 9.27315 19.9942 10.1185 20.7437C9.42586 20.5005 8.89453 20.1269 8.11755 20.1567C6.14668 20.2335 4.91944 22.7681 2.73376 21.2153C2.61879 21.1332 2.48716 20.9175 2.3783 20.9839L2.59119 21.2769C2.47227 21.3942 2.05595 20.674 2.0199 20.5942ZM16.0111 20.4292C16.0011 20.3449 15.9427 20.2562 16.0707 20.3696C16.1717 20.5974 16.1112 20.8811 16.223 21.1011H16.222C16.2374 21.1317 16.3318 21.0886 16.309 21.1704C16.0567 21.2203 15.9268 21.3053 15.9896 21.5981L15.7816 21.5903C15.7494 21.2042 15.6303 21.6231 15.5101 21.7046C15.5723 21.2353 15.7502 20.8397 15.5638 20.3696C15.7914 20.494 15.6935 20.8339 15.8568 21.0103C15.913 20.8931 15.8361 20.7444 15.8275 20.6128C15.8236 20.5545 15.793 20.4102 15.8822 20.4243L16.017 21.1714C16.1698 20.962 16.0395 20.6706 16.0111 20.4292ZM15.3519 20.4771C15.4228 20.4764 15.4659 20.6354 15.4828 20.6909C15.5418 20.8841 15.6057 21.1961 15.4047 21.3306L15.3519 20.4771ZM33.2474 19.5288C33.7674 19.6372 34.0721 20.4377 33.5531 20.7446V20.7437C33.5531 20.5327 33.5938 20.3105 33.4213 20.1548C33.0977 19.8623 32.736 20.1723 32.7035 20.1519C32.6951 20.1465 32.7084 20.0799 32.6722 20.0649C32.6262 20.0458 32.4275 20.0437 32.4037 20.0015C32.3089 19.5637 32.9261 19.4621 33.2474 19.5288ZM3.39392 18.8755C3.21522 19.0887 3.03674 19.3676 3.02283 19.6567C3.01669 19.7909 3.14868 20.0354 3.02087 20.103C2.86366 19.6865 2.94286 19.0619 3.39392 18.8755ZM12.5736 18.396C12.6196 18.8731 12.3321 19.2732 12.0092 19.5923C11.7638 19.8346 11.4553 20.1125 11.0804 20.0239L11.9603 19.3569L12.5736 18.396ZM19.6732 18.2886C19.9075 18.8658 19.665 19.6811 19.0365 19.8872L19.4086 19.356C19.1631 19.6398 18.9583 19.8859 18.5795 19.9956C18.4202 19.9956 18.5302 19.9341 18.5931 19.9019C18.7642 19.8145 18.9379 19.7784 19.0345 19.5698L18.5531 19.7827L18.5804 19.6753L18.2875 19.729L18.4467 19.5698C18.3486 19.5714 18.2673 19.6159 18.1654 19.6099C18.0765 19.6045 17.9856 19.5698 18.0199 19.4634C18.4202 19.3943 18.7686 18.9693 18.7142 18.5552L18.8217 18.8208L18.8744 18.6079L19.0326 18.8208L19.0863 18.5015L19.2465 19.0884L19.1937 18.395C19.3896 18.3413 19.3074 18.7681 19.3802 18.7681L19.4594 18.395C19.5451 18.6464 19.4995 18.8339 19.475 19.0776C19.4687 19.1367 19.4123 19.2589 19.5121 19.2485L19.6732 18.2886ZM27.307 15.1929L27.3334 14.9272L27.4945 15.0864L27.5541 14.979C27.774 14.9216 27.7709 15.1354 27.8959 15.272C28.6654 16.1113 29.3183 15.7026 30.2719 15.7241C32.0561 15.7649 33.291 17.5761 32.3353 19.1802C32.1466 19.4976 31.735 19.9202 31.3646 19.9175L31.684 19.6245C31.47 19.6638 31.2626 19.9398 31.0433 19.8647L31.4174 19.5718C31.2686 19.6009 31.149 19.676 30.9926 19.7075C30.9379 19.7185 30.8177 19.7757 30.8304 19.6782C31.0767 19.6253 31.3474 19.489 31.5238 19.3042L30.7767 19.6245C30.7477 19.4789 30.813 19.533 30.8851 19.4946C31.0116 19.428 31.1576 19.3926 31.2572 19.2769L31.1498 19.2241C31.827 18.6135 31.8906 17.6941 31.2035 17.062C31.2606 17.0085 31.4559 17.2255 31.4974 17.2739C31.8579 17.6888 31.8157 18.0951 31.7904 18.6089C31.8683 18.5863 31.8927 18.3304 31.8959 18.2622C31.9242 17.7185 31.7532 17.2571 31.307 16.9312C31.2488 16.8883 30.7821 16.634 30.7494 16.6333C30.363 16.6333 29.9604 16.6142 29.5756 16.6333L29.5228 16.645C29.4652 16.6648 29.396 16.7001 29.3363 16.686C29.4533 16.5491 29.9042 16.5437 30.1097 16.5376C30.2235 16.5347 30.6007 16.6978 30.5638 16.4731C30.491 16.4179 29.0339 16.5175 28.726 16.4692C28.5412 16.4401 27.8946 16.2159 27.7367 16.1245C27.5572 16.0202 27.0072 15.1827 27.0668 14.9263L27.307 15.1929ZM19.0355 19.8892H19.0326C19.0338 19.8887 19.0353 19.8876 19.0365 19.8872L19.0355 19.8892ZM25.1732 19.4097C25.0642 19.412 24.9431 19.4265 24.8304 19.4614C24.7553 19.4847 24.6835 19.5169 24.6215 19.5601C24.5284 19.6248 24.4569 19.7148 24.4261 19.8364L24.4271 19.8345V19.8364C24.5997 19.6549 24.7262 19.6048 24.9242 19.5493C24.9609 19.5392 25 19.5284 25.0424 19.5171C25.0627 19.5117 25.0823 19.5118 25.1 19.5132C25.1193 19.5148 25.1365 19.5175 25.1498 19.5161V19.5151C25.1759 19.5124 25.1878 19.4927 25.1742 19.4097H25.1732ZM12.2006 18.2886C12.1369 18.9459 11.5699 19.6299 10.9203 19.7827L11.5599 19.2749L12.2006 18.2886ZM11.9886 18.0747C11.9616 18.7817 11.3701 19.422 10.7084 19.6216H10.7074L11.5609 18.8472L11.9886 18.0747ZM12.7885 16.5806C12.8634 16.5693 12.8917 16.7278 12.891 16.771C12.8895 16.9718 12.8256 17.1698 12.8392 17.4097C12.8991 18.423 13.6447 19.3159 14.6556 19.4634C14.6656 19.563 14.4831 19.515 14.4291 19.5034C13.0911 19.2249 12.4102 17.8587 12.7885 16.5806ZM11.5345 17.9692C11.5979 18.3425 11.2936 18.6591 11.0804 18.9282C11.194 19.0302 11.6843 18.2713 11.6683 18.1284C11.7763 18.1307 11.68 18.3689 11.6644 18.4185C11.4788 19.0029 10.9185 19.3907 10.3334 19.5151L10.4545 19.3433L10.8392 19.0884C10.5049 19.2073 10.2256 19.3604 9.85291 19.3022C9.82388 19.15 9.89335 19.2162 9.96912 19.1821C10.5435 18.9175 10.9174 18.7436 11.2142 18.1294C11.4595 18.1625 11.0663 18.4969 11.1605 18.6089L11.5345 17.9692ZM14.4447 15.9917C14.4841 16.0342 14.2103 16.351 14.1683 16.4351C13.4449 17.8996 15.0128 18.7994 16.3285 18.3276C16.9299 18.1118 17.7114 17.1777 18.4232 17.3364C18.4545 17.3446 18.4195 17.4621 18.6381 17.437C18.7698 17.4216 18.6723 17.3165 18.7689 17.3257C18.7843 17.5925 19.1686 17.3129 19.2494 17.5386C18.6481 17.7387 17.8716 17.8172 17.5677 18.4458L17.4623 18.3403C16.8157 18.9778 15.9174 19.2828 15.0131 19.187C14.8443 19.1694 14.2976 19.0485 14.141 18.9917C13.9616 18.9265 13.8319 18.749 13.6449 18.7144C14.2825 19.3731 15.4601 19.3511 16.3138 19.1938L15.9008 19.3403C15.014 19.4439 13.9545 19.3575 13.3568 18.6021C13.0216 18.1778 12.8743 17.4113 12.9633 16.8843C12.981 16.7814 13.0677 16.5319 13.1635 16.4712L13.0756 17.1685L13.1644 17.6987C13.1904 17.4389 13.1293 17.123 13.1644 16.8716L13.1635 16.8726C13.1835 16.733 13.2888 16.5092 13.4037 16.4194C13.4796 16.4962 13.2689 16.7534 13.4301 16.7925C13.4157 16.7487 13.5374 16.2357 13.6439 16.3657C13.6846 16.4156 13.4255 16.7853 13.5902 16.8452C13.5421 16.7414 13.8638 16.1927 13.9115 16.2583L13.9379 16.4175L14.4447 15.9917ZM15.9935 18.9829C15.7521 18.9308 15.4864 19.0311 15.2709 19.0366C15.1406 19.0405 14.8882 18.9048 14.8197 19.0347H14.8246L14.8236 19.0366L15.4398 19.0923L15.9974 18.9839C15.9956 18.9835 15.9935 18.9833 15.9916 18.9829H15.9935ZM32.4847 16.686C33.7833 16.0688 34.734 17.9212 33.8539 18.8013V18.8022C33.6145 19.0414 33.1658 19.2143 32.9135 18.9009C34.0061 18.9741 34.1528 17.8233 33.4486 17.189C33.4338 17.1763 33.1783 17.0041 33.1595 16.9966C32.9002 16.9091 32.5868 17.0343 32.4847 16.686ZM28.2455 17.3804L28.1664 17.1138C28.2674 17.0804 28.3382 17.1854 28.4056 17.1938C28.4907 17.2052 28.5871 17.1244 28.7006 17.1919C28.7535 17.224 28.8471 17.4348 28.9144 17.5122C29.4875 18.1658 29.9684 18.3332 30.8353 18.0747L30.6215 18.3403L30.8353 18.3677C30.3521 18.7512 29.8352 18.6672 29.2875 18.5015L29.7455 18.7104L30.6752 18.6616C30.6276 18.7598 30.3642 18.8059 30.2689 18.8159C29.4979 18.8949 29.1455 18.6698 28.5931 18.1812C28.6146 18.2134 28.607 18.3038 28.6429 18.356C28.7027 18.4418 28.9291 18.5168 28.9672 18.6606L28.5121 18.3423L27.7933 17.2739C27.8574 17.2082 28.4052 18.0729 28.4642 18.1274C28.5194 18.1777 28.5847 18.1745 28.5931 18.1821V18.1812C28.4059 17.8981 28.0936 17.5236 27.9486 17.2505C27.9217 17.2006 27.8517 17.0977 27.9252 17.0601L28.2455 17.3804ZM25.4935 18.5024C25.084 18.356 24.687 18.475 24.4261 18.8208L24.4271 18.8198L24.4261 18.8218L24.891 18.5669L25.4935 18.5024ZM2.51013 14.4995C2.77501 13.8179 3.67505 13.7276 4.31091 13.8188C4.87688 13.9012 5.46381 14.4431 5.67322 14.9653C6.04217 15.8866 5.55118 17.1208 6.57654 17.6909C8.28426 18.6391 9.76144 16.3819 11.3441 16.1011L10.8636 16.4204C11.0485 16.4104 11.1988 16.3031 11.3851 16.2739C11.4421 16.2645 11.5688 16.2181 11.557 16.313L10.597 16.7407C10.9528 16.6754 11.265 16.4385 11.6361 16.4185C11.6944 16.4154 11.7853 16.3908 11.7709 16.4741L10.8636 16.8472C11.0775 16.8471 11.2802 16.7265 11.4818 16.6919C11.5356 16.6827 11.6777 16.6496 11.6635 16.7397C11.0645 16.9315 10.4509 17.1979 10.0092 17.6479C10.5292 17.3319 11.0859 16.9561 11.7172 16.9546L11.056 17.228C10.8874 17.3537 10.6835 17.4254 10.5072 17.5327C10.3132 17.6508 9.89475 18.0253 9.76794 18.0747C9.51911 18.1718 9.97311 17.6848 10.0092 17.6479V17.647C9.62946 17.8779 9.31396 18.1563 8.89978 18.3267C8.59072 18.4539 8.24828 18.5065 7.94763 18.6567L7.82166 18.5552C7.89896 18.6732 7.45586 18.7202 7.4281 18.7134C7.38936 18.703 7.39558 18.6105 7.35974 18.605C7.27841 18.5929 7.1432 18.6765 6.99841 18.6597C6.85351 18.6426 6.66993 18.4865 6.4906 18.4956C6.56772 18.1165 6.26103 18.2116 6.03943 18.0669C5.93746 18.0002 5.92903 17.9178 5.86853 17.8618C5.80806 17.806 5.71877 17.8207 5.68103 17.772C5.62346 17.6951 5.4719 17.2833 5.44275 17.1675C5.37386 16.8954 5.35601 16.5927 5.36365 16.313C5.24669 16.3641 5.25587 16.6977 5.25818 16.8159C5.25982 16.9202 5.38943 17.1729 5.25818 17.2192C5.08798 16.7016 5.19521 16.2007 5.20447 15.6724C5.23386 15.6138 5.38503 16.0558 5.36365 15.8071C5.34909 15.6408 5.3451 15.3929 5.15076 15.4575L5.20837 15.1704L5.09509 15.1069L5.15173 14.978L4.99158 15.0308L5.04041 14.8755C4.72466 14.6685 4.62544 14.5136 4.21912 14.5005C3.40246 14.4744 3.79447 14.7099 3.52185 15.2964C3.39766 15.5616 3.05463 15.8522 2.9906 15.9927C2.88169 16.2327 3.04997 16.7822 2.64294 17.0063C2.5863 16.8139 2.77409 16.6937 2.80017 16.5503C2.82995 16.3886 2.77377 16.222 2.82654 16.0435C2.89882 15.798 3.29939 15.5136 3.43591 15.2114C3.53701 14.9861 3.5858 14.7438 3.60193 14.4985C3.33189 14.6775 3.49254 15.1474 3.17615 15.2993L3.12341 15.1392C3.01149 15.3193 2.81296 15.8864 2.64197 15.9653C2.47097 16.0435 2.30713 15.9919 2.28552 15.8003C2.26802 15.6433 2.44188 14.6751 2.51013 14.4995ZM5.1908 18.0874C5.17869 18.0888 5.16659 18.0923 5.15466 18.0981C4.94135 18.2039 5.10153 18.4785 5.28943 18.4849C5.33317 18.4872 5.37864 18.4763 5.42126 18.4438C5.47863 18.3333 5.33173 18.0656 5.1908 18.0874ZM23.0375 17.896C23.2125 17.7971 23.572 17.7212 23.7377 17.8853C23.7975 17.9446 23.8948 18.2361 23.8812 18.3101C23.832 18.5711 23.0074 18.4497 22.8402 18.2749V18.2739C22.6237 18.048 22.9075 18.0698 22.9213 18.0591C22.9583 18.028 22.9596 17.9395 23.0375 17.896ZM15.0316 17.9126C14.8921 15.9687 17.3547 14.9629 18.4955 16.6245V16.6255C18.2646 16.8541 17.9276 16.5371 17.6361 16.4565C17.2758 16.3577 16.9859 16.3199 16.6332 16.4731L17.3929 16.4858C17.5693 16.5341 17.8107 16.5663 17.9135 16.7388C16.9001 16.257 16.1081 16.8512 16.0443 17.9136C15.9525 17.8902 15.9344 17.6384 15.9359 17.5679C15.9422 17.3639 16.0996 17.2071 16.098 17.0054C15.8895 17.1602 15.8619 17.5123 15.8304 17.7524L15.722 17.6714L15.726 17.2729L15.5111 17.9663L15.3519 17.6997L15.2455 18.02L15.1908 17.646L15.0316 17.9126ZM22.7699 13.9644C22.5114 15.5416 21.0263 17.045 19.3539 16.7935L20.2191 16.6714C21.0359 16.4764 21.6204 16.0001 22.0453 15.2944C22.3037 14.8657 22.4624 14.3578 22.7699 13.9644ZM22.1576 14.1245C22.2272 14.1598 22.1597 14.2713 22.142 14.3228C21.9587 14.8633 21.6753 15.4214 21.2767 15.8325L21.3744 15.7671C21.8435 15.4238 22.055 14.8104 22.2924 14.2847C22.4013 14.2821 22.3268 14.4921 22.309 14.5425C22.2369 14.7411 22.0045 15.1578 21.8871 15.3481C21.3348 16.2418 20.0192 16.881 18.9828 16.5269H19.809C20.362 16.4631 20.8881 16.2352 21.2777 15.8325C20.453 16.3319 19.6895 16.6802 18.7152 16.312L18.8754 16.2065L18.5502 16.1255C18.583 15.8849 18.2748 16.0373 18.182 15.8325C18.8692 15.8042 19.5855 15.8266 20.1937 15.4692C20.6332 15.2107 20.9943 14.761 21.1722 14.2847C21.3452 14.3422 21.219 14.4785 21.225 14.605L21.4916 14.2847L21.3578 14.8179L21.7045 14.231V14.605L21.9174 14.231C21.9212 14.5661 21.711 14.8459 21.556 15.1235C21.53 15.1703 21.4381 15.2571 21.517 15.2993L22.1576 14.1245ZM6.32751 13.1099C7.51423 13.5748 6.40053 14.8468 7.60876 15.3784C8.53856 15.7873 9.46835 15.2139 10.224 14.7114L10.1185 14.9243L10.4379 14.8452L10.1185 15.1919C10.1761 15.2343 10.7071 14.7585 10.598 15.0044C10.4406 15.358 9.37018 16.0118 8.98572 16.1147C8.49715 16.2451 8.10191 16.1994 7.60876 16.1802C8.29898 16.4645 8.97722 16.2635 9.59998 15.9292C9.88531 15.7757 10.3762 15.3225 10.5726 15.2456C10.6406 15.219 10.6706 15.256 10.6517 15.3247C9.93069 15.999 8.95902 16.5648 7.9281 16.397C7.8253 16.3801 7.11678 16.1398 7.08533 16.0884C7.05863 16.0446 7.09387 15.9507 7.06091 15.9009C6.96873 15.7629 6.70483 15.5793 6.59509 15.4321C6.38271 15.1469 6.25796 14.7975 6.22107 14.4448C6.04004 14.5062 6.35917 14.8715 6.11462 14.8179C6.074 14.5748 6.05492 14.3427 6.05798 14.0942C6.05969 13.9946 6.11768 13.8873 6.11462 13.8345C6.1128 13.804 6.0332 13.8049 6.02478 13.7896C5.88209 13.5277 6.2068 13.5122 6.35095 13.7544C6.53351 14.062 6.45532 14.5522 6.58337 14.9097C6.67089 15.1535 6.93418 15.4932 7.18103 15.4858C6.5366 14.9772 7.02263 14.1786 6.63904 13.5718C6.54231 13.4192 6.32828 13.3169 6.32751 13.1099ZM30.2504 16.2466C30.0385 16.2531 29.8247 16.3099 29.6322 16.314C29.3565 16.3195 29.0843 16.2957 28.8119 16.2876L28.5385 16.2866C28.5372 16.2867 28.5358 16.2866 28.5345 16.2866C28.7189 16.3536 28.9113 16.3683 29.1058 16.3696C29.2026 16.3704 29.2998 16.3685 29.3969 16.3667C29.4936 16.3649 29.5903 16.3639 29.6859 16.3687V16.3677L29.6888 16.3687L30.4603 16.2603H30.4594C30.3905 16.2477 30.3204 16.2443 30.2504 16.2466ZM10.8099 15.4058C10.8751 15.4805 10.3725 15.8746 10.2943 15.9312C10.0535 16.1053 9.71296 16.316 9.42224 16.3667L10.0795 15.9839L10.8099 15.4058ZM10.6508 13.3755C10.9093 13.6915 11.0432 14.0894 11.2787 14.4292C11.7427 15.098 12.338 15.5089 13.1586 15.6187H13.1595C13.1227 15.736 13.0983 15.7056 13.014 15.688C11.7152 15.4256 11.0083 14.6252 10.6508 13.3755ZM23.6625 11.1431C24.6207 10.5441 26.1914 10.8953 26.5267 12.0513C26.6847 12.5959 26.5115 13.0417 27.0424 13.4575C27.4297 13.7603 27.886 13.8 28.3392 13.6313C28.8554 13.4387 29.1869 12.8109 29.7299 12.5132C31.4297 11.5821 33.7135 13.0156 32.7845 14.9263C32.7147 15.0697 32.475 15.4903 32.3285 15.4321C32.4098 15.3018 32.5112 15.1805 32.5795 15.0425C32.5997 15.0022 32.7069 14.8383 32.5697 14.8716C32.3925 15.0741 32.1925 15.4634 31.9271 15.564C31.8354 15.5983 31.82 15.4921 31.848 15.4595C31.8694 15.4362 32.1954 15.3432 32.0883 15.1909C31.6939 15.5753 31.1822 15.6648 30.6605 15.4976C30.2126 15.3541 29.5507 15.0394 29.0736 14.8423C29.0161 14.8185 28.8166 14.7725 28.8588 14.6851C28.87 14.6652 29.1337 14.4647 29.1635 14.4556C29.7181 14.2935 30.5442 15.083 31.2513 14.8882C31.46 14.8306 31.6683 14.6637 31.8861 14.5854C31.9049 14.5778 31.9008 14.5029 31.9252 14.5044C32.0479 14.5107 32.2088 14.6464 32.2211 14.3911L32.1156 14.3384L32.2777 14.3052C32.3864 14.007 32.1301 13.8443 32.2211 13.5913L32.0619 13.6968C32.1067 13.5025 31.8682 13.5265 31.9008 13.3237L31.7416 13.4302L31.6908 13.2397C31.4416 13.2581 31.2123 13.1263 30.9662 13.1108C30.3525 13.0717 29.855 13.3771 29.3656 13.6978C29.3949 13.5537 29.6171 13.4612 29.7299 13.3677C29.7775 13.3285 29.9018 13.2624 29.7396 13.27C29.3693 13.4204 29.0564 13.8576 28.7474 14.0396C28.0501 14.4492 27.4361 14.3063 26.7894 13.9243C26.6844 13.8622 26.6141 13.7498 26.5092 13.6968C26.5444 13.7689 26.5371 13.8614 26.6429 13.9097L27.2562 14.2837C27.0493 14.3649 26.36 13.8362 26.35 13.7241C26.3432 13.63 26.454 13.6692 26.5092 13.6968L26.4496 13.5649C26.3189 13.2528 26.2465 12.9058 26.1888 12.5757L26.0297 12.7358C25.9146 11.9053 25.2391 11.4615 24.4301 11.7495C24.2859 11.8009 24.1974 11.9143 24.0541 11.9351C24.078 11.6821 24.4043 11.6667 24.5853 11.5854L25.3353 11.562C24.7485 11.3772 24.1623 11.5324 23.7074 11.9351L23.6537 11.7739C23.5018 11.7601 23.4372 12.0133 23.3597 11.9351C23.2773 11.8514 23.7379 11.618 23.7338 11.5083L23.2533 11.7202C23.2139 11.4742 23.464 11.2673 23.6625 11.1431ZM3.60583 12.23C2.97631 11.0916 4.18691 9.4311 5.45642 10.0054C5.96799 10.237 6.25056 11.0644 5.79529 11.4565C5.87042 11.202 5.87998 11.0346 5.73962 10.8022C5.53468 10.4644 5.03851 10.3997 4.68884 10.5376C4.29234 10.6941 4.1463 11.2237 4.19373 11.6157L4.36072 11.063L4.72693 10.8696C4.19092 11.2969 4.36398 11.9721 4.99353 12.1763C5.7484 12.4202 6.44183 11.7958 7.09314 11.5005C8.75088 10.7496 10.33 11.0326 11.5052 12.4448C12.0699 13.123 12.3536 14.127 13.3724 14.3149C14.6834 14.5564 15.5894 13.1431 17.3676 13.5757C17.9512 13.7176 18.8119 14.3976 19.3129 14.3267C19.5414 14.2936 19.7344 14.0912 19.9935 14.2329C20.0035 14.3048 19.9961 14.3677 19.9467 14.4243C19.8715 14.5094 19.7319 14.4551 19.7279 14.5522H20.1283L19.4603 14.7671L19.8871 14.8726C19.5143 14.9907 19.1856 14.8845 18.8197 14.8208L19.514 15.0864C19.0583 15.0834 18.5653 14.9568 18.2592 14.6069C18.2369 14.8386 18.6336 14.9872 18.807 15.0747C18.9211 15.1321 18.9349 15.143 18.7963 15.1392C18.4834 15.1108 18.1713 14.7559 17.9388 14.6606C17.9143 14.6507 17.8515 14.6473 17.8597 14.687L18.2328 15.0073C18.0909 15.0334 17.8881 14.8389 17.7347 14.7583C16.8449 14.2881 16.177 14.2785 15.2289 14.6206C14.4458 14.9029 14.2053 15.1732 13.2904 15.1479C13.2276 15.1464 13.0958 15.0976 13.1078 15.1938C14.2355 15.4952 15.1572 14.4955 16.2289 14.4448C16.7298 14.4212 17.3965 14.5576 17.7523 14.9272C17.4848 14.8559 17.1847 14.663 16.9125 14.6206C15.0797 14.3352 13.8673 16.2217 12.0453 14.8423C11.4922 14.4234 11.3435 13.7597 10.973 13.4321C11.0436 13.5694 11.0958 13.7431 11.1771 13.895C11.6957 14.8601 12.5095 15.4146 13.6234 15.4575C13.7428 15.462 13.8288 15.4162 13.9359 15.4077C13.9943 15.4031 14.1343 15.3695 14.1215 15.4604C12.8481 15.6851 11.8533 15.2291 11.1967 14.1421C11.1068 13.9931 10.8573 13.5457 10.8129 13.4038C10.8045 13.376 10.7988 13.3165 10.8383 13.3247C10.872 13.373 10.9314 13.3961 10.972 13.4321C10.7512 13.0034 10.5767 12.6427 10.1674 12.3374C10.1474 12.3228 9.77426 12.1382 9.74158 12.1265C9.05054 11.8704 8.20695 11.8266 7.55505 12.2046C8.14497 12.0397 8.9205 11.9544 9.51111 12.1431C9.58164 12.166 9.67364 12.1616 9.68982 12.2573C9.01785 12.0732 8.42435 12.0628 7.75623 12.2729C7.4872 12.3581 7.27047 12.5339 6.99451 12.5776L7.27673 12.3696C7.42701 12.381 7.50137 12.2351 7.55505 12.2036L7.55603 12.2026C7.15638 12.3146 6.84738 12.5705 6.43396 12.6304C6.54573 12.9323 6.3069 12.8317 6.16345 12.8638C6.0667 12.8862 6.07296 12.986 6.02185 13.0015C5.73574 13.085 5.02308 13.0516 4.73669 12.9673C4.3363 12.8499 3.85793 12.4998 3.7113 12.0972L3.60583 12.23ZM28.806 14.9243C29.2286 14.9382 29.5971 15.1542 29.9799 15.2983L29.7631 15.3276L28.806 14.9243ZM15.8344 14.8452L14.8207 15.1919C15.2787 14.84 15.9565 14.6963 16.5287 14.7124L15.8344 14.8452ZM2.88806 14.4663C2.82895 14.4605 2.75639 14.4968 2.70056 14.5835C2.573 14.7825 2.66816 14.9353 2.78552 14.9243C2.84092 14.923 2.90272 14.8865 2.94861 14.7983C3.05687 14.5906 2.98918 14.4686 2.88806 14.4663ZM11.5179 13.978C11.5142 13.9734 11.5099 13.969 11.5062 13.9644C11.652 14.3717 12.059 14.7778 12.4672 14.9243C12.4661 14.9235 12.4653 14.9222 12.4642 14.9214C12.4669 14.9224 12.4694 14.9243 12.472 14.9253C12.1085 14.6369 11.8005 14.3279 11.5121 13.9644C11.5138 13.969 11.5162 13.9734 11.5179 13.978ZM9.63611 13.644L9.79626 13.6968L9.47693 13.9116L9.79626 13.8579V13.9644C9.2417 14.2597 8.61844 14.4363 7.98181 14.3911C7.96924 14.3095 8.08147 14.3283 8.14197 14.313C8.34808 14.2594 8.5774 14.252 8.77283 14.1938C8.86549 14.1664 8.91252 14.2126 8.88806 14.0718C8.49633 14.2127 8.11669 14.1835 7.71423 14.1245V13.9653C8.42192 14.0188 9.0256 13.6345 9.68884 13.4849H9.68982L9.63611 13.644ZM15.1674 11.7769C16.3924 10.7483 18.0969 10.6681 19.3304 11.7212C19.6488 11.9928 20.1503 12.687 20.4779 12.8159C20.972 13.0099 21.7402 12.5349 22.2719 12.4751C22.9261 12.4023 23.5775 12.5202 24.1029 12.9282C24.3193 13.0966 24.7499 13.7583 24.891 13.7974C25.0701 13.8467 25.0948 13.6127 25.1224 13.4839L25.1234 13.4829C25.2979 13.5451 25.19 13.6752 25.1761 13.8032L25.3363 13.4829C25.3924 13.4279 25.7166 14.0172 25.4174 14.2847C25.0078 14.649 24.2994 14.0014 24.0277 13.6968L23.9486 13.8032C23.9652 13.5471 23.3756 13.2153 23.1615 13.1753C22.7213 13.0932 22.3107 13.2846 21.892 13.3774L22.0785 13.269C22.0912 13.1739 21.9636 13.2206 21.9066 13.23C21.7049 13.263 21.464 13.3719 21.2631 13.4409C21.1728 13.4716 21.1075 13.5495 21.0287 13.5718C20.9447 13.5947 20.0784 13.38 19.9701 13.3286C19.5298 13.1191 19.125 12.3719 18.6371 12.0405C17.3747 11.1826 16.2555 11.7743 15.2201 12.6294C15.1234 12.558 15.2808 12.4864 15.2992 12.4419C15.4151 12.1644 14.8404 12.7061 14.8197 12.6831L15.0326 12.3354C14.8831 12.2818 14.683 12.5905 14.6039 12.7349C14.5175 12.7426 14.4846 12.7601 14.4984 12.6567C14.5289 12.4302 14.9849 11.9302 15.1674 11.7769ZM13.9359 11.2759C13.1818 12.1825 14.0919 13.3671 15.1351 13.4839C15.152 13.5981 15.1397 13.5702 15.0677 13.603C14.8422 13.7058 14.6243 13.7054 14.3881 13.644L14.5472 13.8032C13.491 13.71 12.6866 11.9682 13.5326 11.2417C13.5042 11.4066 13.4065 11.5267 13.3773 11.7007C13.365 11.7733 13.3281 12.0669 13.4261 12.0952C13.3757 11.7231 13.5677 11.1537 14.014 11.189L13.9359 11.2759ZM13.1107 11.4028C13.2013 11.3897 13.1671 11.5301 13.1625 11.5884C13.1464 11.7822 13.1021 11.8929 13.1166 12.1157C13.158 12.7424 13.4609 13.3761 13.9633 13.7505L13.8041 13.6792C13.0457 13.2761 12.8425 12.1767 13.1107 11.4028ZM12.9242 11.5093C12.9554 11.6593 12.8671 11.7988 12.8646 11.9526C12.8577 12.4919 13.1249 13.2388 13.4847 13.6431C13.3874 13.7358 13.0296 13.1685 12.9945 13.0933C12.7974 12.6623 12.6722 11.9389 12.9242 11.5093ZM27.0414 12.5249C27.5078 12.5513 27.9065 13.0281 27.8929 13.4839C27.7617 13.3838 27.7603 13.1939 27.6732 13.0396C27.6553 13.0085 27.4708 12.7701 27.4515 12.7544C27.3411 12.6639 27.1175 12.6482 27.0414 12.5249ZM26.6664 11.7231C27.389 11.454 28.2785 11.8925 28.6322 12.5591C28.8791 13.0253 28.8381 13.1711 28.3754 13.4302L28.349 13.3237L28.2152 13.4302C28.173 13.188 28.1134 12.9041 27.9213 12.7368C27.9123 12.936 28.0739 13.0905 28.1039 13.3013C28.12 13.4131 28.1316 13.4493 28.0013 13.4302C27.9719 12.8406 27.4738 12.3588 26.8802 12.3618L27.0697 12.3071L27.4672 12.3101L26.8802 12.2026L26.9867 12.0425C26.8065 12.0609 26.6956 11.8811 26.6664 11.7231ZM8.43787 12.7427C8.80273 12.7514 8.63185 13.0193 8.36365 13.0093L8.78162 13.0552C8.40965 13.1725 8.01964 13.2743 7.62927 13.3188C7.5234 13.3311 7.55331 13.3082 7.55408 13.2153L7.71423 13.1626H7.23376C7.42652 12.9011 8.13107 12.7358 8.43787 12.7427ZM15.8978 12.2378C17.4045 11.1624 18.6769 11.8639 19.6205 13.2163C19.1855 13.046 18.9523 12.6096 18.5472 12.3403C17.4896 11.635 16.6057 11.9676 15.6332 12.6226L15.5101 12.5229C15.6947 12.5501 15.766 12.3321 15.8978 12.2378ZM12.8383 13.1089C12.7618 13.1209 12.7668 13.0154 12.7484 12.9595C12.6779 12.7425 12.6197 12.4696 12.6058 12.2427C12.6004 12.1607 12.544 12.1112 12.6527 12.0415L12.8383 13.1089ZM3.87341 12.0425C3.91095 12.1643 3.97494 12.2713 4.05603 12.3657C4.32623 12.6812 4.79638 12.8491 5.18787 12.8911C5.21793 12.8944 5.28456 12.9054 5.34607 12.9067C5.36532 12.9071 5.38384 12.9063 5.40076 12.9038C5.42895 12.8998 5.45267 12.8929 5.46521 12.8765L5.47498 12.8442L5.47302 12.8433L5.22791 12.8315C4.92585 12.8007 4.65489 12.7072 4.41443 12.5552C4.27525 12.467 4.14524 12.3607 4.02771 12.2319L3.87439 12.0435L3.87341 12.0425ZM24.9066 11.7778C25.2983 11.7189 25.7124 12.0502 25.8148 12.4165C25.7466 12.487 25.4087 12.0687 25.3324 12.019C25.192 11.927 24.9856 11.9335 24.9066 11.7778ZM31.4427 11.4546C31.2619 11.1187 32.0721 11.0333 32.3138 11.5464C32.4249 11.7828 32.4353 12.306 32.1127 12.3599C32.0837 12.1735 32.0709 11.9006 31.9554 11.7446C31.851 11.6036 31.5111 11.5818 31.4427 11.4546ZM20.7279 11.3599C21.2183 9.59028 23.7968 8.77012 25.2513 9.90674C25.4131 10.0332 26.1716 10.7729 26.0267 10.9731V10.9741C25.9201 10.9128 25.8019 10.8701 25.6937 10.811C24.8829 10.3715 24.2703 9.92255 23.2494 10.1978C22.7732 10.3258 22.1588 10.8565 21.9437 11.2944C21.9008 11.3818 21.7151 12.1721 21.5433 11.9888C21.548 11.1682 22.1833 10.5171 22.9027 10.2271C22.9882 10.1529 22.8511 10.1703 22.808 10.1841C21.9657 10.471 21.4358 11.2758 21.3812 12.1479L21.2758 11.6147L21.1957 11.9927C21.0071 12.021 20.9307 12.1142 20.9008 12.3081L20.848 12.0425L20.7416 12.3081C20.5199 12.1148 20.6543 11.6268 20.7279 11.3599ZM25.974 10.3618C27.1898 9.72698 28.8526 10.7387 28.8822 12.0962L28.6146 11.7231L28.5619 11.8296C28.3126 11.4852 28.184 11.262 27.7875 11.0825C27.8504 11.1317 28.2778 11.4912 28.2142 11.563C27.9181 11.3091 27.6063 11.0296 27.2006 10.9751C27.1854 10.8855 27.3343 10.9146 27.3842 10.9253C27.484 10.9469 27.6848 11.0358 27.7875 11.0825C27.352 10.7454 27.0363 10.8095 26.5072 10.7612L26.8275 10.603C26.4209 10.6322 26.2402 10.7469 25.974 10.3618ZM21.9711 11.8296C22.0357 10.7257 23.3889 9.93382 24.4242 10.3354C24.3838 10.4623 24.1362 10.3501 24.0355 10.355C23.1933 10.3972 22.6672 10.7157 22.2445 11.4351C22.1532 11.5908 22.1949 11.7881 21.9711 11.8296ZM31.3939 10.3384C31.6404 10.3055 32.1052 10.3524 32.1615 10.6519C31.7357 10.5481 31.0612 10.798 30.9896 11.271C30.9774 11.3543 31.0592 11.6562 31.0424 11.6675C30.8385 11.7744 30.7102 11.4653 30.6918 11.2974C30.649 10.9062 30.9959 10.3914 31.3939 10.3384ZM28.2845 9.09326C28.6298 8.45527 29.5353 8.51083 30.014 8.96631L30.015 8.96533C30.5909 9.51306 30.5863 10.4042 30.14 11.0278L29.9545 10.8149C29.8174 10.8686 29.7958 11.082 29.7308 11.1392C29.638 11.2205 29.0793 11.4543 28.974 11.397L28.6469 10.9487C29.0271 10.7418 29.2951 10.7007 29.4515 10.2544C29.5026 10.1087 29.4177 9.88663 29.7133 9.90869C29.6247 10.0314 29.8043 10.1581 29.9261 10.0669L29.767 9.93506C29.7218 9.74959 29.9123 9.85512 29.8724 9.69482C29.7206 9.64034 29.6491 9.47743 29.4857 9.36084C28.9886 9.00568 28.5224 9.06055 28.2455 9.64111C28.0883 9.57133 28.2285 9.197 28.2845 9.09326ZM21.1976 9.29736C21.2891 9.29673 21.7218 9.33699 21.7572 9.37451C21.7817 9.40058 21.7691 9.50197 21.6918 9.49365L20.9584 9.5874C21.0067 9.69847 21.2536 9.59309 21.3558 9.58447C21.4127 9.57983 21.5586 9.55147 21.5443 9.64014C20.5547 9.65701 20.1404 10.5082 20.1556 11.4019C20.0782 11.3927 20.0652 11.1682 20.056 11.1021C20.0384 10.9717 20.0522 10.8388 20.0492 10.7085C19.9703 10.7192 19.9603 10.9381 19.9496 11.0083C19.935 11.1034 19.9418 11.2003 19.9418 11.2954C19.6928 11.0975 19.9701 10.7493 19.9418 10.4946L19.7289 11.2954L19.6752 10.8687L19.516 11.2417C19.4363 10.2475 20.1681 9.30964 21.1976 9.29736ZM20.5844 10.2544L20.6908 10.3071L20.4525 10.6567L20.3177 11.2954C20.1646 10.8312 20.4721 9.95027 21.0092 9.90869L20.5844 10.2544ZM9.64001 10.4409C8.61531 8.57987 10.7121 7.17182 12.4105 7.56299C12.4826 8.00537 11.871 8.05558 11.5609 8.146L11.6146 8.25244C11.37 8.17883 10.8711 8.45592 10.6791 8.62549C10.3139 8.9477 10.3808 9.77082 10.8158 10.0386C11.5599 10.4965 12.6521 9.60831 13.4261 9.45166C14.5369 9.22621 15.8018 9.70306 16.1517 10.8413C15.9511 10.9766 16.0083 10.6773 15.8314 10.7085L15.8842 10.9224C15.3963 10.7827 15.1704 10.2494 14.6273 10.1235C14.4897 10.1197 14.5018 10.1298 14.6166 10.188C14.9855 10.3736 15.317 10.6008 15.5111 10.9751L14.6742 10.3979L13.722 10.1704L13.1097 10.2817C13.4311 10.3169 13.8425 10.2342 14.1508 10.2817L14.1517 10.2808C14.4018 10.3202 14.7787 10.5978 14.9252 10.814C14.7319 10.7472 14.5965 10.5893 14.391 10.521C13.5873 10.2528 12.9374 10.509 12.1498 10.6548L12.2552 10.7612C11.9311 10.7935 11.599 10.9734 11.2679 10.979C10.5752 10.9905 9.91111 10.5759 9.61267 9.96143C9.50769 10.0826 9.79916 10.3564 9.64001 10.4409ZM9.72107 9.69287C9.65052 9.98274 9.93632 10.3185 10.1488 10.4927C10.2496 10.575 10.3525 10.642 10.4574 10.6958C10.4628 10.6986 10.4685 10.7009 10.474 10.7036C10.5176 10.7254 10.5615 10.7449 10.6058 10.7622C10.6565 10.7821 10.7076 10.7987 10.7592 10.813C10.7667 10.8151 10.774 10.8179 10.7816 10.8198C11.1464 10.915 11.5333 10.8766 11.9398 10.7622C11.9368 10.7263 11.9217 10.7091 11.9008 10.7026C11.8991 10.702 11.8976 10.7011 11.8959 10.7007C11.8872 10.6988 11.8776 10.6986 11.8676 10.6997H11.8646C11.8023 10.7062 11.7186 10.7599 11.6957 10.7612H11.6967C11.4375 10.7766 11.1581 10.7613 10.8959 10.7612C10.8779 10.7612 10.8593 10.7588 10.8402 10.7563C10.8129 10.7527 10.7845 10.747 10.7552 10.7388C10.7379 10.734 10.7204 10.7285 10.7025 10.7222C10.2963 10.577 9.76512 10.0597 9.72498 9.69482C9.72427 9.69773 9.72366 9.7007 9.72302 9.70361C9.72254 9.70004 9.72146 9.69641 9.72107 9.69287ZM5.20935 8.97217C5.74417 8.50013 6.82938 8.67612 7.20837 9.26807C7.38938 9.55032 7.4155 10.1294 7.69763 10.3267C8.06358 10.5814 8.64015 10.335 9.05212 10.3872L9.05603 10.4165C9.04469 10.4908 8.90752 10.6016 8.8783 10.6147C8.71185 10.6907 8.29282 10.7933 8.11169 10.8071C7.9466 10.8193 7.48981 10.7441 7.32947 10.6958C7.03885 10.6084 6.88964 9.88595 6.78455 9.64014C6.66955 9.52897 6.69967 9.60771 6.72498 9.69971C6.76486 9.84761 6.83877 9.99039 6.85876 10.1528C6.86567 10.2103 6.90457 10.3472 6.81189 10.3335C6.69835 9.94306 6.51635 9.45065 6.06384 9.37158C6.04992 9.27872 6.18888 9.31679 6.23865 9.33057C6.35965 9.36513 6.44793 9.45975 6.5697 9.479C6.49956 9.23324 6.14384 9.21819 5.94373 9.15381C5.90103 9.13982 5.90594 9.06122 5.86853 9.0542C5.81018 9.04369 5.29053 9.12909 5.26208 9.10498L5.3031 9.00635L5.20935 8.97217ZM14.3773 7.62451C16.0044 6.92378 18.101 8.113 18.2806 9.88721C18.2891 9.96849 18.335 10.8423 18.1273 10.6538L18.1293 10.6548L18.0746 10.3882L17.8871 10.4956L17.8617 10.228L17.5951 10.4409C17.5345 9.52347 17.2282 8.79476 16.3851 8.3667C16.3367 8.34189 16.244 8.25638 16.2064 8.33252C16.8546 8.6547 17.396 9.29162 17.4291 10.0464C17.4314 10.0993 17.3774 10.5246 17.2748 10.3882C17.2517 8.69292 15.7313 8.00362 14.2308 8.46533L14.5638 8.2915L15.1918 8.146C14.8382 8.11762 14.4926 8.2047 14.1566 8.30518C13.8966 8.03514 14.039 7.77104 14.3773 7.62451ZM15.2953 8.51904C16.3301 8.42709 17.1089 9.26342 17.056 10.2798L16.8529 9.7085C16.6826 9.31052 16.475 8.98142 16.0785 8.77588L15.2953 8.51904ZM24.1586 8.54541C24.4243 8.24728 25.1414 8.62438 25.433 8.81689C25.6332 8.94885 26.494 9.81495 26.2914 10.0132H26.2924C26.1764 10.1269 26.0376 9.89326 26.0082 9.87256C25.6692 9.64864 25.3727 9.29877 24.9955 9.09619C24.8775 9.0326 24.7766 8.9874 24.6381 8.99951C24.6107 8.92298 24.8499 8.95515 24.7445 8.84033C24.712 8.80576 24.1616 8.65586 24.1586 8.54541ZM20.1859 8.68799C20.7342 8.45877 21.1622 8.4066 21.7435 8.55615C21.8187 8.5753 22.0073 8.58822 22.0199 8.6792C21.9189 8.72819 21.7748 8.62692 21.7269 8.62646C21.4793 8.62646 21.1609 8.59894 20.9261 8.62646C20.4476 8.68322 19.8942 9.00765 19.5658 9.34814C19.4899 9.42709 19.4501 9.56633 19.3881 9.62549C19.2852 9.72262 19.0977 9.7135 19.057 9.9624C19.0564 9.3917 19.6988 8.89204 20.1859 8.68799ZM18.4476 8.65283C19.6606 6.97755 22.6465 7.3969 23.976 8.73096C24.0214 8.77757 24.3599 9.17648 24.3197 9.21338L24.2787 9.22119C24.1437 9.2163 23.753 9.06316 23.6791 9.01709C23.5518 8.93661 23.4338 8.69012 23.3051 8.75928L23.5179 8.97412C23.4175 9.05066 23.2941 8.83924 23.1937 8.76416C23.0181 8.63381 22.8242 8.52552 22.6371 8.41357C22.4752 8.40514 22.5993 8.47113 22.6469 8.51025C22.7941 8.6322 22.9947 8.71725 23.0922 8.89209L22.2904 8.46631L22.3705 8.62646C21.0711 8.10193 19.6948 8.49435 18.9008 9.64014C18.9117 9.23547 19.3056 9.02516 19.515 8.73389C19.4154 8.71095 19.3872 8.78949 19.3275 8.83936C19.0975 9.0326 18.879 9.30432 18.767 9.58643C18.6682 9.59853 18.7202 9.47492 18.7386 9.42432C18.8131 9.22048 18.9533 9.03864 19.0345 8.83936L18.6244 9.3208L18.4476 9.26709C18.591 9.27382 18.6229 9.00253 18.6605 8.89209L18.4203 9.15967C18.1687 9.08449 18.3548 8.78099 18.4476 8.65283ZM11.6166 5.42334C12.3573 5.37774 12.8838 6.11285 12.9506 6.78467C13.0348 7.63707 12.5813 8.72906 12.0433 9.37061C12.5484 8.18619 13.4724 6.47039 12.0375 5.56201L11.6166 5.42334ZM6.54333 7.21045C6.98365 6.85312 7.52588 6.73948 8.05896 6.97803C8.96604 7.38471 8.74776 8.53698 9.05212 9.31787L9.05115 9.31689C8.7857 9.43811 8.68031 9.24174 8.54529 9.05225C8.45399 9.05992 8.67514 9.42317 8.49255 9.26514C8.15597 8.79027 8.43787 8.15229 7.98376 7.74268C7.87365 7.68781 7.15933 7.92472 6.99646 7.98486C6.71724 8.08765 6.5398 8.31221 6.22302 8.25244C6.19328 8.09033 6.27315 8.17081 6.349 8.14111C6.55678 8.05981 6.74261 7.93901 6.93201 7.86768C7.27867 7.7374 7.8004 7.83502 7.71716 7.29248C7.56092 7.48863 7.52193 7.62089 7.26306 7.71826C7.10815 7.77578 7.3132 7.56949 7.15857 7.61377C6.86874 7.69738 6.66092 7.83919 6.42322 7.9458C6.27737 8.01072 5.98244 7.98619 6.01501 7.80713C6.02812 7.73966 6.45673 7.28096 6.54333 7.21045ZM9.71521 6.65381C9.63015 5.13718 10.7123 3.91513 12.2972 4.39307C14.2224 4.97406 14.3646 7.58826 13.3851 9.03662C13.2894 9.17754 13.2549 9.24087 13.0551 9.21338H13.0531L13.3207 8.3335C13.2659 8.24962 13.2551 8.37455 13.2406 8.4126C13.1862 8.55746 13.1496 8.70027 13.0814 8.84131C13.047 8.91252 12.9682 9.07786 12.8939 9.10596C12.9148 8.86467 13.0381 8.65071 13.0834 8.41553C13.0942 8.36023 13.1527 8.24033 13.0541 8.25244C12.9521 8.51552 12.9346 8.89567 12.6801 9.05225L12.6537 8.89307L12.3607 9.26709C12.6914 8.41404 13.2777 7.42904 13.0306 6.48779C12.8649 5.85508 12.1681 5.09461 11.4496 5.28662C11.3061 5.74915 11.2595 6.13882 10.8607 6.45947C10.7488 6.54991 10.3441 6.74279 10.3051 6.81201C10.1682 7.05924 10.4665 7.68526 9.90466 7.82568C9.8706 7.61442 10.131 7.5459 10.1635 7.35986C10.1932 7.18665 10.0511 7.01912 10.1459 6.81299C10.2245 6.64345 10.8133 6.39782 11.0004 6.17236C11.1875 5.94668 11.3958 5.47575 11.267 5.21045L10.9984 5.95752C10.9204 5.83321 11.2439 5.4046 10.973 5.42334C10.973 5.6894 10.878 5.93787 10.681 6.11963C10.5806 6.21234 10.468 6.23918 10.389 6.30811C10.2081 6.46545 10.0665 6.84474 9.71521 6.65381ZM26.1215 5.59424C26.9345 5.44403 28.0521 6.10736 28.35 6.86279C28.7236 7.81016 28.2719 8.77185 27.2572 8.94385L27.2552 8.94482L27.6234 8.75342L27.8949 8.46533C27.702 8.5367 27.5661 8.68314 27.3617 8.7583C26.9452 8.91169 26.644 8.87116 26.223 8.77686C26.154 8.76152 25.9743 8.7649 25.974 8.6792C26.6069 8.75439 27.0767 8.90183 27.6244 8.48682C27.6741 8.4487 27.9004 8.25901 27.8422 8.19775C27.3359 8.75542 26.7139 8.77198 26.0297 8.54346C25.7705 8.4568 25.4603 8.18018 25.2777 8.11865C25.1964 8.09104 25.1399 8.15524 25.0394 8.09619C24.7617 7.93409 24.3385 7.25022 24.2142 6.94189C24.3705 6.83412 24.3165 7.1785 24.4799 7.18311C24.2958 6.81877 24.3784 6.573 24.5863 6.24854L25.1293 7.20068C25.6203 7.90188 27.042 8.71557 27.4701 7.55713L27.5765 7.82373L27.6302 7.34326L27.4711 7.50244L27.5228 7.18311C27.3735 7.24724 27.2573 7.18599 27.2572 7.02295L27.4154 7.12939L27.3099 6.94287L27.4691 6.80908C27.1134 6.83423 26.8151 6.65216 26.5092 6.54248L26.8285 6.75635C26.8254 6.8783 26.6429 6.77444 26.5961 6.74756C26.3208 6.59016 26.0315 6.22534 25.9203 5.93018C25.8298 5.69096 25.8692 5.64102 26.1215 5.59424ZM17.2201 6.99658C17.6466 6.38847 18.5688 6.19124 19.2484 6.40967C19.6158 6.52782 20.1678 6.97795 20.3168 7.34229V7.34326C19.9503 7.54874 19.8112 7.0768 19.517 7.10303L19.6761 7.28955C19.5005 7.25426 19.3639 7.09144 19.1791 7.01318C18.6536 6.78999 18.0301 6.89481 17.6205 7.29053L17.5677 7.18408L17.4867 7.39697C17.3565 7.42072 17.3989 7.37954 17.3578 7.29541C17.0136 7.45785 17.0699 7.21054 17.2201 6.99658ZM21.4066 3.39307C22.1721 2.96304 22.9756 3.14828 23.6429 3.67139C25.0456 4.77006 24.6108 7.07258 22.8236 7.39795C22.8919 7.27392 23.0338 7.32227 22.9847 7.13135C22.9461 7.09241 22.6236 7.2235 22.6635 7.0249C22.5408 7.08853 22.534 7.2888 22.3441 7.23779L22.4506 7.07764L21.3822 6.97021C21.4409 6.84453 21.3704 6.67592 21.5248 6.60303C22.4039 6.83313 23.3609 6.39636 23.3578 5.396C23.3543 4.43611 22.2965 4.51137 21.7006 4.17236C21.6086 4.12027 21.4748 4.06003 21.4906 3.9292C21.525 3.89912 22.2078 4.26152 22.3158 4.30518C22.6033 4.42151 22.8662 4.37604 23.1215 4.62061C23.4741 4.95806 23.5142 5.49519 23.3617 5.93311C23.3019 6.10408 23.1897 6.2195 23.1459 6.38428C23.6068 5.95618 23.6936 5.21023 23.3285 4.68018C23.0677 4.30126 22.6105 4.28112 22.2377 4.08936C22.5498 4.23579 23.0977 4.08617 23.351 4.44385L23.6791 4.99658C23.682 4.65533 23.4101 4.35545 23.1654 4.1499L22.2123 3.98291C22.1584 3.97381 22.2209 4.06793 22.2357 4.08643C21.9685 3.94882 21.5107 3.68542 21.4066 3.39307ZM25.6537 6.27783C25.8998 6.22734 25.9419 6.45951 26.0531 6.54541C26.1643 6.63129 26.4467 6.82624 26.5658 6.88623C26.8444 7.02629 27.1944 7.01486 27.3597 7.34326L26.4066 6.93896L25.6537 6.27783ZM14.0599 3.67725C14.3993 3.0525 15.3102 2.95357 15.9222 3.17139C17.3987 3.6977 17.5849 5.61951 16.9086 6.84619C16.8564 6.94132 16.6219 7.4056 16.473 7.29053H16.472L16.6322 6.81104L16.5248 7.0249C16.2768 7.01778 16.406 6.8098 16.4183 6.65186C16.2784 6.70643 16.3943 6.93251 16.1527 6.86475L16.2582 6.4917L15.8851 6.91846C16.1881 6.25191 16.4674 5.5104 16.2435 4.771C16.1653 4.51187 15.9595 4.32521 15.8881 4.06689C15.6028 3.97946 15.3941 3.85474 15.0844 3.98193C15.0534 3.94994 15.2266 3.6773 15.0844 3.6626C14.9005 3.93404 14.9215 4.27077 14.8119 4.5376C14.6791 4.85963 14.2475 4.9497 14.347 5.38525C14.3877 5.56394 14.6327 5.71502 14.4965 5.95654L14.2172 5.4624C14.0061 4.85058 14.9696 4.67068 14.764 3.98193C14.4986 4.33018 14.3175 4.82051 13.9271 5.0415C13.5274 5.07747 13.961 3.85977 14.0599 3.67725ZM11.4525 5.05029C11.3675 5.11518 11.4519 5.14103 11.5746 5.15186C11.7236 5.16573 11.9323 5.1564 11.9603 5.16064C12.3708 5.22657 12.9061 5.69402 13.0629 6.08057L13.3187 6.9165C13.3189 6.90935 13.3176 6.90217 13.3177 6.89502L13.3246 6.91846C13.3481 6.0961 12.7986 5.29214 12.0209 5.08936C11.8422 5.04217 11.6514 5.02678 11.4525 5.05029ZM16.0414 4.72998C16.2485 5.31066 16.2352 5.96902 15.9369 6.51904C15.9093 6.57044 15.6916 6.93884 15.6156 6.86377C15.8733 6.37987 16.1319 5.85874 16.0951 5.29053C16.0866 5.15724 16.0338 5.02385 16.0131 4.89209C16.0038 4.83608 15.9422 4.71801 16.0414 4.72998ZM17.5365 3.47607C17.4953 2.58029 18.4013 1.91969 19.2113 2.38721C19.6622 2.64718 19.9389 3.53088 19.3539 3.76611L19.4584 3.52783C19.423 3.43823 19.318 3.50069 19.308 3.49072C19.2697 3.45115 19.252 3.24478 19.1693 3.12451C18.8777 2.70366 18.207 2.6696 18.1801 3.2876L18.392 3.18115C18.2059 4.43125 19.6076 4.18624 20.351 4.45166C21.2689 4.78007 21.6561 5.80366 21.141 6.64893C20.9845 6.67041 21.1493 6.52984 21.1117 6.41553C21.0802 6.32103 20.8452 6.29935 20.7943 6.33057C20.7927 6.33691 20.8389 6.40117 20.8168 6.43701C20.656 6.69265 20.4508 6.45929 20.4203 6.48975V6.6499L20.2074 6.59521C20.3768 6.36675 20.5146 6.15121 20.474 5.84912C20.6003 5.84146 20.5684 5.83253 20.5814 5.92822C20.6074 6.12065 20.5523 6.30345 20.5277 6.48975C20.6802 6.51502 20.6167 6.45699 20.642 6.36572C20.7291 6.05004 20.6229 5.84392 20.6888 5.56104C20.5331 5.49736 20.475 5.25124 20.4144 5.16455C20.4068 5.15526 20.3473 5.18616 20.3168 5.17041C19.6225 4.80907 18.8975 5.00124 18.2845 4.48877C18.0179 4.26578 18.0691 4.2204 17.7543 4.06104C17.5955 3.98048 17.5442 3.64178 17.5365 3.47607ZM26.9369 5.97803C26.8534 5.94583 26.7557 5.95175 26.6801 6.02295C26.5582 6.13751 26.6867 6.31406 26.8353 6.37646C26.9235 6.41512 27.0198 6.41408 27.0756 6.33545C27.1787 6.18881 27.0766 6.02932 26.9369 5.97803ZM22.722 6.0083L22.5082 6.01025L22.6136 6.11475L21.601 6.22217L21.6029 5.85205L22.7211 5.79639L22.722 6.0083ZM25.1898 5.83838C25.4007 5.7005 25.5373 5.79921 25.7582 5.85596V5.85498L25.7611 6.01025C25.5227 5.99415 25.3659 5.83824 25.1215 5.95752C25.0939 5.83342 25.1377 5.87212 25.1898 5.83838ZM10.3802 5.43213C10.2091 5.44649 9.97293 5.73954 10.1293 5.89111C10.1741 5.93454 10.228 5.94752 10.2826 5.94189C10.3767 5.9364 10.4741 5.87284 10.5287 5.79834C10.572 5.51575 10.4927 5.42362 10.39 5.43213H10.3802ZM18.9779 4.99756C19.3205 4.9861 19.661 5.07243 19.9906 5.15674C20.0021 5.25845 19.8876 5.19134 19.8314 5.18408C19.6374 5.15877 19.4177 5.12952 19.226 5.09424C19.1604 5.08208 18.9784 5.08211 18.9779 4.99756ZM22.2377 4.08838V4.09033C22.2373 4.0901 22.2371 4.08814 22.2357 4.08643L22.2377 4.08838ZM22.473 3.44971C22.2852 3.43078 22.1562 3.65538 22.2894 3.74268H22.2904L22.2924 3.74365L22.5365 3.75635L22.6029 3.76123V3.76025L22.6068 3.76123L22.6566 3.59033L22.5599 3.47412C22.5301 3.45983 22.5008 3.45207 22.473 3.44971ZM20.6361 3.60889C20.5837 3.30282 21.3253 3.5401 21.3295 3.58154C21.1063 3.86686 20.8884 3.45577 20.6361 3.60889Z" fill="white"/>
</svg>
