<svg preserveAspectRatio="none" width="100%" height="100%" overflow="visible" style="display: block;" viewBox="0 0 33 32" fill="none" xmlns="http://www.w3.org/2000/svg">
<g id="Group">
<path id="Subtract" d="M12.5391 23.3156C12.2469 24.3144 12.6448 25.5316 13.754 25.758C14.0187 25.8117 14.3757 25.7881 14.6427 25.8303C18.5427 26.4419 17.3996 32.0769 13.4786 31.5851C11.913 31.3888 10.3228 29.4283 11.713 28.1203C12.737 27.1579 14.7221 27.6713 14.0343 29.2394L13.8966 28.7111C13.6589 28.4926 13.4332 28.2528 13.1036 28.1691C13.0569 28.3399 13.0045 28.2246 12.8682 28.2404C12.5269 28.2811 12.368 28.3879 12.1134 28.6271L12.2208 28.6799C12.0984 28.7411 12.1742 28.8362 12.1534 28.9045C12.1496 28.9167 12.0741 28.9173 12.0636 28.9582C12.0344 29.0739 12.0571 29.2442 12.0059 29.3723H12.1143L12.2208 29.0266L12.2745 29.507C12.2791 29.1688 12.3133 28.7049 12.7013 28.5998C12.1083 29.0831 12.4424 29.8114 13.0391 30.1037C14.9831 31.0572 16.6531 28.3491 14.7413 27.2267L14.0362 26.9982C15.3518 26.9921 16.0165 28.2091 15.6378 29.3996C15.7127 29.4126 15.71 29.3102 15.7306 29.2541C16.1047 28.2431 15.5936 27.1115 14.5274 26.8537C13.9421 26.7126 13.6092 26.7263 13.0108 26.4992C12.883 26.451 12.9459 26.5111 12.7686 26.4133C12.3745 26.1947 12.0835 25.9264 11.8204 25.5568C11.7575 25.5553 12.0075 26.114 11.795 25.9299C11.7843 25.9191 11.7667 25.7615 11.7354 25.7043C11.6306 25.5098 11.2598 25.0537 11.2598 24.7824V23.8752C11.2615 23.8647 11.3317 23.7921 11.3653 23.7951L11.379 24.2902L11.5264 24.6496L11.4718 24.2521L11.6339 23.635V24.5695C11.6342 24.6032 11.7172 24.8573 11.7931 24.8635C11.7248 24.4922 11.6938 24.0942 11.8097 23.7307C11.8279 23.6738 11.8232 23.57 11.9005 23.5822V24.4631C11.901 24.5033 11.9867 24.62 11.9542 24.7033H12.0069C12.0344 24.4281 11.9687 24.0893 12.0069 23.8225H12.0059C12.0194 23.7288 12.1272 23.429 12.2198 23.3693L12.1671 24.2492L12.3263 24.8098C12.2527 24.3159 12.1889 23.7182 12.5391 23.3156ZM11.711 30.2053C11.7102 30.2044 11.7099 30.2032 11.7091 30.2023L11.6339 30.4084C11.8399 30.4982 11.9283 30.7081 12.1153 30.8644C12.3938 31.0967 12.7187 31.2617 13.0636 31.3625C13.197 31.4016 13.3338 31.4278 13.4718 31.4475C13.6003 31.4656 13.7295 31.4782 13.8595 31.4797C14.6699 31.4895 15.4852 31.1755 16.0108 30.549C16.0615 30.4893 16.141 30.4618 16.1173 30.3615C16.1161 30.3625 16.1145 30.3634 16.1134 30.3644V30.3625C15.4778 30.9388 14.7333 31.2757 13.9796 31.2912C13.3941 31.3025 12.8031 31.1204 12.253 30.7033L12.2081 30.6789C12.1603 30.6588 12.1036 30.6475 12.0577 30.6057C11.9237 30.4854 11.837 30.3303 11.713 30.2023L11.711 30.2053ZM11.796 29.9953C11.7947 29.9936 11.7933 29.9921 11.7921 29.9904C12.1188 30.7476 12.9821 31.1461 13.836 31.1691C13.8376 31.1692 13.8393 31.1691 13.8409 31.1691C13.9998 31.1731 14.158 31.164 14.3126 31.1418C14.3441 31.1373 14.3752 31.1308 14.4063 31.1252C14.5154 31.1055 14.6216 31.0792 14.7247 31.0461C14.8578 31.0034 14.9842 30.9493 15.1026 30.884C15.151 30.8572 15.1999 30.8316 15.2452 30.801C15.28 30.7778 15.3158 30.7617 15.3409 30.7385C15.3665 30.7153 15.3812 30.6849 15.3692 30.6291C14.1793 31.361 12.6369 31.1162 11.7931 29.9885C11.794 29.9907 11.795 29.9931 11.796 29.9953ZM12.753 30.6027C12.9529 30.7214 13.1691 30.8011 13.3927 30.8478C13.7641 30.9263 14.1568 30.9128 14.5323 30.8293C14.6483 30.8031 14.8799 30.7342 14.9473 30.6301C14.9449 30.6307 14.9419 30.6304 14.9395 30.631L14.9425 30.6291C14.5581 30.7357 14.1911 30.823 13.7891 30.8215L12.7579 30.6037L12.753 30.6027ZM20.0909 22.3C20.1598 22.3347 20.0922 22.4467 20.0782 22.5012C19.9002 23.196 19.517 23.9007 19.3321 24.6369C18.9793 26.0376 18.8841 27.9335 20.1534 28.9094C21.1567 29.6808 22.7246 29.5455 22.835 28.1506L22.8409 28.0129C22.9941 28.0452 22.8457 28.432 23.0528 28.3859L22.9962 27.9377L23.1065 27.8791L22.9171 27.8029C22.9797 27.5937 22.7896 27.539 22.627 27.4738L22.6798 27.3185C22.1873 27.1568 21.7669 27.4761 21.2921 27.424L21.3975 27.1584L21.211 27.3176C21.1779 27.051 21.5096 26.7882 21.7511 26.6838C23.454 25.9498 24.7249 28.5601 23.1856 29.9855C21.316 31.7171 18.1969 30.4275 17.6622 28.0646L18.3653 29.3098C19.5912 30.8893 22.3792 31.358 23.3751 29.3205L22.8946 29.801C21.5812 31.0046 19.4877 30.3964 18.5264 29.0432C17.9588 28.2438 17.7206 27.2537 17.713 26.2795C17.704 25.0722 18.3027 23.9481 18.5167 22.7814C18.6085 22.7716 18.5755 22.9657 18.5723 23.0236C18.5331 23.6523 18.255 24.2046 18.1153 24.8088C17.7793 26.264 17.8335 27.8735 18.7862 29.091C19.4729 29.9686 21.0772 30.6397 22.1466 30.174C22.3317 30.0932 22.9797 29.5887 23.0528 29.426C23.0634 29.4028 23.0668 29.3389 23.0274 29.3469C22.0171 30.661 20.2543 30.2842 19.1749 29.2746C17.3336 27.5508 18.2139 25.0147 18.7823 22.965C18.8058 22.8801 18.7253 22.8068 18.8888 22.8342C18.8811 23.6833 18.4383 24.4489 18.3155 25.2766C18.1522 26.3781 18.2626 28.0111 18.9981 28.8918C19.8076 29.8605 21.3751 30.4408 22.5196 29.7189C22.5536 29.473 22.2429 29.7791 22.1202 29.8283C21.4889 30.0798 20.7567 29.9255 20.1514 29.6594C18.576 28.9657 18.2516 27.3168 18.3536 25.7404C18.4228 24.6696 18.9134 23.7638 19.1036 22.7267C19.1952 22.7138 19.1551 22.8483 19.1563 22.9123C19.1732 23.5412 18.8812 23.8875 18.796 24.4221C18.7867 24.4789 18.7397 24.6067 18.835 24.5939L19.3702 22.673C19.438 22.6574 19.4582 22.7719 19.4591 22.8137C19.4644 23.1212 19.3972 23.3015 19.3389 23.5783C19.3272 23.633 19.2715 23.7531 19.3682 23.7404L20.0909 22.3ZM10.9141 26.9982C10.8489 27.7906 10.0097 28.5228 9.30477 28.8068C9.16132 28.8644 8.68655 29.0275 8.56454 29.0275H7.68368C7.67188 28.9346 7.80499 28.976 7.8702 28.9738C8.02823 28.9677 8.18678 28.9854 8.34481 28.967C9.46325 28.8388 10.5467 28.0776 10.9141 26.9982ZM15.7696 17.2844C16.4323 17.9463 16.4368 19.1051 16.127 19.9367C15.567 21.4411 13.8791 22.2632 12.3556 22.3576C12.298 22.3614 12.1034 22.394 12.1134 22.3019C13.4943 22.1784 14.7471 21.8424 15.5518 20.6418C15.6831 20.4461 15.9399 20.1234 15.877 19.8996C15.4451 20.791 14.8191 21.4014 13.8878 21.7551C12.6972 22.2075 11.0063 21.7742 10.3419 23.173C9.7451 24.4288 10.6787 25.6029 10.3897 26.8517C10.3352 27.0862 10.1887 27.2896 10.1915 27.5324L10.4425 26.9562C10.8126 25.7328 9.99029 24.5122 10.5655 23.3156C10.6657 23.3042 10.6072 23.4231 10.5948 23.4777C10.5565 23.6454 10.4784 23.7966 10.4591 23.9826C10.3563 24.9936 10.876 25.8254 10.6583 26.8517C10.5914 27.1664 10.2682 27.9207 9.97762 28.0129C9.86025 28.2276 9.67066 28.4043 9.39071 28.4396C9.46774 28.3695 9.7779 28.0559 9.83309 28.0275C9.89455 27.9966 9.94445 28.0212 9.97664 28.0119C10.0238 27.9252 10.151 27.6825 10.1104 27.5861C9.87572 27.9221 9.57013 28.1933 9.22957 28.4142L9.28329 28.5217C9.17526 28.5797 9.07322 28.4998 8.95907 28.5158C8.86106 28.5296 8.75677 28.6177 8.6534 28.6379C7.48653 28.8627 6.34729 28.5023 5.70516 27.4797C5.517 27.6039 5.87667 27.8549 5.78719 28.0129C5.08699 27.2573 4.93993 26.1359 5.28036 25.1848C5.49651 25.1296 5.29769 25.4266 5.43954 25.4504C5.47027 25.2126 5.546 24.9012 5.75985 24.757L5.57332 25.5568C5.69278 25.4199 5.75059 24.9986 5.86629 24.8889C6.08607 24.6823 5.8232 25.3351 5.86825 25.3439L6.18758 24.9699C6.01498 25.7961 5.92139 26.5486 6.50887 27.2375C7.3781 28.256 9.23207 28.0819 9.58895 26.6906C9.96453 25.2262 8.2724 23.929 9.44149 22.1662C10.4465 20.6506 12.1103 21.2799 13.4835 20.7092C14.4069 20.3247 15.1219 19.4364 14.9815 18.3918C14.9439 18.1135 14.7899 17.9158 14.7286 17.6574L14.9151 17.7639L15.2618 18.5119C15.2923 18.2006 15.1516 17.9145 14.9952 17.6584C15.2298 17.6255 15.1721 17.9915 15.3692 17.9777L15.1817 17.4982L15.5284 17.925L15.4229 17.4982L15.6886 17.7648L15.5831 17.3381L15.795 17.4982L15.7696 17.2844ZM12.3282 25.8791C12.4299 26.009 12.5382 26.1136 12.6505 26.1994C12.6805 26.2224 12.7106 26.2445 12.7413 26.2648C12.8313 26.3243 12.924 26.3723 13.0186 26.4123C13.4124 26.579 13.8401 26.5997 14.255 26.6603C14.8185 26.743 15.3577 26.9007 15.753 27.6047C15.9592 27.9719 15.9545 28.1788 16.0128 28.5744C16.0197 28.6216 16.0129 28.6434 16.0216 28.6525C16.0287 28.6634 16.0509 28.6606 16.1192 28.6555C16.1161 28.433 16.0789 28.2066 16.0138 27.9885C16.0118 27.982 16.0099 27.9754 16.0079 27.9689C15.9925 27.9188 15.9748 27.8695 15.9561 27.8205C15.9481 27.7993 15.9404 27.778 15.9317 27.757C15.9111 27.7073 15.8883 27.6586 15.8643 27.6105C15.8541 27.59 15.8429 27.5701 15.8321 27.55C15.8074 27.5041 15.7818 27.4591 15.754 27.4152C15.7414 27.3954 15.7282 27.376 15.7149 27.3566C15.6032 27.1933 15.4713 27.0453 15.3145 26.925C15.1165 26.7732 14.9093 26.6852 14.6973 26.6291C14.5602 26.5927 14.421 26.5701 14.2804 26.5529C14.2423 26.5483 14.2043 26.5423 14.1661 26.5383C13.9262 26.5131 13.6834 26.4958 13.4415 26.4494C13.3926 26.44 13.3437 26.4304 13.295 26.4182C13.2298 26.4018 13.1645 26.3833 13.0997 26.3605L12.3282 25.8791ZM21.4034 23.1545C21.4697 24.2633 22.7077 24.4324 23.3468 25.0812C23.9855 25.7302 24.1228 26.9658 25.1173 27.0988C25.7088 27.1778 26.365 26.7642 26.5284 26.1965L26.5294 26.1994L26.5821 26.465C26.5952 26.4827 26.6476 26.4338 26.6622 26.4123C26.6996 26.3544 26.92 25.7151 26.9415 25.6232C27.0291 25.2438 26.6863 24.9374 26.6065 24.5939C26.356 24.5777 26.4375 24.4133 26.3516 24.2922C26.0859 23.9189 25.0866 23.8059 24.713 24.0627L24.8731 23.8498C24.7313 23.813 24.6486 23.94 24.5528 23.9738C24.4931 23.9943 24.4139 23.9655 24.3526 23.9914C24.2511 24.0353 24.3318 24.1759 24.1524 24.0617L24.1788 24.1691L23.9366 24.0627L23.8848 24.1691C23.4641 23.7917 24.4689 23.3773 24.7764 23.299C27.7443 22.543 28.6166 27.75 25.4327 27.9055C25.2824 27.9131 24.5778 27.8243 24.4991 27.7453C24.4708 27.7168 24.4601 27.6322 24.5665 27.6506C24.7128 27.6766 24.8698 27.6847 25.0069 27.7443L25.0333 27.6379C24.893 27.6517 24.7741 27.6202 24.6446 27.5734C23.9834 27.3379 23.6121 26.4628 23.2179 25.9572C23.1479 25.8683 22.9747 25.7727 22.9639 25.7551C22.9314 25.6976 22.9791 25.6196 22.9171 25.55C22.7431 25.3575 21.9316 25.0966 21.6524 24.9064C21.1278 24.5482 20.8396 23.8347 20.9239 23.2072L21.1807 23.9377C21.2331 24.063 21.4216 24.4412 21.5098 24.5158C21.5467 24.5472 21.6035 24.5718 21.6173 24.5158C21.3634 24.2142 21.0544 23.4513 21.4034 23.1545ZM19.4268 25.6096C19.6647 25.3476 20.1746 25.5694 20.4132 25.7726C20.9262 26.2106 21.0097 27.0092 20.5704 27.5285C20.5084 27.602 20.3253 27.7744 20.2423 27.7902C20.1595 27.8056 20.0792 27.7321 20.0255 27.758L20.0245 27.757C20.0132 27.7629 20.0135 27.8165 20.003 27.8381L19.6934 27.6389C19.7793 27.678 19.9641 27.639 20.0294 27.5861C20.1372 27.4987 19.9523 27.3591 20.2804 27.4787C20.1824 27.1606 20.3994 26.9364 20.3214 26.5578C20.243 26.1791 19.9172 26.1213 19.7139 25.9318C19.6324 25.8556 19.696 25.8853 19.546 25.759C19.5164 25.7333 19.5585 25.5844 19.4268 25.6096ZM18.5167 26.092C18.5037 26.4708 18.526 26.8496 18.585 27.2238C18.5938 27.2793 18.5975 27.4363 18.6505 27.4719L18.6759 27.4787L18.6788 27.4797L18.5196 26.093C18.5194 26.1001 18.5189 26.1073 18.5186 26.1144L18.5167 26.092ZM17.7706 23.5832C17.5512 24.746 17.324 25.9191 17.4513 27.1057L17.3448 26.6516C17.2981 25.7932 17.3998 24.9497 17.5831 24.1144L17.7706 23.5832ZM11.7794 18.2824L11.7374 18.6711H11.7393C11.9991 18.5978 11.7863 17.7619 11.8722 17.7619L11.9522 18.6701L12.1651 17.9767L12.1124 18.8303C12.3146 18.6538 12.3262 18.2805 12.3263 18.0305C12.4018 18.0162 12.3973 18.1148 12.4034 18.1662C12.4325 18.3869 12.4089 18.6096 12.379 18.8303L12.6192 18.1369C12.6881 18.4151 12.6548 18.7264 12.4864 18.9641L12.5919 19.0441L12.8321 18.3508C12.9564 19.1968 12.4026 20.0012 11.71 20.4309C11.5766 20.4554 11.6527 20.363 11.6895 20.3146C11.8078 20.1576 12.0371 20.058 12.1114 19.8449L11.1778 20.3791H11.0968L11.5772 20.1105C11.5066 19.9457 11.2747 20.1703 11.1641 20.2053C10.9747 20.2636 10.7615 20.3085 10.5636 20.3254L10.67 20.4846C10.3992 20.4263 10.0027 20.5055 9.75497 20.4533C9.281 20.3535 8.9096 19.9271 8.50692 19.6848L8.66805 20.0051C8.46481 19.8777 8.29611 19.6876 8.08211 19.5764C7.95784 19.5112 7.66094 19.3517 7.62606 19.5236L7.83993 19.6838C6.76605 19.1876 5.66911 19.909 5.56454 21.0549L5.65047 21.6057C5.51804 20.6523 6.02222 19.7739 7.03914 19.7385C6.90952 19.8925 6.67761 19.9163 6.50887 20.0344C6.20677 20.2453 5.99951 20.5981 5.94344 20.9631C5.77014 22.0853 6.79754 22.7906 7.13289 23.7287C7.31922 24.2509 7.26361 24.6569 7.37313 25.1437C7.59176 26.1195 8.5567 25.7579 8.37508 24.9172L8.58797 24.9973C8.40701 24.587 8.2993 24.3225 7.91122 24.0725C7.69102 23.9307 7.34716 23.9008 7.31649 23.5949C7.28639 23.2897 7.73427 23.4767 7.90926 23.5412C8.21297 23.6532 8.40406 23.7882 8.53524 24.091L8.42782 24.1428L8.64071 24.5187C8.62461 24.7556 8.51121 24.3168 8.42684 24.4103C8.58866 24.7401 8.64854 25.0863 8.64168 25.4514L8.74813 24.757C8.91152 25.3837 8.84223 26.1997 8.04696 26.2697C7.7985 26.292 7.55971 26.1764 7.31356 26.1955C7.30032 25.9635 7.08351 26.032 7.1993 25.8234L7.09383 25.8781C7.09403 25.8223 7.12832 25.7705 7.11532 25.7131C7.07293 25.5269 6.89447 25.2938 6.83993 25.09C6.73029 24.6797 6.70208 24.2525 6.50497 23.8498L6.39852 23.9309C6.26144 23.8004 6.37685 23.5801 6.15829 23.4758L6.10555 23.5832C5.94363 23.5223 5.53122 22.9004 5.37313 22.7453C5.35891 22.7321 5.2782 22.7846 5.25204 22.7316L5.22469 22.5676L5.01864 22.6174C3.97014 21.2518 4.72497 19.1474 6.39657 18.7492C8.02899 18.3604 9.10297 19.9852 10.4991 19.6486C11.3836 19.4353 11.568 18.4903 11.5772 17.7101L11.7794 18.2824ZM15.2589 20.5461C15.2596 20.5442 15.2611 20.5422 15.2618 20.5402C14.8676 20.9398 14.4099 21.3241 13.8731 21.5266C13.8024 21.5533 13.7301 21.5761 13.6573 21.5969C13.0758 21.7619 12.435 21.7577 11.837 21.8605L11.6124 21.9055C11.4875 21.9341 11.366 21.9715 11.2472 22.0158C11.2154 22.0277 11.1837 22.0397 11.1524 22.0529C10.889 22.1643 10.6441 22.3244 10.4307 22.5676C9.7442 23.3508 9.84733 24.3062 10.046 25.2482L10.2432 25.9309C10.2434 25.926 10.2421 25.9211 10.2423 25.9162L10.2472 25.9309C10.2648 25.483 10.0762 25.077 10.0362 24.6223C9.95489 23.6947 10.0843 22.8403 10.9259 22.3117C11.8931 21.7053 12.9707 22.0057 14.0216 21.5646C14.4756 21.3744 15.0815 21.0149 15.2657 20.5402C15.2636 20.5423 15.261 20.544 15.2589 20.5461ZM25.3546 24.2766C25.4759 24.0844 25.8066 24.1947 25.96 24.2844C26.3956 24.5398 26.4961 25.1094 26.1827 25.506C26.0929 25.6196 25.7449 25.8666 25.6222 25.7707C25.6136 25.7621 25.5523 25.6068 25.6192 25.5832L25.9415 25.4523C25.7804 25.483 25.5211 25.5834 25.4083 25.3986C25.6521 25.4714 25.7306 25.1142 25.9415 25.2375L25.8331 25.051L25.9444 24.9943C25.8906 24.6723 25.6919 24.3495 25.3546 24.2766ZM14.6192 22.8342C14.5609 23.1486 14.4342 23.4461 14.4073 23.7697C14.4003 23.8545 14.3611 24.133 14.4591 24.1691C14.453 23.8431 14.5196 23.3725 14.6944 23.0949C14.7386 23.0245 14.7009 22.9679 14.8331 22.9953C14.751 23.5145 14.5997 23.8495 14.753 24.384C15.0453 25.404 16.2299 25.6257 16.8897 24.8107C17.0979 24.7229 16.8571 25.3097 16.8106 25.3723C16.5821 25.6774 16.0168 25.6876 15.6593 25.6662C15.1499 25.6363 14.7511 25.4042 14.379 25.0773L14.5128 25.3176C14.3785 25.3958 14.1779 25.0264 14.128 24.9006C13.8882 24.2968 13.9232 23.3942 14.3526 22.8889C14.2215 23.2892 14.1196 23.6553 14.1456 24.0832C14.1494 24.1462 14.1764 24.4151 14.2462 24.4367C14.2706 24.1752 14.2124 23.8624 14.2462 23.6086L14.2638 23.5217C14.3189 23.3005 14.4743 22.9624 14.6192 22.8342ZM18.1973 23.049C18.1857 23.8841 17.7691 24.6612 17.7696 25.5031C17.6773 25.515 17.7199 25.3819 17.7169 25.3176C17.7123 25.1958 17.7107 25.0721 17.7237 24.9504L18.1973 23.049ZM20.8302 24.1281C21.1708 24.8845 21.7656 25.1736 22.5235 25.3976C22.4553 25.5241 22.134 25.3705 22.0294 25.3312C21.2332 25.0336 20.727 24.508 20.6563 23.6359L20.8302 24.1281ZM24.2335 25.0783C24.2254 24.6382 24.8979 24.3077 25.2462 24.6242C25.0506 24.7937 24.8383 24.9497 24.629 25.1008C24.5694 25.144 24.5259 25.272 24.3936 25.2385V25.0246L24.2335 25.0783ZM2.05086 22.5676C1.53718 21.1608 2.90643 19.9767 4.26571 20.3264H4.26473C4.27521 20.6024 3.85976 20.4667 3.83895 20.4855C3.82362 20.5085 3.87392 20.6079 3.80282 20.6486C3.67638 20.7218 3.53428 20.6346 3.44539 20.6437C3.38765 20.6524 2.75305 21.2009 2.66512 21.3146C2.59472 21.4057 2.49501 21.5365 2.46102 21.6437C2.44644 21.6913 2.41095 21.8349 2.50301 21.8195C2.59214 21.5449 2.80962 21.1233 3.14461 21.1271C2.7197 21.4155 2.56094 21.8552 2.66512 22.3537L2.78329 21.7531C2.82504 21.7041 3.01265 21.3731 3.0909 21.4475C2.891 21.6998 2.80044 22.0876 2.98348 22.382C3.20212 22.7326 3.58887 22.5817 3.91414 22.6262C4.65416 22.7262 5.03548 23.7455 4.45125 24.2756C4.1231 24.5737 4.09166 24.32 3.87313 24.343C3.83964 24.3468 3.46461 24.4718 3.43856 24.4894C3.23459 24.6558 3.26055 25.0087 3.27743 25.2365C2.92089 24.9748 2.95926 24.3533 3.33895 24.1232C3.60614 23.9615 4.38998 24.023 4.16219 23.4455C4.00331 23.0433 3.54265 23.1707 3.19832 23.1555L3.41122 23.2609C3.1136 23.3177 2.92415 23.1917 2.66414 23.1027L3.11727 23.4221C2.58201 23.4204 2.22351 23.0415 2.05086 22.5676ZM14.0333 23.1017C13.8319 23.7025 13.8531 24.2992 13.9786 24.9152C13.8695 24.8562 13.7971 24.6113 13.7804 24.5031C13.7137 24.0722 13.746 23.4462 14.0333 23.1017ZM27.3282 21.1252C27.2143 21.4676 27.1249 21.765 27.169 22.1359L27.3253 21.5236L27.5411 21.2326C27.387 21.7541 27.3452 22.2324 27.752 22.6496C28.4861 23.4013 29.3343 22.5833 30.0147 23.0031C30.6138 23.3736 30.5171 24.2236 29.8907 24.4885C30.0461 24.3068 30.0863 24.118 30.0479 23.8781C29.9388 23.2068 29.1343 23.6643 28.6925 23.6906C28.4094 23.7075 27.7792 23.6576 27.5421 23.5012C27.3881 23.3993 27.6094 23.455 27.5948 23.3684L27.087 22.9416L27.1681 23.1535C27.0584 23.2371 26.7137 22.7175 26.6661 22.6154C26.4661 22.1906 26.4923 21.7779 26.6348 21.34C26.7257 21.3265 26.6913 21.4661 26.6866 21.5246C26.6736 21.7055 26.6143 21.851 26.6563 22.051C26.6678 22.1047 26.6631 22.2062 26.7403 22.1926C26.6952 21.8184 26.8148 21.5125 26.9552 21.1789C27.083 21.2317 26.9167 21.4754 26.9054 21.5832C26.89 21.741 26.8875 21.9547 26.9005 22.1135C26.9058 22.1756 26.9174 22.3527 27.0079 22.3527C27.0017 21.9401 26.9671 21.4005 27.3282 21.1252ZM13.6319 23.3684C13.753 23.4902 13.6183 23.7151 13.6065 23.8762C13.592 24.0784 13.6142 24.2842 13.6046 24.4865L13.4942 24.0353L13.6319 23.3684ZM17.0782 21.4475C17.2239 22.3525 17.1039 23.268 16.544 24.009L16.4376 23.9826L16.5968 23.5285L16.3302 23.9553L16.172 23.8752C16.3398 23.7156 16.4543 23.439 16.4903 23.2082L16.2403 23.6213C16.0155 23.8177 15.7254 24.1719 15.4239 24.1428C15.6968 23.9886 15.9393 23.7748 16.0636 23.4758C15.8373 23.6882 15.5893 23.8607 15.2872 23.9543C15.1317 23.9528 15.1722 23.9497 15.2794 23.8908C15.4212 23.8126 15.5394 23.7118 15.6368 23.5822L15.1817 23.7414C15.12 23.5214 15.4794 23.3716 15.6358 23.1799C16.0114 22.7181 16.1173 22.1273 16.171 21.5529C16.3428 21.5951 16.3 22.2472 16.3575 22.2473L16.544 21.5529V22.5139C16.8268 22.2906 16.5684 21.7608 16.8106 21.5529C16.9211 21.9548 16.813 22.3169 16.8106 22.7004C16.8105 22.7619 16.7751 22.9006 16.8643 22.8879L17.0782 21.4475ZM17.2931 21.5529C17.3458 21.5311 17.397 21.6736 17.3985 21.6867C17.3985 21.9374 17.4237 22.2467 17.3985 22.4875C17.3817 22.6422 17.1976 23.3532 17.1153 23.4572C17.1092 23.4649 16.9748 23.5587 16.9718 23.5012C17.1834 22.8753 17.3076 22.2179 17.2931 21.5529ZM17.6622 21.7141C17.6691 22.2009 17.6306 22.7021 17.4483 23.1545C17.3478 23.166 17.4148 23.0513 17.422 22.9953C17.4534 22.7524 17.5146 22.5109 17.5499 22.2687C17.5735 22.1023 17.4975 21.8138 17.6622 21.7141ZM24.3966 22.0051C24.2687 20.1856 25.8749 18.9177 27.6231 19.4738C28.3784 19.7148 28.8901 20.3789 29.4913 20.8605C29.6899 21.1634 29.6386 21.547 29.7052 21.8752C29.7389 22.0413 29.8941 22.3189 29.8917 22.4367C29.8878 22.6201 29.7379 22.5334 29.6466 22.4406L29.6446 22.4426C29.5357 22.3328 29.4207 22.0841 29.4122 21.9269L29.3048 22.1398C29.0737 22.049 29.1834 21.693 29.1114 21.5519C29.063 21.457 28.9143 21.3882 28.8643 21.2687C28.8331 21.1943 28.8699 21.0869 28.8546 21.0685C28.8123 21.019 28.7031 21.0369 28.6768 21.008C28.6556 20.9837 28.6649 20.8529 28.5899 20.7473C28.1677 20.1511 26.9847 19.9847 26.335 20.2092C25.0448 20.6541 25.0188 22.0728 25.6231 23.1008C24.8371 22.9203 24.8524 21.8125 25.0626 21.1789C25.1316 20.9712 25.2507 20.8441 25.3028 20.6447C24.6869 21.2461 24.7846 22.116 24.9825 22.8869C24.8967 22.8307 24.8135 22.6236 24.7813 22.5285C24.5905 21.9687 24.6759 21.5747 24.8223 21.0187C24.4958 21.4382 24.5373 22.0075 24.5557 22.5129C24.4469 22.4429 24.4058 22.1308 24.3966 22.0051ZM7.36336 22.2541C7.59248 22.1155 7.60175 22.3065 7.73739 22.3771C7.83319 22.4269 7.93923 22.4328 8.03426 22.4826H8.03524C8.10334 22.5186 8.17811 22.6081 8.10848 22.674L8.42782 22.6213C8.39023 22.889 7.84108 22.8903 7.63778 22.799C7.54987 22.7592 7.58878 22.6784 7.53622 22.6232C7.39442 22.4754 7.34573 22.5286 7.36336 22.2541ZM6.56161 20.7531C7.50518 20.8759 9.09911 21.2252 8.74813 22.5129L8.74911 22.5139L8.42879 22.4064L8.48153 22.1926C8.4378 22.2793 8.28496 22.1439 8.28036 22.1301C8.25787 22.0611 8.40305 21.9875 8.10457 21.8459C7.91604 21.7562 7.99855 21.7842 7.83993 21.6877C7.68113 21.5911 7.27688 21.4359 7.09188 21.3684C6.93002 21.3085 6.7307 21.2623 6.55965 21.2316C6.57993 21.045 6.87864 21.229 6.88094 21.1516L6.55282 20.9943L6.56161 20.7531ZM11.6827 21.6603C11.4016 21.6831 11.0822 21.7612 10.8136 21.9074C10.7058 21.9659 10.6063 22.0353 10.5206 22.1164L10.4034 22.2473L10.9903 21.9006L11.6847 21.6613C11.6822 21.6615 11.6793 21.6611 11.6768 21.6613L11.6827 21.6603ZM23.8077 12.5012C23.9388 12.7542 23.8054 13 24.0714 13.1994L23.9639 13.2521C24.1564 13.4761 24.3291 14.0819 24.2725 14.3605C24.2434 14.5046 24.1015 14.6376 24.0743 14.8029C23.9616 15.5062 24.6299 16.9362 24.8702 17.633C24.8579 17.982 24.5267 18.0532 24.2306 18.0295L24.3907 17.8166C24.235 17.7661 23.9839 17.827 23.9356 17.6545L23.8028 17.6564L23.8565 17.7619L23.4054 17.8723L23.3468 17.758L22.9825 17.8654C22.7551 17.7083 23.0338 17.5851 23.1085 17.4426C22.7638 17.5056 22.6449 17.7808 22.6807 18.1096C22.7405 18.6553 23.2869 18.3512 23.379 18.424C23.4388 18.4723 23.4476 18.7709 23.6163 18.8293L23.7227 18.5637L23.9102 18.9357C23.7131 19.0048 23.6357 18.9433 23.4561 18.8781C22.8679 18.9557 22.4278 19.4449 21.8809 19.6574C22.4493 19.9343 23.095 19.2616 23.6466 19.7199C23.8552 20.4256 22.8302 19.8276 22.5216 20.1916L22.6817 20.1633L22.7296 20.3732L22.629 20.4309H22.8419L22.7354 20.592C23.2829 20.7094 23.5868 21.1811 23.3477 21.718H23.2188L23.2149 21.8732L23.0548 21.8195L22.9483 22.0334L22.8419 21.7658L22.7891 22.1389L22.5753 21.7121C22.5331 21.8333 22.755 22.174 22.5216 22.1398L22.3604 21.5529C22.3153 21.7309 22.5268 21.9848 22.3077 22.0861C22.2433 21.9013 22.2094 21.7031 22.1534 21.5168C22.1277 21.4296 22.1963 21.3668 22.0401 21.3928C22.067 21.546 22.1271 21.6898 22.1456 21.8469C22.1533 21.9122 22.1888 22.1802 22.0938 22.1926C21.9804 21.928 21.9571 21.6295 21.8819 21.3635C21.8614 21.2907 21.8759 21.1974 21.7735 21.1789L21.8526 22.1398L21.5587 20.966V21.8469C21.559 21.8847 21.6769 22.0311 21.586 22.0871C21.5133 22.0257 21.4828 21.9229 21.4659 21.8332C21.2359 20.6321 21.1872 19.3051 21.1856 18.0842C21.093 18.0719 21.1358 18.2052 21.1329 18.2697C21.1145 18.7137 21.1468 19.1619 21.13 19.6066L21.3468 21.9523C21.2156 22.0689 21.209 21.8077 21.1944 21.7316C20.9352 20.403 21.0285 18.9925 20.9181 17.6555C20.8256 17.6432 20.8681 17.7763 20.8653 17.841C20.8109 19.1971 20.9528 20.6021 21.0802 21.9514C20.9996 22.0143 20.9396 21.7025 20.9327 21.6711C20.6551 20.3539 20.8239 18.9388 20.7042 17.6017L20.5987 18.216C20.6332 19.4425 20.6278 20.6828 20.8126 21.8986C20.7466 21.9746 20.6727 21.6916 20.6681 21.6701C20.5377 21.1492 20.5093 20.3648 20.4893 19.8195C20.461 19.0364 20.5776 18.1993 20.4112 17.4416L20.4395 21.8195C20.1527 20.3137 20.3359 18.7545 20.2247 17.2287C20.142 17.215 20.1623 17.3258 20.1524 17.385C20.134 17.4976 20.1211 17.7201 20.1173 17.8391C20.0866 18.8531 20.1363 19.8743 20.1739 20.883C20.1808 21.0731 20.1786 21.2827 20.171 21.4728C20.1687 21.5373 20.2111 21.6714 20.1182 21.6584C19.8875 20.1074 20.1006 18.5221 19.9571 16.9611L19.8468 17.8967L19.9063 20.9357L19.8516 21.4982C19.6331 20.2671 19.7857 18.9835 19.7481 17.7355C19.7381 17.4051 19.6706 17.081 19.6905 16.7482L19.5821 17.4133L19.6378 21.4455L19.4776 21.0988V16.6682C19.4755 16.6572 19.4055 16.5848 19.3722 16.5881C19.3131 18.1806 19.2653 19.7987 19.3712 21.3928C19.2914 21.4058 19.3049 21.2926 19.2911 21.2336C19.2566 21.084 19.219 20.8787 19.2091 20.7277C19.1301 19.5033 19.1285 17.6767 19.2091 16.4533C19.2133 16.3861 19.3079 15.5765 19.4249 15.7355V16.2687L19.5304 15.7726L19.7989 15.6281L19.7462 15.841L19.9337 15.7434L20.1007 15.9523C20.4941 15.7699 20.6521 16.1337 20.9581 16.3117C21.3669 16.5494 21.7398 16.5969 22.2022 16.4826L22.1495 16.6418C22.7138 16.4912 23.0361 15.9591 23.6964 16.1086C23.6963 16.0376 23.4404 16.0081 23.3975 16.008C23.2664 16.008 23.1388 16.081 23.003 16.0549C23.1114 15.8996 23.3661 15.884 23.5362 15.8947L23.2696 15.841L23.4825 15.6818L23.003 15.8156L23.5899 15.5217L23.1095 15.5744L23.5372 15.3605L23.377 15.2541C23.3621 15.1479 23.4668 15.1143 23.4845 15.0109C23.6184 14.2276 21.9291 14.1999 21.4434 14.2551C20.7062 14.3387 20.0482 14.718 19.3731 14.9865L20.4942 14.3469C20.3632 14.3324 20.2559 14.4147 20.1348 14.4416C20.0812 14.4539 19.9464 14.4948 19.96 14.4006C20.4449 14.2364 20.9341 14.0517 21.4542 14.0256C21.4536 13.9324 21.2204 13.9661 21.1583 13.9699C20.8984 13.9861 20.6427 14.061 20.3897 14.1086C20.3345 14.1194 20.215 14.1786 20.2276 14.0803L21.6153 13.759H20.8409C20.7996 13.7594 20.5249 13.9114 20.4942 13.759C20.6676 13.7689 20.965 13.5978 21.1085 13.5978H21.8819V13.5451C21.8155 13.5655 21.728 13.4921 21.6954 13.4914H20.8673C20.8648 13.4137 21.058 13.4112 21.1222 13.4006C21.4443 13.3492 21.7189 13.3449 22.0411 13.384C22.0615 13.3275 21.866 13.2787 21.8546 13.2785H21.0811C21.072 13.1468 21.0689 13.1878 21.1622 13.174C21.5095 13.1227 21.8021 13.113 22.1495 13.1721C22.1601 13.0968 22.0029 13.0896 21.9483 13.0812C21.8287 13.0628 21.7116 13.0759 21.5958 13.0598C21.5144 13.049 21.2743 13.0335 21.2423 12.9601C21.622 12.9003 21.9361 12.9275 22.3097 13.0119C22.3 12.9331 22.1181 12.885 22.0538 12.8674C21.8429 12.8099 21.6217 12.7875 21.4024 12.799C21.4006 12.7134 21.5902 12.6896 21.6446 12.6896C21.854 12.6913 22.0957 12.789 22.3097 12.799L21.6163 12.5324C21.9621 12.4439 22.4771 12.7882 22.754 12.7824C22.8346 12.7809 23.2296 12.6948 23.3263 12.6672C23.4651 12.6278 23.7179 12.431 23.8077 12.5012ZM31.1222 20.9904C31.2164 21.2242 31.2275 21.3265 31.1173 21.5549L31.0108 21.5275C31.1754 21.1647 30.7435 20.7684 31.0909 20.4348L31.1222 20.9904ZM19.1602 15.8967L19.0264 21.1809C19.0094 20.9156 18.9179 20.6391 18.9102 20.3762C18.8765 19.1556 18.9011 17.4576 19.0001 16.2434C19.0062 16.164 19.0188 15.8463 19.1602 15.8967ZM18.7852 20.9142L18.7501 20.9025C18.6821 20.8699 18.6948 20.7917 18.6788 20.7267C18.4526 19.8293 18.4354 18.5097 18.463 17.5754C18.4729 17.234 18.4875 16.738 18.5235 16.4074C18.5289 16.3557 18.5472 16.2064 18.6251 16.216L18.5743 18.1633C18.6441 18.6925 18.6046 19.2322 18.6261 19.7668C18.6284 19.832 18.5861 19.9652 18.6788 19.9523C18.8428 18.7342 18.6203 17.457 18.7852 16.2404C18.7958 16.1609 18.7925 16.0765 18.8927 16.0559L18.7852 20.9142ZM27.0089 20.2189C27.2405 20.2182 27.522 20.2399 27.7413 20.3127C27.8364 20.3441 28.6279 20.7801 28.503 20.9123L27.8214 20.4465L27.0089 20.2189ZM25.46 16.2141C25.6716 16.3728 25.7135 16.7408 25.8399 16.9816C26.802 18.8155 28.3595 17.886 29.9444 18.2687C30.6475 18.4382 31.1497 18.6765 31.2725 19.4484C31.2878 19.5464 31.3378 20.1712 31.3214 20.2316C31.2049 20.6217 30.7911 20.0771 30.6993 19.9162C30.5913 19.726 30.6379 19.4946 30.4776 19.3635L30.4766 19.3644C30.3326 19.8913 30.8431 20.0205 30.7989 20.5119C30.746 21.0863 30.094 20.891 30.2628 20.7521C31.112 20.6739 30.4777 20.0307 30.3419 19.6848C30.2708 19.5023 30.2897 19.321 30.1671 19.1125C29.9813 18.7975 29.5473 18.6283 29.1954 18.6965C29.4203 18.8901 29.8976 18.8021 29.9952 19.1506C29.3816 18.6269 28.5786 19.135 27.8614 19.0432L28.2706 18.9435L28.3946 18.8303C27.8008 18.9277 27.1951 18.835 26.6358 18.6125L26.6876 18.51C26.6155 18.5015 26.5408 18.5564 26.4718 18.5334C26.4266 18.5174 25.8486 17.9722 25.7804 17.8947C25.509 17.584 25.2806 17.1516 25.1925 16.7482L25.4591 17.1223L25.3536 16.5891L25.5655 16.9611L25.46 16.2141ZM18.3028 16.8039C18.3954 16.7917 18.3537 16.9249 18.3565 16.9894C18.4079 18.2237 18.3279 19.4693 18.461 20.6975L18.3643 20.4514C18.2118 19.2449 18.2108 18.015 18.3028 16.8039ZM18.1944 20.3781C18.1115 20.375 18.1116 20.1955 18.0987 20.1301C17.9922 19.5617 17.94 18.6829 17.9806 18.1076C17.9866 18.0164 17.9754 17.9308 18.0636 17.8703L18.1944 20.3781ZM17.7725 17.8185C17.8649 17.8064 17.8226 17.9386 17.8253 18.0041C17.8552 18.7428 17.897 19.48 17.9307 20.218C17.8506 20.2203 17.8396 20.0326 17.8311 19.9728C17.7261 19.2597 17.7066 18.5347 17.7725 17.8185ZM17.6104 18.8596L17.6632 20.1662L17.504 19.2316V18.1916L17.6104 18.8596ZM21.3477 19.5793L21.3487 19.5783V19.5803C21.3684 19.5791 21.3834 19.5637 21.3946 19.5402C21.4061 19.5165 21.4137 19.4843 21.419 19.4504C21.4296 19.3828 21.4308 19.3077 21.4327 19.2756C21.4427 19.1015 21.3921 18.9007 21.422 18.7189L21.3487 18.3039L21.3477 18.298V19.5793ZM0.222739 18.3615C-0.550122 16.6562 0.790896 14.7397 2.67489 15.1623C3.09726 15.2574 3.56848 15.5408 3.77352 15.9309C3.81321 16.0056 4.08296 16.5868 4.09481 16.6291C4.11856 16.7287 4.07742 16.8148 4.04598 16.9045L3.9659 16.9191C3.79767 16.9203 3.74293 16.7129 3.57039 16.6975C3.62041 17.0207 3.87512 17.0236 4.1036 17.1516C4.091 17.3938 3.78463 17.1762 3.68075 17.0939C3.33637 16.8192 2.94003 15.8292 2.51668 15.7492C2.42779 15.7324 2.11984 15.6862 2.07528 15.7883C2.42881 15.7461 2.52849 15.8043 2.73934 16.0588C2.78978 16.1201 2.80481 16.2253 2.85067 16.2736C2.89765 16.3231 2.97191 16.2689 2.97957 16.2707C2.99489 16.2937 2.99909 16.5009 3.04793 16.6047C3.0892 16.6918 3.56986 17.2232 3.51668 17.2834C3.41928 17.2995 3.35727 17.2165 3.30282 17.1506C3.11802 16.9281 2.99513 16.6094 2.84481 16.3801C2.2204 15.4249 0.8409 16.239 0.90145 17.2297L1.12215 16.6779C1.45355 16.2232 2.02194 15.9114 2.55575 16.2434C2.38315 16.2679 2.23635 16.1994 2.05379 16.2209C0.85185 16.3653 0.648128 18.0396 1.92684 18.4738C2.99232 18.835 3.62757 17.9976 4.44149 17.5412C5.56673 16.9108 6.79528 16.8403 7.95809 17.4055C8.16424 17.5059 9.67297 18.3691 9.73055 18.4582C9.74807 18.4867 9.71131 18.5525 9.71102 18.5607C9.79843 18.6221 10.2312 18.5334 10.1895 18.7248C8.85478 18.994 7.97065 17.777 6.68661 17.6633C5.55219 17.5636 4.53154 18.2237 3.62411 18.8059L2.66219 19.2053C3.64181 19.1661 4.35527 18.3652 5.24129 18.0207C6.28532 17.6149 7.47599 17.7616 8.32137 18.5109C7.62871 18.2678 7.0974 17.8942 6.32039 17.924C4.34952 18.0007 3.12229 20.5354 0.936606 18.9826C0.821656 18.9004 0.689954 18.6848 0.581137 18.7512L0.794028 19.0441C0.675115 19.1615 0.258796 18.4413 0.222739 18.3615ZM14.2139 18.1965C14.2039 18.1122 14.1458 18.0237 14.2735 18.1369C14.3745 18.3646 14.3142 18.6484 14.4259 18.8684H14.4249C14.4402 18.899 14.5345 18.856 14.5118 18.9377C14.2596 18.9875 14.1297 19.0727 14.1925 19.3654L13.9845 19.3576C13.9522 18.9717 13.8332 19.3904 13.713 19.4719C13.7752 19.0026 13.953 18.607 13.7667 18.1369C13.9942 18.2612 13.8965 18.6011 14.0597 18.7775C14.1157 18.6604 14.0389 18.5117 14.0304 18.3801C14.0264 18.3216 13.9959 18.1775 14.085 18.1916L14.2198 18.9387C14.3726 18.7293 14.2424 18.4379 14.2139 18.1965ZM13.5548 18.2443C13.6256 18.2435 13.6687 18.4025 13.6856 18.4582C13.7446 18.6513 13.8086 18.9634 13.6075 19.0978L13.5548 18.2443ZM31.4503 17.2961C31.9703 17.4043 32.275 18.205 31.7559 18.5119V18.5109C31.756 18.3001 31.7966 18.0777 31.6241 17.9221C31.3005 17.6297 30.9387 17.9397 30.9063 17.9191C30.8982 17.9131 30.9111 17.8471 30.8751 17.8322C30.8289 17.8131 30.6303 17.8109 30.6065 17.7687C30.512 17.3311 31.1289 17.2294 31.4503 17.2961ZM1.59676 16.6428C1.4181 16.8559 1.23963 17.1349 1.22567 17.424C1.21953 17.5582 1.35156 17.8027 1.22372 17.8703C1.06659 17.4537 1.14577 16.8291 1.59676 16.6428ZM10.7764 16.1633C10.8225 16.6404 10.5349 17.0405 10.212 17.3596C9.96661 17.6019 9.6582 17.8799 9.28329 17.7912L10.1632 17.1242L10.7764 16.1633ZM17.8761 16.0559C18.1103 16.6331 17.8679 17.4484 17.2393 17.6545L17.6114 17.1232C17.3659 17.4071 17.1612 17.6532 16.7823 17.7629C16.6231 17.7628 16.7331 17.7014 16.796 17.6691C16.967 17.5817 17.1408 17.5457 17.2374 17.3371L16.7559 17.55L16.7833 17.4426L16.4903 17.4963L16.6495 17.3371C16.5514 17.3387 16.4702 17.3832 16.3682 17.3771C16.2793 17.3718 16.1884 17.3371 16.2227 17.2307C16.6231 17.1616 16.9714 16.7366 16.9171 16.3225L17.0245 16.5881L17.0772 16.3752L17.2354 16.5881L17.2891 16.2687L17.4493 16.8557L17.3966 16.1623C17.5925 16.1084 17.5103 16.5353 17.5831 16.5353L17.6622 16.1623C17.7479 16.4137 17.7024 16.6012 17.6778 16.8449C17.6716 16.904 17.6151 17.0261 17.7149 17.0158L17.8761 16.0559ZM25.5098 12.9601L25.5362 12.6945L25.6973 12.8537L25.7569 12.7463C25.9769 12.6889 25.9739 12.9027 26.0987 13.0392C26.8682 13.8785 27.5211 13.4699 28.4747 13.4914C30.259 13.5321 31.4938 15.3434 30.5382 16.9475C30.3494 17.2649 29.9378 17.6876 29.5675 17.6848L29.8868 17.3918C29.6729 17.4311 29.4655 17.7072 29.2462 17.632L29.6202 17.3391C29.4714 17.3682 29.3519 17.4433 29.1954 17.4748C29.1407 17.4858 29.0205 17.543 29.0333 17.4455C29.2795 17.3925 29.5502 17.2563 29.7266 17.0715L28.9796 17.3918C28.9506 17.2464 29.0159 17.3002 29.088 17.2619C29.2145 17.1953 29.3604 17.1599 29.46 17.0441L29.3526 16.9914C30.0298 16.3808 30.0934 15.4614 29.4063 14.8293C29.4634 14.7758 29.6585 14.9925 29.7003 15.0412C30.0607 15.4561 30.0186 15.8625 29.9932 16.3762C30.0712 16.3538 30.0956 16.0977 30.0987 16.0295C30.127 15.4859 29.956 15.0244 29.5098 14.6984C29.4509 14.6552 28.9839 14.4007 28.9522 14.4006C28.5658 14.4006 28.1633 14.3814 27.7784 14.4006L27.7257 14.4123C27.668 14.4321 27.5989 14.4674 27.5391 14.4533C27.6562 14.3164 28.1071 14.311 28.3126 14.3049C28.4262 14.3018 28.8035 14.4652 28.7667 14.2404C28.692 14.1854 27.2363 14.2848 26.9288 14.2365C26.744 14.2074 26.0974 13.9832 25.9395 13.8918C25.7599 13.7871 25.2101 12.9499 25.2696 12.6935L25.5098 12.9601ZM17.2384 17.6564H17.2354C17.2366 17.656 17.2382 17.6549 17.2393 17.6545L17.2384 17.6564ZM23.3761 17.1769C23.0853 17.1831 22.7111 17.2792 22.629 17.6037L22.63 17.6017V17.6037C22.8106 17.4137 22.9409 17.3677 23.1554 17.3088C23.1837 17.3011 23.2136 17.2928 23.2452 17.2844C23.2656 17.279 23.2851 17.279 23.3028 17.2805H23.3057C23.324 17.2821 23.34 17.2842 23.3526 17.2824C23.3789 17.2797 23.3907 17.2601 23.377 17.1769H23.3761ZM10.4034 16.0559C10.3397 16.7132 9.77282 17.3972 9.12313 17.55L9.76278 17.0422L10.4034 16.0559ZM10.1915 15.842C10.1644 16.549 9.57301 17.1893 8.91122 17.3889H8.91024L9.76375 16.6144L10.1915 15.842ZM10.9913 14.3478C11.0662 14.3365 11.0944 14.4948 11.0938 14.5383C11.0923 14.7391 11.0284 14.9371 11.0421 15.1769C11.1019 16.1903 11.8475 17.0832 12.8585 17.2307C12.8684 17.3303 12.6858 17.2823 12.6319 17.2707C11.294 16.9922 10.6131 15.6259 10.9913 14.3478ZM9.73739 15.7365C9.80072 16.1097 9.49646 16.4264 9.28329 16.6955C9.39681 16.7975 9.88712 16.0386 9.87118 15.8957C9.97921 15.8978 9.88293 16.1359 9.86727 16.1857C9.68166 16.7702 9.12141 17.158 8.53622 17.2824L8.65731 17.1105L9.04207 16.8557C8.70772 16.9745 8.42846 17.1278 8.05575 17.0695C8.02681 16.9175 8.09622 16.9835 8.17196 16.9494C8.74639 16.6848 9.12023 16.5109 9.41707 15.8967C9.66243 15.9296 9.2696 16.264 9.36336 16.3762L9.73739 15.7365ZM12.6475 13.759C12.6869 13.8014 12.4133 14.1181 12.3712 14.2023C11.6477 15.6669 13.2156 16.5667 14.5313 16.0949C15.1327 15.8791 15.9143 14.945 16.6261 15.1037C16.6575 15.1117 16.6221 15.2294 16.8409 15.2043C16.9728 15.1889 16.8751 15.0838 16.9718 15.093C16.9871 15.3597 17.3713 15.0805 17.4522 15.3059C16.851 15.5059 16.0745 15.5846 15.7706 16.2131L15.6651 16.1076C15.0185 16.7451 14.1203 17.0501 13.2159 16.9543C13.0471 16.9366 12.5003 16.8157 12.3438 16.759C12.1645 16.6937 12.0348 16.5162 11.8477 16.4816C12.4853 17.1404 13.6629 17.1184 14.5167 16.9611L14.1036 17.1076C13.2168 17.2112 12.1573 17.1248 11.5597 16.3693C11.2245 15.9451 11.0771 15.1785 11.1661 14.6516C11.1839 14.5486 11.2705 14.2991 11.3663 14.2385L11.2784 14.9357L11.3673 15.466C11.3932 15.2062 11.3321 14.8902 11.3673 14.6389L11.3663 14.6398C11.3864 14.5002 11.4917 14.2765 11.6065 14.1867C11.6825 14.2634 11.4719 14.5206 11.6329 14.5598C11.619 14.5148 11.7404 14.0037 11.8468 14.133C11.8874 14.1828 11.6285 14.5524 11.7931 14.6125C11.7455 14.5083 12.0663 13.961 12.1143 14.0256L12.1407 14.1848L12.6475 13.759ZM14.0118 16.7365C13.8251 16.743 13.6353 16.7998 13.4737 16.8039C13.3434 16.8077 13.0911 16.6722 13.0225 16.8019H13.0274L13.0264 16.8039L13.6427 16.8596L14.2003 16.7512C14.1985 16.7508 14.1962 16.7506 14.1944 16.7502H14.1964C14.1841 16.7475 14.1716 16.7462 14.1593 16.7443C14.112 16.7372 14.064 16.7348 14.0157 16.7365H14.0118ZM30.6876 14.4533C31.9862 13.836 32.9368 15.6885 32.0567 16.5685V16.5695C31.8173 16.8087 31.3686 16.9816 31.1163 16.6682C32.2091 16.7415 32.3556 15.5906 31.6514 14.9562C31.6352 14.9426 31.3806 14.771 31.3624 14.7639C31.1031 14.6765 30.7896 14.8016 30.6876 14.4533ZM26.4483 15.1476L26.3692 14.881C26.4703 14.8476 26.541 14.9527 26.6085 14.9611C26.6936 14.9726 26.79 14.8918 26.9034 14.9592C26.9563 14.9912 27.0499 15.2019 27.1173 15.2795C27.6904 15.9331 28.1713 16.1005 29.0382 15.842L28.8243 16.1076L29.0382 16.135C28.5549 16.5185 28.0381 16.4344 27.4903 16.2687L27.9483 16.4777L28.878 16.4289C28.8305 16.5271 28.5669 16.5732 28.4718 16.5832C27.7008 16.6622 27.3483 16.4371 26.796 15.9484C26.8174 15.9806 26.81 16.071 26.8458 16.1232C26.9055 16.209 27.1318 16.2842 27.17 16.4279L26.7149 16.1096L25.9962 15.0412C26.0603 14.9757 26.6073 15.8389 26.6671 15.8947C26.7219 15.9447 26.787 15.9419 26.796 15.9494V15.9484C26.6088 15.6654 26.2964 15.2908 26.1514 15.0178C26.1245 14.9678 26.0546 14.8649 26.128 14.8273L26.4483 15.1476ZM23.3936 16.2092C23.2071 16.2016 23.0313 16.2525 22.877 16.3547C22.786 16.4149 22.7016 16.4918 22.629 16.5881L22.63 16.5871L22.629 16.5891L23.0938 16.3342L23.6964 16.2697C23.6451 16.2514 23.5937 16.2368 23.5431 16.2267C23.4928 16.2167 23.4428 16.2112 23.3936 16.2092ZM0.712973 12.2668C0.9779 11.5852 1.87793 11.4949 2.51375 11.5861C3.07969 11.6684 3.66657 12.2104 3.87606 12.7326C4.24499 13.6539 3.75419 14.8881 4.77938 15.4582C6.48711 16.4064 7.96427 14.1491 9.54696 13.8684L9.06649 14.1877C9.25136 14.1777 9.40156 14.0704 9.58797 14.0412C9.64491 14.0318 9.77146 13.9855 9.75985 14.0803L8.79989 14.508C9.15566 14.4427 9.46783 14.2057 9.83895 14.1857C9.89718 14.1827 9.98798 14.1582 9.97372 14.2414L9.06649 14.6144C9.28041 14.6144 9.483 14.4938 9.68465 14.4592C9.73834 14.45 9.88043 14.417 9.86629 14.507C9.2674 14.6988 8.65377 14.9652 8.212 15.4152C8.73205 15.0992 9.28874 14.7234 9.92 14.7219L9.25887 14.9953C9.0902 15.1209 8.88635 15.1927 8.71004 15.3C8.51601 15.4181 8.09753 15.7927 7.97079 15.842C7.72195 15.939 8.17595 15.452 8.212 15.4152V15.4142C7.83229 15.6451 7.51683 15.9236 7.10262 16.0939C6.79355 16.2212 6.45112 16.2737 6.15047 16.424L6.0245 16.3225C6.10189 16.4406 5.65779 16.4876 5.63094 16.4807C5.59223 16.4702 5.59852 16.3776 5.56258 16.3723C5.48123 16.3602 5.34607 16.4438 5.20125 16.4269C5.05632 16.4099 4.8728 16.2537 4.69344 16.2629C4.77047 15.884 4.46385 15.9789 4.24227 15.8342C4.14043 15.7675 4.13185 15.6851 4.07137 15.6291C4.01091 15.5734 3.92158 15.5879 3.88387 15.5392C3.82622 15.462 3.67472 15.0505 3.64559 14.9348C3.57674 14.6628 3.55886 14.3599 3.56649 14.0803C3.44958 14.1314 3.45871 14.4649 3.46102 14.5832C3.46266 14.6875 3.59237 14.9402 3.46102 14.9865C3.2909 14.4689 3.39805 13.968 3.40731 13.4396C3.4368 13.3815 3.58786 13.823 3.56649 13.5744C3.55195 13.408 3.54794 13.1601 3.3536 13.2248L3.41122 12.9377L3.29793 12.8742L3.35457 12.7453L3.19442 12.798L3.24325 12.6428C2.92758 12.4358 2.82833 12.2808 2.42196 12.2678C1.60534 12.2417 1.99724 12.4772 1.72469 13.0637C1.60052 13.3289 1.25757 13.6194 1.19344 13.76C1.08452 14 1.25285 14.5495 0.845786 14.7736C0.789307 14.5812 0.976942 14.461 1.00301 14.3176C1.03274 14.1559 0.976624 13.9892 1.02938 13.8107C1.10175 13.5653 1.50226 13.2808 1.63875 12.9787C1.73983 12.7534 1.78864 12.511 1.80477 12.2658C1.53472 12.4448 1.69543 12.9147 1.37899 13.0666L1.32625 12.9064C1.21433 13.0866 1.01581 13.6537 0.844809 13.7326C0.673811 13.8108 0.509972 13.7591 0.488364 13.5676C0.471004 13.41 0.644743 12.4423 0.712973 12.2668ZM3.62411 16.2111C3.68247 16.0989 3.52973 15.8243 3.3868 15.8557C3.377 15.8574 3.36717 15.8607 3.3575 15.8654C3.132 15.9772 3.32372 16.2776 3.5245 16.2502C3.55781 16.2462 3.59204 16.2355 3.62411 16.2111ZM21.2403 15.6633C21.4152 15.5644 21.7748 15.4886 21.9405 15.6525C22.0003 15.7118 22.0975 16.0032 22.0841 16.0773C22.0349 16.3384 21.2102 16.217 21.0431 16.0422V16.0412C20.8268 15.8154 21.1103 15.8371 21.1241 15.8264C21.1611 15.7952 21.1625 15.7068 21.2403 15.6633ZM13.2345 15.6799C13.0951 13.7362 15.5575 12.7305 16.6983 14.3918V14.3928C16.4674 14.6214 16.1305 14.3044 15.8389 14.2238C15.4786 14.125 15.1887 14.0871 14.836 14.2404L15.5958 14.2531C15.7721 14.3014 16.0135 14.3337 16.1163 14.506C15.103 14.0244 14.311 14.6186 14.2472 15.6809C14.1553 15.6574 14.1372 15.4057 14.1388 15.3351C14.1451 15.1313 14.3024 14.9743 14.3009 14.7726C14.0924 14.9275 14.0647 15.2796 14.0333 15.5197L13.9249 15.4387L13.9288 15.0402L13.7139 15.7336L13.5548 15.467L13.4483 15.7873L13.3936 15.4133L13.2345 15.6799ZM20.9727 11.7316C20.7142 13.3089 19.2292 14.8124 17.5567 14.5607L18.422 14.4387C19.2387 14.2437 19.8232 13.7674 20.2481 13.0617C20.5065 12.633 20.6652 12.125 20.9727 11.7316ZM20.3604 11.8918C20.4301 11.927 20.3626 12.0385 20.3448 12.09C20.1615 12.6305 19.8781 13.1887 19.4796 13.5998L19.5772 13.5344C20.0463 13.1911 20.2579 12.5776 20.4952 12.0519C20.6042 12.0493 20.5297 12.2592 20.5118 12.3098C20.4397 12.5084 20.2074 12.925 20.0899 13.1154C19.5376 14.0091 18.222 14.6483 17.1856 14.2941H18.0118C18.5649 14.2304 19.0909 14.0025 19.4806 13.5998C18.6558 14.0992 17.8924 14.4475 16.9181 14.0793L17.0782 13.9738L16.753 13.8928C16.7857 13.6524 16.4776 13.8045 16.3848 13.5998C17.0721 13.5714 17.7884 13.5939 18.3966 13.2365C18.8361 12.978 19.1971 12.5283 19.3751 12.0519C19.5481 12.1095 19.4219 12.2458 19.4278 12.3723L19.6944 12.0519L19.5606 12.5851L19.9073 11.9982V12.3723L20.1202 11.9982C20.124 12.3334 19.9138 12.6132 19.7589 12.8908C19.7328 12.9376 19.6412 13.0244 19.7198 13.0666L20.3604 11.8918ZM4.53036 10.8771C5.71713 11.342 4.60352 12.614 5.81161 13.1457C6.74142 13.5546 7.67117 12.9812 8.42684 12.4787L8.32137 12.6916L8.64071 12.6125L8.32137 12.9592C8.3789 13.0016 8.90973 12.526 8.80086 12.7717C8.64341 13.1253 7.57296 13.7791 7.18856 13.882C6.69995 14.0124 6.30481 13.9666 5.81161 13.9475C6.50184 14.2319 7.18005 14.0308 7.80282 13.6965C8.08814 13.543 8.57899 13.0898 8.77547 13.0129C8.84346 12.9862 8.87341 13.0234 8.85457 13.092C8.13351 13.7663 7.1619 14.3321 6.13094 14.1642C6.02803 14.1473 5.31962 13.9071 5.28817 13.8557C5.26167 13.8118 5.29667 13.7179 5.26375 13.6682C5.17147 13.5302 4.90762 13.3465 4.79793 13.1994C4.58562 12.9142 4.46079 12.5647 4.42391 12.2121C4.24286 12.2735 4.56219 12.6389 4.31747 12.5851C4.27686 12.3421 4.25776 12.1099 4.26082 11.8615C4.26259 11.762 4.32052 11.6546 4.31747 11.6017C4.31536 11.5714 4.23603 11.5721 4.22762 11.5568C4.08521 11.2952 4.40963 11.2797 4.55379 11.5217C4.73632 11.8292 4.65825 12.3195 4.78622 12.6769C4.87373 12.9208 5.13702 13.2605 5.38387 13.2531C4.73967 12.7445 5.22544 11.9458 4.84188 11.3391C4.7451 11.1866 4.53112 11.0841 4.53036 10.8771ZM28.6622 14.0275C28.4051 13.9806 28.1336 14.0603 27.8907 14.0764C27.8719 14.0776 27.8535 14.0808 27.835 14.0812C27.5594 14.0868 27.2871 14.062 27.0147 14.0539H26.7374C27.1049 14.1874 27.5044 14.1167 27.8888 14.1359V14.135L27.8917 14.1359L28.6632 14.0275H28.6622ZM9.01278 13.173C9.07793 13.2477 8.5753 13.6419 8.49715 13.6984C8.25628 13.8726 7.91582 14.0833 7.62508 14.134L8.28231 13.7512L9.01278 13.173ZM8.8536 11.1428C9.11208 11.4588 9.2461 11.8567 9.48153 12.1965C9.94556 12.8652 10.5408 13.2761 11.3614 13.3859H11.3624C11.3256 13.5033 11.3012 13.4729 11.2169 13.4553C9.91808 13.1929 9.2111 12.3925 8.8536 11.1428ZM21.8653 8.91034C22.8235 8.31138 24.3941 8.66273 24.7296 9.81855C24.8876 10.3632 24.7145 10.809 25.2452 11.2248C25.6325 11.5276 26.0888 11.5673 26.5421 11.3986C27.0582 11.206 27.3897 10.5781 27.9327 10.2805C29.6325 9.34941 31.9162 10.7829 30.9874 12.6935C30.9176 12.837 30.6779 13.2577 30.5313 13.1994C30.6126 13.0691 30.7141 12.9477 30.7823 12.8098C30.8027 12.7693 30.9097 12.6056 30.7725 12.6389C30.5954 12.8414 30.3953 13.2307 30.13 13.3312C30.0383 13.3656 30.0229 13.2594 30.0509 13.2267C30.0725 13.2034 30.3982 13.1104 30.2911 12.9582C29.8968 13.3426 29.385 13.4321 28.8634 13.2648C28.4154 13.1214 27.7536 12.8067 27.2764 12.6096C27.2188 12.5858 27.0194 12.5397 27.0616 12.4523C27.0734 12.4321 27.3365 12.232 27.3663 12.2228C27.921 12.0607 28.747 12.8503 29.4542 12.6555C29.6628 12.5979 29.8711 12.431 30.0889 12.3527C30.1078 12.3451 30.1036 12.2701 30.128 12.2717C30.2507 12.2779 30.4116 12.4137 30.4239 12.1584L30.3184 12.1057L30.4806 12.0725C30.5891 11.7743 30.3329 11.6115 30.4239 11.3586L30.2647 11.4641C30.3094 11.2699 30.071 11.2937 30.1036 11.091L29.9444 11.1975L29.8936 11.007C29.6444 11.0253 29.4152 10.8935 29.169 10.8781C28.5554 10.839 28.0578 11.1444 27.5684 11.465C27.5979 11.321 27.82 11.2284 27.9327 11.135C27.9804 11.0958 28.1048 11.0296 27.9425 11.0373C27.5722 11.1877 27.2593 11.6249 26.9503 11.8068C26.2529 12.2165 25.639 12.0736 24.9923 11.6916C24.8873 11.6295 24.8169 11.517 24.712 11.4641C24.7472 11.5361 24.7401 11.6286 24.8458 11.6769L25.4591 12.051C25.2522 12.1322 24.5628 11.6035 24.5528 11.4914C24.5462 11.3975 24.6568 11.4365 24.712 11.4641L24.6524 11.3322C24.5218 11.0201 24.4494 10.673 24.3917 10.343L24.2325 10.5031C24.1173 9.67267 23.4419 9.22877 22.6329 9.51679C22.4887 9.56818 22.4003 9.68159 22.2569 9.70234C22.281 9.4495 22.6072 9.43401 22.7882 9.35273L23.5382 9.32929C22.9514 9.14447 22.3651 9.29973 21.9102 9.70234L21.8565 9.5412C21.7046 9.5274 21.6401 9.78059 21.5626 9.70234C21.4808 9.61857 21.9407 9.38526 21.9366 9.27558L21.4561 9.48749C21.4169 9.2416 21.6668 9.0345 21.8653 8.91034ZM1.80868 9.99726C1.17939 8.85888 2.38986 7.19855 3.65926 7.77265C4.17086 8.00428 4.45341 8.83169 3.99813 9.22382C4.07323 8.9693 4.0828 8.80188 3.94247 8.56952C3.73744 8.23179 3.2413 8.16697 2.89168 8.30487C2.49523 8.46131 2.3492 8.99103 2.39657 9.383L2.56356 8.83026L2.92977 8.63691C2.39378 9.06414 2.56689 9.73934 3.19637 9.94355C3.95127 10.1875 4.64465 9.56313 5.29598 9.26776C6.95367 8.51684 8.53284 8.80004 9.70809 10.2121C10.2727 10.8903 10.5565 11.8942 11.5753 12.0822C12.8863 12.3237 13.7923 10.9104 15.5704 11.343C16.1541 11.4849 17.0147 12.1649 17.5157 12.0939C17.7442 12.0609 17.9372 11.8586 18.1964 12.0002C18.2063 12.072 18.1989 12.135 18.1495 12.1916C18.0744 12.2766 17.9349 12.2226 17.9307 12.3195H18.3311L17.6632 12.5344L18.0899 12.6398C17.7171 12.7579 17.3885 12.6517 17.0225 12.5881L17.7169 12.8537C17.2612 12.8506 16.7681 12.724 16.462 12.3742C16.4398 12.6058 16.8364 12.7545 17.0098 12.842C17.124 12.8994 17.1379 12.9103 16.9991 12.9064C16.6862 12.8781 16.3741 12.5232 16.1417 12.4279C16.1171 12.418 16.0546 12.4148 16.0626 12.4543L16.4356 12.7746C16.2938 12.8007 16.091 12.6062 15.9376 12.5256C15.0478 12.0554 14.3798 12.0458 13.4317 12.3879C12.6486 12.6702 12.4083 12.9405 11.4932 12.9152C11.4304 12.9137 11.2989 12.8651 11.3106 12.9611C12.4383 13.2625 13.36 12.2627 14.4317 12.2121C14.9326 12.1884 15.5993 12.325 15.9552 12.6945C15.6876 12.6232 15.3875 12.4302 15.1153 12.3879C13.2825 12.1025 12.0702 13.9889 10.2481 12.6096C9.69518 12.1907 9.54635 11.527 9.17586 11.1994C9.2464 11.3367 9.29872 11.5105 9.37997 11.6623C9.89858 12.6274 10.7123 13.1818 11.8263 13.2248C11.9457 13.2293 12.0316 13.1835 12.1388 13.175C12.197 13.1704 12.3369 13.1369 12.3243 13.2277C11.051 13.4523 10.0561 12.9963 9.3995 11.9094C9.30957 11.7602 9.06017 11.3129 9.01571 11.1711C9.0074 11.1432 9.00177 11.0839 9.0411 11.092C9.07481 11.1403 9.13423 11.1634 9.17489 11.1994C8.95407 10.7708 8.77953 10.4099 8.3702 10.1047C8.34865 10.0893 7.97656 9.90522 7.94442 9.89374C7.25339 9.63774 6.40977 9.59391 5.75789 9.97187C6.34779 9.80698 7.12332 9.72168 7.71395 9.91034C7.78445 9.93332 7.8764 9.92906 7.89266 10.0246C7.22069 9.84051 6.6272 9.83007 5.95907 10.0402C5.69001 10.1254 5.47335 10.3012 5.19735 10.3449L5.47957 10.1369C5.62994 10.1484 5.70419 10.0023 5.75789 9.97089L5.75887 9.96991C5.3592 10.0819 5.05027 10.3378 4.6368 10.3976C4.74859 10.6996 4.50973 10.5989 4.36629 10.631C4.2695 10.6535 4.27587 10.7533 4.22469 10.7687C3.93856 10.8523 3.22587 10.8189 2.93954 10.7346C2.53916 10.6172 2.06076 10.2671 1.91414 9.86444L1.80868 9.99726ZM27.0089 12.6916C27.4314 12.7055 27.8 12.9214 28.1827 13.0656L27.9659 13.0949L27.0089 12.6916ZM14.0372 12.6125L13.0235 12.9592C13.4815 12.6073 14.1594 12.4636 14.7315 12.4797L14.0372 12.6125ZM1.08895 12.2336C1.03023 12.2288 0.958579 12.2651 0.903403 12.3508C0.77553 12.5503 0.871583 12.7034 0.98934 12.6916C1.04443 12.6897 1.10589 12.6532 1.15145 12.5656C1.26039 12.3566 1.19105 12.2345 1.08895 12.2336ZM9.72079 11.7453C9.7171 11.7407 9.71275 11.7363 9.70907 11.7316C9.85482 12.139 10.2619 12.545 10.67 12.6916C10.6689 12.6907 10.6681 12.6895 10.6671 12.6887C10.6697 12.6896 10.6723 12.6916 10.6749 12.6926C10.3114 12.4042 10.0033 12.0951 9.71493 11.7316C9.71659 11.7363 9.71905 11.7407 9.72079 11.7453ZM7.83895 11.4113L7.99911 11.4641L7.67977 11.6789L7.99911 11.6252V11.7316C7.44451 12.027 6.82133 12.2036 6.18465 12.1584C6.17227 12.077 6.28435 12.0956 6.34481 12.0803C6.55094 12.0267 6.78022 12.0193 6.97567 11.9611C7.06838 11.9336 7.11537 11.9799 7.0909 11.8391C6.69913 11.98 6.31957 11.9508 5.91707 11.8918V11.7326C6.62481 11.7861 7.2284 11.4018 7.89168 11.2521H7.89266L7.83895 11.4113ZM13.3702 9.54413C14.5952 8.51564 16.2998 8.43554 17.5333 9.48847C17.8516 9.76002 18.3532 10.4542 18.6807 10.5832C19.1748 10.7772 19.9431 10.3022 20.4747 10.2424C21.1289 10.1696 21.7804 10.2875 22.3057 10.6955C22.5221 10.8638 22.9527 11.5253 23.0938 11.5646C23.273 11.6141 23.2977 11.38 23.3253 11.2512L23.3263 11.2502C23.5008 11.3123 23.3929 11.4425 23.379 11.5705L23.5391 11.2502C23.5953 11.1953 23.9194 11.7845 23.6202 12.0519C23.2106 12.4163 22.5023 11.7687 22.2306 11.4641L22.1514 11.5705C22.1678 11.3143 21.5783 10.9824 21.3643 10.9426C20.9241 10.8605 20.5136 11.0519 20.0948 11.1447L20.2813 11.0363C20.2939 10.9413 20.1663 10.9879 20.1095 10.9973C19.9077 11.0302 19.6669 11.1391 19.4659 11.2082C19.3756 11.2389 19.3104 11.3168 19.2315 11.3391C19.1475 11.3619 18.2811 11.1473 18.1729 11.0959C17.7327 10.8863 17.3278 10.1392 16.8399 9.8078C15.5776 8.95004 14.4583 9.54161 13.4229 10.3967C13.3266 10.3254 13.4836 10.2536 13.502 10.2092C13.6177 9.93185 13.0432 10.4734 13.0225 10.4504L13.2354 10.1027C13.086 10.0492 12.8859 10.3578 12.8067 10.5021C12.7204 10.5098 12.6875 10.5274 12.7013 10.424C12.7319 10.1974 13.1878 9.69743 13.3702 9.54413ZM12.1388 9.04316C11.3847 9.94981 12.2947 11.1344 13.338 11.2512C13.3548 11.3654 13.3426 11.3374 13.2706 11.3703C13.045 11.4731 12.8272 11.4727 12.5909 11.4113L12.7501 11.5705C11.6939 11.4773 10.8894 9.73543 11.7354 9.00898C11.7071 9.1738 11.6094 9.294 11.5802 9.46796C11.5678 9.54055 11.531 9.83402 11.629 9.86249C11.5787 9.4904 11.7706 8.92097 12.2169 8.95624L12.1388 9.04316ZM11.3136 9.17011C11.4041 9.15683 11.37 9.29723 11.3653 9.35566C11.3492 9.54947 11.305 9.66025 11.3194 9.883C11.3608 10.5096 11.6639 11.1433 12.1661 11.5178L12.0069 11.4465C11.2486 11.0433 11.0454 9.94391 11.3136 9.17011ZM11.127 9.27655C11.1582 9.42655 11.07 9.56612 11.0675 9.71991C11.0606 10.2592 11.3279 11.006 11.6876 11.4103C11.5902 11.5031 11.2324 10.9357 11.1973 10.8605C11.0003 10.4295 10.8751 9.70614 11.127 9.27655ZM25.2442 10.2922C25.7106 10.3185 26.1092 10.7954 26.0958 11.2512C25.9647 11.1511 25.9631 10.9611 25.8761 10.8068C25.8575 10.7751 25.6736 10.5374 25.6544 10.5217C25.5439 10.4313 25.3203 10.4154 25.2442 10.2922ZM24.8692 9.49042C25.5918 9.22128 26.4813 9.65987 26.835 10.3264C27.082 10.7926 27.041 10.9384 26.5782 11.1975L26.5518 11.091L26.4181 11.1975C26.3759 10.9553 26.3162 10.6713 26.1241 10.5041C26.1152 10.7032 26.2767 10.8579 26.3067 11.0685C26.3228 11.1804 26.3345 11.2166 26.2042 11.1975C26.1746 10.6079 25.6766 10.126 25.0831 10.1291L25.2725 10.0744L25.67 10.0773L25.0831 9.96991L25.1895 9.80976C25.0093 9.82816 24.8984 9.64841 24.8692 9.49042ZM6.64071 10.51C7.00579 10.5186 6.83479 10.7867 6.56649 10.7766L6.98446 10.8225C6.61246 10.9398 6.22252 11.0416 5.83211 11.0861C5.72624 11.0984 5.75615 11.0754 5.75692 10.9826L5.91707 10.9299H5.43661C5.62941 10.6684 6.33393 10.503 6.64071 10.51ZM14.1007 10.0051C15.6072 8.92974 16.8798 9.63125 17.8233 10.9836C17.3884 10.8132 17.1551 10.3769 16.7501 10.1076C15.6925 9.40242 14.8085 9.73488 13.836 10.3898L13.713 10.2902C13.8976 10.3175 13.9688 10.0994 14.1007 10.0051ZM11.0411 10.8762C10.9646 10.8882 10.9696 10.7827 10.9513 10.7267C10.8808 10.5098 10.8225 10.2368 10.8087 10.01C10.8032 9.92809 10.7469 9.87847 10.8556 9.80878L11.0411 10.8762ZM2.07625 9.80976C2.13541 10.0017 2.25856 10.1585 2.41512 10.2834C2.68906 10.5024 3.06695 10.6236 3.39071 10.6584C3.42091 10.6618 3.4875 10.6727 3.54891 10.674C3.57 10.6745 3.59033 10.6742 3.60848 10.6711C3.63443 10.6668 3.65625 10.6592 3.66805 10.6437L3.67782 10.6115L3.67586 10.6105L3.43075 10.5988C3.2998 10.5854 3.17534 10.5578 3.05575 10.5217C2.98903 10.5014 2.92451 10.4777 2.86141 10.4504C2.79551 10.4219 2.73189 10.3899 2.67 10.3537C2.58498 10.3039 2.5032 10.2482 2.42586 10.1838C2.29912 10.0783 2.18162 9.95443 2.07625 9.80976ZM23.1095 9.54511C23.5011 9.48615 23.9151 9.81754 24.0177 10.1838C23.9494 10.2543 23.6115 9.83596 23.5352 9.78632C23.3949 9.69436 23.1885 9.70077 23.1095 9.54511ZM29.6456 9.22187C29.4651 8.88612 30.2749 8.80085 30.5167 9.31366C30.6278 9.55008 30.6382 10.0734 30.3155 10.1271C30.2866 9.94076 30.2737 9.66782 30.1583 9.51191C30.0537 9.37105 29.7139 9.34905 29.6456 9.22187ZM18.9307 9.12714C19.4212 7.3577 21.9997 6.5376 23.4542 7.67401C23.6159 7.80048 24.3743 8.54013 24.2296 8.74042V8.7414C24.123 8.68007 24.0047 8.63735 23.8966 8.57831C23.0858 8.13878 22.4731 7.6898 21.4522 7.96503C20.9761 8.09308 20.3617 8.62379 20.1466 9.06171C20.1036 9.14911 19.9179 9.93941 19.7462 9.75605C19.751 8.9355 20.3862 8.28437 21.1056 7.99433C21.191 7.92016 21.0539 7.93757 21.0108 7.95136C20.1686 8.23828 19.6387 9.04312 19.5841 9.91523L19.4786 9.38202L19.3985 9.75995C19.21 9.78831 19.1336 9.88161 19.1036 10.0754L19.0509 9.80976L18.9444 10.0754C18.7229 9.88196 18.8571 9.39405 18.9307 9.12714ZM24.1768 8.12909C25.3926 7.49425 27.0553 8.50602 27.085 9.86347L26.8175 9.49042L26.7647 9.59687C26.5155 9.25253 26.3869 9.02928 25.9903 8.8498C26.0533 8.89892 26.4805 9.25845 26.4171 9.33026C26.121 9.07637 25.8092 8.79683 25.4034 8.74237C25.3885 8.65304 25.5371 8.68183 25.587 8.69257C25.6867 8.7141 25.8875 8.80301 25.9903 8.8498C25.5549 8.51277 25.2391 8.57682 24.71 8.52851L25.0304 8.3703C24.6238 8.39946 24.4431 8.51422 24.1768 8.12909ZM20.1739 9.59687C20.2386 8.49312 21.5918 7.7012 22.627 8.10273C22.5866 8.22966 22.339 8.11725 22.2384 8.12226C21.3962 8.16444 20.87 8.48305 20.4473 9.20234C20.3561 9.35805 20.3978 9.55541 20.1739 9.59687ZM29.5968 8.10566C29.8432 8.07277 30.3079 8.11977 30.3643 8.41913C29.9386 8.31545 29.2642 8.56537 29.1925 9.03827C29.1802 9.1216 29.2621 9.42355 29.2452 9.43476C29.0413 9.54164 28.913 9.23256 28.8946 9.06464C28.8519 8.67345 29.1988 8.15862 29.5968 8.10566ZM26.4874 6.86054C26.8326 6.22269 27.7381 6.27825 28.2169 6.73359L28.2179 6.73261C28.7937 7.28032 28.7891 8.17148 28.3429 8.79511L28.1573 8.58222C28.0202 8.63583 27.9986 8.84921 27.9337 8.90644C27.8409 8.98774 27.2821 9.22167 27.1768 9.16425L26.8497 8.71601C27.2299 8.50911 27.4979 8.46797 27.6544 8.02167C27.7054 7.87595 27.6207 7.65392 27.9161 7.67597C27.8276 7.79863 28.0071 7.9254 28.129 7.83417L27.9698 7.70234C27.9248 7.51712 28.1151 7.62235 28.0753 7.4621C27.9235 7.40758 27.8519 7.24468 27.6886 7.12812C27.1916 6.77309 26.7253 6.82796 26.4483 7.40839C26.2913 7.33848 26.4314 6.96425 26.4874 6.86054ZM19.4005 7.06464C19.4916 7.06398 19.9237 7.10429 19.96 7.14179C19.9846 7.16787 19.9721 7.26937 19.8946 7.26093L19.1612 7.35468C19.2095 7.46575 19.4565 7.36036 19.5587 7.35175C19.6154 7.34714 19.7613 7.31886 19.7472 7.40741C18.7576 7.42429 18.3433 8.27551 18.3585 9.16913C18.2811 9.1599 18.2681 8.93548 18.2589 8.86933C18.2413 8.73906 18.2551 8.60604 18.252 8.47577C18.1732 8.48649 18.1631 8.70528 18.1524 8.77558C18.1379 8.87059 18.1446 8.96767 18.1446 9.06269C17.8959 8.86471 18.173 8.51649 18.1446 8.26191L17.9317 9.06269L17.878 8.63593L17.7188 9.00898C17.6392 8.01484 18.371 7.07691 19.4005 7.06464ZM18.7872 8.02167L18.8936 8.07441L18.6554 8.42401L18.5206 9.06269C18.3676 8.59839 18.675 7.71754 19.212 7.67597L18.7872 8.02167ZM7.84286 8.20819C6.81839 6.34725 8.91497 4.93915 10.6134 5.33026C10.6854 5.77268 10.0739 5.82284 9.76375 5.91327L9.81747 6.01972C9.57284 5.94619 9.07392 6.22321 8.88192 6.39276C8.51678 6.71494 8.58378 7.53801 9.01864 7.80585C9.76271 8.2638 10.8549 7.37559 11.629 7.21894C12.7397 6.99346 14.0046 7.47044 14.3546 8.60859C14.1539 8.74395 14.2113 8.44446 14.0343 8.47577L14.087 8.68964C13.5992 8.54995 13.3733 8.01662 12.8302 7.89081C12.6926 7.88701 12.7048 7.89716 12.8194 7.95526C13.1883 8.14088 13.5198 8.36815 13.7139 8.74237L12.877 8.16523L11.9249 7.93769L11.3126 8.04901C11.634 8.08422 12.0453 8.00147 12.3536 8.04901L12.3546 8.04804C12.6046 8.08741 12.9815 8.36506 13.128 8.58124C12.9348 8.51446 12.7994 8.35653 12.5938 8.28827C11.7902 8.02011 11.1402 8.27633 10.3526 8.42206L10.4581 8.52851C10.1339 8.56082 9.80191 8.74074 9.47079 8.74628C8.77803 8.75779 8.11395 8.3432 7.81551 7.7287C7.71053 7.84989 8.00206 8.12371 7.84286 8.20819ZM7.92391 7.46015C7.85338 7.74995 8.13918 8.08571 8.35164 8.25995C8.45237 8.3422 8.55542 8.40926 8.66024 8.46308C8.66568 8.46589 8.67138 8.46815 8.67684 8.47089C8.77769 8.52123 8.87995 8.56005 8.98446 8.5871C9.34922 8.68215 9.73622 8.64383 10.1427 8.52948C10.1397 8.49372 10.1244 8.47641 10.1036 8.46991C10.102 8.46931 10.1004 8.46842 10.0987 8.46796C10.0901 8.46607 10.0805 8.46593 10.0704 8.46698H10.0675C10.0051 8.47353 9.92123 8.52736 9.89852 8.52851H9.8995C9.64035 8.54384 9.36095 8.52853 9.09872 8.52851C9.07857 8.52851 9.05782 8.52572 9.03622 8.52265C9.01314 8.51924 8.98936 8.51464 8.96493 8.508C8.95308 8.50483 8.94091 8.50212 8.92879 8.49823C8.51989 8.3655 7.96897 7.83415 7.92782 7.4621C7.92711 7.46503 7.9265 7.46796 7.92586 7.47089C7.92539 7.46738 7.92429 7.46363 7.92391 7.46015ZM3.41219 6.73944C3.94697 6.26746 5.03213 6.44354 5.41122 7.03534C5.59219 7.31755 5.61848 7.89654 5.90047 8.09394C6.26641 8.34864 6.84299 8.10233 7.25497 8.15448L7.25887 8.18378C7.24752 8.25808 7.11027 8.36898 7.08114 8.38202C6.91466 8.45797 6.49561 8.56058 6.31454 8.57441C6.14941 8.5866 5.69258 8.51139 5.53231 8.46308C5.24174 8.37554 5.09247 7.6532 4.98739 7.40741C4.87263 7.29653 4.90253 7.3751 4.92782 7.46698C4.96769 7.61484 5.04158 7.75773 5.06161 7.92011C5.06851 7.97765 5.10756 8.11458 5.01473 8.10077C4.90118 7.71033 4.7192 7.21786 4.26668 7.13886C4.25297 7.04626 4.3917 7.08406 4.44149 7.09784C4.56252 7.13238 4.65076 7.22701 4.77254 7.24628C4.70227 7.00066 4.34662 6.98547 4.14657 6.92109C4.10392 6.90701 4.10888 6.82836 4.07137 6.82148C4.01284 6.81101 3.49337 6.89636 3.46493 6.87226L3.50594 6.77362L3.41219 6.73944ZM12.5802 5.39179C14.2072 4.69104 16.3037 5.88035 16.4835 7.65448C16.492 7.73577 16.5379 8.60962 16.3302 8.42109L16.3321 8.42206L16.2774 8.15546L16.0899 8.26288L16.0645 7.9953L15.7979 8.20819C15.7373 7.29081 15.431 6.56201 14.588 6.13398C14.5396 6.10909 14.4468 6.02386 14.4093 6.0998C15.0574 6.42195 15.5987 7.05895 15.6319 7.81366C15.6342 7.86656 15.5803 8.29191 15.4776 8.15546C15.4544 6.46029 13.9341 5.77087 12.4337 6.23261L12.7667 6.05878L13.3946 5.91327C13.041 5.88489 12.6954 5.97197 12.3595 6.07245C12.0996 5.80246 12.2419 5.53829 12.5802 5.39179ZM13.4981 6.28632C14.5329 6.19431 15.3116 7.03073 15.2589 8.04706L15.0557 7.47577C14.8855 7.07787 14.6778 6.74866 14.2813 6.54316L13.4981 6.28632ZM22.3614 6.31269C22.6271 6.01465 23.3442 6.39164 23.6358 6.58417C23.836 6.71609 24.6968 7.58219 24.4942 7.78046H24.4952C24.3792 7.89415 24.2404 7.66049 24.211 7.63984C23.8721 7.41591 23.5755 7.06601 23.1983 6.86347C23.0804 6.7999 22.9795 6.75465 22.8409 6.76679C22.814 6.69049 23.0527 6.72234 22.9473 6.60761C22.9135 6.57277 22.3645 6.42298 22.3614 6.31269ZM18.3888 6.45526C18.9371 6.22604 19.365 6.17389 19.9464 6.32343C20.0214 6.34258 20.2099 6.35561 20.2227 6.44648C20.1216 6.49551 19.9775 6.39403 19.9298 6.39374C19.6821 6.39374 19.3637 6.3662 19.129 6.39374C18.6504 6.45049 18.097 6.77493 17.7686 7.11542C17.6928 7.19436 17.6529 7.33359 17.5909 7.39276C17.4881 7.48987 17.3006 7.48092 17.2598 7.72968C17.2593 7.15904 17.9017 6.65929 18.3888 6.45526ZM16.6505 6.42011C17.8634 4.74494 20.8493 5.1643 22.1788 6.49823C22.2243 6.54484 22.5626 6.94367 22.5225 6.98066L22.4815 6.98847C22.3465 6.98357 21.9558 6.83042 21.8819 6.78437C21.7547 6.70379 21.6366 6.45737 21.5079 6.52655L21.7208 6.7414C21.6204 6.81794 21.4969 6.60651 21.3966 6.53144C21.221 6.40113 21.027 6.29277 20.8399 6.18085C20.6782 6.17242 20.802 6.23839 20.8497 6.27753C20.9969 6.39944 21.1975 6.48465 21.295 6.65937L20.4932 6.23359L20.5733 6.39374C19.274 5.86928 17.8976 6.26169 17.1036 7.40741C17.1147 7.00285 17.5085 6.7924 17.7179 6.50116C17.6183 6.47827 17.59 6.55678 17.5304 6.60663C17.3004 6.79985 17.0818 7.07163 16.9698 7.3537C16.8711 7.36581 16.9231 7.2422 16.9415 7.19159C17.016 6.9878 17.1562 6.80588 17.2374 6.60663L16.8272 7.08808L16.6505 7.03437C16.7939 7.04126 16.8258 6.76984 16.8634 6.65937L16.6231 6.92694C16.3717 6.85173 16.5576 6.54826 16.6505 6.42011ZM9.81942 3.19062C10.5601 3.14495 11.0865 3.88014 11.1534 4.55194C11.2377 5.40433 10.7841 6.49634 10.2462 7.13788C10.7513 5.95346 11.6753 4.23764 10.2403 3.32929L9.81942 3.19062ZM4.74618 4.97773C5.18646 4.62042 5.72876 4.50683 6.2618 4.7453C7.16888 5.15193 6.9507 6.30425 7.25497 7.08515L7.25399 7.08417C6.98855 7.20539 6.88315 7.00902 6.74813 6.81952C6.65684 6.82719 6.87798 7.19045 6.69539 7.03241C6.35899 6.55757 6.64066 5.91952 6.18661 5.50995C6.07609 5.45531 5.36201 5.69205 5.1993 5.75214C4.92005 5.85494 4.74271 6.07956 4.42586 6.01972C4.39621 5.85784 4.47602 5.93807 4.55184 5.90839C4.75964 5.82709 4.94544 5.70629 5.13485 5.63495C5.48151 5.50465 6.00325 5.60233 5.92 5.05976C5.76375 5.25592 5.72481 5.38816 5.4659 5.48554C5.31097 5.54306 5.51617 5.33668 5.36141 5.38105C5.07156 5.46466 4.86378 5.60647 4.62606 5.71308C4.48022 5.778 4.18528 5.75347 4.21786 5.57441C4.23149 5.50648 4.65963 5.04819 4.74618 4.97773ZM7.91805 4.42109C7.83308 2.90456 8.91525 1.68249 10.5001 2.16034C12.4252 2.74128 12.5674 5.35551 11.588 6.8039C11.4922 6.94484 11.4578 7.00819 11.2579 6.98066H11.2559L11.5235 6.10077C11.4689 6.01731 11.4579 6.14174 11.4434 6.17987C11.389 6.32471 11.3524 6.46758 11.2843 6.60859C11.2498 6.67981 11.1711 6.84519 11.0968 6.87323C11.1177 6.63201 11.2409 6.41794 11.2862 6.1828C11.2971 6.12743 11.3556 6.00753 11.2569 6.01972C11.1549 6.2828 11.1374 6.66295 10.8829 6.81952L10.8565 6.66034L10.5636 7.03437C10.8942 6.18134 11.4805 5.19628 11.2335 4.25507C11.0676 3.62237 10.3709 2.86183 9.65243 3.0539C9.50899 3.51642 9.46229 3.9061 9.06356 4.22675C8.9517 4.31716 8.54716 4.51001 8.50789 4.57929C8.37103 4.82653 8.66946 5.45258 8.1075 5.59296C8.07361 5.38183 8.33384 5.31312 8.36629 5.12714C8.39595 4.95398 8.25397 4.78634 8.34872 4.58026C8.42751 4.41073 9.01612 4.16506 9.20321 3.93964C9.39032 3.71394 9.59862 3.24302 9.46981 2.97773L9.20125 3.7248C9.12359 3.60025 9.44678 3.17176 9.17586 3.19062C9.17582 3.45667 9.08086 3.70514 8.88387 3.88691C8.78346 3.97962 8.67087 4.00647 8.59188 4.07538C8.4109 4.23273 8.26932 4.61206 7.91805 4.42109ZM24.3243 3.36151C25.1373 3.21125 26.2548 3.87469 26.5528 4.63007C26.9264 5.57746 26.4749 6.53917 25.46 6.71112L25.4581 6.7121L25.8263 6.52069L26.0977 6.23261C25.9048 6.30398 25.769 6.45042 25.5645 6.52558C25.148 6.67898 24.8469 6.63846 24.4259 6.54413C24.3568 6.52881 24.1771 6.53216 24.1768 6.44648C24.8098 6.52166 25.2795 6.66914 25.8272 6.25409C25.8769 6.21597 26.1032 6.02628 26.045 5.96503C25.5387 6.52271 24.9167 6.53928 24.2325 6.31073C23.9733 6.22404 23.6631 5.9474 23.4806 5.88593C23.3993 5.85838 23.3427 5.92252 23.2423 5.86347C22.9645 5.70122 22.5413 5.01745 22.4171 4.70917C22.5734 4.60138 22.5194 4.94578 22.6827 4.95038C22.4988 4.58614 22.5813 4.34022 22.7891 4.01581L23.3321 4.96796C23.8231 5.66916 25.2448 6.48284 25.6729 5.32441L25.7794 5.59101L25.8331 5.11054L25.6739 5.26972L25.7257 4.95038C25.5763 5.01452 25.4602 4.95327 25.46 4.79023L25.6182 4.89667L25.5128 4.71015L25.672 4.57636C25.3162 4.60151 25.0179 4.41943 24.712 4.30976L25.0313 4.52362C25.0283 4.64561 24.8457 4.54169 24.7989 4.51484C24.5237 4.35739 24.2343 3.99257 24.1231 3.69745C24.0328 3.45839 24.0721 3.40829 24.3243 3.36151ZM15.4229 4.76386C15.8495 4.15581 16.7717 3.95856 17.4513 4.17694C17.8186 4.29504 18.3705 4.74524 18.5196 5.10956V5.11054C18.1531 5.31604 18.0141 4.84396 17.7198 4.8703L17.879 5.05683C17.7033 5.02151 17.5668 4.8587 17.3819 4.78046C16.8565 4.55732 16.233 4.66212 15.8233 5.0578L15.7706 4.95136L15.6895 5.16425C15.5593 5.188 15.6017 5.14681 15.5606 5.06269C15.2164 5.22513 15.2727 4.97782 15.4229 4.76386ZM19.6095 1.16034C20.3749 0.730328 21.1785 0.915647 21.8458 1.43866C23.2485 2.53736 22.8137 4.83991 21.0264 5.16523C21.0948 5.04129 21.2366 5.08951 21.1876 4.89862C21.1483 4.86013 20.8265 4.99055 20.8663 4.79218C20.7436 4.85582 20.7369 5.05616 20.547 5.00507L20.6534 4.84491L19.585 4.73749C19.6437 4.61182 19.5733 4.44318 19.7276 4.3703C20.6068 4.60046 21.5637 4.16367 21.5606 3.16327C21.557 2.20354 20.4993 2.27865 19.9034 1.93964C19.8115 1.88756 19.6777 1.82725 19.6934 1.69648C19.7279 1.66649 20.4103 2.02862 20.5186 2.07245C20.8061 2.1888 21.069 2.14346 21.3243 2.38788C21.6769 2.72531 21.717 3.26249 21.5645 3.70038C21.5047 3.87131 21.3925 3.98684 21.3487 4.15155C21.8096 3.72345 21.8964 2.9775 21.5313 2.44745C21.2705 2.06868 20.8133 2.04839 20.4405 1.85663C20.7526 2.00308 21.3004 1.85364 21.5538 2.21112L21.8819 2.76386C21.8847 2.42267 21.6129 2.12269 21.3682 1.91718L20.4151 1.75019C20.3614 1.74116 20.4235 1.83485 20.4386 1.8537C20.1713 1.71608 19.7135 1.45265 19.6095 1.16034ZM23.8565 4.04511C24.1026 3.99457 24.1448 4.22668 24.2559 4.31269C24.3671 4.39854 24.6495 4.59345 24.7686 4.65351C25.0472 4.79357 25.3971 4.7823 25.5626 5.11054L24.6095 4.70624L23.8565 4.04511ZM12.2628 1.44452C12.6021 0.819869 13.5131 0.720899 14.1251 0.938663C15.6016 1.46493 15.7877 3.38676 15.1114 4.61347C15.0592 4.7086 14.8247 5.17288 14.6759 5.0578H14.6749L14.835 4.57831L14.7276 4.79218C14.4796 4.78506 14.6089 4.57708 14.6212 4.41913C14.4812 4.47371 14.5973 4.69986 14.3556 4.63202L14.461 4.25898L14.088 4.68573C14.3909 4.01921 14.6702 3.27764 14.4464 2.53827C14.3681 2.27924 14.1623 2.09243 14.0909 1.83417C13.8057 1.74673 13.597 1.622 13.2872 1.74921C13.2569 1.71652 13.4295 1.44441 13.2872 1.42987C13.1034 1.70129 13.1242 2.03806 13.0147 2.30487C12.882 2.62686 12.4505 2.71713 12.5499 3.15253C12.5905 3.3312 12.8355 3.48234 12.6993 3.72382L12.42 3.22968C12.2092 2.61801 13.1724 2.43789 12.9669 1.74921C12.7015 2.09746 12.5203 2.58779 12.13 2.80878C11.7302 2.84475 12.1638 1.62705 12.2628 1.44452ZM9.65536 2.81757C9.51455 2.92504 9.83859 2.92871 10.0313 2.92694H10.1622C10.5727 2.99211 11.1087 3.46094 11.2657 3.84784L11.5216 4.68378C11.5218 4.67662 11.5205 4.66945 11.5206 4.6623L11.5274 4.68573C11.5509 3.86378 11.0018 3.05991 10.2247 2.85663C10.0458 2.80928 9.85452 2.79401 9.65536 2.81757ZM14.2442 2.49726C14.4513 3.07791 14.438 3.73631 14.1397 4.28632C14.1121 4.33771 13.8944 4.70611 13.8184 4.63105C14.0761 4.14717 14.3347 3.62599 14.2979 3.0578C14.2894 2.92457 14.2366 2.79107 14.2159 2.65937C14.2065 2.60329 14.1452 2.48532 14.2442 2.49726ZM15.7393 1.24335C15.6982 0.347695 16.6043 -0.312859 17.4141 0.154484C17.8651 0.414446 18.1419 1.29818 17.5567 1.53339L17.6612 1.29511C17.6258 1.20577 17.5208 1.26796 17.5108 1.258C17.4727 1.21807 17.4548 1.01191 17.3722 0.891788C17.0805 0.47113 16.41 0.437115 16.3829 1.05487L16.5948 0.948429C16.4087 2.19847 17.8104 1.95357 18.5538 2.21894C19.4718 2.54731 19.8589 3.57093 19.3438 4.4162C19.1873 4.43768 19.3521 4.29711 19.3145 4.1828C19.2828 4.08845 19.048 4.06663 18.9972 4.09784C18.9955 4.10419 19.0416 4.16844 19.0196 4.20429C18.8588 4.45987 18.6537 4.22669 18.6231 4.25702V4.41718L18.4102 4.36249C18.5796 4.13404 18.7175 3.91847 18.6768 3.6164C18.8032 3.60874 18.7713 3.59997 18.7843 3.6955C18.8103 3.88787 18.7551 4.07078 18.7306 4.25702C18.8832 4.28234 18.8195 4.22429 18.8448 4.133C18.9319 3.81738 18.8258 3.61116 18.8917 3.32831C18.736 3.26457 18.6779 3.0185 18.6173 2.93183C18.6092 2.92299 18.55 2.9534 18.5196 2.93769C17.8254 2.57643 17.1003 2.76849 16.4874 2.25605C16.2209 2.03315 16.2719 1.98766 15.9571 1.82831C15.7984 1.74765 15.747 1.40902 15.7393 1.24335ZM25.1397 3.7453C25.0563 3.71318 24.9585 3.71908 24.8829 3.79023C24.7611 3.90474 24.8896 4.08128 25.0382 4.14374C25.1263 4.18228 25.2227 4.18128 25.2784 4.10273C25.3815 3.95616 25.2793 3.7967 25.1397 3.7453ZM20.9249 3.77558L20.711 3.77753L20.8165 3.88202L19.8038 3.98944L19.8057 3.61933L20.9239 3.56366L20.9249 3.77558ZM23.3927 3.60566C23.6035 3.46778 23.7402 3.56648 23.961 3.62323V3.62226L23.9639 3.77753C23.7255 3.76143 23.5688 3.60549 23.3243 3.7248C23.2968 3.60092 23.3405 3.63938 23.3927 3.60566ZM8.587 3.20038C8.41567 3.21076 8.17492 3.50568 8.33211 3.65839C8.37695 3.70179 8.43088 3.71477 8.48543 3.70917C8.57949 3.7036 8.67693 3.64007 8.73153 3.56562C8.77568 3.27778 8.69241 3.18798 8.587 3.20038ZM17.1807 2.76484C17.5233 2.75335 17.8639 2.8397 18.1934 2.92401C18.2049 3.0258 18.0904 2.95854 18.0343 2.95136C17.8402 2.92604 17.6206 2.8968 17.4288 2.86151C17.3632 2.84936 17.1813 2.84937 17.1807 2.76484ZM20.4405 1.85566V1.85761C20.4402 1.85699 20.4397 1.85514 20.4386 1.8537L20.4405 1.85566ZM20.6173 1.22089C20.4634 1.24717 20.3737 1.43209 20.4923 1.50995H20.4932L20.4952 1.51093L20.7393 1.52362L20.8057 1.52851V1.52753L20.8097 1.52851L20.8595 1.35761L20.7628 1.2414C20.7112 1.21665 20.6614 1.21263 20.6173 1.22089ZM18.8389 1.37616C18.7869 1.07077 19.5262 1.30692 19.5323 1.34882C19.3091 1.63415 19.0913 1.22301 18.8389 1.37616Z" fill="var(--fill-0, white)"/>
</g>
</svg>
