<svg width="28" height="28" viewBox="0 0 28 28" fill="none" xmlns="http://www.w3.org/2000/svg">
<path fill-rule="evenodd" clip-rule="evenodd" d="M3.95617 13.3922C9.73382 10.9689 13.5865 9.37133 15.5142 8.59946C21.0181 6.39561 22.1618 6.01278 22.9072 6.00013C23.0712 5.99735 23.4378 6.03647 23.6752 6.22196C23.8757 6.37858 23.9309 6.59016 23.9573 6.73865C23.9837 6.88715 24.0166 7.22542 23.9904 7.48974C23.6922 10.5066 22.4016 17.8279 21.745 21.2069C21.4672 22.6366 20.9162 22.9426 20.3866 22.9896C19.2357 23.0915 18.3657 22.4307 17.251 21.7273C15.5066 20.6265 14.8655 20.33 13.1723 19.2559C11.2155 18.0145 12.2831 17.3648 13.3983 16.2498C13.6901 15.958 18.7972 11.4123 18.8953 11.0095C18.9076 10.9591 18.7396 10.4554 18.6237 10.3562C18.5078 10.2571 18.3368 10.291 18.2133 10.3179C18.0384 10.3562 15.2518 12.1293 9.85356 15.6372C9.0626 16.1601 8.34617 16.4149 7.70427 16.4015C6.99663 16.3868 5.63541 16.0163 4.62348 15.6997C3.38232 15.3113 2.92416 15.1284 3.01006 14.4687C3.0548 14.1252 3.37017 13.7663 3.95617 13.3922Z" fill="white"/>
</svg>
