<svg width="307" height="64" viewBox="0 0 307 64" fill="none" xmlns="http://www.w3.org/2000/svg">
<path d="M52.5088 12.46L54.7656 0.358398L63.0742 29.2412L62.9795 29.2246L76.6279 64L54.1182 44.8262L40.2969 64L37.0439 44.8262L6.79395 64L19.6895 36.6611L0 19.9258H13.707L19.6895 36.6611L49.2559 26.8545L33.8447 24.1934L28.7236 11.5537L44.9082 12.1699L45.3711 0L52.5088 12.46Z" fill="#EA3728"/>
<path d="M48.4535 14.4337C51.4514 14.8059 53.6427 17.0326 53.3478 19.4071L42.4916 18.0593C42.7864 15.6847 45.4556 14.0615 48.4535 14.4337Z" fill="white"/>
<circle cx="48.2391" cy="16.588" r="2.38289" transform="rotate(7.07741 48.2391 16.588)" fill="black"/>
<path d="M303.382 49.0005H298.342V13.4805H303.382V49.0005Z" fill="white"/>
<path d="M282.922 23.9922C285.866 23.9922 288.266 24.7602 290.122 26.2962C291.978 27.8322 292.906 30.0402 292.906 32.9202V49.0002H287.866V45.3522C285.85 48.1042 283.002 49.4802 279.322 49.4802C276.986 49.4802 275.082 48.8562 273.61 47.6082C272.138 46.3602 271.402 44.6962 271.402 42.6162C271.402 40.2162 272.25 38.4242 273.946 37.2402C275.642 36.0242 277.802 35.2722 280.426 34.9842L285.178 34.5042C286.97 34.3442 287.866 33.5442 287.866 32.1042C287.866 30.9202 287.402 29.9762 286.474 29.2722C285.578 28.5682 284.394 28.2162 282.922 28.2162C281.418 28.2162 280.138 28.6002 279.082 29.3682C278.058 30.1362 277.402 31.2562 277.114 32.7282L272.122 31.5282C272.57 29.2242 273.77 27.4002 275.722 26.0562C277.674 24.6802 280.074 23.9922 282.922 23.9922ZM280.426 45.4002C282.506 45.4002 284.266 44.7122 285.706 43.3362C287.146 41.9282 287.866 40.2962 287.866 38.4402V37.4802C287.45 37.8642 286.522 38.1362 285.082 38.2962L280.426 38.8722C279.21 39.0322 278.234 39.4002 277.498 39.9762C276.794 40.5202 276.442 41.2722 276.442 42.2322C276.442 43.1922 276.794 43.9602 277.498 44.5362C278.234 45.1122 279.21 45.4002 280.426 45.4002Z" fill="white"/>
<path d="M258.081 43.9607L265.617 24.4727H270.753L256.737 58.6007H251.601L255.297 49.6247L245.025 24.4727H250.497L258.081 43.9607Z" fill="white"/>
<path d="M222.377 45.8322C219.881 43.4002 218.633 40.3762 218.633 36.7602C218.633 33.1442 219.881 30.1202 222.377 27.6882C224.873 25.2242 227.961 23.9922 231.641 23.9922C235.321 23.9922 238.409 25.2242 240.905 27.6882C243.401 30.1202 244.649 33.1442 244.649 36.7602C244.649 40.3762 243.401 43.4002 240.905 45.8322C238.409 48.2642 235.321 49.4802 231.641 49.4802C227.961 49.4802 224.873 48.2642 222.377 45.8322ZM226.073 31.0002C224.569 32.5362 223.817 34.4562 223.817 36.7602C223.817 39.0642 224.569 40.9842 226.073 42.5202C227.577 44.0562 229.433 44.8242 231.641 44.8242C233.881 44.8242 235.737 44.0562 237.209 42.5202C238.713 40.9842 239.465 39.0642 239.465 36.7602C239.465 34.4242 238.713 32.4882 237.209 30.9522C235.737 29.4162 233.881 28.6482 231.641 28.6482C229.433 28.6482 227.577 29.4322 226.073 31.0002Z" fill="white"/>
<path d="M216.674 49.0004H195.17V15.4004H200.498V44.2484H216.674V49.0004Z" fill="white"/>
<path d="M166.63 34.6965L177.958 49.0005H171.574L163.222 38.4405L159.382 42.5685V49.0005H154.342V13.4805H159.382V35.9445L169.75 24.4725H176.086L166.63 34.6965Z" fill="white"/>
<path d="M129.277 42.5202L134.317 41.4642C134.765 44.0882 136.557 45.4002 139.693 45.4002C141.293 45.4002 142.573 45.0962 143.533 44.4882C144.525 43.8482 145.021 43.0482 145.021 42.0882C145.021 41.0642 144.509 40.2962 143.485 39.7842C142.461 39.2402 141.213 38.8562 139.741 38.6322C138.269 38.3762 136.781 38.0722 135.277 37.7202C133.805 37.3682 132.557 36.6802 131.533 35.6562C130.509 34.6002 129.997 33.1922 129.997 31.4322C129.997 29.2882 130.909 27.5122 132.733 26.1042C134.589 24.6962 136.909 23.9922 139.693 23.9922C142.477 23.9922 144.749 24.6162 146.509 25.8642C148.301 27.1122 149.373 28.8082 149.725 30.9522L144.685 32.0082C144.301 29.3842 142.637 28.0722 139.693 28.0722C138.349 28.0722 137.245 28.3602 136.381 28.9362C135.517 29.5122 135.085 30.2642 135.085 31.1922C135.085 32.0242 135.453 32.6962 136.189 33.2082C136.925 33.7202 137.853 34.0562 138.973 34.2162C140.093 34.3762 141.293 34.6162 142.573 34.9362C143.885 35.2562 145.101 35.6242 146.221 36.0402C147.341 36.4242 148.269 37.1282 149.005 38.1522C149.741 39.1762 150.109 40.4562 150.109 41.9922C150.109 44.1362 149.101 45.9282 147.085 47.3682C145.101 48.7762 142.637 49.4802 139.693 49.4802C136.781 49.4802 134.413 48.8562 132.589 47.6082C130.765 46.3602 129.661 44.6642 129.277 42.5202Z" fill="white"/>
<path d="M127.474 49.0004H121.81L118.45 40.8884H102.274L98.9142 49.0004H93.4902L107.602 15.4004H113.41L127.474 49.0004ZM110.386 21.2564L104.242 36.1364H116.482L110.386 21.2564Z" fill="white"/>
</svg>
