<svg width="64" height="64" viewBox="0 0 64 64" fill="none" xmlns="http://www.w3.org/2000/svg">
<path d="M55.5625 53.6475C49.7138 60.0102 41.3238 64 32 64C24.7154 64 18.0007 61.5641 12.6221 57.4648L31.4189 45.5508L34.208 61.9883L46.0566 45.5508L55.5625 53.6475ZM32 0C49.6731 0 64 14.3269 64 32C64 37.7664 62.4738 43.1761 59.8047 47.8486L53.6533 32.1758L53.7344 32.1904L46.6123 7.42969L44.6768 17.8047L38.5586 7.12305L38.1611 17.5557L24.2861 17.0273L28.6758 27.8633L41.8867 30.1445L18.1455 38.0186L14.0459 26.5498H2.29492L16.5039 38.627L9.09277 54.3398C3.46783 48.5729 0 40.6922 0 32C0 14.3269 14.3269 0 32 0ZM42.2637 19.7305C44.2661 20.3702 45.6108 22.018 45.3945 23.7598L41.627 23.292C42.3663 23.0594 42.941 22.4159 43.043 21.5967C43.1351 20.8544 42.8149 20.1576 42.2637 19.7305ZM40.2432 19.4551C39.5827 19.7259 39.0826 20.334 38.9883 21.0928C38.8868 21.9117 39.286 22.6765 39.9453 23.083L36.0879 22.6045C36.3088 20.8255 38.0837 19.5385 40.2432 19.4551Z" fill="white"/>
</svg>
