<svg width="24" height="24" viewBox="0 0 24 24" fill="none" xmlns="http://www.w3.org/2000/svg">
<g opacity="0.4">
<path d="M12.0125 3C12.1545 3.00194 12.2882 3.03719 12.4071 3.09766C12.4099 3.0991 12.413 3.10008 12.4159 3.10156L12.4295 3.1084C12.499 3.14621 12.5621 3.19398 12.619 3.24805C12.6232 3.25203 12.6285 3.25569 12.6327 3.25976L19.7323 10.2598C20.0857 10.6088 20.0898 11.1784 19.7411 11.5322C19.3922 11.8859 18.8226 11.8895 18.4686 11.541L12.9002 6.05078V20.1006C12.8999 20.5972 12.4965 20.9998 11.9999 21C11.503 21 11.0998 20.5973 11.0995 20.1006V6.05175L5.53207 11.541C5.17826 11.8898 4.60861 11.8857 4.25961 11.5322C3.91071 11.1783 3.91465 10.6087 4.26839 10.2598L11.3465 3.28125C11.5106 3.10801 11.7426 3.00004 11.9999 3C12.0041 3 12.0083 2.99994 12.0125 3Z" fill="white" fill-opacity="0.2"/>
</g>
</svg>
