<svg preserveAspectRatio="none" width="100%" height="100%" overflow="visible" style="display: block;" viewBox="0 0 25 24" fill="none" xmlns="http://www.w3.org/2000/svg">
<path id="Vector" fill-rule="evenodd" clip-rule="evenodd" d="M11.5963 19.849L6.08281 23.2267C5.50951 23.5778 4.76003 23.3978 4.40884 22.8245C4.23729 22.5445 4.18616 22.207 4.26701 21.8888L5.1205 18.5295C5.42859 17.3167 6.25843 16.3031 7.38637 15.7615L13.4013 12.8736C13.6818 12.739 13.8 12.4025 13.6653 12.1221C13.5563 11.895 13.3097 11.7679 13.0615 11.8109L6.36605 12.97C5.00502 13.2057 3.6093 12.8298 2.55061 11.9426L0.43547 10.1701C-0.0798342 9.73823 -0.147496 8.97041 0.284345 8.45512C0.494376 8.20448 0.796404 8.04889 1.12241 8.02338L7.5848 7.51763C8.04136 7.4819 8.43923 7.19298 8.61451 6.7699L11.1076 0.75177C11.3649 0.130629 12.077 -0.16431 12.6982 0.0930027C12.9964 0.216554 13.2334 0.453518 13.3569 0.75177L15.85 6.7699C16.0253 7.19298 16.4231 7.4819 16.8797 7.51763L23.3777 8.02617C24.0479 8.07862 24.5487 8.66451 24.4962 9.33479C24.4711 9.65723 24.3185 9.95638 24.0724 10.1662L19.1168 14.391C18.7678 14.6885 18.6157 15.1566 18.7229 15.6024L20.2464 21.9314C20.4038 22.5851 20.0014 23.2425 19.3479 23.3999C19.0337 23.4756 18.7025 23.4231 18.427 23.2543L12.8682 19.849C12.4779 19.61 11.9866 19.61 11.5963 19.849Z" fill="var(--fill-0, white)"/>
</svg>
