<svg xmlns="http://www.w3.org/2000/svg" width="28" height="28" viewBox="0 0 28 28" fill="none">
  <g opacity="0.6">
    <path fill-rule="evenodd" clip-rule="evenodd" d="M13.3463 22.0629L7.83281 25.4405C7.25951 25.7917 6.51003 25.6116 6.15883 25.0384C5.98729 24.7583 5.93616 24.4209 6.017 24.1027L6.8705 20.7433C7.17859 19.5306 8.00843 18.517 9.13637 17.9754L15.1513 15.0875C15.4318 14.9528 15.55 14.6164 15.4153 14.336C15.3063 14.1089 15.0597 13.9818 14.8115 14.0248L8.11605 15.1839C6.75502 15.4195 5.3593 15.0437 4.30061 14.1565L2.18547 12.3839C1.67017 11.9521 1.6025 11.1843 2.03434 10.669C2.24438 10.4183 2.5464 10.2628 2.87241 10.2373L9.3348 9.7315C9.79136 9.69577 10.1892 9.40685 10.3645 8.98377L12.8576 2.96564C13.1149 2.3445 13.827 2.04956 14.4482 2.30687C14.7464 2.43042 14.9834 2.66739 15.1069 2.96564L17.6 8.98377C17.7753 9.40685 18.1731 9.69577 18.6297 9.7315L25.1277 10.24C25.7979 10.2925 26.2987 10.8784 26.2462 11.5487C26.2211 11.8711 26.0685 12.1702 25.8224 12.3801L20.8668 16.6049C20.5178 16.9023 20.3657 17.3705 20.4729 17.8162L21.9964 24.1453C22.1538 24.799 21.7514 25.4564 21.0979 25.6137C20.7837 25.6894 20.4525 25.637 20.177 25.4682L14.6182 22.0629C14.2279 21.8239 13.7366 21.8239 13.3463 22.0629Z" fill="white"/>
  </g>
</svg>
