<svg preserveAspectRatio="none" width="100%" height="100%" overflow="visible" style="display: block;" viewBox="0 0 20 20" fill="none" xmlns="http://www.w3.org/2000/svg">
<g id="telegram_stars_28" opacity="0.2">
<path id="Vector" fill-rule="evenodd" clip-rule="evenodd" d="M9.53309 15.7592L5.59486 18.1718C5.18536 18.4226 4.65002 18.294 4.39917 17.8845C4.27664 17.6845 4.24012 17.4435 4.29786 17.2162L4.9075 14.8167C5.12757 13.9504 5.72031 13.2264 6.52598 12.8396L10.8224 10.7768C11.0227 10.6806 11.1071 10.4403 11.0109 10.24C10.9331 10.0778 10.7569 9.98698 10.5796 10.0177L5.79718 10.8456C4.82501 11.0139 3.82807 10.7455 3.07187 10.1118L1.56105 8.84567C1.19298 8.53721 1.14465 7.98877 1.4531 7.62071C1.60313 7.44168 1.81886 7.33054 2.05172 7.31232L6.66772 6.95107C6.99383 6.92555 7.27802 6.71918 7.40322 6.41698L9.18399 2.11831C9.36778 1.67464 9.87644 1.46397 10.3201 1.64776C10.5331 1.73602 10.7024 1.90528 10.7907 2.11831L12.5714 6.41698C12.6966 6.71918 12.9808 6.92555 13.3069 6.95107L17.9483 7.31431C18.4271 7.35177 18.7848 7.77027 18.7473 8.24904C18.7293 8.47935 18.6203 8.69303 18.4446 8.84291L14.9049 11.8606C14.6555 12.0731 14.5469 12.4075 14.6235 12.7259L15.7117 17.2466C15.8241 17.7136 15.5367 18.1831 15.0699 18.2955C14.8455 18.3496 14.6089 18.3121 14.4121 18.1916L10.4416 15.7592C10.1628 15.5885 9.81183 15.5885 9.53309 15.7592Z" fill="var(--fill-0, white)"/>
</g>
</svg>
