<svg width="281" height="96" viewBox="0 0 281 96" fill="none" xmlns="http://www.w3.org/2000/svg">
<path d="M37.1572 70.3564C36.2914 73.316 37.4691 76.924 40.7559 77.5947C41.5399 77.7537 42.5968 77.6837 43.3877 77.8086C54.9449 79.6204 51.558 96.3165 39.9395 94.8594C35.3 94.2772 30.5884 88.4676 34.709 84.5918C37.7437 81.7389 43.6261 83.2615 41.585 87.9102L41.1787 86.3438C40.4741 85.696 39.8054 84.9852 38.8281 84.7373C38.6895 85.2433 38.5343 84.9005 38.1299 84.9482C37.1187 85.0687 36.6499 85.3848 35.8955 86.0938L36.2109 86.251C35.8484 86.4328 36.0751 86.7148 36.0117 86.917C35.9985 86.9529 35.7745 86.954 35.7451 87.0762C35.6589 87.4194 35.7293 87.9243 35.5771 88.3037H35.8975L36.2109 87.2783L36.3701 88.7012C36.3838 87.6988 36.487 86.3263 37.6367 86.0146C35.8802 87.4467 36.8686 89.6035 38.6367 90.4697C44.3971 93.2953 49.3462 85.2712 43.6816 81.9453L41.5918 81.2676C45.4904 81.2494 47.4619 84.8557 46.3389 88.3838C46.5612 88.4221 46.5521 88.1172 46.6133 87.9512C47.7226 84.955 46.2067 81.6027 43.0469 80.8389C41.3125 80.4207 40.3258 80.4629 38.5527 79.79C38.1736 79.6471 38.3612 79.8241 37.834 79.5332C36.6659 78.8854 35.804 78.0924 35.0244 76.9971C34.8404 76.9963 35.5782 78.6485 34.9492 78.1035C34.9174 78.0732 34.8672 77.6056 34.7744 77.4355C34.4653 76.8606 33.3658 75.5079 33.3652 74.7031V72.0137C33.3652 71.9864 33.5785 71.7668 33.6787 71.7773L33.7178 73.2432L34.1543 74.3076L33.9922 73.1299L34.4727 71.3018V74.0713C34.4739 74.1721 34.7209 74.9226 34.9453 74.9414C34.743 73.8414 34.6521 72.6633 34.9951 71.5859C35.0495 71.4177 35.0345 71.1095 35.2637 71.1455V73.7549C35.2643 73.8735 35.5205 74.2193 35.4229 74.4668H35.5791C35.6609 73.6509 35.4656 72.6475 35.5791 71.8564L35.5771 71.8594C35.6158 71.5845 35.934 70.6937 36.209 70.5156L36.0547 73.123L36.5254 74.7852C36.3072 73.3214 36.1188 71.5499 37.1572 70.3564ZM34.7021 90.7695C34.7005 90.7678 34.6989 90.7654 34.6973 90.7637L34.4746 91.373C35.0856 91.6391 35.3452 92.262 35.8994 92.7256C38.1638 94.6149 41.459 95.024 44.1963 94.0234C45.4441 93.569 46.5766 92.8222 47.4434 91.7891C47.5933 91.6119 47.8269 91.5317 47.7568 91.2344C47.7541 91.2369 47.7508 91.2387 47.748 91.2412C47.7477 91.2398 47.7484 91.2377 47.748 91.2363C46.462 92.4028 45.0258 93.2386 43.5332 93.667C41.1418 94.3503 38.6058 93.9862 36.3096 92.2451L36.3066 92.248C36.1498 92.1276 35.9113 92.1228 35.7295 91.957C35.3317 91.6001 35.0743 91.1404 34.7061 90.7607L34.7021 90.7695ZM34.9531 90.1445C34.9502 90.1406 34.9463 90.1367 34.9434 90.1328C36.4917 93.7241 42.1129 94.6036 45.1748 92.5352C45.3286 92.4327 45.4968 92.3856 45.541 92.2285C45.5571 92.176 45.559 92.1113 45.541 92.0273C42.0153 94.1957 37.4458 93.4704 34.9453 90.1289C34.9476 90.1342 34.9508 90.1392 34.9531 90.1445ZM37.7891 91.9482C38.2473 92.2204 38.7348 92.422 39.2383 92.5645C40.467 92.915 41.7952 92.9004 43.0596 92.6191C43.4028 92.5418 44.09 92.3394 44.29 92.0303C44.2833 92.0322 44.2763 92.0333 44.2695 92.0352C44.2715 92.0323 44.2745 92.0302 44.2764 92.0273C43.1379 92.3432 42.0511 92.6002 40.8604 92.5957L37.7891 91.9482ZM59.5303 67.3467C59.7371 67.449 59.5351 67.781 59.4941 67.9424C58.9667 70.0018 57.83 72.0893 57.2822 74.2715C56.2367 78.4224 55.9548 84.0422 59.7168 86.9336C62.6898 89.2193 67.3353 88.8163 67.6621 84.6826L67.6797 84.2754C68.1342 84.3708 67.6945 85.5186 68.3096 85.3809L68.1396 84.0527L68.4668 83.8799L67.9072 83.6533C68.0936 83.0327 67.5298 82.871 67.0479 82.6777L67.2021 82.2188C65.743 81.7395 64.4968 82.6868 63.0898 82.5322L63.4043 81.7432L62.8516 82.2158C62.7519 81.425 63.7362 80.6452 64.4521 80.3359C69.4985 78.1608 73.263 85.8964 68.7012 90.1201C63.1614 95.2501 53.9208 91.4316 52.3359 84.4307L54.418 88.1201C58.0506 92.8003 66.3108 94.1862 69.2617 88.1494L67.8389 89.5742C63.9472 93.1403 57.744 91.3386 54.8955 87.3291C53.2134 84.9605 52.5082 82.0275 52.4854 79.1406C52.4581 75.5627 54.2339 72.2319 54.8682 68.7744C55.1406 68.7452 55.0404 69.3195 55.0312 69.4902C54.9152 71.354 54.0924 72.9912 53.6787 74.7822C52.6831 79.0945 52.8427 83.8622 55.666 87.4697C57.7006 90.0701 62.4542 92.0591 65.623 90.6797C66.171 90.4408 68.0926 88.9453 68.3096 88.4629C68.3414 88.3946 68.3505 88.2037 68.2324 88.2285C65.2386 92.122 60.0167 91.007 56.8184 88.0156C51.3604 82.9078 53.9698 75.3914 55.6543 69.3174C55.7245 69.0652 55.4848 68.85 55.9707 68.9316C55.9477 71.4478 54.6362 73.7144 54.2725 76.167C53.7884 79.4314 54.113 84.2693 56.293 86.8789C58.6912 89.7498 63.3359 91.4697 66.7275 89.3311C66.8294 88.6 65.9098 89.5083 65.5459 89.6543C63.6751 90.3997 61.5054 89.9431 59.7119 89.1543C55.0431 87.0992 54.0815 82.2133 54.3838 77.542C54.5885 74.3689 56.0436 71.6863 56.6074 68.6133C56.8797 68.5751 56.7592 68.9745 56.7637 69.1631C56.8135 71.0269 55.9476 72.0504 55.6953 73.6348C55.6678 73.8032 55.5283 74.1847 55.8115 74.1465L57.3955 68.4541C57.5978 68.4064 57.6569 68.7474 57.6592 68.8701C57.675 69.7812 57.4774 70.3135 57.3047 71.1338C57.2704 71.2953 57.1038 71.6544 57.3916 71.6162L59.5303 67.3467ZM32.3398 81.2686C32.1463 83.6166 29.6593 85.7859 27.5703 86.627C27.1447 86.7976 25.7405 87.2811 25.3789 87.2812H22.7695C22.7332 87.0042 23.1279 87.1286 23.3213 87.1221C23.7894 87.1039 24.2584 87.156 24.7266 87.1016C28.0407 86.7219 31.2508 84.4667 32.3398 81.2686ZM46.7266 52.4863C48.6905 54.4482 48.7045 57.8806 47.7861 60.3447C46.1264 64.8022 41.1248 67.237 36.6104 67.5166C36.4389 67.5282 35.8657 67.6243 35.8945 67.3525C39.9862 66.9866 43.6964 65.9908 46.0811 62.4336C46.4697 61.854 47.231 60.8991 47.0449 60.2354C45.7651 62.8766 43.9119 64.6845 41.1523 65.7324C37.6243 67.0731 32.612 65.7875 30.6436 69.9336C28.8759 73.6544 31.6438 77.1326 30.7871 80.833C30.6257 81.5283 30.1913 82.1313 30.2002 82.8516L30.9434 81.1445C32.0412 77.5189 29.6032 73.9015 31.3076 70.3555C31.6049 70.3217 31.4299 70.6746 31.3936 70.8359C31.2798 71.3334 31.048 71.7819 30.9912 72.334C30.6869 75.3297 32.2274 77.7918 31.582 80.833C31.3841 81.7652 30.4277 84.0023 29.5664 84.2754C29.2186 84.9116 28.6565 85.4345 27.8271 85.5391C28.0544 85.3323 28.9718 84.404 29.1367 84.3184C29.3204 84.2255 29.471 84.3045 29.5664 84.2754H29.5635C29.7021 84.0209 30.0792 83.2973 29.959 83.0107C29.2634 84.0062 28.3588 84.8093 27.3496 85.4639L27.5088 85.7822C27.1884 85.9545 26.8854 85.7189 26.5469 85.7666C26.2561 85.8078 25.9463 86.0689 25.6396 86.1279C22.1824 86.7936 18.8088 85.7251 16.9062 82.6953C16.3482 83.0637 17.4156 83.8072 17.1475 84.2754C15.0721 82.0364 14.6374 78.7123 15.6465 75.8936C16.2873 75.7299 15.6976 76.6115 16.1172 76.6826C16.2081 75.9781 16.4335 75.0545 17.0674 74.627L16.5156 76.998C16.8699 76.5932 17.0409 75.3441 17.3838 75.0186C18.035 74.4059 17.2573 76.3341 17.3877 76.3662L18.334 75.2598C17.8226 77.7076 17.5453 79.9355 19.2861 81.9766C21.8615 84.9951 27.3554 84.4792 28.4131 80.3564C29.5269 76.0169 24.5127 72.1739 27.9766 66.9502C30.9543 62.4586 35.8832 64.3245 39.9521 62.6338C42.6889 61.495 44.8081 58.8624 44.3926 55.7666C44.2812 54.9415 43.8235 54.3567 43.6416 53.5908L44.1963 53.9043L45.2217 56.1211C45.3126 55.1982 44.8963 54.352 44.4326 53.5928C45.128 53.4951 44.9564 54.5793 45.54 54.5391L44.9854 53.1182L46.0127 54.3818L45.6992 53.1182L46.4883 53.9092L46.1748 52.6426L46.8037 53.1182L46.7266 52.4863ZM36.5293 77.9512C36.8967 78.4209 37.291 78.7813 37.7041 79.0615L37.71 79.0654C40.0847 80.6761 43.0931 79.6333 45.3408 81.4326C45.8278 81.8236 46.2785 82.349 46.6797 83.0635C47.2911 84.1523 47.2755 84.7646 47.4482 85.9375C47.4696 86.0816 47.4472 86.146 47.4766 86.1719C47.499 86.2017 47.5654 86.1917 47.7656 86.1768H47.7627C47.7353 84.2584 46.9198 82.2328 45.3789 81.0508C45.1085 80.8435 44.8321 80.6768 44.5518 80.54C42.7411 79.653 40.7452 80.0561 38.8184 79.3789L36.5352 77.9541L36.5361 77.9551L36.5293 77.9512ZM63.4209 69.877C63.6167 73.1637 67.2852 73.6648 69.1787 75.5879C71.0722 77.511 71.4797 81.1729 74.4277 81.5664C76.1801 81.8005 78.1238 80.5753 78.6084 78.8936L78.6104 78.8994L78.7676 79.6885C78.8062 79.7403 78.9601 79.5962 79.0039 79.5322C79.1129 79.3665 79.7662 77.4713 79.8311 77.1953C80.0924 76.0702 79.0765 75.1627 78.8398 74.1445C78.0974 74.0965 78.3374 73.61 78.083 73.251C77.2964 72.1439 74.3366 71.8098 73.2295 72.5713L73.7031 71.9395C73.2827 71.8305 73.039 72.2057 72.7549 72.3057C72.5776 72.3667 72.3428 72.2802 72.1611 72.3574C71.8598 72.4873 72.0998 72.9047 71.5684 72.5664L71.6455 72.8848L70.9297 72.5693L70.7744 72.8848C69.5272 71.7666 72.5038 70.5389 73.416 70.3066C82.2112 68.0652 84.7956 83.4969 75.3594 83.9561C74.912 83.9784 72.8278 83.7144 72.5957 83.4805C72.5117 83.3964 72.4776 83.147 72.793 83.2012C73.2271 83.2785 73.6937 83.3013 74.1006 83.4785L74.1777 83.1641C73.762 83.2049 73.4093 83.1103 73.0254 82.9717C71.066 82.2737 69.9653 79.6816 68.7969 78.1836C68.5903 77.9205 68.0785 77.639 68.0449 77.5859C67.9472 77.4155 68.0923 77.1834 67.9082 76.9766C67.3943 76.406 64.9866 75.6331 64.1592 75.0693C62.6046 74.0077 61.7502 71.8934 62 70.0342L62.7617 72.1982C62.9164 72.5688 63.4748 73.6909 63.7363 73.9121C63.8453 74.0052 64.0136 74.0774 64.0547 73.9121C63.3024 73.0186 62.3874 70.7569 63.4209 69.877ZM57.5654 77.1553C58.2701 76.3778 59.7803 77.0343 60.4873 77.6367C62.0081 78.9347 62.2557 81.3018 60.9531 82.8408C60.7687 83.0592 60.226 83.5693 59.9805 83.6152C59.7351 83.6604 59.4979 83.4433 59.3389 83.5205L59.3369 83.5176C59.3033 83.5347 59.3022 83.6935 59.2705 83.7568L58.3545 83.168C58.6089 83.2838 59.157 83.1674 59.3506 83.0107C59.6706 82.7516 59.1215 82.338 60.0938 82.6924C59.8031 81.7494 60.4482 81.0853 60.2168 79.9629C59.985 78.84 59.0184 78.6717 58.416 78.1104C58.1728 77.883 58.3635 77.9708 57.918 77.5957C57.8301 77.5198 57.9559 77.0804 57.5654 77.1553ZM54.8682 78.584C54.8296 79.7067 54.8953 80.8275 55.0703 81.9365C55.0981 82.1125 55.1089 82.6348 55.3018 82.6875C55.3161 82.6926 55.3311 82.6959 55.3477 82.6953L54.877 78.585C54.8762 78.6056 54.8756 78.6268 54.875 78.6475L54.8682 78.584ZM52.6572 71.1494C52.0071 74.5954 51.3326 78.0714 51.71 81.5879L51.3955 80.2422C51.2569 77.6986 51.5574 75.2 52.1006 72.7246L52.6572 71.1494ZM34.9033 55.4424L34.7803 56.5928H34.7852C35.5547 56.3765 34.925 53.9048 35.1777 53.9004L35.417 56.5898L36.0469 54.5352L35.8916 57.0654C36.4916 56.5427 36.5234 55.4354 36.5234 54.6943C36.7485 54.6511 36.7347 54.9444 36.7529 55.0967C36.8392 55.7513 36.7693 56.4109 36.6807 57.0654L37.3926 55.0098C37.5971 55.8348 37.499 56.7583 36.999 57.4629L37.3105 57.6992L38.0244 55.6445C38.3924 58.1518 36.7509 60.5366 34.6982 61.8096C34.304 61.8819 34.5275 61.6072 34.6367 61.4639C34.9867 60.998 35.667 60.7039 35.8877 60.0723L33.1211 61.6553H32.8818L34.3047 60.8594C34.0956 60.3687 33.4075 61.0361 33.0801 61.1387C32.5187 61.3114 31.8881 61.4461 31.3018 61.4961L31.6162 61.9688C30.8138 61.7961 29.6404 62.0296 28.9062 61.875C27.5016 61.5794 26.4013 60.316 25.208 59.5977L25.6846 60.5459C25.0823 60.1686 24.5823 59.6069 23.9482 59.2773C23.5799 59.0841 22.7 58.6088 22.5977 59.1201L23.2295 59.5957C20.0472 58.1252 16.7986 60.2613 16.4893 63.6572L16.7441 65.29C16.3509 62.4646 17.8446 59.8618 20.8584 59.7568C20.4742 60.2131 19.7879 60.284 19.2881 60.6338C18.3927 61.2589 17.7763 62.3029 17.6104 63.3848C17.097 66.7103 20.1424 68.8 21.1357 71.5801C21.688 73.128 21.5226 74.331 21.8477 75.7744C22.4957 78.665 25.3545 77.5924 24.8164 75.1016L25.4463 75.3398C24.9098 74.1237 24.5936 73.3397 23.4434 72.5986C22.7911 72.1782 21.771 72.091 21.6797 71.1846C21.5888 70.2777 22.918 70.8343 23.4365 71.0254C24.3367 71.3573 24.9033 71.7554 25.292 72.6533L24.9736 72.8076L25.6035 73.9219C25.5556 74.6223 25.2207 73.3211 24.9707 73.6006C25.4503 74.578 25.6279 75.6016 25.6074 76.6836L25.9209 74.6279C26.405 76.4851 26.2009 78.9025 23.8438 79.1094C23.1074 79.1751 22.3995 78.8318 21.6699 78.8887C21.6313 78.2001 20.9913 78.4058 21.334 77.7881L21.0205 77.9492C21.0207 77.7836 21.1223 77.6311 21.084 77.4609C20.959 76.9086 20.4291 76.2169 20.2676 75.6123C19.9426 74.3964 19.8604 73.1327 19.2764 71.9395L18.9609 72.1777C18.554 71.7913 18.8969 71.1412 18.249 70.832L18.0918 71.1484C17.6118 70.9678 16.3891 69.1251 15.9209 68.666C15.8799 68.6253 15.6401 68.7832 15.5625 68.625L15.4805 68.1406L14.8711 68.2861C11.7636 64.2399 14.001 58.0043 18.9541 56.8242C23.7913 55.6719 26.9743 60.4887 31.1113 59.4912C33.7322 58.8593 34.2773 56.0579 34.3047 53.7461L34.9033 55.4424ZM45.2246 62.1309C44.0562 63.3151 42.7005 64.4546 41.1094 65.0547C37.7564 66.3205 33.5418 65.1369 30.9072 68.1396C28.8732 70.4605 29.1798 73.2907 29.7686 76.082L30.3525 78.1055C30.353 78.0946 30.3522 78.0832 30.3525 78.0723L30.3623 78.1055C30.4144 76.7782 29.8555 75.5753 29.7373 74.2275C29.4964 71.4794 29.8804 68.949 32.374 67.3828C35.2406 65.5847 38.4325 66.4731 41.5469 65.166C42.8925 64.6023 44.6877 63.5387 45.2334 62.1318C45.2281 62.1372 45.2221 62.1421 45.2168 62.1475C45.219 62.1418 45.2224 62.1366 45.2246 62.1309ZM75.1289 73.2021C75.4881 72.6316 76.4682 72.9616 76.9229 73.2275C78.2141 73.9845 78.5118 75.6714 77.582 76.8467C77.3153 77.1834 76.2865 77.9145 75.9229 77.6309C75.9001 77.6125 75.7148 77.1472 75.9141 77.0762L76.8682 76.6875C76.3908 76.7786 75.6221 77.0757 75.2881 76.5283C76.0109 76.7442 76.2432 75.6852 76.8682 76.0508L76.5479 75.498L76.8779 75.3301C76.7188 74.3753 76.1291 73.4181 75.1289 73.2021ZM43.3184 68.9297C43.1456 69.8613 42.7691 70.7413 42.6895 71.7002C42.6689 71.9507 42.5532 72.7777 42.8438 72.8848C42.8256 71.9188 43.023 70.5251 43.541 69.7021C43.6728 69.4931 43.5602 69.3255 43.9531 69.4072C43.7099 70.9457 43.2593 71.9373 43.7139 73.5215C44.5801 76.5445 48.0928 77.201 50.0479 74.7852C50.6651 74.5247 49.9485 76.2656 49.8115 76.4492C49.134 77.3534 47.4586 77.3839 46.3994 77.3203C44.8901 77.2316 43.7099 76.5445 42.6074 75.5762L43.0029 76.2881C42.6053 76.5188 42.0123 75.4268 41.8643 75.0537C41.1528 73.2649 41.2547 70.589 42.5273 69.0908C42.1387 70.2771 41.8388 71.3618 41.916 72.6299C41.9275 72.817 42.0054 73.6146 42.2119 73.6787C42.2846 72.9037 42.112 71.9779 42.2119 71.2256L42.2139 71.2236C42.2957 70.6101 42.8275 69.3644 43.3184 68.9297ZM53.9219 69.5645C53.8876 72.0397 52.6531 74.3431 52.6553 76.8389C52.3814 76.8744 52.5079 76.48 52.499 76.2891C52.4854 75.9278 52.4809 75.5615 52.5195 75.2002L53.9219 69.5645ZM61.7227 72.7646C62.7319 75.0058 64.4936 75.8636 66.7393 76.5273C66.536 76.9009 65.5843 76.4449 65.2754 76.3291C62.9162 75.4471 61.4154 73.8898 61.2061 71.3057L61.7227 72.7646ZM71.8066 75.5781C71.7818 74.2735 73.7745 73.2962 74.8066 74.2344C74.2271 74.7366 73.5999 75.1988 72.9795 75.6465H72.9814C72.8044 75.7742 72.6741 76.1536 72.2812 76.0537V75.4219L71.8066 75.5781ZM6.07812 68.1387C4.55509 63.9697 8.61255 60.4618 12.6406 61.498H12.6387C12.67 62.321 11.4231 61.9092 11.375 61.9707C11.3305 62.0398 11.4805 62.3329 11.2695 62.4531C10.8948 62.6704 10.4744 62.4124 10.2109 62.4395C10.0446 62.4603 8.15599 64.0892 7.89648 64.4258C7.68743 64.6962 7.39205 65.0853 7.29199 65.4033C7.24873 65.5447 7.14505 65.9687 7.41699 65.9238C7.68073 65.1101 8.32432 63.86 9.31738 63.8711C8.05847 64.7258 7.58755 66.0286 7.89648 67.5059L8.24902 65.7266C8.37175 65.5834 8.9282 64.5971 9.16016 64.8193C8.56714 65.5673 8.29667 66.7181 8.83984 67.5908C9.4877 68.6291 10.634 68.1818 11.5977 68.3135C13.7911 68.6093 14.9226 71.6304 13.1904 73.2012C12.2182 74.0843 12.1243 73.3332 11.4766 73.4014C11.3718 73.4145 10.2487 73.7873 10.1875 73.835C9.58351 74.3284 9.6629 75.3719 9.71289 76.0469C8.65607 75.2718 8.7699 73.4333 9.89453 72.751C10.6856 72.2713 13.0087 72.4526 12.334 70.7412C11.8634 69.5478 10.4972 69.9273 9.47656 69.8818L10.1084 70.1953C9.22669 70.3633 8.66496 69.9883 7.89453 69.7246L9.2373 70.6729C7.65124 70.668 6.58962 69.543 6.07812 68.1387ZM41.4268 75.0996H41.4248L41.4238 75.0977C41.4248 75.0982 41.4258 75.0991 41.4268 75.0996ZM41.583 69.7207C40.9855 71.5021 41.0514 73.2708 41.4238 75.0977C41.0983 74.9265 40.883 74.196 40.833 73.874C40.6353 72.5966 40.7309 70.7414 41.583 69.7207ZM40.3936 70.5127C40.7527 70.8742 40.3525 71.5402 40.3184 72.0176C40.2752 72.6198 40.344 73.2317 40.3145 73.834V73.832L39.9863 72.4883L40.3936 70.5127ZM80.9766 63.8672C80.6392 64.8816 80.3731 65.7614 80.5039 66.8604L80.9678 65.0469L81.6064 64.1846C81.1497 65.7301 81.0266 67.1473 82.2334 68.3838C84.4088 70.6115 86.9212 68.1861 88.9375 69.4316C90.7129 70.5296 90.4266 73.0487 88.5693 73.833C89.0307 73.2944 89.1487 72.7347 89.0352 72.0234C88.7124 70.0321 86.328 71.3885 85.0186 71.4658C84.1798 71.5157 82.3141 71.3687 81.6113 70.9053C81.1547 70.6031 81.8082 70.77 81.7656 70.5137L80.2627 69.248L80.502 69.877C80.1765 70.123 79.1559 68.584 79.0146 68.2812C78.4215 67.0221 78.4992 65.7987 78.9219 64.501C79.192 64.4604 79.0898 64.8761 79.0762 65.0488C79.0375 65.5851 78.8604 66.0152 78.9854 66.6084C79.0193 66.7675 79.0064 67.0697 79.2354 67.0293C79.1013 65.9202 79.4562 65.0149 79.8721 64.0264C80.2509 64.1835 79.7557 64.9054 79.7236 65.2236C79.6782 65.6919 79.6713 66.3245 79.71 66.7949C79.7259 66.9794 79.7587 67.5034 80.0264 67.5039C80.0082 66.2812 79.9066 64.6834 80.9766 63.8672ZM50.6035 64.8203C51.0353 67.5026 50.6809 70.2153 49.0215 72.4111H49.0195L48.708 72.334L49.1787 70.9883L48.3877 72.252L47.9189 72.0156C48.4167 71.5429 48.7554 70.7242 48.8623 70.04L48.1211 71.2627C47.4551 71.8447 46.5954 72.895 45.7021 72.8086C46.5113 72.3518 47.2303 71.7174 47.5986 70.8311C46.9281 71.4606 46.1933 71.9727 45.2979 72.25C44.8371 72.2455 44.9576 72.2353 45.2754 72.0605C45.6956 71.8288 46.0464 71.5313 46.335 71.1475L44.9863 71.6172C44.8029 70.9652 45.8662 70.524 46.3301 69.9561C47.4438 68.5878 47.7578 66.8372 47.917 65.1348C48.4251 65.2604 48.2994 67.1859 48.4688 67.1914L49.0215 65.1348V67.9805C49.86 67.3192 49.0953 65.7512 49.8125 65.1348C50.1395 66.3257 49.8174 67.3968 49.8105 68.5332C49.8103 68.7153 49.7067 69.1279 49.9717 69.0898L50.6035 64.8203ZM51.2422 65.1348C51.4013 65.0666 51.5557 65.503 51.5557 65.5303C51.5557 66.2735 51.6307 67.1898 51.5557 67.9033C51.5053 68.3635 50.9581 70.4732 50.7148 70.7764C50.6924 70.8019 50.2987 71.0748 50.2891 70.9062C50.9164 69.0515 51.2853 67.1054 51.2422 65.1348ZM52.3369 65.6113C52.3573 67.0547 52.2441 68.5398 51.7031 69.8809H51.7051C51.4038 69.9167 51.6023 69.5713 51.623 69.4053C51.7162 68.685 51.8984 67.971 52.0029 67.2529C52.0734 66.7598 51.8488 65.9071 52.3369 65.6113ZM72.291 66.4736C71.9114 61.0816 76.6699 57.3237 81.8506 58.9717C84.0894 59.6855 85.6057 61.6535 87.3877 63.0811C87.9763 63.9789 87.8218 65.116 88.0195 66.0889C88.1197 66.5822 88.5833 67.4052 88.5742 67.7529C88.5626 68.2954 88.1181 68.0395 87.8477 67.7646L87.8408 67.7686C87.5181 67.4436 87.1765 66.7073 87.1514 66.2412L86.8359 66.873C86.1498 66.6048 86.476 65.5484 86.2627 65.1299C86.1195 64.8481 85.6762 64.6454 85.5283 64.291C85.4352 64.0706 85.5463 63.752 85.501 63.6973C85.3758 63.5498 85.051 63.6038 84.9736 63.5176C84.9103 63.4464 84.9392 63.0604 84.7168 62.7471C83.4664 60.9786 79.9586 60.4853 78.0332 61.1514C74.2103 62.4701 74.1346 66.6738 75.9258 69.7197C73.5965 69.1851 73.642 65.902 74.2646 64.0244C74.4692 63.4088 74.821 63.033 74.9756 62.4424C73.1507 64.2246 73.4419 66.8006 74.0283 69.085C73.7738 68.919 73.5282 68.3054 73.4326 68.0234C72.8667 66.3642 73.1186 65.1976 73.5527 63.5498C72.5848 64.7932 72.7072 66.4807 72.7617 67.9785C72.4392 67.7717 72.3184 66.847 72.291 66.4736ZM21.8184 67.2109C22.4979 66.7996 22.5238 67.3669 22.9258 67.5762C23.2099 67.7239 23.5238 67.74 23.8057 67.8877H23.8105C24.0128 67.9946 24.2351 68.2606 24.0264 68.4561L24.9736 68.2998C24.8611 69.0923 23.235 69.0946 22.6328 68.8242C22.3716 68.706 22.4868 68.4674 22.3301 68.3037C21.9099 67.8654 21.7662 68.0236 21.8184 67.2109ZM19.4424 62.7637C22.2386 63.1275 26.962 64.162 25.9209 67.9785L25.9229 67.9805L24.9746 67.6621L25.1318 67.0303C25.0021 67.2853 24.5516 66.8861 24.5361 66.8438C24.4679 66.6392 24.8998 66.4234 24.0137 66.0029C23.4547 65.7371 23.6997 65.8204 23.2295 65.5342C22.7589 65.2477 21.5605 64.786 21.0127 64.5859C20.5331 64.4087 19.9443 64.2725 19.4375 64.1816C19.4967 63.6275 20.3797 64.1737 20.3877 63.9453L19.417 63.4795L19.4424 62.7637ZM34.6211 65.4521C33.2874 65.5596 31.664 66.0879 30.8281 67.1895L30.8291 67.1885L30.8281 67.1904L32.5674 66.1631L34.6201 65.4541C34.6179 65.4543 34.6155 65.4539 34.6133 65.4541L34.6211 65.4521ZM69.1182 38.8047C69.5295 38.6888 70.2797 38.1021 70.5459 38.3105C70.9345 39.0606 70.5375 39.7889 71.3262 40.3799L71.0098 40.5361C71.5803 41.1999 72.092 42.9961 71.9238 43.8213C71.8372 44.2484 71.4146 44.6421 71.335 45.1328C71.0012 47.2174 72.9827 51.4544 73.6943 53.5186C73.6577 54.5524 72.6761 54.7628 71.7988 54.6924L72.2734 54.0625C71.8121 53.9128 71.0694 54.0936 70.9258 53.583L70.5322 53.5869L70.6914 53.9014L69.3545 54.2256L69.1797 53.8896L68.0996 54.2051C67.4258 53.7395 68.2536 53.3755 68.4746 52.9531C67.4523 53.1398 67.1002 53.9557 67.207 54.9307C67.3845 56.5484 69.0044 55.6446 69.2754 55.8623C69.4527 56.0055 69.4776 56.8905 69.9775 57.0635L70.2939 56.2764L70.8486 57.3789C70.2647 57.5832 70.0367 57.3992 69.5049 57.2061C67.7615 57.4358 66.4585 58.886 64.8379 59.5156C66.5223 60.3362 68.4339 58.3431 70.0684 59.7021C70.6862 61.7928 67.6505 60.0187 66.7363 61.0977L67.209 61.0166L67.3496 61.6367L67.0518 61.8096H67.6836L67.3682 62.2852C68.9911 62.633 69.8938 64.0309 69.1846 65.6221H68.7998L68.7891 66.083L68.3164 65.9238L68 66.5557L67.6836 65.7646L67.5273 66.8701L66.8926 65.6055C66.7683 65.9651 67.4264 66.9743 66.7334 66.8721L66.2588 65.1328C66.1252 65.6602 66.7515 66.4129 66.1016 66.7129C65.9107 66.1652 65.8104 65.5786 65.6445 65.0264C65.5672 64.7672 65.7722 64.581 65.3086 64.6582C65.3882 65.1126 65.5675 65.5381 65.6221 66.0039C65.6449 66.198 65.7492 66.9927 65.4678 67.0293C65.1314 66.2451 65.0626 65.36 64.8398 64.5713C64.7786 64.3554 64.8217 64.081 64.5176 64.0264L64.7539 66.8721L63.8828 63.3945V66.0039C63.884 66.1162 64.2323 66.549 63.9629 66.7148C63.7471 66.5331 63.6555 66.2307 63.6055 65.9648C62.9236 62.4052 62.7809 58.4723 62.7764 54.8535C62.5018 54.8175 62.6281 55.2123 62.6191 55.4033C62.5646 56.7194 62.6623 58.0479 62.6123 59.3662L63.2539 66.3174C62.8659 66.6617 62.8439 65.8888 62.8008 65.6631C62.0324 61.7259 62.3097 57.5471 61.9824 53.585C61.7082 53.5492 61.8351 53.9438 61.8262 54.1348C61.6648 58.1537 62.0846 62.3169 62.4619 66.3154C62.2241 66.4987 62.0494 65.5797 62.0283 65.4834C61.2054 61.5803 61.7051 57.3879 61.3506 53.4258L61.0371 55.2471C61.1394 58.8817 61.1231 62.5554 61.6709 66.1582C61.4758 66.3811 61.2555 65.5466 61.2412 65.4805C60.8549 63.9371 60.773 61.6141 60.7139 59.998C60.6298 57.6773 60.9755 55.1969 60.4824 52.9512L60.5645 65.9219C59.7143 61.4597 60.2573 56.8426 59.9277 52.3213C59.6827 52.2807 59.7433 52.6072 59.7139 52.7822C59.6594 53.1164 59.6227 53.7757 59.6113 54.1279C59.5204 57.133 59.666 60.1593 59.7773 63.1484C59.7978 63.712 59.7932 64.3329 59.7705 64.8965C59.7639 65.0875 59.8886 65.4855 59.6143 65.4473C58.93 60.8509 59.5617 56.1533 59.1367 51.5273L58.8096 54.2988L58.9863 63.3057L58.8232 64.9717C58.1754 61.3232 58.627 57.5197 58.5156 53.8213C58.4861 52.8417 58.2867 51.8819 58.3457 50.8955L58.0254 52.8662L58.1885 64.8145L57.7158 63.7871V50.6592C57.7153 50.6315 57.5024 50.4119 57.4023 50.4229C57.2273 55.142 57.0857 59.9345 57.3994 64.6582C57.1641 64.6959 57.2038 64.3624 57.1631 64.1875C57.0608 63.7444 56.9495 63.1372 56.9199 62.6895C56.6858 59.0615 56.6813 53.6483 56.9199 50.0225C56.9316 49.8316 57.2111 47.4217 57.5586 47.8945V49.4746L57.873 48.0068L58.666 47.5771L58.5117 48.209L59.0664 47.918L59.5615 48.5381C60.7276 47.9971 61.1937 49.0751 62.1006 49.6025C63.3121 50.3072 64.4175 50.4479 65.7881 50.1094L65.6309 50.582C67.3039 50.1365 68.2597 48.5569 70.2168 49C70.2191 48.7887 69.4559 48.7023 69.3301 48.7021C68.9415 48.7023 68.5634 48.92 68.1611 48.8428C68.4816 48.3814 69.2365 48.3364 69.7412 48.3682L68.9521 48.209L69.582 47.7363L68.1611 48.1318L69.9004 47.2627L68.4775 47.418L69.7432 46.7861L69.2686 46.4697C69.2231 46.1539 69.5344 46.0555 69.5869 45.749C69.9869 43.4259 64.9792 43.3442 63.54 43.5078C61.3556 43.7557 59.4066 44.8812 57.4062 45.6768L60.7275 43.7803C60.3393 43.7374 60.0209 43.9799 59.6621 44.0596C59.5028 44.096 59.1051 44.2182 59.1455 43.9395C60.582 43.4531 62.0303 42.9056 63.5713 42.8281C63.5713 42.5508 62.8804 42.6527 62.6963 42.6641C61.9259 42.7119 61.1689 42.9353 60.4189 43.0762C60.2552 43.1082 59.8983 43.2816 59.9365 42.9893L64.0488 42.0391H61.7549C61.6315 42.0411 60.8186 42.4898 60.7275 42.0391C61.2411 42.0686 62.1216 41.5618 62.5469 41.5615H64.8398V41.4053C64.6422 41.4658 64.3805 41.2461 64.2852 41.2461H61.833C61.8239 41.0144 62.4007 41.0074 62.5898 40.9756C63.5444 40.8233 64.356 40.8119 65.3105 40.9277C65.3739 40.7603 64.7956 40.6156 64.7588 40.6143H62.4668C62.4668 40.6154 62.4667 40.617 62.4668 40.6182L62.4648 40.6143H62.4668C62.4397 40.2238 62.4301 40.3453 62.7061 40.3047C63.7354 40.1525 64.6015 40.1249 65.6309 40.2998C65.6646 40.0751 65.1979 40.0543 65.0361 40.0293C64.6816 39.9748 64.3354 40.0135 63.9922 39.9658C63.751 39.934 63.0379 39.8879 62.9443 39.6699C64.0694 39.4927 64.9995 39.5752 66.1064 39.8252C66.0792 39.5911 65.5407 39.4498 65.3496 39.3975C64.7245 39.227 64.069 39.1593 63.4189 39.1934C63.4121 38.9389 63.9739 38.8702 64.1357 38.8701C64.7562 38.8748 65.4724 39.1637 66.1064 39.1934L64.0518 38.4043C65.0768 38.141 66.6042 39.1633 67.4248 39.1455C67.6633 39.141 68.8304 38.8868 69.1182 38.8047ZM92.2197 63.4658C92.4991 64.1588 92.5304 64.4614 92.2031 65.1387V65.1367L91.8877 65.0566C92.3762 63.9816 91.097 62.8081 92.126 61.8193L92.2197 63.4658ZM56.7744 48.3711L56.3789 64.0322C56.3289 63.2459 56.058 62.427 56.0352 61.6475C55.9351 58.0309 56.0086 52.9999 56.3018 49.4014C56.3199 49.1695 56.354 48.2214 56.7744 48.3711ZM55.6641 63.2393H55.6611C55.3439 63.1777 55.402 62.9048 55.3477 62.6846C54.6771 60.025 54.6272 56.1145 54.709 53.3457C54.7385 52.3343 54.7819 50.8655 54.8887 49.8857C54.9046 49.7334 54.9571 49.2915 55.1885 49.3203L55.0361 55.0898C55.2429 56.6581 55.1278 58.2566 55.1914 59.8408C55.1979 60.0342 55.0738 60.4285 55.3477 60.3906C55.8341 56.7809 55.1725 52.9978 55.6611 49.3926C55.6929 49.1564 55.6825 48.9064 55.9795 48.8447L55.6641 63.2393ZM80.0312 61.1787C80.7176 61.1765 81.5521 61.2431 82.2021 61.459C82.4858 61.5532 84.8316 62.8436 84.459 63.2344L82.4404 61.8545L80.0312 61.1787ZM75.4414 49.3135C76.0688 49.784 76.1913 50.8731 76.5664 51.5869C79.417 57.0219 84.0321 54.2672 88.7285 55.4014C90.8131 55.9038 92.3023 56.6083 92.666 58.8975C92.7115 59.1896 92.8615 61.0483 92.8115 61.2188C92.4659 62.3742 91.2369 60.758 90.9658 60.2822C90.6453 59.7185 90.7856 59.0342 90.3105 58.6455L90.3057 58.6475C89.8789 60.2086 91.3923 60.5912 91.2607 62.0479C91.1037 63.7493 89.1737 63.1712 89.6738 62.7598C92.1901 62.5279 90.3108 60.623 89.9082 59.5977C89.6968 59.0567 89.7533 58.5196 89.3896 57.9014C88.8393 56.9674 87.553 56.4657 86.5098 56.668C87.1759 57.2429 88.5922 56.9795 88.8809 58.0137C87.0623 56.4611 84.6821 57.9681 82.5566 57.6953L83.7705 57.4014L84.1367 57.0654C82.3774 57.354 80.5828 57.0791 78.9258 56.4199L79.0781 56.1172C78.8647 56.0926 78.6438 56.2537 78.4395 56.1855C78.3041 56.1365 76.5939 54.5235 76.3916 54.2939C75.587 53.3734 74.9119 52.0911 74.6504 50.8955L75.4395 52.0029L75.125 50.4229L75.7549 51.5273L75.4414 49.3135ZM54.708 62.6064L54.7061 62.6045C54.7059 62.603 54.7053 62.6011 54.7051 62.5996L54.708 62.6064ZM54.2354 51.0605C54.5104 51.0242 54.3835 51.4204 54.3926 51.6113C54.5447 55.2694 54.3103 58.9597 54.7051 62.5996L54.417 61.8701C53.9646 58.2944 53.9626 54.6499 54.2354 51.0605ZM53.916 61.6533C53.6674 61.6482 53.6663 61.1128 53.6279 60.918C53.312 59.2337 53.1579 56.6287 53.2783 54.9238C53.2965 54.6535 53.2625 54.4003 53.5234 54.2207L53.916 61.6533ZM52.6621 54.0674C52.937 54.031 52.8104 54.4258 52.8193 54.6191C52.908 56.8104 53.0357 58.9956 53.1357 61.1846L53.1328 61.1826C52.8951 61.1906 52.8629 60.6312 52.8379 60.4531C52.5265 58.3393 52.4667 56.1904 52.6621 54.0674ZM52.1807 57.1514L52.3369 61.0244L51.8672 58.2559V55.1729L52.1807 57.1514ZM63.2559 55.4902L63.2578 55.501V59.2871C63.349 59.2827 63.4053 59.176 63.4404 59.0352C63.4976 58.8109 63.5003 58.499 63.5059 58.3818C63.5088 58.33 63.509 58.2769 63.5088 58.2236C63.5087 58.2077 63.5101 58.1918 63.5098 58.1758C63.5033 57.8406 63.4479 57.4817 63.4463 57.1318C63.4458 56.9982 63.4524 56.8655 63.4736 56.7363L63.4727 56.7344L63.4736 56.7334L63.2578 55.498V55.4902H63.2559ZM0.660156 55.6768C-1.63093 50.6235 2.34295 44.945 7.92578 46.1973C9.17834 46.4791 10.5766 47.3185 11.1836 48.4756C11.3027 48.7003 12.1065 50.4349 12.1338 50.5439C12.2041 50.8392 12.0814 51.0917 11.9883 51.3574V51.3604C11.2931 51.594 11.165 50.7965 10.5811 50.7441C10.729 51.7029 11.4838 51.7103 12.1611 52.0898C12.1244 52.8097 11.2131 52.1621 10.9062 51.9189C9.88557 51.1051 8.71185 48.171 7.45703 47.9346C7.19248 47.8845 6.27986 47.7484 6.15039 48.0527C7.19835 47.9277 7.49205 48.0978 8.11719 48.8525C8.26709 49.0344 8.30995 49.3461 8.44629 49.4893C8.5888 49.6407 8.81663 49.4685 8.83008 49.4824C8.87547 49.5513 8.8878 50.165 9.0332 50.4717C9.15812 50.7329 10.5899 52.3151 10.4199 52.4834C10.1315 52.5308 9.94842 52.2833 9.78711 52.0879C9.23941 51.4288 8.87605 50.4853 8.43066 49.8057C6.58024 46.9732 2.49001 49.3872 2.67188 52.3242L3.32715 50.6875C4.30914 49.3395 5.99114 48.4163 7.57324 49.4004C7.06208 49.4729 6.62764 49.2685 6.08691 49.332C2.52526 49.7597 1.92023 54.7219 5.70898 56.0088C8.86633 57.0794 10.7494 54.5997 13.1611 53.2471C16.496 51.3785 20.1358 51.1694 23.582 52.8447C24.195 53.1434 28.6716 55.7048 28.833 55.9639C28.8867 56.0527 28.7655 56.2601 28.7764 56.2676C29.0355 56.4494 30.3169 56.1841 30.1924 56.752C26.2372 57.5495 23.6178 53.9448 19.8125 53.6084C16.4505 53.3131 13.4265 55.2678 10.7373 56.9932L7.88965 58.1758C10.7923 58.0597 12.9069 55.6887 15.5322 54.668C18.6261 53.4654 22.1521 53.8972 24.6572 56.1182C22.6047 55.3976 21.0311 54.2923 18.7285 54.3809C12.8888 54.6085 9.25272 62.1166 2.77637 57.5156C2.43551 57.2721 2.0443 56.6314 1.72168 56.8291L2.35449 57.7002C2.00172 58.0459 0.767604 55.9142 0.660156 55.6768ZM42.1172 55.1865C42.0875 54.9366 41.9145 54.6735 42.2939 55.0098C42.5938 55.6849 42.4142 56.5264 42.7461 57.1787H42.7441C42.7904 57.2686 43.069 57.14 43.001 57.3828C42.2534 57.5306 41.8664 57.7832 42.0527 58.6514L41.4375 58.6289C41.342 57.481 40.9897 58.7289 40.6328 58.9678C40.8169 57.5766 41.3433 56.4051 40.791 55.0117C41.4662 55.38 41.176 56.3873 41.6602 56.9102C41.8283 56.5625 41.5985 56.1213 41.5732 55.7305C41.5619 55.5578 41.4717 55.13 41.7373 55.1729L42.1348 57.3877C42.5893 56.7672 42.2014 55.9025 42.1172 55.1865ZM40.3223 57.8594H40.3203L40.3213 57.8574L40.3223 57.8594ZM40.1641 55.3291C40.3752 55.3253 40.5028 55.8003 40.5527 55.9639C40.7276 56.5362 40.917 57.4591 40.3213 57.8574L40.1641 55.3291ZM90.6904 53.9209C90.4086 52.623 92.2388 52.3228 93.1914 52.5205C94.7324 52.8412 95.6371 55.2117 94.0986 56.1211V56.1191C94.0986 55.494 94.2185 54.8365 93.707 54.375C92.7478 53.5069 91.6746 54.4276 91.5791 54.3662C91.5546 54.3492 91.5948 54.1507 91.4863 54.1074C91.3498 54.0507 90.7618 54.0455 90.6904 53.9209ZM4.73047 50.585C4.20108 51.2167 3.67389 52.0419 3.63281 52.8984C3.61493 53.2963 4.00536 54.0197 3.62598 54.2197C3.16004 52.9856 3.39442 51.1377 4.73047 50.585ZM31.9326 49.1631C32.0686 50.5767 31.2166 51.7615 30.2598 52.707C29.5324 53.4252 28.6181 54.2498 27.5068 53.9863L30.1162 52.0107L31.9326 49.1631ZM52.9688 48.8447C53.663 50.5559 52.9458 52.9733 51.082 53.583L52.1846 52.0068C51.4574 52.8477 50.8521 53.5773 49.7295 53.9023C49.2576 53.9023 49.5841 53.7205 49.7705 53.625C50.2772 53.3661 50.7907 53.2584 51.0771 52.6406L49.6523 53.2705L49.7314 52.9521L48.8633 53.1113L49.3359 52.6406C49.0452 52.6453 48.8041 52.7769 48.502 52.7588C48.2385 52.7428 47.9705 52.6406 48.0723 52.3252C49.2587 52.1206 50.2899 50.8611 50.1289 49.6338L50.4453 50.4229L50.6025 49.79L51.0732 50.4229L51.2295 49.4746L51.7051 51.2139L51.5479 49.1582C52.1295 48.9969 51.8853 50.2642 52.1006 50.2656L52.3369 49.1582C52.5914 49.9037 52.4546 50.4588 52.3818 51.1816C52.3634 51.3567 52.1967 51.7195 52.4932 51.6885L52.9688 48.8447ZM75.5879 39.6729L75.667 38.8838L76.1445 39.3564L76.3223 39.0381C76.9745 38.8678 76.9635 39.5026 77.334 39.9072C79.6138 42.3935 81.5487 41.1826 84.374 41.2461C89.6614 41.3666 93.3213 46.7331 90.4893 51.4863C89.9299 52.4273 88.7091 53.6798 87.6113 53.6709L88.5586 52.8027C87.9247 52.9192 87.3109 53.737 86.6611 53.5146L87.7676 52.6465C87.327 52.733 86.9742 52.9557 86.5107 53.0488C86.3491 53.081 85.9911 53.2519 86.0293 52.9619C86.7586 52.8051 87.5612 52.4029 88.084 51.8555L85.8701 52.8027C85.7839 52.3713 85.977 52.5321 86.1904 52.4189C86.5653 52.2213 86.9975 52.1163 87.293 51.7734L86.9766 51.6162C88.9838 49.8067 89.1706 47.0831 87.1338 45.21C87.3021 45.0494 87.8806 45.696 88.0039 45.8398C89.0723 47.0697 88.95 48.2728 88.875 49.7959C89.1067 49.73 89.1773 48.9663 89.1865 48.7656C89.2706 47.1539 88.7635 45.7874 87.4404 44.8213C87.2664 44.6933 85.8832 43.9414 85.79 43.9414C84.6445 43.9414 83.4506 43.8846 82.3096 43.9414L82.3125 43.9395C82.1238 43.9488 81.8368 44.1535 81.6006 44.0967C81.9461 43.6898 83.2851 43.6735 83.8945 43.6553C84.2311 43.6464 85.3467 44.132 85.2383 43.4668C85.022 43.3032 80.7045 43.5963 79.793 43.4531C79.2443 43.3663 77.3279 42.7032 76.8613 42.4326C76.3295 42.1233 74.7 39.642 74.876 38.8818L75.5879 39.6729ZM51.0801 53.5869H51.0732C51.0761 53.586 51.0792 53.584 51.082 53.583L51.0801 53.5869ZM69.2686 52.166C68.5213 52.1819 67.589 52.3985 67.1973 53.083C67.1367 53.1881 67.0872 53.3034 67.0547 53.4316C67.0555 53.4308 67.0558 53.4296 67.0566 53.4287V53.4307C67.6244 52.8332 68.0237 52.7158 68.7314 52.5244C68.7796 52.5115 68.8288 52.4971 68.8799 52.4834C69.0317 52.4428 69.1677 52.5093 69.2363 52.4678C69.2847 52.4412 69.3013 52.3653 69.2686 52.166ZM30.8271 48.8447C30.6383 50.7927 28.9584 52.818 27.0332 53.2705L28.9287 51.7686L30.8271 48.8447ZM30.1992 48.209C30.1194 50.3048 28.366 52.2039 26.4043 52.7949H26.4023L28.9307 50.499L30.1992 48.209ZM32.5693 43.7842C32.7921 43.7501 32.8743 44.2204 32.8721 44.3477C32.8674 44.9431 32.6788 45.5299 32.7197 46.2412C32.8972 49.2439 35.1067 51.8905 38.1025 52.3271C38.131 52.6216 37.5887 52.4794 37.4297 52.4453C33.4657 51.62 31.4492 47.5711 32.5693 43.7842ZM28.8535 47.8965C29.0419 49.0032 28.1397 49.9425 27.5078 50.7402C27.8441 51.0423 29.2948 48.795 29.249 48.3701C29.5712 48.375 29.2832 49.0822 29.2373 49.2285C28.687 50.9605 27.0273 52.1113 25.293 52.4795L25.6523 51.9707L26.7939 51.2139C25.803 51.5662 24.9747 52.0204 23.8701 51.8477C23.7839 51.3959 23.991 51.5929 24.2158 51.4912C25.9183 50.707 27.0256 50.1925 27.9053 48.3721C28.6327 48.4698 27.4645 49.4611 27.7441 49.793L28.8535 47.8965ZM37.4766 42.0371C37.5946 42.1623 36.7809 43.1058 36.6582 43.3535C34.5155 47.6925 39.1593 50.3594 43.0576 48.9619C44.8398 48.3232 47.1542 45.5522 49.2637 46.0225C49.3589 46.0432 49.2507 46.397 49.9023 46.3223C50.2932 46.2768 50.0032 45.9652 50.2891 45.9922C50.3349 46.7825 51.475 45.9521 51.7139 46.6221C49.9318 47.2152 47.6316 47.4478 46.7314 49.3115L46.418 48.998C44.5017 50.8868 41.8391 51.7919 39.1592 51.5078C38.6587 51.4554 37.0398 51.0959 36.5762 50.9277C36.0445 50.7343 35.6599 50.2067 35.1055 50.1045C36.9944 52.0571 40.4846 51.9943 43.0146 51.5283L41.7891 51.9619C39.1614 52.2687 36.0218 52.0122 34.251 49.7734C33.2578 48.5166 32.8235 46.2453 33.0869 44.6836C33.1392 44.3791 33.3967 43.64 33.6807 43.46L33.4189 45.5264L33.6826 47.0977C33.7599 46.3272 33.5782 45.3901 33.6826 44.6445L33.6807 44.6494C33.7397 44.236 34.0509 43.572 34.3916 43.3057C34.6165 43.533 33.9928 44.294 34.4697 44.4102C34.4268 44.2822 34.7876 42.7602 35.1035 43.1465C35.2237 43.2945 34.4561 44.3899 34.9443 44.5674C34.8011 44.2606 35.7533 42.6334 35.8945 42.8281L35.9746 43.3008L37.4766 42.0371ZM42.0645 50.9004C41.3485 50.7459 40.5616 51.0456 39.9229 51.0615C39.5364 51.0726 38.7884 50.6688 38.5859 51.0547L38.6006 51.0557C38.6001 51.0566 38.6001 51.0577 38.5996 51.0586L40.4248 51.2246L42.0771 50.9043C42.0713 50.903 42.0654 50.9016 42.0596 50.9004H42.0645ZM90.9316 44.0957C94.78 42.2661 97.5966 47.7558 94.9873 50.3633L94.9893 50.3662C94.2799 51.0751 92.9479 51.5884 92.2002 50.6592C95.4393 50.8773 95.8735 47.4679 93.7871 45.5879C93.7485 45.5538 92.9797 45.0348 92.9297 45.0166C92.1615 44.7577 91.234 45.1272 90.9316 44.0957ZM78.3721 46.1523L78.1357 45.3633C78.4355 45.2637 78.6449 45.5763 78.8447 45.6016C79.097 45.6356 79.3814 45.3948 79.7178 45.5947C79.8746 45.688 80.1535 46.3132 80.3535 46.543C82.0515 48.4796 83.4755 48.9749 86.0439 48.209L85.4121 48.998L86.0439 49.0781C84.612 50.2141 83.0818 49.9665 81.459 49.4756L82.8164 50.0938L85.5684 49.9502C85.4268 50.2408 84.6479 50.3777 84.3662 50.4072C82.0819 50.6412 81.038 49.9734 79.4014 48.5254C79.4649 48.621 79.442 48.8894 79.5488 49.0439C79.7263 49.2985 80.3974 49.521 80.5088 49.9482L79.1602 49.0049L77.0303 45.8379C77.2172 45.6368 78.8426 48.2048 79.0176 48.3662C79.1808 48.5157 79.3755 48.5049 79.4014 48.5273L79.3994 48.5254C78.8448 47.6866 77.9219 46.5768 77.4922 45.7676C77.4126 45.6199 77.2045 45.3157 77.4219 45.2041L78.3721 46.1523ZM70.2168 49.4775C69.003 49.0435 67.8276 49.3978 67.0547 50.4229L67.0557 50.4219L67.0547 50.4238L68.4316 49.667L70.2168 49.4785C70.2158 49.4782 70.2148 49.4779 70.2139 49.4775H70.2168ZM2.1123 37.6172C2.89654 35.5964 5.56373 35.3282 7.44824 35.5986C9.12577 35.8421 10.8648 37.4491 11.4854 38.9971C12.5785 41.7272 11.124 45.3852 14.1631 47.0742C19.2231 49.8836 23.5996 43.1937 28.2891 42.3613L26.8662 43.3076C27.4137 43.278 27.8572 42.9615 28.4092 42.875C28.5774 42.8477 28.9573 42.7071 28.9209 42.9912L26.0752 44.2578C27.1297 44.0645 28.0553 43.362 29.1553 43.3027C29.328 43.2936 29.5959 43.2191 29.5527 43.4668L26.8662 44.5732C27.5002 44.5731 28.1006 44.2147 28.6982 44.1123C28.8573 44.085 29.2801 43.987 29.2373 44.2549C27.4622 44.8231 25.6432 45.6123 24.334 46.9463C25.8749 46.0099 27.5231 44.8964 29.3936 44.8916L27.4365 45.7012C26.9365 46.0737 26.3312 46.2854 25.8086 46.6035C25.2333 46.954 23.9953 48.0652 23.6201 48.2109C22.8832 48.4985 24.2243 47.0584 24.334 46.9463V46.9443C23.2091 47.6284 22.274 48.4514 21.0469 48.9561C20.131 49.3332 19.1165 49.4902 18.2256 49.9355L17.8525 49.6338C18.0811 49.9833 16.7687 50.1246 16.6865 50.1045C16.571 50.0747 16.5907 49.7977 16.4844 49.7812C16.2434 49.7451 15.8426 49.9953 15.4131 49.9453C14.9835 49.895 14.4399 49.4317 13.9082 49.459C14.1378 48.3337 13.2263 48.6171 12.5693 48.1875C12.2673 47.9898 12.2439 47.745 12.0645 47.5791C11.8849 47.4132 11.6192 47.4579 11.5078 47.3125C11.3373 47.085 10.8893 45.8671 10.8027 45.5234C10.5983 44.7167 10.5467 43.8187 10.5693 42.9893C10.222 43.14 10.2481 44.1305 10.2549 44.4805C10.26 44.7901 10.6456 45.5395 10.2549 45.6758C9.75038 44.1416 10.0684 42.6568 10.0957 41.0908C10.1821 40.9136 10.6326 42.2283 10.5693 41.4912C10.5262 40.9981 10.5143 40.2635 9.9375 40.4561L10.1074 39.6045L9.77344 39.415L9.93945 39.0332L9.4668 39.1904L9.6123 38.7314C8.67589 38.1178 8.38217 37.6579 7.17773 37.6191C4.75718 37.5419 5.92057 38.2405 5.11133 39.9795C4.74282 40.7659 3.72379 41.6251 3.53516 42.041C3.21297 42.7529 3.71248 44.3803 2.50586 45.0439C2.3377 44.4736 2.89406 44.1182 2.97168 43.6934C3.06019 43.214 2.8953 42.7207 3.05176 42.1914C3.2654 41.4641 4.4516 40.622 4.85645 39.7266C5.15638 39.0584 5.30185 38.3395 5.34961 37.6123C4.54778 38.1422 5.02657 39.5363 4.08789 39.9863L3.93066 39.5127C3.59883 40.0472 3.01057 41.7282 2.50391 41.9609C1.99734 42.1924 1.51023 42.0383 1.44629 41.4707C1.39402 41.0071 1.90985 38.1391 2.1123 37.6172ZM10.7373 49.3047C10.9099 48.9737 10.464 48.1658 10.042 48.251C10.0111 48.256 9.97971 48.2653 9.94922 48.2803C9.36501 48.5703 9.72747 49.2901 10.2256 49.4111C10.2377 49.4143 10.2504 49.4146 10.2627 49.417C10.2896 49.4219 10.3163 49.4276 10.3438 49.4287C10.4744 49.4365 10.6098 49.4016 10.7373 49.3047ZM62.9385 47.6816C63.4566 47.3885 64.5205 47.1634 65.0117 47.6494C65.189 47.8245 65.4804 48.689 65.4395 48.9072C65.2947 49.6813 62.85 49.3228 62.3545 48.8047V48.8027C61.7133 48.1344 62.5477 48.1971 62.5938 48.166C62.7049 48.0751 62.7075 47.8113 62.9385 47.6816ZM39.2168 47.7295C38.8032 41.9692 46.0982 38.9893 49.4785 43.9131V43.917C48.7943 44.5937 47.7982 43.6537 46.9346 43.415C45.8662 43.1218 45.0066 43.0102 43.9609 43.4648L46.2119 43.5039C46.7347 43.6471 47.4503 43.7406 47.7549 44.252C44.7522 42.8247 42.4067 44.5834 42.2178 47.7314C41.9454 47.6629 41.8901 46.9187 41.8945 46.709C41.9127 46.1045 42.3782 45.6405 42.374 45.043C41.7565 45.5025 41.6762 46.5456 41.583 47.2568L41.2627 47.0156L41.2715 45.834L40.6357 47.8887L40.165 47.0996L39.8486 48.0479L39.6875 46.9404L39.2168 47.7295ZM62.1436 36.0312C61.3773 40.7048 56.9788 45.1584 52.0234 44.4131L54.585 44.0518C57.0058 43.4744 58.7387 42.0647 59.998 39.9736C60.764 38.703 61.2322 37.1974 62.1436 36.0312ZM60.332 36.5059C60.5383 36.6105 60.3366 36.9394 60.2842 37.0918C59.7409 38.6943 58.9017 40.35 57.7197 41.5684L57.7217 41.5664C59.3173 40.6004 59.9794 38.6421 60.7295 36.9805C61.0544 36.9714 60.8318 37.5958 60.7793 37.7441C60.5654 38.3331 59.877 39.5682 59.5293 40.1318C57.8923 42.7798 53.9937 44.6732 50.9229 43.623H53.3711C55.0099 43.4344 56.5698 42.7616 57.7246 41.5684C55.2811 43.0481 53.0186 44.0802 50.1318 42.9893L50.6045 42.6748L49.6426 42.4346C49.7403 41.7209 48.8251 42.1746 48.5498 41.5684C50.5864 41.4843 52.7102 41.5492 54.5127 40.4902C55.8149 39.7242 56.8837 38.3918 57.4111 36.9805C57.9244 37.151 57.5492 37.5537 57.5674 37.9287L58.3564 36.9805L57.9609 38.5605L58.9883 36.8213V37.9287L59.6201 36.8213C59.6313 37.8145 59.006 38.643 58.5469 39.4658C58.4689 39.6047 58.2002 39.8616 58.4336 39.9863L60.332 36.5059ZM13.4248 33.5C16.9411 34.8776 13.6406 38.6473 17.2207 40.2227C19.9757 41.4342 22.7317 39.734 24.9707 38.2451L24.6562 38.877L25.6045 38.6406L24.6562 39.668C24.8199 39.8021 26.4042 38.3813 26.0791 39.1133C25.6117 40.1615 22.4394 42.0978 21.3008 42.4023C19.8531 42.7885 18.6821 42.6525 17.2207 42.5957C19.2664 43.439 21.2763 42.8435 23.1221 41.8525C23.9675 41.398 25.4226 40.057 26.0049 39.8291C26.207 39.7497 26.2951 39.859 26.2383 40.0635C24.1015 42.0614 21.2209 43.737 18.166 43.2393C17.8593 43.1884 15.7643 42.4777 15.6699 42.3252C15.5906 42.1956 15.6952 41.9183 15.5977 41.7705C15.3249 41.3614 14.5429 40.8154 14.2178 40.3789C13.5883 39.5334 13.2176 38.4986 13.1084 37.4531C12.5729 37.6354 13.5195 38.7194 12.7949 38.5605C12.6745 37.8401 12.6179 37.1533 12.627 36.417C12.6315 36.1218 12.8036 35.8035 12.7949 35.6465C12.7904 35.5557 12.5538 35.5599 12.5283 35.5146C12.1033 34.7372 13.0648 34.6918 13.4922 35.4102C14.0331 36.3217 13.804 37.7718 14.1836 38.8311C14.4427 39.5537 15.2224 40.5601 15.9541 40.5381C14.0454 39.031 15.4837 36.6671 14.3477 34.8691C14.0613 34.4169 13.4274 34.1135 13.4248 33.5ZM84.3018 42.7949C83.7216 42.8144 83.1366 42.9585 82.6016 42.9893C82.5633 42.9914 82.5251 42.9963 82.4873 42.9971C82.3536 42.9998 82.2201 42.9996 82.0869 42.998C82.0837 42.998 82.0804 42.9981 82.0771 42.998C81.1244 42.9863 80.1827 42.8813 79.2363 42.9111H79.2383C79.2348 42.9112 79.231 42.912 79.2275 42.9121C80.0166 43.1987 80.8552 43.1665 81.6904 43.1494C81.8642 43.1459 82.0379 43.144 82.2109 43.1445C82.3537 43.145 82.496 43.1482 82.6377 43.1553L82.6445 43.1533L82.6465 43.1543L84.9336 42.834H84.9307C84.7262 42.7966 84.5186 42.7879 84.3105 42.7949H84.3018ZM26.7041 40.3027C26.899 40.5235 25.4067 41.6912 25.1768 41.8574C24.463 42.3734 23.4551 42.9984 22.5938 43.1484L24.542 42.0146L26.7041 40.3027ZM26.2363 34.2861C27.0024 35.2227 27.3978 36.4012 28.0957 37.4082C29.4709 39.39 31.2351 40.6085 33.667 40.9336H33.6689C33.5599 41.2806 33.4872 41.1899 33.2373 41.1377C29.3891 40.3601 27.2956 37.9889 26.2363 34.2861ZM64.79 27.6709C67.6293 25.8955 72.2828 26.9367 73.2764 30.3623C73.7445 31.9761 73.231 33.2973 74.8037 34.5293C75.9516 35.4271 77.3051 35.5429 78.6484 35.043C80.1779 34.4723 81.1606 32.6135 82.7695 31.7314C87.8071 28.9717 94.5745 33.2201 91.8193 38.8828C91.6121 39.3085 90.9027 40.5535 90.4688 40.3809C90.7096 39.9946 91.0096 39.6346 91.2119 39.2256C91.2711 39.1072 91.5917 38.6187 91.1826 38.7188C90.6576 39.3189 90.0665 40.4736 89.2803 40.7715C89.0083 40.8731 88.9623 40.5559 89.0459 40.46C89.1063 40.3915 90.0751 40.1188 89.7578 39.667C88.5895 40.8055 87.0728 41.0695 85.5273 40.5742C84.1998 40.1491 82.2371 39.217 80.8232 38.6328C80.6524 38.5624 80.0639 38.4255 80.1875 38.167C80.2147 38.1125 80.999 37.5165 81.0898 37.4873C82.7333 37.0056 85.1816 39.3455 87.2773 38.7686C87.8955 38.5981 88.5119 38.103 89.1572 37.8711C89.214 37.8507 89.2011 37.629 89.2734 37.6328C89.6371 37.6511 90.1139 38.0522 90.1504 37.2959L89.8369 37.1387L90.3193 37.041C90.6417 36.1572 89.8804 35.6746 90.1504 34.9248L89.6777 35.2383C89.8115 34.6614 89.1032 34.7333 89.2002 34.1318L88.7295 34.4473L88.5801 33.8838C87.8414 33.9382 87.1612 33.5474 86.4316 33.502C84.6132 33.3862 83.1397 34.2911 81.6895 35.2412C81.7758 34.8141 82.4352 34.5409 82.7695 34.2637C82.9105 34.1477 83.2808 33.9519 82.7988 33.9746C81.7011 34.4204 80.7734 35.7162 79.8574 36.2549C77.7913 37.4684 75.9718 37.0431 74.0557 35.9111C73.7446 35.7269 73.5349 35.395 73.2236 35.2383C73.3281 35.4519 73.3086 35.725 73.6221 35.8682L75.4385 36.9775C74.8245 37.2174 72.7813 35.6492 72.7539 35.3184C72.7335 35.0391 73.0597 35.1565 73.2236 35.2383H73.2266C72.7243 34.2177 72.4718 33.0353 72.2764 31.917L71.8057 32.3906C71.4647 29.9287 69.4618 28.614 67.0635 29.4688C66.6365 29.6211 66.377 29.9552 65.9521 30.0166C66.0229 29.267 66.9889 29.2232 67.5254 28.9824L69.7461 28.9121C68.0071 28.3644 66.2699 28.8232 64.9219 30.0166L64.7627 29.542C64.3131 29.5019 64.124 30.2483 63.8945 30.0166C63.6503 29.7687 65.0144 29.0781 65.002 28.7529L63.5791 29.3828C63.4609 28.6534 64.2014 28.0392 64.79 27.6709ZM5.3584 30.8936C3.49208 27.5201 7.08157 22.5983 10.8438 24.3008C12.3599 24.9874 13.196 27.438 11.8457 28.5996C12.0684 27.8451 12.0983 27.3516 11.6826 26.6631C11.0757 25.6607 9.60494 25.467 8.56836 25.876C7.3935 26.3399 6.96071 27.9108 7.10156 29.0723L7.59473 27.4336L8.68164 26.8604C7.09328 28.1265 7.60685 30.1266 9.47266 30.7314C11.7093 31.4543 13.7626 29.6048 15.6924 28.7295C20.6049 26.504 25.283 27.3452 28.7656 31.5303C30.4385 33.5397 31.2805 36.5122 34.2988 37.0693C38.1836 37.7854 40.8688 33.5964 46.1377 34.8779C47.8675 35.2984 50.4188 37.3174 51.9033 37.1064C52.5805 37.0086 53.151 36.4063 53.9189 36.8262C53.9484 37.0397 53.9259 37.2264 53.7783 37.3945C53.5555 37.6463 53.1422 37.4839 53.1309 37.7725H54.3174L52.3398 38.4082L53.6035 38.7227C52.4989 39.0725 51.5256 38.756 50.4414 38.5674L52.4961 39.3564C51.146 39.3472 49.6862 38.9719 48.7793 37.9355C48.7139 38.6216 49.8885 39.0612 50.4023 39.3203C50.741 39.4908 50.7823 39.5221 50.3711 39.5107C49.4437 39.4264 48.5178 38.3766 47.8291 38.0947C47.7561 38.0653 47.5711 38.0542 47.5957 38.1719L48.7002 39.1221C48.2797 39.1989 47.6791 38.6224 47.2246 38.3838C44.5877 36.9903 42.6095 36.9608 39.7998 37.9746C37.4795 38.8111 36.7673 39.6131 34.0557 39.5381C33.8691 39.5333 33.4784 39.3887 33.5146 39.6748C36.8562 40.5682 39.5871 37.6063 42.7627 37.4561C44.2471 37.3857 46.2227 37.7882 47.2773 38.8838C46.4841 38.6724 45.5949 38.0997 44.7881 37.9746C39.3575 37.1292 35.7651 42.721 30.3662 38.6338C28.7272 37.3926 28.2864 35.4258 27.1885 34.4551C27.3976 34.8619 27.5521 35.3761 27.793 35.8262C29.3296 38.6856 31.7416 40.3276 35.042 40.4551C35.3964 40.4687 35.6517 40.3317 35.9697 40.3066C36.1425 40.293 36.5582 40.1934 36.5195 40.4639C32.7464 41.1296 29.7973 39.7794 27.8516 36.5586C27.5857 36.1177 26.8479 34.792 26.7158 34.3711C26.6909 34.2893 26.6725 34.1133 26.79 34.1377C26.89 34.2806 27.0651 34.3465 27.1855 34.4531C26.5309 33.1825 26.0155 32.1137 24.8018 31.209C24.7422 31.1656 23.6374 30.62 23.542 30.5859C21.4938 29.8268 18.9927 29.6957 17.0605 30.8164C18.8085 30.3277 21.1071 30.0748 22.8574 30.6338C23.0665 30.702 23.3399 30.6887 23.3877 30.9727C21.3965 30.4272 19.639 30.3958 17.6592 31.0186C16.8615 31.2709 16.2196 31.7933 15.4014 31.9229L16.2383 31.3047C16.6831 31.3385 16.9015 30.9074 17.0605 30.8135L17.0635 30.8115C15.8793 31.1435 14.9644 31.9008 13.7393 32.0781C14.0707 32.9731 13.3645 32.6731 12.9395 32.7686C12.6512 32.8347 12.6708 33.1323 12.5186 33.1777C11.6702 33.4252 9.55671 33.3281 8.70898 33.0781C7.52256 32.7303 6.10626 31.6912 5.67188 30.498L5.3584 30.8936ZM80.0312 38.876C81.2835 38.917 82.3747 39.5551 83.5088 39.9824V39.9854L82.8682 40.0713L80.0312 38.876ZM43.6514 38.249L41.5938 38.6416L38.5908 39.6699C39.9479 38.6266 41.9556 38.2014 43.6514 38.249ZM3.23438 37.5166C3.05945 37.4993 2.84416 37.608 2.67871 37.8652C2.32906 38.4104 2.54382 38.8377 2.85254 38.874C3.03412 38.9083 3.25359 38.8049 3.41113 38.502C3.73127 37.8875 3.53298 37.5245 3.23438 37.5166ZM28.8008 36.0674C28.791 36.0551 28.7803 36.0436 28.7705 36.0312C29.2026 37.238 30.4072 38.4427 31.6162 38.877C31.6106 38.8725 31.6052 38.8677 31.5996 38.8633C31.6109 38.8674 31.6216 38.8729 31.6328 38.877C30.5555 38.0223 29.6407 37.1086 28.7861 36.0312C28.7904 36.0433 28.7963 36.0553 28.8008 36.0674ZM23.2285 35.083L23.7041 35.2402L22.7559 35.874L23.7012 35.7178V36.0312C22.0578 36.9062 20.2117 37.4319 18.3252 37.2979C18.2866 37.0548 18.6211 37.1107 18.8008 37.0654C19.4119 36.9065 20.0915 36.8834 20.6709 36.7109C20.9459 36.6291 21.0852 36.7673 21.0127 36.3496C19.8513 36.7677 18.7254 36.6818 17.5322 36.5068V36.0332C19.6302 36.1922 21.4196 35.0537 23.3857 34.6104H23.3877L23.2285 35.083ZM39.6182 29.5498C43.2485 26.5014 48.2997 26.2627 51.9551 29.3838C52.8984 30.1884 54.3828 32.2456 55.3535 32.6279C56.8174 33.203 59.0936 31.7957 60.6689 31.6182C62.6079 31.4023 64.5376 31.7507 66.0947 32.96C66.7357 33.4577 68.0112 35.4186 68.4297 35.5352C68.9613 35.6828 69.0344 34.9894 69.1162 34.6074L69.1182 34.6055C69.6365 34.7896 69.3163 35.1741 69.2754 35.5537L69.75 34.6055C69.9137 34.435 70.8804 36.1881 69.9893 36.9814C68.7753 38.0603 66.6767 36.1397 65.8721 35.2373L65.6377 35.5537C65.6877 34.7945 63.94 33.8126 63.3057 33.6943C62.0009 33.4512 60.7841 34.0169 59.543 34.292L60.0977 33.9717C60.1363 33.6877 59.7553 33.8281 59.5869 33.8555C58.9891 33.9533 58.2771 34.2759 57.6816 34.4805C57.4137 34.5715 57.2202 34.8012 56.9863 34.8672C56.7359 34.9345 54.169 34.3007 53.8486 34.1484C52.544 33.5276 51.3459 31.314 49.9004 30.332C46.1586 27.7883 42.8413 29.5405 39.7725 32.0752C39.4873 31.8641 39.9543 31.6523 40.0098 31.5205C40.3546 30.6965 38.6523 32.3004 38.5889 32.2344L39.2188 31.2051C38.7757 31.0463 38.1845 31.9612 37.9502 32.3887C37.6938 32.4114 37.595 32.4634 37.6357 32.1572C37.7244 31.4868 39.0768 30.005 39.6182 29.5498ZM36.2002 27.8066H36.2021C33.5614 30.5208 36.3321 34.2513 39.5234 34.6084C39.5733 34.9461 39.5366 34.8624 39.3232 34.96C38.6551 35.2644 38.0086 35.2648 37.3086 35.083L37.7822 35.5537C34.6523 35.2783 32.2678 30.1158 34.7744 27.9629C34.6902 28.4513 34.4019 28.8066 34.3154 29.3223C34.279 29.5366 34.1681 30.408 34.458 30.4932C34.3081 29.3907 34.8775 27.7024 36.2002 27.8066ZM36.0508 35.3975V35.3994C36.0488 35.3979 36.0469 35.396 36.0449 35.3945C36.0469 35.3952 36.0489 35.3967 36.0508 35.3975ZM33.5225 28.4414C33.793 28.4005 33.6914 28.8184 33.6777 28.9912C33.63 29.5659 33.4979 29.8937 33.541 30.5547C33.6637 32.4093 34.5597 34.2847 36.0449 35.3945C33.4178 34.4253 32.6757 30.8855 33.5225 28.4414ZM32.9727 28.7549C33.0657 29.2003 32.8017 29.6145 32.7949 30.0713C32.7746 31.6693 33.5659 33.8812 34.6318 35.0791C34.3426 35.3519 33.2825 33.6705 33.1797 33.4492C32.5955 32.1718 32.2251 30.028 32.9727 28.7549ZM77.3311 34.6094L77.3291 34.6123C77.3291 34.6109 77.3282 34.6088 77.3281 34.6074C77.329 34.6081 77.3301 34.6087 77.3311 34.6094ZM74.8008 31.7656C76.1837 31.8428 77.3686 33.2562 77.3281 34.6074C76.9379 34.3113 76.9322 33.749 76.6738 33.291C76.6206 33.199 76.0726 32.4892 76.0176 32.4453C75.6903 32.1771 75.0259 32.1315 74.8008 31.7656ZM73.6914 29.3896C75.8326 28.5921 78.4666 29.8921 79.5146 31.8672C80.2465 33.2491 80.1268 33.6819 78.7539 34.4502L78.7559 34.4473L78.6758 34.1318L78.2803 34.4473C78.1553 33.7291 77.9785 32.8881 77.4082 32.3926C77.3812 32.9833 77.8624 33.4406 77.9512 34.0654C77.9989 34.397 78.0327 34.507 77.6465 34.4502C77.5601 32.7021 76.0847 31.2741 74.3252 31.2832L74.8848 31.1191L76.0645 31.1289L74.3252 30.8105L74.6387 30.3379C74.105 30.3919 73.7779 29.8576 73.6914 29.3896ZM19.6758 32.4121C20.7576 32.4375 20.253 33.2307 19.459 33.2021L20.6943 33.3369C19.592 33.6846 18.4371 33.9854 17.2803 34.1172C16.9673 34.1534 17.0552 34.087 17.0576 33.8125L17.5322 33.6553H16.1094C16.68 32.8804 18.7662 32.3919 19.6758 32.4121ZM41.7822 30.916C46.2469 27.7289 50.0164 29.8067 52.8125 33.8145C51.5237 33.3097 50.835 32.0176 49.6348 31.2197C46.5 29.1284 43.8805 30.1133 40.998 32.0547L40.6328 31.7607C41.18 31.8422 41.3919 31.1959 41.7822 30.916ZM32.7168 33.4951C32.4901 33.531 32.5026 33.2206 32.4482 33.0547C32.2391 32.4115 32.0683 31.6015 32.0273 30.9287C32.0113 30.6858 31.844 30.5396 32.166 30.333L32.7168 33.4951ZM6.15137 30.3359C6.36097 31.0159 6.84047 31.5479 7.43848 31.9463C8.18142 32.4425 9.10939 32.7286 9.93457 32.833C9.972 32.8378 10.0089 32.8446 10.0459 32.8486C10.0693 32.8512 10.1006 32.855 10.1367 32.8604C10.3877 32.8973 10.8991 32.976 10.8994 32.7129L10.8975 32.71C10.8916 32.71 10.8857 32.709 10.8799 32.709C9.75756 32.7107 8.75893 32.4561 7.89355 31.9463C7.23576 31.5577 6.6545 31.0211 6.15527 30.3369C6.15592 30.339 6.15658 30.3417 6.15723 30.3438C6.15531 30.3411 6.15328 30.3386 6.15137 30.3359ZM68.4775 29.5527C69.6384 29.3778 70.8627 30.3605 71.166 31.4463C70.961 31.6495 69.9619 30.4138 69.7373 30.2686C69.3214 29.9959 68.7118 30.0139 68.4775 29.5527ZM87.8428 28.5957C87.3064 27.6001 89.7097 27.3454 90.4258 28.8662C90.7551 29.5663 90.7867 31.1191 89.8311 31.2793C89.7451 30.7271 89.7066 29.9179 89.3643 29.4551C89.0551 29.0369 88.0453 28.9729 87.8428 28.5957ZM56.0947 28.3145C57.5473 23.0701 65.188 20.6399 69.498 24.0088C69.9777 24.3839 72.2281 26.5779 71.7939 27.1689V27.1709C71.478 26.9891 71.1281 26.8635 70.8076 26.6885C68.4049 25.3859 66.5901 24.054 63.5645 24.8701C62.1529 25.2501 60.3328 26.8234 59.6963 28.1211C59.5685 28.3827 59.0177 30.7231 58.5088 30.1758C58.5226 27.7437 60.408 25.8164 62.54 24.957C62.7944 24.7367 62.3852 24.7882 62.2578 24.8291C59.762 25.6794 58.1907 28.0649 58.0293 30.6494L57.7178 29.0693L57.4795 30.1875C56.9206 30.2717 56.6951 30.5491 56.6064 31.124L56.4492 30.335L56.1338 31.124C55.477 30.5513 55.8765 29.1057 56.0947 28.3145ZM71.6396 25.3564C75.2426 23.4744 80.1712 26.4726 80.2578 30.4961L79.4639 29.3896L79.3076 29.7051C78.5688 28.6844 78.1888 28.0231 77.0137 27.4912C77.2005 27.637 78.4681 28.7026 78.2773 28.9141C77.3999 28.1616 76.4769 27.3342 75.2744 27.1729C75.2291 26.9073 75.669 26.9935 75.8174 27.0254C76.1129 27.089 76.709 27.3525 77.0137 27.4912H77.0156C75.7245 26.4911 74.7881 26.6842 73.2197 26.541L74.167 26.0703C72.9628 26.1568 72.4282 26.4972 71.6396 25.3564ZM59.7793 29.7061C59.9702 26.4338 63.9823 24.0856 67.0508 25.2783C66.9309 25.6553 66.1919 25.32 65.8945 25.3359C63.3988 25.4611 61.8414 26.405 60.5889 28.5371C60.3187 28.9985 60.4429 29.5833 59.7793 29.7061ZM87.7002 25.2881C88.4314 25.1906 89.8123 25.3286 89.9766 26.2188C88.7148 25.9096 86.7134 26.6484 86.502 28.0518C86.466 28.3002 86.7105 29.1973 86.6582 29.2246C86.054 29.5419 85.6748 28.6267 85.6201 28.1289C85.4931 26.9697 86.5207 25.4452 87.7002 25.2881ZM78.4854 21.5967C79.5083 19.7053 82.1938 19.8714 83.6123 21.2217L83.6143 21.2168C85.3214 22.8399 85.3074 25.4819 83.9844 27.3301L83.4346 26.7002C83.0281 26.8596 82.9637 27.491 82.7705 27.6592C82.4942 27.9005 80.8406 28.5933 80.5293 28.4229L79.5586 27.0957C80.686 26.482 81.4796 26.3607 81.9434 25.0381C82.0954 24.6062 81.8438 23.948 82.7207 24.0137C82.4585 24.377 82.9894 24.7531 83.3506 24.4834L82.8779 24.0908C82.7438 23.5408 83.3093 23.8555 83.1914 23.3809C82.7415 23.2194 82.53 22.7351 82.0459 22.3896C80.5729 21.3372 79.1908 21.4991 78.3701 23.2197C77.9046 23.0128 78.3192 21.9044 78.4854 21.5967ZM57.4854 22.2021C57.7536 22.1999 59.0409 22.3183 59.1455 22.4297H59.1475C59.2201 22.507 59.1816 22.8091 58.9521 22.7842L56.7764 23.0615C56.9197 23.3905 57.6534 23.0782 57.9561 23.0527C58.1243 23.0391 58.5569 22.9531 58.5137 23.2168C55.5814 23.267 54.353 25.7902 54.3984 28.4385C54.1695 28.4102 54.1308 27.7446 54.1035 27.5488C54.0513 27.1626 54.0921 26.769 54.083 26.3828C53.8494 26.4153 53.8189 27.0643 53.7871 27.2715C53.744 27.5532 53.7666 27.8403 53.7666 28.1221C53.0281 27.5357 53.8504 26.5056 53.7666 25.751L53.1348 28.1221L52.9756 26.8584L52.5049 27.9629C52.2685 25.017 54.4351 22.239 57.4854 22.2021ZM55.6689 25.0381L55.9854 25.1953L55.2783 26.2295L54.8799 28.123C54.426 26.7474 55.3372 24.1356 56.9287 24.0127L55.6689 25.0381ZM23.2402 25.5908C20.2033 20.0761 26.4154 15.9046 31.4482 17.0635C31.6615 18.3748 29.848 18.5228 28.9297 18.791L29.0889 19.1055C28.3636 18.8875 26.8856 19.7096 26.3174 20.2119C25.236 21.167 25.434 23.6061 26.7227 24.3994C28.9275 25.7562 32.1644 23.1224 34.458 22.6582C37.7497 21.9899 41.4986 23.4038 42.5352 26.7773C41.9402 27.1788 42.1099 26.2906 41.585 26.3838L41.7422 27.0156C40.2966 26.6018 39.6278 25.0223 38.0186 24.6494C37.6098 24.6381 37.6455 24.6682 37.9863 24.8408C39.0797 25.3909 40.0616 26.0636 40.6367 27.1729L38.1572 25.4629L35.3359 24.79L33.5195 25.1182C34.4719 25.2227 35.6907 24.9773 36.6045 25.1182L36.6064 25.1152C37.3475 25.2312 38.4662 26.0543 38.9004 26.6953C38.3277 26.4975 37.9274 26.0314 37.3184 25.8291C34.9361 25.0336 33.0103 25.7927 30.6758 26.2246L30.9893 26.5381C30.0279 26.6337 29.0434 27.1706 28.0615 27.1865C26.009 27.2205 24.0425 25.9905 23.1582 24.1699C22.8479 24.5293 23.7125 25.3407 23.2402 25.5908ZM23.4785 23.374C23.2698 24.2332 24.1175 25.2292 24.7471 25.7451C25.0489 25.9916 25.3577 26.1914 25.6719 26.3516C27.0244 27.046 28.4893 26.984 30.0537 26.5439C30.0449 26.4375 30.0014 26.3854 29.9395 26.3662C29.7625 26.2965 29.4118 26.5343 29.3301 26.5381H29.332C28.5638 26.5835 27.7362 26.5381 26.959 26.5381C26.6582 26.538 26.298 26.4178 25.9248 26.2188C24.8144 25.6218 23.5937 24.3255 23.4902 23.3789C23.4876 23.3897 23.4867 23.4013 23.4844 23.4121C23.4826 23.3993 23.4799 23.3867 23.4785 23.374ZM10.1094 21.2393C11.6938 19.8389 14.9112 20.3613 16.0342 22.1162C16.5705 22.9528 16.648 24.6687 17.4844 25.2529C18.5685 26.0075 20.2754 25.2784 21.4961 25.4326L21.499 25.4307C21.6007 25.6376 21.0801 26.0623 20.9824 26.1055C20.4888 26.3305 19.2483 26.6358 18.7119 26.6768C18.2228 26.713 16.8676 26.4899 16.3926 26.3467C15.5316 26.0868 15.0906 23.9446 14.7793 23.2168C14.4384 22.8873 14.5266 23.1209 14.6016 23.3936C14.7198 23.8322 14.9399 24.2555 14.999 24.7373C15.0196 24.908 15.1352 25.3124 14.8604 25.2715C14.5239 24.1145 13.9856 22.657 12.6445 22.4229C12.6017 22.1461 13.0121 22.2598 13.1602 22.3008C13.5192 22.403 13.7813 22.6843 14.1426 22.7412C13.9356 22.0117 12.8804 21.9683 12.2871 21.7773C12.1605 21.7359 12.1757 21.5028 12.0645 21.4824C11.8918 21.4511 10.3462 21.7045 10.2666 21.6318L10.3896 21.3408L10.1094 21.2393ZM37.2764 17.2461C42.0979 15.1684 48.3128 18.6922 48.8447 23.9502C48.8699 24.1907 49.0055 26.7805 48.3906 26.2236L48.3945 26.2256L48.2334 25.4346L47.6787 25.7529L47.6016 24.959L46.8125 25.5908C46.6329 22.8722 45.7257 20.7147 43.2275 19.4463C43.0842 19.3733 42.8096 19.1176 42.6982 19.3447C44.619 20.2996 46.2216 22.1861 46.3193 24.4229C46.3258 24.5819 46.1665 25.8403 45.8623 25.4346C45.7941 20.4109 41.2911 18.3691 36.8447 19.7373L37.8291 19.2217L39.6904 18.792C38.6426 18.708 37.6196 18.9649 36.624 19.2627C35.8535 18.4626 36.2742 17.6803 37.2764 17.2461ZM89.9795 26.2197L89.9775 26.2217L89.9766 26.2188L89.9795 26.2197ZM39.9971 19.8945C43.0636 19.6218 45.3707 22.1003 45.2139 25.1123L44.6143 23.4209C44.1096 22.2411 43.4935 21.2655 42.3184 20.6562L39.9971 19.8945ZM66.2588 19.9746C67.0454 19.0883 69.1732 20.2087 70.0371 20.7793C70.6303 21.1702 73.1823 23.7361 72.5811 24.3232H72.583C72.2376 24.661 71.8233 23.9598 71.7393 23.9053C70.7347 23.2415 69.8575 22.2045 68.7393 21.6045C68.3892 21.4158 68.0911 21.282 67.6797 21.3184C67.598 21.0911 68.3094 21.1884 67.9961 20.8477C67.9007 20.7454 66.2692 20.3019 66.2588 19.9746ZM54.4873 20.3955C56.1126 19.7158 57.3815 19.5617 59.1045 20.0049C59.3273 20.0617 59.8865 20.1006 59.9229 20.3711C59.623 20.5158 59.1958 20.2142 59.0547 20.2139C58.3206 20.2138 57.3771 20.1321 56.6816 20.2139C55.2632 20.3822 53.6232 21.3443 52.6504 22.3535C52.4259 22.5877 52.3098 22.9989 52.126 23.1738C51.8213 23.4621 51.264 23.4334 51.1436 24.1719C51.1413 22.4808 53.0439 21.0003 54.4873 20.3955ZM56.9355 24.0127C56.9335 24.0128 56.9307 24.0125 56.9287 24.0127L56.9326 24.0107L56.9355 24.0127ZM49.3398 20.293C52.9339 15.3286 61.7782 16.5695 65.7178 20.5225C65.8474 20.6543 66.8595 21.8431 66.7393 21.9521L66.7363 21.9551C66.5624 22.0983 65.0845 21.5246 64.8389 21.3701C64.4615 21.1314 64.1133 20.4025 63.7314 20.6094L64.3633 21.2432C64.0656 21.4718 63.699 20.8457 63.4014 20.623C62.8808 20.2366 62.3056 19.9159 61.751 19.584C61.2724 19.5592 61.6404 19.7542 61.7812 19.8701C62.2177 20.2315 62.8109 20.4838 63.0996 21.002L60.7266 19.7402L60.9629 20.2158C57.112 18.661 53.0334 19.8226 50.6807 23.2188C50.7125 22.0187 51.8813 21.3949 52.502 20.5312C52.2067 20.4633 52.1244 20.698 51.9473 20.8457C51.2654 21.4185 50.617 22.2232 50.2852 23.0596C49.9928 23.0955 50.1465 22.7304 50.2012 22.5801C50.4216 21.9756 50.8352 21.4365 51.0762 20.8457L49.8623 22.2705L49.3398 22.1113C49.7643 22.1312 49.8575 21.3295 49.9688 21.002L49.2578 21.793C48.5128 21.5702 49.0647 20.6728 49.3398 20.293ZM30.3613 22.4287V22.4258C30.3621 22.4248 30.3626 22.4229 30.3633 22.4219C30.3625 22.4239 30.3622 22.4268 30.3613 22.4287ZM29.0947 10.7236C31.2906 10.5872 32.8509 12.7646 33.0488 14.7559C33.2986 17.2821 31.9577 20.5211 30.3633 22.4219C31.8597 18.9122 34.5958 13.827 30.3428 11.1348L29.0947 10.7236ZM14.0635 16.0195C15.3682 14.9603 16.973 14.6233 18.5527 15.3301C21.242 16.5349 20.5946 19.9495 21.4971 22.2637L21.4941 22.2617C20.7083 22.6201 20.394 22.0388 19.9941 21.4775C19.7247 21.5013 20.3799 22.5746 19.8398 22.1074C18.8419 20.7003 19.6778 18.8086 18.332 17.5947C18.0058 17.4317 15.8838 18.1352 15.4043 18.3125C14.5771 18.6172 14.0539 19.2837 13.1152 19.1064C13.0266 18.6248 13.2634 18.8645 13.4883 18.7764C14.104 18.5355 14.6546 18.1792 15.2158 17.9678C16.2433 17.5813 17.7885 17.8688 17.541 16.2598C17.0776 16.8415 16.9635 17.2358 16.1953 17.5244C15.7376 17.6939 16.3451 17.0814 15.8867 17.2129C15.0278 17.4607 14.4135 17.8813 13.709 18.1973C13.277 18.3902 12.4 18.3165 12.4971 17.7852C12.535 17.5861 13.8058 16.2297 14.0635 16.0195ZM23.4629 14.3682C23.2107 9.87428 26.4162 6.25323 31.1123 7.66895C36.8179 9.38973 37.2414 17.1367 34.3389 21.4287C34.0549 21.8467 33.9515 22.034 33.3584 21.9521L33.3545 21.9541L34.1475 19.3467C33.9839 19.0947 33.9523 19.4695 33.9092 19.5811C33.7479 20.0104 33.6406 20.4335 33.4385 20.8516C33.3361 21.0632 33.1012 21.554 32.8809 21.6357C32.9423 20.92 33.3082 20.2855 33.4424 19.5879C33.4742 19.4242 33.6495 19.0692 33.3564 19.1055C33.0543 19.8852 33.0036 21.0129 32.249 21.4766L32.1699 21.0039L31.3018 22.1113C32.2815 19.5836 34.0179 16.6661 33.2861 13.877C32.7949 12.0016 30.7305 9.74684 28.6006 10.3174C28.1756 11.6878 28.039 12.8429 26.8574 13.793C26.5249 14.0614 25.3246 14.6324 25.2109 14.8369C24.8051 15.5694 25.6901 17.4259 24.0244 17.8418C23.9224 17.2148 24.6951 17.0119 24.791 16.46C24.8796 15.9463 24.4568 15.4501 24.7383 14.8389C24.9702 14.3367 26.7152 13.6115 27.2705 12.9434C27.8251 12.2751 28.4411 10.8794 28.0596 10.0928L27.2666 12.3047C27.0348 11.9365 27.9934 10.6654 27.1895 10.7217C27.1894 11.5103 26.9093 12.2475 26.3252 12.7861C26.0276 13.0608 25.693 13.1384 25.459 13.3428C24.9227 13.809 24.5038 14.9341 23.4629 14.3682ZM72.0762 11.2295C74.4858 10.7839 77.7977 12.7501 78.6797 14.9893C79.7866 17.7966 78.4478 20.6451 75.4404 21.1543L75.4365 21.1562L76.5273 20.5908L77.332 19.7354C76.7594 19.9468 76.3568 20.3818 75.75 20.6045C74.5159 21.0589 73.6238 20.9378 72.376 20.6582C72.1711 20.6129 71.6406 20.6238 71.6396 20.3701C73.5148 20.5929 74.9065 21.0309 76.5293 19.8018C76.6748 19.6904 77.3474 19.1262 77.1748 18.9443C75.6746 20.5964 73.8311 20.645 71.8037 19.9678C71.0354 19.7108 70.1162 18.8899 69.5752 18.708C69.3347 18.6268 69.1684 18.8172 68.8711 18.6426C68.0483 18.1629 66.7933 16.1377 66.4248 15.2236C66.8884 14.9032 66.7281 15.9234 67.2119 15.9375C66.6664 14.8579 66.9115 14.1293 67.5273 13.168L69.1367 15.9893C70.5916 18.0669 74.8036 20.4777 76.0723 17.0459L76.3867 17.835L76.5459 16.4121L76.0752 16.8848L76.2295 15.9375C75.7866 16.128 75.4406 15.9456 75.4404 15.4619L75.9111 15.7783L75.5977 15.2256L76.0703 14.8301C75.0159 14.9049 74.1314 14.3641 73.2246 14.0391L74.1719 14.6729C74.1624 15.0335 73.6223 14.7281 73.4834 14.6484C72.6674 14.1824 71.8082 13.0997 71.4785 12.2246C71.2104 11.5156 71.3288 11.3681 72.0762 11.2295ZM45.7021 15.3848C46.966 13.5822 49.6979 12.9978 51.7119 13.6455C52.8007 13.9956 54.4358 15.3294 54.877 16.4092V16.4121C53.7908 17.0206 53.3785 15.621 52.5059 15.7002L52.9785 16.2529C52.4581 16.1482 52.0526 15.6664 51.5049 15.4346C49.9479 14.7734 48.1025 15.0822 46.8887 16.2549L46.7314 15.9395L46.4902 16.5713C46.1048 16.6414 46.2309 16.5183 46.1084 16.2686C45.0887 16.7498 45.257 16.0188 45.7021 15.3848ZM58.1055 4.70703C60.374 3.43206 62.7539 3.98011 64.7314 5.53027C68.8892 8.78557 67.6023 15.6104 62.3057 16.5742C62.5079 16.2061 62.9264 16.3506 62.7812 15.7852C62.6676 15.6693 61.7115 16.0568 61.8291 15.4688C61.4658 15.6577 61.4463 16.2509 60.8828 16.0986L61.1992 15.626L58.0352 15.3076C58.21 14.9351 57.999 14.4349 58.457 14.2188C61.0621 14.9007 63.8975 13.6066 63.8887 10.6426C63.8794 7.79691 60.7448 8.0192 58.9785 7.01465C58.7058 6.86014 58.3081 6.68231 58.3555 6.29395C58.4538 6.20262 60.4779 7.27834 60.7988 7.4082C61.6513 7.75372 62.4286 7.61967 63.1855 8.34473C64.2312 9.34496 64.3518 10.9364 63.8994 12.2344C63.7221 12.7407 63.3903 13.082 63.2607 13.5703C64.6268 12.3018 64.8837 10.0903 63.8018 8.51953C63.0289 7.39672 61.6741 7.33777 60.5693 6.76953C61.4945 7.20362 63.118 6.75991 63.8682 7.82129L64.8389 9.45801C64.8477 8.44661 64.0424 7.55835 63.3174 6.94922L60.4922 6.45312C60.3298 6.42602 60.5256 6.71829 60.5645 6.76465C59.773 6.35732 58.4144 5.57417 58.1055 4.70703ZM75.7539 16.4141L75.752 16.417C75.7511 16.4152 75.7499 16.4129 75.749 16.4111L75.7539 16.4141ZM70.6914 13.2549C71.4211 13.1049 71.5444 13.7932 71.874 14.0479C72.2037 14.3025 73.0422 14.8803 73.3945 15.0576C74.2204 15.4728 75.2592 15.4371 75.749 16.4111L72.9219 15.2139L70.6914 13.2549ZM36.335 5.5498C37.3397 3.69724 40.0404 3.40341 41.8545 4.04883C46.2305 5.60828 46.7833 11.3055 44.7783 14.9404C44.6233 15.2233 43.9281 16.5963 43.4873 16.2568H43.4844L43.957 14.8359L43.6416 15.4678C42.906 15.4471 43.2884 14.8314 43.3252 14.3633C42.9104 14.5252 43.254 15.1944 42.5361 14.9922L42.8506 13.8877L41.7451 15.1514C42.643 13.176 43.4702 10.9803 42.8066 8.78906C42.5748 8.02088 41.9664 7.46797 41.7549 6.70215C40.9093 6.443 40.2904 6.07482 39.3721 6.45215C39.2789 6.35894 39.7949 5.5471 39.3721 5.50391C38.8269 6.3085 38.8904 7.30675 38.5654 8.09766C38.172 9.05194 36.8923 9.31869 37.1875 10.6094C37.3082 11.1389 38.0354 11.5878 37.6309 12.3037L36.8037 10.8389C36.1768 9.0252 39.0305 8.49304 38.4219 6.45215C37.6357 7.48407 37.101 8.93617 35.9443 9.59082C34.759 9.69903 36.0409 6.09366 36.335 5.5498ZM30.0381 9.67285C29.5836 9.58111 29.1047 9.55849 28.6094 9.61719C28.4001 9.77732 28.5397 9.85874 28.8027 9.90039C29.2284 9.97112 29.998 9.93182 30.1104 9.94434C31.3275 10.1365 32.9188 11.5227 33.3838 12.6699L34.1426 15.1504V15.1074L34.1562 15.1523V15.1543C34.229 12.6272 32.4781 10.1572 30.0381 9.67285ZM42.209 8.66797C42.8227 10.3888 42.7817 12.3399 41.8975 13.9697C41.8139 14.1249 41.1702 15.2137 40.9453 14.9922C41.709 13.558 42.4741 12.0142 42.3652 10.3301C42.3402 9.93465 42.1864 9.53835 42.125 9.14746C42.0976 8.98149 41.914 8.63189 42.209 8.66797ZM46.6357 4.95312C46.5131 2.29817 49.2002 0.341253 51.6006 1.72754C52.9369 2.49798 53.7575 5.11706 52.0225 5.81348L52.333 5.10547C52.2285 4.83966 51.9174 5.0255 51.8877 4.99609C51.7741 4.88014 51.721 4.26902 51.4756 3.91211C50.6117 2.66423 48.6225 2.56236 48.543 4.39453L49.1729 4.07812C48.621 7.78276 52.7738 7.05641 54.9766 7.84277C57.6976 8.81572 58.8459 11.8504 57.3184 14.3555C56.8554 14.4188 57.3424 14.0026 57.2314 13.6641C57.14 13.3826 56.4412 13.3171 56.291 13.4102C56.2812 13.4234 56.4238 13.6177 56.3564 13.7256C55.8791 14.4841 55.2722 13.7896 55.1836 13.8828V14.3574L54.5518 14.1963C55.054 13.519 55.4631 12.8798 55.3428 11.9844C55.7178 11.9616 55.6196 11.9346 55.6582 12.2188C55.7353 12.7892 55.5747 13.3306 55.502 13.8828C55.9538 13.9577 55.7633 13.7868 55.8379 13.5166C56.097 12.5802 55.7813 11.9704 55.9766 11.1318C55.5156 10.9429 55.3445 10.214 55.165 9.95703C55.1446 9.92748 54.965 10.0223 54.874 9.97461C52.8169 8.90427 50.6707 9.47251 48.8545 7.9541C48.0636 7.29268 48.2155 7.15836 47.2812 6.68555C46.8112 6.44648 46.6585 5.44413 46.6357 4.95312ZM74.4971 12.3672C74.2487 12.2701 73.957 12.2875 73.7314 12.5C73.3429 12.8661 73.8156 13.4454 74.2959 13.584C74.5269 13.6551 74.7608 13.6272 74.9043 13.4238C75.2091 12.9906 74.9094 12.5204 74.4971 12.3672ZM62.0039 12.457L61.3691 12.4609L61.6836 12.7725L58.6807 13.0908L58.6875 11.9932L62.002 11.8271L62.0039 12.457ZM69.3154 11.9521C69.9402 11.5434 70.3447 11.8367 70.999 12.0049L71.0088 12.4639C70.302 12.416 69.8374 11.9521 69.1123 12.3066C69.0306 11.939 69.1611 12.0516 69.3154 11.9521ZM25.5127 10.75C25.0049 10.698 24.2018 11.6354 24.6904 12.1084C24.7864 12.2013 24.8971 12.2469 25.0117 12.2598C25.3278 12.3129 25.6839 12.0914 25.8721 11.835C25.9935 11.0439 25.7916 10.7583 25.5127 10.75ZM50.9092 9.45996C51.9252 9.42587 52.9347 9.68551 53.9121 9.93555L53.9141 9.98438C53.903 10.21 53.5919 10.0338 53.4365 10.0146C52.8616 9.93966 52.2136 9.85355 51.6455 9.74902C51.452 9.71275 50.9098 9.7117 50.9092 9.45996ZM60.5674 6.7666L60.5693 6.77148C60.5684 6.77089 60.5672 6.76797 60.5645 6.76465C60.5654 6.76515 60.5664 6.76608 60.5674 6.7666ZM61.3936 4.89941C60.7709 4.71719 60.2967 5.46641 60.7217 5.74414H60.7295L60.7314 5.74609L61.6611 5.79785L61.8105 5.29102L61.5244 4.94824C61.4803 4.92703 61.4364 4.91135 61.3936 4.89941ZM55.8232 5.3457C55.6672 4.43483 57.8828 5.14841 57.876 5.2666C57.2146 6.11106 56.571 4.89116 55.8232 5.3457Z" fill="white"/>
<path d="M125.516 70V24.56H132.428V63.664H154.572V70H125.516ZM173.38 70.768C163.588 70.768 157.188 63.856 157.188 53.04C157.188 42.224 163.588 35.312 173.38 35.312C183.108 35.312 189.508 42.224 189.508 53.04C189.508 63.856 183.108 70.768 173.38 70.768ZM164.228 53.04C164.228 60.464 167.62 64.88 173.38 64.88C179.14 64.88 182.468 60.464 182.468 53.04C182.468 45.616 179.14 41.2 173.38 41.2C167.62 41.2 164.228 45.616 164.228 53.04ZM191.39 36.08H198.238L207.838 62.832L217.182 36.08H224.03L210.398 73.968C209.054 77.808 206.43 79.6 202.206 79.6H197.278V74.096H201.31C203.102 74.096 204.062 73.456 204.702 71.792L205.79 68.976H203.742L191.39 36.08ZM226.859 46.256C228.203 39.408 233.579 35.312 241.387 35.312C250.603 35.312 255.659 40.432 255.659 49.712V62.32C255.659 64.048 256.427 64.688 257.771 64.688H259.115V70H257.003C253.931 70.064 249.771 69.552 249.451 64.752C247.915 68.016 244.139 70.768 238.507 70.768C231.659 70.768 226.283 67.12 226.283 61.104C226.283 54.32 231.339 52.336 239.147 50.864L248.875 48.944C248.811 43.504 246.315 40.816 241.387 40.816C237.419 40.816 234.795 42.864 233.899 46.704L226.859 46.256ZM233.323 60.976C233.323 63.472 235.499 65.52 239.979 65.52C245.035 65.456 249.003 61.872 249.003 54.576V54.128L241.771 55.408C237.099 56.24 233.323 56.688 233.323 60.976ZM265.377 24.56H272.161V62.128C272.161 63.664 272.993 64.432 274.465 64.432H277.217V70H272.993C268.449 70 265.377 67.056 265.377 62.448V24.56Z" fill="white"/>
</svg>
