<svg width="1040" height="320" viewBox="0 0 1040 320" fill="none" xmlns="http://www.w3.org/2000/svg">
<path d="M60 280L0 140H180V0L260 140L280 0L400 320L60 280Z" fill="#F9363C"/>
<path d="M221.359 173.036C254.451 174.77 280.059 199.425 278.555 228.105L158.72 221.824C160.223 193.145 188.268 171.301 221.359 173.036Z" fill="white"/>
<mask id="mask0_116_970" style="mask-type:alpha" maskUnits="userSpaceOnUse" x="158" y="172" width="121" height="57">
<path d="M221.36 173.036C254.452 174.77 280.059 199.425 278.556 228.105L158.721 221.824C160.224 193.145 188.268 171.301 221.36 173.036Z" fill="white"/>
</mask>
<g mask="url(#mask0_116_970)">
<circle cx="219.998" cy="199" r="27" transform="rotate(3 219.998 199)" fill="black"/>
</g>
<path d="M982.232 80.001H1017.95V239.629C1017.95 246.606 1021.86 250.513 1028.84 250.513H1040V278.14H1019.63C997.302 278.14 982.232 264.187 982.232 241.024V80.001Z" fill="black"/>
<path d="M824.63 175.441C830.49 144.464 854.211 126.883 890.769 126.883C933.467 126.883 955.793 148.929 955.793 190.511V241.301C955.793 249.673 959.42 252.185 965.002 252.185H970.862V278.139L962.49 278.418C951.048 278.697 927.607 278.976 924.816 255.534C917.839 270.325 901.095 281.487 875.42 281.487C845.56 281.487 822.118 265.58 822.118 239.348C822.118 210.883 843.607 201.115 878.49 194.418L919.793 186.325C919.793 163.441 910.025 152.557 890.769 152.557C874.862 152.557 864.537 161.208 861.188 177.394L824.63 175.441ZM859.234 238.232C859.234 248.278 867.886 256.371 885.188 256.371C905.281 256.371 920.63 241.58 920.63 212.557V210.604L892.444 215.627C873.746 218.976 859.234 221.487 859.234 238.232Z" fill="black"/>
<path d="M679.852 130.233H714.457L754.085 240.745L792.317 130.233H826.922L768.038 293.768C761.62 311.908 749.62 320.001 729.806 320.001H705.527V292.652H723.666C732.317 292.652 736.503 289.861 739.573 282.884L743.759 272.001H733.434L679.852 130.233Z" fill="black"/>
<path d="M613.685 281.487C569.313 281.487 540.29 251.069 540.29 204.185C540.29 157.301 569.313 126.883 613.685 126.883C657.778 126.883 686.802 157.301 686.802 204.185C686.802 251.069 657.778 281.487 613.685 281.487ZM577.406 204.185C577.406 234.604 590.523 252.464 613.685 252.464C636.569 252.464 649.964 234.604 649.964 204.185C649.964 173.767 636.569 155.906 613.685 155.906C590.523 155.906 577.406 173.767 577.406 204.185Z" fill="black"/>
<path d="M479.824 80.001H515.545V239.629C515.545 246.606 519.452 250.513 526.429 250.513H537.592V278.14H517.22C494.894 278.14 479.824 264.187 479.824 241.024V80.001Z" fill="black"/>
</svg>
