<svg preserveAspectRatio="none" width="100%" height="100%" overflow="visible" style="display: block;" viewBox="0 0 20 20" fill="none" xmlns="http://www.w3.org/2000/svg">
<g id="Frame">
<path id="Vector" d="M15.701 6.35782C15.601 6.44906 15.471 6.50032 15.3356 6.50184H2.51488C2.05973 6.50184 1.83037 5.98179 2.14507 5.67687L4.25105 3.64735C4.34876 3.55223 4.47918 3.49815 4.61553 3.49622H17.4852C17.9448 3.49622 18.1697 4.0216 17.8497 4.32741L15.701 6.35782ZM15.701 16.3632C15.6004 16.4528 15.4704 16.5025 15.3356 16.5028H2.51488C2.05973 16.5028 1.83037 15.9872 2.14507 15.6831L4.25105 13.6474C4.34973 13.5546 4.48004 13.5028 4.61553 13.5025H17.4852C17.9448 13.5025 18.1697 14.0225 17.8497 14.3275L15.701 16.3632ZM15.701 8.64159C15.6004 8.55197 15.4704 8.50232 15.3356 8.50202H2.51488C2.05973 8.50202 1.83037 9.01763 2.14507 9.32166L4.25105 11.3574C4.34973 11.4502 4.48004 11.5021 4.61553 11.5023H17.4852C17.9448 11.5023 18.1697 10.9823 17.8497 10.6773L15.701 8.64159Z" fill="var(--fill-0, white)"/>
</g>
</svg>
