<svg width="48" height="48" viewBox="0 0 48 48" fill="none" xmlns="http://www.w3.org/2000/svg">
  <circle cx="24" cy="24" r="24" fill="white" fill-opacity="0.06"/>
  <g transform="translate(12, 13.5)">
    <path d="M23.1924 16.44L19.3438 20.5664C19.2603 20.6558 19.1595 20.7272 19.0474 20.7761C18.9353 20.825 18.8144 20.8505 18.6921 20.8508H0.447039C0.36021 20.8503 0.275386 20.8247 0.202873 20.7769C0.13036 20.7291 0.0732815 20.6613 0.0385726 20.5817C0.00386358 20.5022 -0.00698128 20.4142 0.00735584 20.3286C0.021693 20.2429 0.0605948 20.1633 0.119334 20.0993L3.96328 15.9729C4.04669 15.8835 4.14755 15.8121 4.25963 15.7632C4.37171 15.7143 4.49263 15.6889 4.61492 15.6885H22.86C22.9478 15.6868 23.0341 15.711 23.1082 15.7582C23.1822 15.8053 23.2407 15.8733 23.2762 15.9536C23.3117 16.0339 23.3227 16.1229 23.3078 16.2095C23.2929 16.296 23.2528 16.3762 23.1924 16.44ZM19.3438 8.12774C19.26 8.03876 19.1591 7.96768 19.0471 7.9188C18.9351 7.86992 18.8143 7.84426 18.6921 7.84336H0.447039C0.360027 7.84341 0.274919 7.86884 0.20214 7.91653C0.129362 7.96422 0.0720726 8.0321 0.037291 8.11186C0.00250933 8.19161 -0.00825458 8.27978 0.00631777 8.36557C0.0208901 8.45135 0.060166 8.53102 0.119334 8.59482L3.96328 12.7241C4.04703 12.8131 4.14796 12.8842 4.25997 12.933C4.37197 12.9819 4.49272 13.0076 4.61492 13.0085H22.86C22.9467 13.0077 23.0312 12.9817 23.1035 12.9338C23.1757 12.8859 23.2325 12.8181 23.267 12.7386C23.3014 12.6591 23.3121 12.5712 23.2977 12.4858C23.2833 12.4003 23.2444 12.3208 23.1858 12.257L19.3438 8.12774ZM0.447039 5.16333H18.6921C18.8144 5.16299 18.9353 5.13757 19.0474 5.08866C19.1595 5.03974 19.2603 4.96837 19.3438 4.87895L23.1924 0.751556C23.2372 0.703688 23.2709 0.646566 23.2911 0.584231C23.3114 0.521896 23.3177 0.455872 23.3096 0.39083C23.3015 0.325788 23.2792 0.263317 23.2443 0.207838C23.2094 0.152359 23.1628 0.105228 23.1077 0.0697786C23.0338 0.0225391 22.9476 -0.00171392 22.86 9.42152e-05H4.61492C4.49263 0.000441112 4.37171 0.0258563 4.25963 0.07477C4.14755 0.123684 4.04669 0.195057 3.96328 0.284482L0.119334 4.41187C0.060166 4.47567 0.0208901 4.55534 0.00631777 4.64112C-0.00825458 4.72691 0.00250933 4.81508 0.037291 4.89483C0.0720726 4.97459 0.129362 5.04247 0.20214 5.09016C0.274919 5.13785 0.360027 5.16328 0.447039 5.16333Z" fill="white"/>
  </g>
</svg>
