<svg width="64" height="64" viewBox="0 0 64 64" fill="none" xmlns="http://www.w3.org/2000/svg">
<path d="M31.9979 64C32.5888 64 33.412 63.7242 34.1343 63.3417C52.3574 53.2467 58.0976 48.9753 58.0976 37.9045V13.4228C58.0976 9.98219 56.8579 8.86861 53.8639 7.65975C49.2622 5.8466 39.1655 2.05869 34.5662 0.465402C33.7082 0.172698 32.8682 0 31.9979 0C31.1276 0 30.2875 0.195136 29.4419 0.465402C24.8504 2.0743 14.7235 5.85899 10.1319 7.65975C7.16032 8.82599 5.89844 9.98219 5.89844 13.4228V37.9045C5.89844 48.9753 11.9031 52.7945 29.8615 63.3417C30.6062 63.7466 31.3969 64 31.9979 64Z" fill="#F9363C"/>
<path d="M32 20.0005C41.9411 20.0005 50 27.1639 50 36.0005H14C14 27.1639 22.0589 20.0005 32 20.0005Z" fill="white"/>
<circle cx="31.9004" cy="28.0005" r="8" fill="black"/>
</svg>
