<svg width="64" height="64" viewBox="0 0 64 64" fill="none" xmlns="http://www.w3.org/2000/svg">
<path d="M45.1807 52.2021C42.2033 54.244 38.3885 56.4475 33.5693 59.1172C32.941 59.4499 32.2251 59.6903 31.7109 59.6904C31.188 59.6904 30.4997 59.4695 29.8516 59.1172C14.225 49.9395 9 46.6157 9 36.9824V16.0547L45.1807 52.2021Z" fill="#3C3C43" fill-opacity="0.4"/>
<path d="M31.7109 4C32.4681 4.00004 33.1989 4.15062 33.9453 4.40527C37.9474 5.79166 46.7331 9.08729 50.7373 10.665C53.3425 11.7169 54.4218 12.686 54.4219 15.6797V36.9824C54.4219 40.3082 53.8247 42.9285 52.3926 45.2959L16.3301 9.26074C20.6936 7.6023 26.4661 5.46356 29.4863 4.40527C30.2221 4.1701 30.9536 4 31.7109 4Z" fill="#3C3C43" fill-opacity="0.4"/>
<path d="M55.3814 57.7302C56.0375 58.3949 57.0992 58.3777 57.773 57.7302C58.4553 57.0832 58.4286 55.9948 57.773 55.3387L5.79823 3.40335C5.17056 2.75618 4.08903 2.75618 3.40676 3.40335C2.73327 4.031 2.75082 5.13885 3.40676 5.8036L55.3814 57.7302Z" fill="#3C3C43" fill-opacity="0.4"/>
</svg>
