<svg width="440" height="356" viewBox="0 0 440 356" fill="none" xmlns="http://www.w3.org/2000/svg">
<path fill-rule="evenodd" clip-rule="evenodd" d="M178.509 69L268.246 27.9824L200.5 133L319.5 190.088L407 46.5L428.421 112.895L398.5 148.5L433.246 143.771L440 156.315L343.5 224.5L419.737 329.035L269.5 258.5L56.9297 355.088L154 205L11.5 140L0 87.8066L106 77L178.509 0V69ZM124 98C116.82 98 111 105.387 111 114.5C111 123.613 116.82 131 124 131C131.18 131 137 123.613 137 114.5C137 105.387 131.18 98 124 98Z" fill="white"/>
<path d="M101.315 259.562L83.9473 285.614L10.6143 304.912L83.9473 206.491L101.315 259.562Z" fill="white"/>
</svg>
