<svg width="36" height="36" viewBox="0 0 36 36" fill="none" xmlns="http://www.w3.org/2000/svg">
<path d="M14.3359 25.5486C14.0437 26.5475 14.4415 27.7647 15.5508 27.991C15.8154 28.0447 16.1725 28.0211 16.4395 28.0633C20.3394 28.675 19.1962 34.3098 15.2754 33.8182C13.7097 33.6218 12.1196 31.6614 13.5098 30.3533C14.5338 29.3909 16.5191 29.9042 15.8311 31.4725L15.6934 30.9442C15.4557 30.7256 15.23 30.4858 14.9004 30.4022C14.8537 30.5728 14.8012 30.4577 14.665 30.4734C14.3237 30.5141 14.1648 30.6209 13.9102 30.8602L14.0176 30.9129C13.8951 30.9741 13.9711 31.0693 13.9502 31.1375C13.9464 31.1497 13.8708 31.1503 13.8604 31.1912C13.8312 31.307 13.8539 31.4772 13.8027 31.6053H13.9111L14.0176 31.2596L14.0713 31.7401C14.0759 31.4018 14.11 30.938 14.498 30.8328C13.905 31.3161 14.2391 32.0444 14.8359 32.3367C16.7799 33.2901 18.4498 30.5821 16.5381 29.4598L15.833 29.2313C17.1485 29.2252 17.8134 30.4421 17.4346 31.6326C17.5094 31.6455 17.5068 31.5432 17.5273 31.4871C17.9015 30.4761 17.3903 29.3446 16.3242 29.0867C15.7389 28.9456 15.4059 28.9593 14.8076 28.7322C14.6796 28.684 14.7427 28.7441 14.5654 28.6463C14.1712 28.4277 13.8803 28.1595 13.6172 27.7899C13.5543 27.7883 13.8043 28.347 13.5918 28.1629C13.5811 28.1535 13.5637 27.9948 13.5322 27.9373C13.4275 27.7429 13.0566 27.2868 13.0566 27.0154V26.1082C13.0576 26.0982 13.1284 26.0251 13.1621 26.0281L13.1758 26.5233L13.3232 26.8826L13.2686 26.4852L13.4307 25.868V26.8026C13.431 26.8363 13.514 27.0903 13.5898 27.0965C13.5216 26.7252 13.4906 26.3273 13.6064 25.9637C13.6248 25.9069 13.6199 25.803 13.6973 25.8152V26.6961C13.6978 26.7363 13.7836 26.853 13.751 26.9363H13.8037C13.8313 26.6611 13.7655 26.3223 13.8037 26.0555H13.8027C13.8161 25.962 13.924 25.6621 14.0166 25.6024L13.9639 26.4822L14.123 27.0428C14.0494 26.5489 13.9856 25.9512 14.3359 25.5486ZM13.5078 32.4383C13.507 32.4375 13.5067 32.4362 13.5059 32.4354L13.4307 32.6414C13.6369 32.7312 13.725 32.941 13.9121 33.0975C14.3987 33.5034 15.0261 33.7057 15.6562 33.7127C16.4667 33.7225 17.282 33.4085 17.8076 32.782C17.8582 32.7223 17.9378 32.6949 17.9141 32.5945C17.9129 32.5956 17.9113 32.5964 17.9102 32.5975V32.5955C17.2745 33.1719 16.5302 33.5088 15.7764 33.5242C15.1909 33.5356 14.5999 33.3535 14.0498 32.9363L14.0049 32.9119C13.9571 32.8918 13.9004 32.8805 13.8545 32.8387C13.7204 32.7184 13.6338 32.5634 13.5098 32.4354L13.5078 32.4383ZM13.5928 32.2283C13.5915 32.2267 13.5901 32.2251 13.5889 32.2234C14.0365 33.2615 15.4918 33.6253 16.5498 33.2703C16.6062 33.2514 16.6609 33.2298 16.7148 33.2068C16.8302 33.1576 16.941 33.1022 17.042 33.034C17.0889 33.0027 17.1369 32.9852 17.1572 32.9432C17.1675 32.9231 17.1739 32.8986 17.166 32.8621C15.9761 33.594 14.4337 33.3492 13.5898 32.2215C13.5908 32.2237 13.5918 32.2261 13.5928 32.2283ZM14.5498 32.8358C14.7498 32.9545 14.9658 33.0341 15.1895 33.0809C15.561 33.1594 15.9535 33.1459 16.3291 33.0623C16.4451 33.0362 16.6767 32.9673 16.7441 32.8631C16.7416 32.8638 16.7389 32.8643 16.7363 32.8651C16.7371 32.864 16.7386 32.8632 16.7393 32.8621C16.3549 32.9687 15.9879 33.056 15.5859 33.0545L14.5547 32.8367L14.5498 32.8358ZM21.8877 24.533C21.9566 24.5678 21.8889 24.6798 21.875 24.7342C21.697 25.4291 21.3138 26.1336 21.1289 26.8699C20.7761 28.2707 20.6808 30.1666 21.9502 31.1424C22.9535 31.9138 24.5214 31.7785 24.6318 30.3836L24.6377 30.2459C24.7907 30.2784 24.6425 30.665 24.8496 30.619L24.793 30.1707L24.9033 30.1121L24.7139 30.0359C24.7766 29.8267 24.5864 29.772 24.4238 29.7068L24.4766 29.5516C23.9841 29.3897 23.5636 29.7091 23.0889 29.657L23.1943 29.3914L23.0078 29.5506C22.9745 29.2839 23.3064 29.0212 23.5479 28.9168C25.2508 28.1829 26.5217 30.7931 24.9824 32.2186C23.1128 33.9501 19.9937 32.6606 19.459 30.2977L20.1621 31.5428C21.388 33.1224 24.176 33.591 25.1719 31.5535L24.6914 32.034C23.378 33.2377 21.2845 32.6294 20.3232 31.2762C19.7556 30.4768 19.5174 29.4868 19.5098 28.5125C19.5008 27.3052 20.0995 26.1812 20.3135 25.0145C20.4052 25.0047 20.3723 25.1989 20.3691 25.2567C20.3299 25.8854 20.0517 26.4376 19.9121 27.0418C19.5761 28.4971 19.6302 30.1065 20.583 31.324C21.2697 32.2016 22.874 32.8727 23.9434 32.407C24.1286 32.3261 24.7765 31.8217 24.8496 31.659C24.8602 31.6359 24.8636 31.572 24.8242 31.5799C23.8138 32.8941 22.0511 32.5172 20.9717 31.5076C19.1302 29.7838 20.0107 27.2478 20.5791 25.1981C20.6027 25.1131 20.522 25.0398 20.6855 25.0672C20.6779 25.9164 20.2351 26.6819 20.1123 27.5096C19.9489 28.6112 20.0593 30.2441 20.7949 31.1248C21.6044 32.0936 23.1719 32.6738 24.3164 31.952C24.3505 31.7058 24.0398 32.012 23.917 32.0613C23.2857 32.3128 22.5534 32.1586 21.9482 31.8924C20.3727 31.1988 20.0484 29.5499 20.1504 27.9734C20.2195 26.9026 20.7101 25.9969 20.9004 24.9598C20.9919 24.947 20.9519 25.0814 20.9531 25.1453C20.97 25.7743 20.678 26.1205 20.5928 26.6551C20.5835 26.712 20.5365 26.8397 20.6318 26.827L21.167 24.9061C21.2348 24.8905 21.255 25.0051 21.2559 25.0467C21.2612 25.3543 21.194 25.5345 21.1357 25.8113C21.124 25.866 21.0683 25.9862 21.165 25.9734L21.8877 24.533ZM12.7109 29.2313C12.6457 30.0236 11.8065 30.7559 11.1016 31.0399C10.9582 31.0974 10.4835 31.2604 10.3613 31.2606H9.48047C9.46849 31.1674 9.60175 31.209 9.66699 31.2068C9.82498 31.2007 9.98361 31.2184 10.1416 31.2C11.26 31.0718 12.3435 30.3106 12.7109 29.2313ZM17.5664 19.5174C18.2291 20.1794 18.2336 21.3382 17.9238 22.1697C17.3638 23.674 15.6759 24.4962 14.1523 24.5906C14.0948 24.5945 13.9002 24.627 13.9102 24.535C15.291 24.4114 16.5439 24.0754 17.3486 22.8748C17.4799 22.6791 17.7367 22.3565 17.6738 22.1326C17.2419 23.024 16.6158 23.6344 15.6846 23.9881C14.494 24.4405 12.8031 24.0071 12.1387 25.4061C11.5419 26.6619 12.4756 27.8359 12.1865 29.0848C12.132 29.3193 11.9854 29.5226 11.9883 29.7654L12.2393 29.1893C12.6095 27.9658 11.7871 26.7453 12.3623 25.5486C12.4624 25.5373 12.404 25.6562 12.3916 25.7108C12.3533 25.8785 12.2751 26.0296 12.2559 26.2156C12.1531 27.2267 12.6728 28.0584 12.4551 29.0848C12.3882 29.3995 12.065 30.1536 11.7744 30.2459C11.6571 30.4607 11.4674 30.6373 11.1875 30.6727C11.2645 30.6025 11.5747 30.2889 11.6299 30.2606C11.6913 30.2297 11.7412 30.2542 11.7734 30.2449C11.8206 30.1583 11.9478 29.9155 11.9072 29.8192C11.6725 30.1551 11.3669 30.4264 11.0264 30.6473L11.0801 30.7547C10.9721 30.8127 10.87 30.7329 10.7559 30.7488C10.6579 30.7626 10.5535 30.8507 10.4502 30.8709C9.28332 31.0957 8.14408 30.7354 7.50195 29.7127C7.31376 29.8369 7.67361 30.0879 7.58398 30.2459C6.88367 29.4903 6.7367 28.369 7.07715 27.4178C7.2932 27.3628 7.09444 27.6596 7.23633 27.6834C7.26705 27.4457 7.34275 27.1342 7.55664 26.9901L7.37012 27.7899C7.48959 27.653 7.54737 27.2316 7.66309 27.1219C7.88297 26.9152 7.61979 27.5685 7.66504 27.577L7.98438 27.2029C7.81176 28.0292 7.71804 28.7816 8.30566 29.4705C9.17489 30.489 11.0289 30.315 11.3857 28.9236C11.7614 27.4592 10.0692 26.1621 11.2383 24.3992C12.2433 22.8835 13.9071 23.513 15.2803 22.9422C16.2036 22.5577 16.9187 21.6695 16.7783 20.6248C16.7407 20.3464 16.5868 20.1489 16.5254 19.8904L16.7119 19.9969L17.0586 20.7449C17.0892 20.4336 16.9485 20.1476 16.792 19.8914C17.0265 19.8587 16.9689 20.2246 17.166 20.2108L16.9785 19.7313L17.3252 20.158L17.2197 19.7313L17.4854 19.9979L17.3799 19.5711L17.5918 19.7313L17.5664 19.5174ZM14.125 28.1121C14.2713 28.299 14.4306 28.4336 14.5977 28.534C15.2102 28.9033 15.9352 28.7983 16.5732 29.0076C16.9406 29.1288 17.279 29.3554 17.5498 29.8377C17.756 30.205 17.7513 30.4117 17.8096 30.8074C17.8166 30.8549 17.8095 30.8765 17.8184 30.8856C17.8253 30.8968 17.8471 30.8937 17.916 30.8885C17.9128 30.6659 17.8758 30.4397 17.8105 30.2215C17.8086 30.215 17.8067 30.2085 17.8047 30.202C17.7876 30.1464 17.7672 30.0921 17.7461 30.0379C17.7409 30.0245 17.7359 30.0111 17.7305 29.9979C17.7083 29.9438 17.6844 29.8908 17.6582 29.8387C17.6493 29.821 17.6402 29.8034 17.6309 29.7859C17.6067 29.7409 17.5809 29.6972 17.5537 29.6541C17.5393 29.6312 17.524 29.609 17.5088 29.5867C17.3975 29.4248 17.2671 29.2775 17.1113 29.158C16.9841 29.0605 16.8532 28.9889 16.7197 28.9354C16.2466 28.7448 15.74 28.7787 15.2383 28.6824C15.1894 28.673 15.1405 28.6634 15.0918 28.6512C15.0266 28.6348 14.9613 28.6164 14.8965 28.5936L14.125 28.1121ZM23.2002 25.3875C23.2665 26.4964 24.5046 26.6653 25.1436 27.3143C25.7823 27.9633 25.9196 29.1988 26.9141 29.3318C27.5055 29.4108 28.1618 28.9972 28.3252 28.4295L28.3262 28.4324L28.3789 28.6981C28.3919 28.7157 28.4444 28.6668 28.459 28.6453C28.4963 28.5878 28.7168 27.9482 28.7383 27.8563C28.826 27.4768 28.4831 27.1705 28.4033 26.827C28.1528 26.8108 28.2343 26.6464 28.1484 26.5252C27.8829 26.1518 26.8835 26.0389 26.5098 26.2957L26.6699 26.0828C26.5281 26.046 26.4454 26.173 26.3496 26.2068C26.2899 26.2273 26.2106 26.1985 26.1494 26.2244C26.0479 26.2683 26.1285 26.4089 25.9492 26.2947L25.9756 26.4022L25.7334 26.2957L25.6816 26.4022C25.2605 26.0247 26.2656 25.6103 26.5732 25.532C29.541 24.7761 30.4132 29.9829 27.2295 30.1385C27.0792 30.1462 26.3746 30.0573 26.2959 29.9783C26.2675 29.9499 26.2567 29.8652 26.3633 29.8836C26.5096 29.9096 26.6666 29.9177 26.8037 29.9774L26.8301 29.8709C26.6898 29.8847 26.5709 29.8532 26.4414 29.8065C25.7802 29.571 25.4089 28.6958 25.0146 28.1902C24.9448 28.1013 24.7715 28.0057 24.7607 27.9881C24.728 27.9306 24.7759 27.8527 24.7139 27.783C24.5401 27.5905 23.7285 27.3297 23.4492 27.1395C22.9245 26.7812 22.6364 26.0678 22.7207 25.4402L22.9775 26.1707C23.0299 26.2961 23.2185 26.6745 23.3066 26.7488C23.3435 26.7803 23.4003 26.8048 23.4141 26.7488C23.1601 26.4473 22.8511 25.6844 23.2002 25.3875ZM21.2236 27.8426C21.4615 27.5805 21.9714 27.8024 22.21 28.0057C22.723 28.4437 22.8065 29.2422 22.3672 29.7615C22.3052 29.835 22.1221 30.0073 22.0391 30.0233C21.9563 30.0386 21.876 29.9652 21.8223 29.991L21.8213 29.9901C21.81 29.9959 21.8104 30.0496 21.7998 30.0711L21.4902 29.8719C21.5762 29.911 21.7609 29.8721 21.8262 29.8192C21.934 29.7317 21.749 29.5921 22.0771 29.7117C21.9791 29.3935 22.1962 29.1695 22.1182 28.7908C22.0399 28.412 21.714 28.3543 21.5107 28.1649C21.429 28.0884 21.4929 28.1184 21.3428 27.992C21.3129 27.9667 21.3554 27.8174 21.2236 27.8426ZM20.3135 28.325C20.3004 28.7039 20.3228 29.0825 20.3818 29.4568C20.3906 29.5123 20.3941 29.6695 20.4473 29.7049L20.4727 29.7117L20.4756 29.7127L20.3164 28.326C20.3161 28.3335 20.3157 28.341 20.3154 28.3484L20.3135 28.325ZM19.5674 25.8162C19.348 26.9791 19.1208 28.1521 19.248 29.3387L19.1416 28.8846C19.0948 28.0262 19.1965 27.1828 19.3799 26.3475L19.5674 25.8162ZM13.5762 20.5154L13.5342 20.9041H13.5361C13.7958 20.8307 13.5831 19.9949 13.6689 19.9949L13.749 20.9031L13.9619 20.2098L13.9092 21.0633C14.1114 20.8869 14.123 20.5135 14.123 20.2635C14.1986 20.2493 14.1941 20.3479 14.2002 20.3992C14.2293 20.62 14.2057 20.8425 14.1758 21.0633L14.416 20.3699C14.4849 20.6482 14.4516 20.9594 14.2832 21.1971L14.3887 21.2772L14.6289 20.5838C14.7531 21.4298 14.1994 22.2342 13.5068 22.6639C13.3733 22.6884 13.4495 22.596 13.4863 22.5477C13.6046 22.3906 13.8338 22.2911 13.9082 22.0779L12.9746 22.6121H12.8936L13.374 22.3436C13.3035 22.1784 13.0716 22.4033 12.9609 22.4383C12.7715 22.4966 12.5582 22.5415 12.3604 22.5584L12.4668 22.7176C12.196 22.6593 11.7996 22.7385 11.5518 22.6863C11.0778 22.5865 10.7064 22.1602 10.3037 21.9178L10.4648 22.2381C10.2616 22.1108 10.0929 21.9206 9.87891 21.8094C9.75468 21.7442 9.45762 21.5845 9.42285 21.7567L9.63672 21.9168C8.56276 21.4205 7.46583 22.1419 7.36133 23.2879L7.44727 23.8387C7.31474 22.8853 7.81896 22.0069 8.83594 21.9715C8.70632 22.1256 8.4744 22.1494 8.30566 22.2674C8.00352 22.4783 7.79628 22.8311 7.74023 23.1961C7.56692 24.3184 8.5944 25.0236 8.92969 25.9617C9.11603 26.484 9.06035 26.8898 9.16992 27.3768C9.38855 28.3525 10.3535 27.9909 10.1719 27.1502L10.3848 27.2303C10.2038 26.8199 10.0961 26.5555 9.70801 26.3055C9.48782 26.1637 9.14396 26.1339 9.11328 25.8279C9.083 25.5224 9.53109 25.7098 9.70605 25.7742C10.0098 25.8862 10.2009 26.0211 10.332 26.324L10.2246 26.3758L10.4375 26.7518C10.4214 26.9887 10.308 26.5497 10.2236 26.6434C10.3855 26.9732 10.4454 27.3193 10.4385 27.6844L10.5449 26.9901C10.7083 27.6167 10.6389 28.4327 9.84375 28.5027C9.59532 28.525 9.35647 28.4095 9.11035 28.4285C9.09721 28.1963 8.88028 28.2651 8.99609 28.0565L8.89062 28.1111C8.89075 28.0553 8.92513 28.0035 8.91211 27.9461C8.86979 27.7599 8.69128 27.5269 8.63672 27.3231C8.52704 26.9127 8.4989 26.4855 8.30176 26.0828L8.19531 26.1639C8.05802 26.0335 8.17365 25.8131 7.95508 25.7088L7.90234 25.8162C7.74048 25.7555 7.32804 25.1335 7.16992 24.9783C7.15609 24.9646 7.07508 25.0178 7.04883 24.9647L7.02148 24.8006L6.81543 24.8504C5.76675 23.4848 6.5217 21.3804 8.19336 20.9822C9.82574 20.5935 10.8998 22.2182 12.2959 21.8817C13.1803 21.6683 13.3648 20.7233 13.374 19.9432L13.5762 20.5154ZM17.0557 22.7791C17.0564 22.7772 17.0578 22.7752 17.0586 22.7733C16.6644 23.1728 16.2067 23.5571 15.6699 23.7596C14.5385 24.1866 13.1166 23.7876 12.2275 24.8006C11.541 25.5838 11.6441 26.5392 11.8428 27.4813L12.04 28.1639C12.0402 28.159 12.0389 28.1541 12.0391 28.1492L12.0439 28.1639C12.0616 27.7159 11.8729 27.3101 11.833 26.8553C11.7517 25.9278 11.8811 25.0733 12.7227 24.5447C13.69 23.9383 14.7675 24.2387 15.8184 23.7977C16.2724 23.6074 16.8783 23.248 17.0625 22.7733C17.0604 22.7754 17.0577 22.777 17.0557 22.7791ZM27.1514 26.5096C27.2727 26.3173 27.6035 26.4277 27.7568 26.5174C28.1924 26.7728 28.293 27.3425 27.9795 27.7391C27.8897 27.8526 27.5417 28.0996 27.4189 28.0037C27.4111 27.997 27.3486 27.84 27.416 27.8162L27.7383 27.6854C27.5772 27.716 27.3179 27.8164 27.2051 27.6317C27.4489 27.7043 27.5273 27.347 27.7383 27.4705L27.6299 27.284L27.7412 27.2274C27.6875 26.9053 27.4887 26.5825 27.1514 26.5096ZM16.416 25.0672C16.3577 25.3817 16.231 25.6791 16.2041 26.0027C16.1971 26.0876 16.1578 26.3662 16.2559 26.4022C16.2498 26.0761 16.3163 25.6056 16.4912 25.3279C16.5355 25.2575 16.4976 25.2009 16.6299 25.2283C16.5478 25.7476 16.3964 26.0824 16.5498 26.617C16.8421 27.637 18.0267 27.8587 18.6865 27.0438C18.8947 26.9561 18.6538 27.5429 18.6074 27.6053C18.3789 27.9104 17.8136 27.9207 17.4561 27.8992C16.9466 27.8693 16.5479 27.6372 16.1758 27.3104L16.3096 27.5506C16.1753 27.6289 15.9747 27.2594 15.9248 27.1336C15.6849 26.5298 15.7199 25.6273 16.1494 25.1219C16.0183 25.5222 15.9163 25.8883 15.9424 26.3162C15.9462 26.3793 15.9732 26.6483 16.043 26.6697C16.0674 26.4082 16.0092 26.0955 16.043 25.8416L16.0605 25.7547C16.1157 25.5335 16.2711 25.1955 16.416 25.0672ZM19.9941 25.282C19.9825 26.1171 19.5658 26.8942 19.5664 27.7361C19.4741 27.748 19.5167 27.615 19.5137 27.5506C19.5091 27.4288 19.5075 27.3052 19.5205 27.1834L19.9941 25.282ZM22.627 26.3611C22.9676 27.1176 23.5623 27.4067 24.3203 27.6307C24.2521 27.7571 23.9308 27.6036 23.8262 27.5643C23.0299 27.2666 22.5238 26.7411 22.4531 25.869L22.627 26.3611ZM26.0303 27.3113C26.022 26.8711 26.6947 26.5405 27.043 26.8572C26.8474 27.0267 26.6351 27.1827 26.4258 27.3338C26.3662 27.377 26.3227 27.5049 26.1904 27.4715V27.2576L26.0303 27.3113ZM3.84766 24.8006C3.33378 23.3937 4.70315 22.2097 6.0625 22.5594H6.06152C6.072 22.8355 5.65638 22.6997 5.63574 22.7186C5.62041 22.7416 5.67068 22.8409 5.59961 22.8817C5.47322 22.9548 5.33108 22.8677 5.24219 22.8768C5.18443 22.8854 4.54971 23.434 4.46191 23.5477C4.39149 23.6388 4.29177 23.7695 4.25781 23.8768C4.24324 23.9243 4.20774 24.0679 4.2998 24.0526C4.38891 23.7779 4.60637 23.3563 4.94141 23.3602C4.51645 23.6486 4.35766 24.0881 4.46191 24.5867L4.58008 23.9861C4.6218 23.9372 4.80951 23.6055 4.8877 23.6805C4.68775 23.9329 4.59709 24.3207 4.78027 24.6151C4.99892 24.9657 5.38565 24.8147 5.71094 24.8592C6.45088 24.9593 6.83227 25.9786 6.24805 26.5086C5.91994 26.8067 5.88836 26.5531 5.66992 26.576C5.63643 26.5798 5.26147 26.7048 5.23535 26.7225C5.03133 26.8889 5.05734 27.2417 5.07422 27.4695C4.71752 27.2079 4.756 26.5864 5.13574 26.3563C5.40294 26.1946 6.18677 26.256 5.95898 25.6785C5.80019 25.2761 5.33948 25.4037 4.99512 25.3885L5.20801 25.494C4.91042 25.5507 4.72091 25.4247 4.46094 25.3358L4.91406 25.6551C4.37881 25.6535 4.0203 25.2745 3.84766 24.8006ZM15.8301 25.3348C15.6287 25.9355 15.6499 26.5322 15.7754 27.1483C15.6662 27.0893 15.5939 26.8444 15.5771 26.7361C15.5105 26.3052 15.5428 25.6793 15.8301 25.3348ZM29.125 23.3582C29.0111 23.7007 28.9217 23.998 28.9658 24.369L29.1221 23.7567L29.3379 23.4656C29.1837 23.9872 29.1418 24.4654 29.5488 24.8826C30.2829 25.6344 31.1311 24.8161 31.8115 25.2361C32.4105 25.6066 32.3138 26.4566 31.6875 26.7215C31.8429 26.5398 31.8831 26.3511 31.8447 26.1111C31.7357 25.4396 30.9312 25.8973 30.4893 25.9236C30.2062 25.9405 29.576 25.8906 29.3389 25.7342C29.1847 25.6322 29.4062 25.6881 29.3916 25.6014L28.8838 25.1746L28.9648 25.3865C28.8551 25.4701 28.5105 24.9506 28.4629 24.8484C28.2628 24.4236 28.2891 24.011 28.4316 23.5731C28.5224 23.5597 28.4881 23.6993 28.4834 23.7576C28.4703 23.9386 28.411 24.0839 28.4531 24.284C28.4646 24.3377 28.4599 24.4392 28.5371 24.4256C28.4919 24.0514 28.6116 23.7456 28.752 23.4119C28.8797 23.4648 28.7134 23.7086 28.7021 23.8162C28.6868 23.9741 28.6843 24.1877 28.6973 24.3465C28.7026 24.4086 28.7142 24.5858 28.8047 24.5858C28.7985 24.1731 28.7638 23.6335 29.125 23.3582ZM15.4287 25.6014C15.5498 25.7233 15.415 25.9481 15.4033 26.1092C15.3888 26.3115 15.411 26.5172 15.4014 26.7195L15.291 26.2684L15.4287 25.6014ZM18.875 23.6805C19.0207 24.5856 18.9007 25.501 18.3408 26.242L18.2344 26.2156L18.3936 25.7615L18.127 26.1883L17.9688 26.1082C18.1366 25.9486 18.2511 25.672 18.2871 25.4412L18.0371 25.8543C17.8124 26.0507 17.5222 26.4048 17.2207 26.3758C17.4936 26.2216 17.7361 26.0078 17.8604 25.7088C17.6341 25.9212 17.3861 26.0937 17.084 26.1873C16.9285 26.1858 16.969 26.1828 17.0762 26.1238C17.218 26.0456 17.3362 25.9448 17.4336 25.8152L16.9785 25.9744C16.9166 25.7543 17.2761 25.6047 17.4326 25.4129C17.8082 24.9511 17.9141 24.3603 17.9678 23.7859C18.1395 23.8284 18.0968 24.4802 18.1543 24.4803L18.3408 23.7859V24.7469C18.6236 24.5236 18.3652 23.9939 18.6074 23.7859C18.7179 24.1879 18.6098 24.5499 18.6074 24.9334C18.6073 24.9949 18.5719 25.1336 18.6611 25.1209L18.875 23.6805ZM19.0898 23.7859C19.1428 23.7641 19.1942 23.9078 19.1953 23.9197C19.1953 24.1704 19.2205 24.4797 19.1953 24.7205C19.1785 24.8752 18.9944 25.5863 18.9121 25.6902C18.906 25.6979 18.7716 25.7917 18.7686 25.7342C18.9802 25.1083 19.1044 24.451 19.0898 23.7859ZM19.459 23.9471C19.4659 24.434 19.4275 24.9351 19.2451 25.3875C19.1446 25.399 19.2116 25.2843 19.2188 25.2283C19.2502 24.9853 19.3114 24.744 19.3467 24.5018C19.3704 24.3353 19.2943 24.0468 19.459 23.9471ZM26.1934 24.2381C26.0654 22.4185 27.6716 21.1507 29.4199 21.7068C30.1752 21.9479 30.6868 22.6119 31.2881 23.0936C31.4867 23.3965 31.4353 23.7799 31.502 24.1082C31.5357 24.2744 31.6911 24.5521 31.6885 24.6697C31.6846 24.8531 31.5347 24.7665 31.4434 24.6736L31.4414 24.6756C31.3325 24.5659 31.2175 24.3172 31.209 24.16L31.1016 24.3729C30.8704 24.2821 30.9803 23.9261 30.9082 23.785C30.8599 23.6899 30.7111 23.6213 30.6611 23.5018C30.6298 23.4274 30.6667 23.32 30.6514 23.3016C30.6092 23.2518 30.4999 23.27 30.4736 23.241C30.4522 23.2172 30.4619 23.0861 30.3867 22.9803C29.9646 22.384 28.7816 22.2178 28.1318 22.4422C26.8415 22.8871 26.8155 24.3058 27.4199 25.3338C26.6338 25.1534 26.6492 24.0456 26.8594 23.4119C26.9284 23.2041 27.0475 23.0771 27.0996 22.8777C26.4836 23.4792 26.5814 24.349 26.7793 25.1199C26.6934 25.0639 26.6103 24.8566 26.5781 24.7615C26.3872 24.2016 26.4727 23.8078 26.6191 23.2518C26.2925 23.6713 26.3341 24.2405 26.3525 24.7459C26.2436 24.6761 26.2026 24.3639 26.1934 24.2381ZM9.16016 24.4871C9.38932 24.3485 9.39843 24.5396 9.53418 24.6102C9.63001 24.6599 9.736 24.6658 9.83105 24.7156H9.83203C9.90013 24.7516 9.97492 24.8411 9.90527 24.907L10.2246 24.8543C10.187 25.122 9.63791 25.1233 9.43457 25.032C9.34652 24.9922 9.38559 24.9115 9.33301 24.8563C9.1911 24.7082 9.14252 24.7617 9.16016 24.4871ZM8.3584 22.9861C9.30202 23.1089 10.896 23.4581 10.5449 24.7459L10.5459 24.7469L10.2256 24.6395L10.2783 24.4256C10.2346 24.5123 10.0818 24.3769 10.0771 24.3631C10.0544 24.2941 10.2 24.2207 9.90137 24.0789C9.7127 23.9892 9.79534 24.0173 9.63672 23.9207C9.47804 23.8241 9.07376 23.669 8.88867 23.6014C8.72683 23.5416 8.5275 23.4953 8.35645 23.4647C8.37658 23.2778 8.67543 23.462 8.67773 23.3846L8.34961 23.2274L8.3584 22.9861ZM13.4795 23.8934C13.2544 23.9116 13.0048 23.9655 12.7764 24.0613C12.6051 24.1329 12.4457 24.228 12.3174 24.3494C12.2745 24.39 12.2355 24.4338 12.2002 24.4803L12.7871 24.1336L13.4814 23.8943C13.4789 23.8946 13.4762 23.8941 13.4736 23.8943L13.4795 23.8934ZM25.6045 14.7342C25.7356 14.9873 25.602 15.233 25.8682 15.4324L25.7607 15.4852C25.9532 15.7091 26.1259 16.315 26.0693 16.5936C26.0402 16.7376 25.8982 16.8705 25.8711 17.0359C25.7583 17.7393 26.4267 19.1692 26.667 19.866C26.6547 20.215 26.3234 20.2862 26.0273 20.2625L26.1875 20.0496C26.0318 19.9991 25.7807 20.0601 25.7324 19.8875L25.5996 19.8895L25.6533 19.9949L25.2021 20.1053L25.1436 19.991L24.7793 20.0984C24.5516 19.9413 24.8306 19.8182 24.9053 19.6756C24.5605 19.7386 24.4416 20.0138 24.4775 20.3426C24.5374 20.8886 25.0841 20.5837 25.1758 20.657C25.2356 20.7054 25.2443 21.004 25.4131 21.0623L25.5195 20.7967L25.707 21.1688C25.5099 21.2378 25.4324 21.1763 25.2529 21.1111C24.6647 21.1887 24.2246 21.6779 23.6777 21.8904C24.2461 22.1673 24.8918 21.4944 25.4434 21.9529C25.652 22.6586 24.6269 22.0606 24.3184 22.4246L24.4785 22.3963L24.5264 22.6063L24.4258 22.6639H24.6387L24.5322 22.825C25.0797 22.9425 25.3837 23.4142 25.1445 23.951H25.0156L25.0117 24.1063L24.8516 24.0526L24.7451 24.2664L24.6387 23.9988L24.5859 24.3719L24.3721 23.9451C24.3299 24.0663 24.5516 24.4069 24.3184 24.3729L24.1572 23.7859C24.1121 23.9639 24.3235 24.2179 24.1045 24.3192C24.0401 24.1343 24.0062 23.9362 23.9502 23.7498C23.9243 23.6625 23.993 23.5998 23.8369 23.6258C23.8638 23.7791 23.924 23.9228 23.9424 24.0799C23.9501 24.1452 23.9855 24.413 23.8906 24.4256C23.7772 24.161 23.7539 23.8626 23.6787 23.5965C23.6581 23.5237 23.6727 23.4305 23.5703 23.4119L23.6494 24.3729L23.3555 23.199V24.0799C23.3558 24.1177 23.4736 24.2641 23.3828 24.3201C23.3099 24.2588 23.2796 24.156 23.2627 24.0662C23.0327 22.8651 22.984 21.5382 22.9824 20.3172C22.8897 20.3049 22.9327 20.4382 22.9297 20.5027C22.9113 20.9468 22.9436 21.3949 22.9268 21.8397L23.1436 24.1854C23.0124 24.3019 23.0058 24.0407 22.9912 23.9647C22.7319 22.636 22.8253 21.2256 22.7148 19.8885C22.6223 19.8762 22.6649 20.0094 22.6621 20.074C22.6076 21.4302 22.7496 22.8351 22.877 24.1844C22.7964 24.2473 22.7364 23.9356 22.7295 23.9041C22.4518 22.5869 22.6206 21.1719 22.501 19.8348L22.3955 20.449C22.43 21.6756 22.4246 22.9158 22.6094 24.1317C22.5434 24.2076 22.4694 23.9246 22.4648 23.9031C22.3345 23.3822 22.3061 22.5979 22.2861 22.0526C22.2578 21.2694 22.3744 20.4324 22.208 19.6746L22.2363 24.0526C21.9494 22.5466 22.1327 20.9876 22.0215 19.4617C21.9387 19.4479 21.9591 19.5589 21.9492 19.618C21.9308 19.7307 21.9179 19.9532 21.9141 20.0721C21.8834 21.0862 21.9331 22.1073 21.9707 23.116C21.9776 23.3061 21.9754 23.5157 21.9678 23.7059C21.9655 23.7703 22.0077 23.9043 21.915 23.8914C21.6843 22.3404 21.8974 20.7552 21.7539 19.1942L21.6436 20.1297L21.7031 23.1688L21.6484 23.7313C21.4299 22.5001 21.5825 21.2166 21.5449 19.9686C21.5349 19.638 21.4674 19.3141 21.4873 18.9813L21.3789 19.6463L21.4346 23.6785L21.2744 23.3318V18.9012C21.273 18.8908 21.2025 18.8179 21.1689 18.8211C21.1099 20.4137 21.0621 22.0317 21.168 23.6258C21.0882 23.6388 21.1017 23.5257 21.0879 23.4666C21.0534 23.317 21.0158 23.1118 21.0059 22.9608C20.9269 21.7363 20.9253 19.9098 21.0059 18.6863C21.01 18.6202 21.1045 17.8087 21.2217 17.9686V18.5018L21.3271 18.0057L21.5957 17.8611L21.543 18.074L21.7305 17.9764L21.8975 18.1854C22.2909 18.003 22.4488 18.3668 22.7549 18.5447C23.1636 18.7824 23.5366 18.8299 23.999 18.7156L23.9463 18.8748C24.5105 18.7242 24.8329 18.1921 25.4932 18.3416C25.4935 18.2706 25.2376 18.2412 25.1943 18.241C25.0632 18.241 24.9356 18.3139 24.7998 18.2879C24.9082 18.1326 25.1629 18.117 25.333 18.1277L25.0664 18.074L25.2793 17.9149L24.7998 18.0486L25.3867 17.7547L24.9062 17.8074L25.334 17.5936L25.1738 17.4871C25.1588 17.3808 25.2636 17.3474 25.2812 17.244C25.4154 16.4605 23.7261 16.4329 23.2402 16.4881C22.503 16.5717 21.845 16.951 21.1699 17.2195L22.291 16.5799C22.16 16.5654 22.0527 16.6477 21.9316 16.6746C21.878 16.6869 21.7432 16.7278 21.7568 16.6336C22.2416 16.4694 22.7309 16.2847 23.251 16.2586C23.2507 16.1653 23.0174 16.1991 22.9551 16.2029C22.6952 16.2191 22.4395 16.2941 22.1865 16.3416C22.1313 16.3524 22.0118 16.4116 22.0244 16.3133L23.4121 15.992H22.6377C22.5964 15.9925 22.3217 16.1444 22.291 15.992C22.4644 16.0019 22.7618 15.8309 22.9053 15.8309H23.6787V15.7781C23.6124 15.7985 23.5248 15.7253 23.4922 15.7244H22.6641C22.6613 15.6466 22.8548 15.6443 22.9189 15.6336C23.2411 15.5822 23.5157 15.5779 23.8379 15.617C23.8585 15.5607 23.664 15.5121 23.6514 15.5115H22.8779C22.8688 15.3797 22.8657 15.4208 22.959 15.407C23.3063 15.3557 23.5989 15.346 23.9463 15.4051C23.9571 15.3297 23.7998 15.3227 23.7451 15.3143C23.6255 15.2959 23.5084 15.3089 23.3926 15.2928C23.3112 15.2821 23.071 15.2665 23.0391 15.1932C23.4187 15.1334 23.7329 15.1606 24.1064 15.2449C24.097 15.166 23.9151 15.1181 23.8506 15.1004C23.6397 15.0429 23.4185 15.0206 23.1992 15.032C23.1972 14.9463 23.387 14.9227 23.4414 14.9227C23.6507 14.9243 23.8926 15.0221 24.1064 15.032L23.4131 14.7654C23.7589 14.677 24.2739 15.0212 24.5508 15.0154C24.6317 15.0138 25.0264 14.9278 25.123 14.9002C25.262 14.8607 25.5148 14.6637 25.6045 14.7342ZM32.9189 23.2234C33.0132 23.4573 33.0244 23.5595 32.9141 23.7879L32.8076 23.7606C32.9723 23.3978 32.5403 23.0014 32.8877 22.6678L32.9189 23.2234ZM20.957 18.1297L20.8232 23.4139C20.8063 23.1486 20.7147 22.8721 20.707 22.6092C20.6733 21.3887 20.6979 19.6906 20.7969 18.4764C20.803 18.3972 20.8154 18.0792 20.957 18.1297ZM20.582 23.1473L20.5469 23.1356C20.4788 23.103 20.4916 23.0248 20.4756 22.9598C20.2493 22.0623 20.2322 20.7428 20.2598 19.8084C20.2697 19.4671 20.2843 18.971 20.3203 18.6404C20.3257 18.5889 20.3439 18.4394 20.4219 18.449L20.3711 20.3963C20.4409 20.9256 20.4014 21.4652 20.4229 21.9998C20.4252 22.065 20.3829 22.1983 20.4756 22.1854C20.6397 20.9672 20.4171 19.6901 20.582 18.4734C20.5927 18.3939 20.5893 18.3095 20.6895 18.2889L20.582 23.1473ZM28.8057 22.452C29.0373 22.4512 29.3188 22.4729 29.5381 22.5457C29.6335 22.5774 30.4248 23.0132 30.2998 23.1453L29.6182 22.6795L28.8057 22.452ZM27.2568 18.4471C27.4685 18.6059 27.5102 18.9738 27.6367 19.2147C28.5988 21.0485 30.1563 20.119 31.7412 20.5018C32.4443 20.6713 32.9465 20.9094 33.0693 21.6815C33.0846 21.7795 33.1347 22.4049 33.1182 22.4647C33.0017 22.8548 32.5879 22.3102 32.4961 22.1492C32.388 21.959 32.4347 21.7277 32.2744 21.5965L32.2734 21.5975C32.1293 22.1243 32.64 22.2534 32.5957 22.7449C32.5428 23.3193 31.8908 23.124 32.0596 22.9852C32.9086 22.9069 32.2745 22.2638 32.1387 21.9178C32.0675 21.7353 32.0865 21.5541 31.9639 21.3455C31.7782 21.0304 31.3442 20.8614 30.9922 20.9295C31.2171 21.1232 31.6945 21.0349 31.792 21.3836C31.1784 20.8598 30.3754 21.3679 29.6582 21.2762L30.0674 21.1766L30.1914 21.0633C29.5976 21.1607 28.9919 21.068 28.4326 20.8455L28.4844 20.743C28.4123 20.7345 28.3376 20.7893 28.2686 20.7664C28.2241 20.7511 27.6454 20.2052 27.5771 20.1277C27.3057 19.8171 27.0775 19.3847 26.9893 18.9813L27.2559 19.3553L27.1504 18.8221L27.3623 19.1942L27.2568 18.4471ZM20.0996 19.0369C20.1921 19.0248 20.1504 19.158 20.1533 19.2225C20.2047 20.4568 20.1247 21.7022 20.2578 22.9305L20.1611 22.6844C20.0085 21.4778 20.0076 20.2481 20.0996 19.0369ZM19.9912 22.6111C19.9082 22.608 19.9084 22.4285 19.8955 22.3631C19.7889 21.7948 19.7367 20.916 19.7773 20.3406C19.7835 20.2494 19.7722 20.1639 19.8604 20.1033L19.9912 22.6111ZM19.5693 20.0516C19.6616 20.0395 19.6193 20.1717 19.6221 20.2371C19.652 20.9759 19.6938 21.713 19.7275 22.451C19.6474 22.4533 19.6364 22.2656 19.6279 22.2059C19.5229 21.4927 19.5034 20.7678 19.5693 20.0516ZM19.4072 21.0926L19.46 22.3992L19.3008 21.4647V20.4246L19.4072 21.0926ZM23.1445 21.8123L23.1455 21.8113V21.8133C23.225 21.8091 23.2257 21.5725 23.2295 21.5086C23.2395 21.3345 23.1888 21.1338 23.2188 20.952L23.1455 20.5369L23.1445 20.5311V21.8123ZM2.01953 20.5945C1.24649 18.8892 2.5876 16.9726 4.47168 17.3953C4.89409 17.4905 5.36534 17.7738 5.57031 18.1639C5.61006 18.2388 5.88048 18.8214 5.8916 18.8621C5.91537 18.9618 5.87422 19.0478 5.84277 19.1375L5.7627 19.1522C5.59451 19.1534 5.53963 18.946 5.36719 18.9305C5.41721 19.2538 5.67188 19.2565 5.90039 19.3846C5.88779 19.6268 5.58142 19.4092 5.47754 19.327C5.13316 19.0524 4.73685 18.0624 4.31348 17.9822C4.22461 17.9654 3.91649 17.9191 3.87207 18.0213C4.22559 17.9791 4.32521 18.0372 4.53613 18.2918C4.58663 18.3532 4.6015 18.4584 4.64746 18.5067C4.69456 18.5563 4.76901 18.5016 4.77637 18.5037C4.79169 18.5267 4.7958 18.734 4.84473 18.8377C4.886 18.9248 5.36684 19.4564 5.31348 19.5164C5.21608 19.5325 5.15407 19.4496 5.09961 19.3836C4.91474 19.1611 4.79196 18.8425 4.6416 18.6131C4.01721 17.6577 2.63752 18.4719 2.69824 19.4627L2.91895 18.9109C3.25037 18.4561 3.81868 18.1443 4.35254 18.4764C4.17998 18.5009 4.0331 18.4325 3.85059 18.4539C2.64862 18.5983 2.44483 20.2727 3.72363 20.7068C4.78907 21.0679 5.42438 20.2307 6.23828 19.7742C7.36355 19.1439 8.59205 19.0733 9.75488 19.6385C9.96133 19.739 11.4716 20.6031 11.5273 20.6912C11.545 20.7199 11.5076 20.7863 11.5078 20.7938C11.5953 20.8551 12.0282 20.7663 11.9863 20.9578C10.6516 21.2271 9.76738 20.0101 8.4834 19.8963C7.34898 19.7966 6.32833 20.4567 5.4209 21.0389L4.45898 21.4383C5.43855 21.3991 6.1521 20.5982 7.03809 20.2537C8.08216 19.848 9.27279 19.9945 10.1182 20.744C9.4255 20.5008 8.89417 20.1272 8.11719 20.157C6.14631 20.2338 4.91908 22.7684 2.7334 21.2156C2.61842 21.1335 2.48679 20.9178 2.37793 20.9842L2.59082 21.2772C2.47191 21.3945 2.05559 20.6743 2.01953 20.5945ZM16.0107 20.4295C16.0007 20.3452 15.9423 20.2565 16.0703 20.3699C16.1713 20.5977 16.1108 20.8814 16.2227 21.1014H16.2217C16.237 21.132 16.3314 21.0889 16.3086 21.1707C16.0564 21.2206 15.9264 21.3056 15.9893 21.5984L15.7812 21.5906C15.749 21.2045 15.63 21.6234 15.5098 21.7049C15.572 21.2356 15.7498 20.84 15.5635 20.3699C15.791 20.4943 15.6931 20.8342 15.8564 21.0106C15.9126 20.8934 15.8357 20.7447 15.8271 20.6131C15.8233 20.5548 15.7926 20.4105 15.8818 20.4246L16.0166 21.1717C16.1695 20.9623 16.0392 20.671 16.0107 20.4295ZM15.3516 20.4774C15.4224 20.4767 15.4655 20.6357 15.4824 20.6912C15.5414 20.8844 15.6054 21.1964 15.4043 21.3309L15.3516 20.4774ZM33.2471 19.5291C33.767 19.6375 34.0718 20.438 33.5527 20.7449V20.744C33.5528 20.533 33.5935 20.3108 33.4209 20.1551C33.0974 19.8626 32.7356 20.1726 32.7031 20.1522C32.6947 20.1468 32.7081 20.0802 32.6719 20.0652C32.6258 20.0461 32.4271 20.044 32.4033 20.0018C32.3086 19.564 32.9257 19.4624 33.2471 19.5291ZM3.39355 18.8758C3.21486 19.089 3.03637 19.3679 3.02246 19.657C3.01633 19.7912 3.14831 20.0357 3.02051 20.1033C2.86329 19.6868 2.9425 19.0622 3.39355 18.8758ZM12.5732 18.3963C12.6193 18.8734 12.3317 19.2735 12.0088 19.5926C11.7634 19.8349 11.4549 20.1128 11.0801 20.0242L11.96 19.3572L12.5732 18.3963ZM19.6729 18.2889C19.9071 18.8661 19.6646 19.6814 19.0361 19.8875L19.4082 19.3563C19.1627 19.6401 18.958 19.8862 18.5791 19.9959C18.4199 19.9959 18.5299 19.9344 18.5928 19.9022C18.7638 19.8148 18.9376 19.7787 19.0342 19.5701L18.5527 19.783L18.5801 19.6756L18.2871 19.7293L18.4463 19.5701C18.3483 19.5717 18.2669 19.6162 18.165 19.6102C18.0761 19.6048 17.9852 19.5702 18.0195 19.4637C18.4199 19.3946 18.7682 18.9696 18.7139 18.5555L18.8213 18.8211L18.874 18.6082L19.0322 18.8211L19.0859 18.5018L19.2461 19.0887L19.1934 18.3953C19.3892 18.3416 19.3071 18.7684 19.3799 18.7684L19.459 18.3953C19.5447 18.6467 19.4992 18.8342 19.4746 19.0779C19.4684 19.137 19.4119 19.2592 19.5117 19.2488L19.6729 18.2889ZM27.3066 15.1932L27.333 14.9276L27.4941 15.0867L27.5537 14.9793C27.7737 14.9219 27.7706 15.1358 27.8955 15.2723C28.665 16.1116 29.3179 15.7029 30.2715 15.7244C32.0558 15.7652 33.2906 17.5764 32.335 19.1805C32.1463 19.4979 31.7346 19.9205 31.3643 19.9178L31.6836 19.6248C31.4697 19.6641 31.2623 19.9401 31.043 19.8651L31.417 19.5721C31.2682 19.6012 31.1486 19.6763 30.9922 19.7078C30.9375 19.7188 30.8173 19.7761 30.8301 19.6785C31.0763 19.6256 31.347 19.4893 31.5234 19.3045L30.7764 19.6248C30.7473 19.4792 30.8127 19.5333 30.8848 19.4949C31.0113 19.4283 31.1572 19.3929 31.2568 19.2772L31.1494 19.2244C31.8266 18.6138 31.8902 17.6944 31.2031 17.0623C31.2602 17.0088 31.4555 17.2258 31.4971 17.2742C31.8575 17.6891 31.8154 18.0954 31.79 18.6092C31.868 18.5867 31.8924 18.3307 31.8955 18.2625C31.9238 17.7188 31.7528 17.2575 31.3066 16.9315C31.2484 16.8886 30.7817 16.6343 30.749 16.6336C30.3627 16.6336 29.96 16.6145 29.5752 16.6336L29.5225 16.6453C29.4648 16.6651 29.3957 16.7004 29.3359 16.6863C29.453 16.5494 29.9038 16.544 30.1094 16.5379C30.2231 16.535 30.6003 16.6981 30.5635 16.4734C30.4906 16.4182 29.0335 16.5178 28.7256 16.4695C28.5408 16.4404 27.8942 16.2162 27.7363 16.1248C27.5568 16.0205 27.0068 15.183 27.0664 14.9266L27.3066 15.1932ZM19.0352 19.8895H19.0322C19.0334 19.889 19.035 19.8879 19.0361 19.8875L19.0352 19.8895ZM25.1729 19.41C25.0638 19.4123 24.9428 19.4268 24.8301 19.4617C24.755 19.485 24.6831 19.5172 24.6211 19.5604C24.528 19.6251 24.4566 19.7151 24.4258 19.8367L24.4268 19.8348V19.8367C24.5993 19.6552 24.7259 19.6051 24.9238 19.5496C24.9605 19.5395 24.9997 19.5287 25.042 19.5174C25.0624 19.512 25.082 19.5121 25.0996 19.5135C25.119 19.5151 25.1361 19.5178 25.1494 19.5164V19.5154C25.1756 19.5127 25.1875 19.493 25.1738 19.41H25.1729ZM12.2002 18.2889C12.1365 18.9462 11.5696 19.6302 10.9199 19.783L11.5596 19.2752L12.2002 18.2889ZM11.9883 18.075C11.9612 18.782 11.3698 19.4223 10.708 19.6219H10.707L11.5605 18.8475L11.9883 18.075ZM12.7881 16.5809C12.863 16.5696 12.8913 16.7281 12.8906 16.7713C12.8891 16.9721 12.8252 17.1701 12.8389 17.41C12.8987 18.4233 13.6443 19.3162 14.6553 19.4637C14.6652 19.5633 14.4827 19.5153 14.4287 19.5037C13.0908 19.2252 12.4099 17.859 12.7881 16.5809ZM11.5342 17.9695C11.5975 18.3428 11.2933 18.6595 11.0801 18.9285C11.1936 19.0305 11.6839 18.2716 11.668 18.1287C11.7759 18.131 11.6796 18.3692 11.6641 18.4188C11.4785 19.0032 10.9182 19.391 10.333 19.5154L10.4541 19.3436L10.8389 19.0887C10.5045 19.2076 10.2252 19.3607 9.85254 19.3026C9.82351 19.1503 9.89298 19.2165 9.96875 19.1824C10.5432 18.9179 10.917 18.7439 11.2139 18.1297C11.4591 18.1628 11.0659 18.4972 11.1602 18.6092L11.5342 17.9695ZM14.4443 15.992C14.4837 16.0345 14.21 16.3513 14.168 16.4354C13.4445 17.8999 15.0124 18.7998 16.3281 18.3279C16.9295 18.1121 17.7111 17.178 18.4229 17.3367C18.4541 17.3449 18.4191 17.4624 18.6377 17.4373C18.7694 17.4219 18.6719 17.3168 18.7686 17.326C18.7839 17.5928 19.1682 17.3132 19.249 17.5389C18.6477 17.739 17.8713 17.8175 17.5674 18.4461L17.4619 18.3406C16.8153 18.9781 15.917 19.2831 15.0127 19.1873C14.8439 19.1697 14.2972 19.0488 14.1406 18.992C13.9613 18.9268 13.8315 18.7493 13.6445 18.7147C14.2821 19.3734 15.4597 19.3514 16.3135 19.1942L15.9004 19.3406C15.0136 19.4442 13.9541 19.3578 13.3564 18.6024C13.0212 18.1781 12.8739 17.4116 12.9629 16.8846C12.9806 16.7817 13.0673 16.5322 13.1631 16.4715L13.0752 17.1688L13.1641 17.699C13.19 17.4392 13.1289 17.1233 13.1641 16.8719L13.1631 16.8729C13.1831 16.7333 13.2884 16.5095 13.4033 16.4197C13.4793 16.4965 13.2686 16.7537 13.4297 16.7928C13.4154 16.749 13.537 16.236 13.6436 16.366C13.6842 16.4159 13.4251 16.7856 13.5898 16.8455C13.5418 16.7417 13.8635 16.193 13.9111 16.2586L13.9375 16.4178L14.4443 15.992ZM15.9932 18.9832C15.7517 18.9311 15.486 19.0314 15.2705 19.0369C15.1402 19.0408 14.8879 18.9051 14.8193 19.035H14.8242L14.8232 19.0369L15.4395 19.0926L15.9971 18.9842C15.9952 18.9838 15.9931 18.9836 15.9912 18.9832H15.9932ZM32.4844 16.6863C33.7829 16.0691 34.7336 17.9215 33.8535 18.8016V18.8026C33.6141 19.0417 33.1654 19.2146 32.9131 18.9012C34.0058 18.9744 34.1524 17.8236 33.4482 17.1893C33.4335 17.1766 33.1779 17.0044 33.1592 16.9969C32.8999 16.9094 32.5864 17.0346 32.4844 16.6863ZM28.2451 17.3807L28.166 17.1141C28.2671 17.0807 28.3378 17.1857 28.4053 17.1942C28.4904 17.2055 28.5867 17.1247 28.7002 17.1922C28.7532 17.2243 28.8467 17.4351 28.9141 17.5125C29.4871 18.1661 29.9681 18.3336 30.835 18.075L30.6211 18.3406L30.835 18.368C30.3517 18.7515 29.8348 18.6675 29.2871 18.5018L29.7451 18.7108L30.6748 18.6619C30.6273 18.7601 30.3638 18.8062 30.2686 18.8162C29.4976 18.8952 29.1451 18.6701 28.5928 18.1815C28.6142 18.2137 28.6066 18.3041 28.6426 18.3563C28.7023 18.4421 28.9288 18.5171 28.9668 18.6609L28.5117 18.3426L27.793 17.2742C27.8571 17.2085 28.4048 18.0732 28.4639 18.1277C28.519 18.178 28.5843 18.1748 28.5928 18.1824V18.1815C28.4056 17.8984 28.0932 17.5239 27.9482 17.2508C27.9214 17.2009 27.8513 17.098 27.9248 17.0604L28.2451 17.3807ZM25.0439 18.4481C24.8048 18.4776 24.5888 18.605 24.4258 18.8211L24.4268 18.8201L24.4258 18.8221L24.8906 18.5672L25.4932 18.5027C25.4418 18.4844 25.3906 18.4699 25.3398 18.4598C25.2389 18.4397 25.1395 18.4362 25.0439 18.4481ZM2.50977 14.4998C2.77465 13.8182 3.67469 13.7279 4.31055 13.8192C4.87651 13.9015 5.46344 14.4434 5.67285 14.9656C6.0418 15.8869 5.55082 17.1212 6.57617 17.6912C8.28389 18.6394 9.76108 16.3822 11.3438 16.1014L10.8633 16.4207C11.0481 16.4107 11.1984 16.3034 11.3848 16.2742C11.4418 16.2648 11.5684 16.2184 11.5566 16.3133L10.5967 16.741C10.9524 16.6757 11.2647 16.4388 11.6357 16.4188C11.694 16.4157 11.7849 16.3911 11.7705 16.4744L10.8633 16.8475C11.0772 16.8474 11.2798 16.7268 11.4814 16.6922C11.5352 16.683 11.6774 16.6499 11.6631 16.7401C11.0642 16.9318 10.4506 17.1982 10.0088 17.6483C10.5288 17.3322 11.0855 16.9564 11.7168 16.9549L11.0557 17.2283C10.887 17.354 10.6831 17.4257 10.5068 17.533C10.3128 17.6511 9.89438 18.0256 9.76758 18.075C9.51874 18.1721 9.97274 17.6851 10.0088 17.6483V17.6473C9.62909 17.8782 9.3136 18.1566 8.89941 18.327C8.59035 18.4543 8.24791 18.5068 7.94727 18.657L7.82129 18.5555C7.89859 18.6735 7.4555 18.7205 7.42773 18.7137C7.389 18.7033 7.39521 18.6108 7.35938 18.6053C7.27805 18.5932 7.14283 18.6768 6.99805 18.66C6.85314 18.6429 6.66957 18.4868 6.49023 18.4959C6.56735 18.1168 6.26067 18.2119 6.03906 18.0672C5.93709 18.0005 5.92867 17.9181 5.86816 17.8621C5.8077 17.8063 5.7184 17.821 5.68066 17.7723C5.6231 17.6954 5.47153 17.2836 5.44238 17.1678C5.3735 16.8957 5.35565 16.593 5.36328 16.3133C5.24632 16.3644 5.25551 16.698 5.25781 16.8162C5.25945 16.9205 5.38907 17.1732 5.25781 17.2195C5.08761 16.7019 5.19485 16.201 5.2041 15.6727C5.23349 15.6141 5.38466 16.0561 5.36328 15.8074C5.34873 15.6411 5.34474 15.3932 5.15039 15.4578L5.20801 15.1707L5.09473 15.1072L5.15137 14.9783L4.99121 15.0311L5.04004 14.8758C4.7243 14.6688 4.62508 14.5139 4.21875 14.5008C3.40209 14.4747 3.79411 14.7102 3.52148 15.2967C3.39729 15.5619 3.05426 15.8525 2.99023 15.993C2.88132 16.2331 3.04961 16.7825 2.64258 17.0067C2.58593 16.8142 2.77373 16.694 2.7998 16.5506C2.82959 16.3889 2.7734 16.2223 2.82617 16.0438C2.89845 15.7983 3.29903 15.5139 3.43555 15.2117C3.53665 14.9864 3.58543 14.7441 3.60156 14.4988C3.33152 14.6778 3.49217 15.1477 3.17578 15.2996L3.12305 15.1395C3.01113 15.3196 2.81259 15.8867 2.6416 15.9656C2.4706 16.0439 2.30676 15.9922 2.28516 15.8006C2.26765 15.6436 2.44151 14.6754 2.50977 14.4998ZM5.19043 18.0877C5.17833 18.0891 5.16622 18.0926 5.1543 18.0984C4.94098 18.2042 5.10117 18.4788 5.28906 18.4852C5.3328 18.4875 5.37827 18.4766 5.4209 18.4442C5.47827 18.3336 5.33136 18.066 5.19043 18.0877ZM23.0371 17.8963C23.2121 17.7974 23.5716 17.7215 23.7373 17.8856C23.7971 17.9449 23.8944 18.2364 23.8809 18.3104C23.8317 18.5714 23.007 18.45 22.8398 18.2752V18.2742C22.6234 18.0483 22.9071 18.0701 22.9209 18.0594C22.9579 18.0283 22.9593 17.9398 23.0371 17.8963ZM15.0312 17.9129C14.8918 15.969 17.3543 14.9632 18.4951 16.6248V16.6258C18.2642 16.8544 17.9272 16.5374 17.6357 16.4568C17.2754 16.358 16.9855 16.3202 16.6328 16.4734L17.3926 16.4861C17.569 16.5344 17.8103 16.5666 17.9131 16.7391C16.8997 16.2573 16.1077 16.8515 16.0439 17.9139C15.9521 17.8905 15.934 17.6387 15.9355 17.5682C15.9418 17.3642 16.0992 17.2074 16.0977 17.0057C15.8891 17.1605 15.8615 17.5126 15.8301 17.7527L15.7217 17.6717L15.7256 17.2733L15.5107 17.9666L15.3516 17.7L15.2451 18.0203L15.1904 17.6463L15.0312 17.9129ZM22.7695 13.9647C22.511 15.5419 21.0259 17.0453 19.3535 16.7938L20.2188 16.6717C21.0355 16.4767 21.62 16.0004 22.0449 15.2947C22.3033 14.866 22.462 14.3581 22.7695 13.9647ZM22.1572 14.1248C22.2269 14.1601 22.1594 14.2716 22.1416 14.3231C21.9583 14.8636 21.6749 15.4217 21.2764 15.8328L21.374 15.7674C21.8431 15.4241 22.0547 14.8107 22.292 14.285C22.4009 14.2824 22.3264 14.4924 22.3086 14.5428C22.2365 14.7414 22.0041 15.1581 21.8867 15.3484C21.3344 16.2421 20.0188 16.8813 18.9824 16.5272H19.8086C20.3616 16.4634 20.8877 16.2355 21.2773 15.8328C20.4526 16.3322 19.6891 16.6805 18.7148 16.3123L18.875 16.2068L18.5498 16.1258C18.5826 15.8852 18.2744 16.0376 18.1816 15.8328C18.8688 15.8045 19.5852 15.8269 20.1934 15.4695C20.6329 15.211 20.9939 14.7613 21.1719 14.285C21.3449 14.3425 21.2186 14.4788 21.2246 14.6053L21.4912 14.285L21.3574 14.8182L21.7041 14.2313V14.6053L21.917 14.2313C21.9208 14.5664 21.7106 14.8462 21.5557 15.1238C21.5296 15.1706 21.4378 15.2574 21.5166 15.2996L22.1572 14.1248ZM6.32715 13.1102C7.51386 13.5751 6.40016 14.8471 7.6084 15.3787C8.53819 15.7876 9.46798 15.2142 10.2236 14.7117L10.1182 14.9246L10.4375 14.8455L10.1182 15.1922C10.1757 15.2346 10.7067 14.7588 10.5977 15.0047C10.4402 15.3583 9.36982 16.0121 8.98535 16.1151C8.49678 16.2454 8.10154 16.1997 7.6084 16.1805C8.29861 16.4648 8.97686 16.2638 9.59961 15.9295C9.88494 15.776 10.3758 15.3228 10.5723 15.2459C10.6403 15.2193 10.6703 15.2563 10.6514 15.325C9.93032 15.9993 8.95866 16.5651 7.92773 16.3973C7.82493 16.3804 7.11642 16.1401 7.08496 16.0887C7.05826 16.0449 7.0935 15.951 7.06055 15.9012C6.96836 15.7632 6.70446 15.5796 6.59473 15.4324C6.38234 15.1472 6.25759 14.7978 6.2207 14.4451C6.03967 14.5065 6.3588 14.8718 6.11426 14.8182C6.07363 14.5751 6.05455 14.343 6.05762 14.0945C6.05932 13.9949 6.11731 13.8876 6.11426 13.8348C6.11243 13.8043 6.03284 13.8052 6.02441 13.7899C5.88173 13.528 6.20644 13.5125 6.35059 13.7547C6.53314 14.0623 6.45495 14.5525 6.58301 14.91C6.67052 15.1538 6.93381 15.4935 7.18066 15.4861C6.53624 14.9775 7.02226 14.1789 6.63867 13.5721C6.54194 13.4195 6.32792 13.3172 6.32715 13.1102ZM30.25 16.2469C30.0382 16.2534 29.8243 16.3102 29.6318 16.3143C29.3562 16.3198 29.0839 16.296 28.8115 16.2879L28.5381 16.2869C28.5368 16.287 28.5355 16.2869 28.5342 16.2869C28.7186 16.3539 28.9109 16.3686 29.1055 16.3699C29.2022 16.3707 29.2994 16.3688 29.3965 16.367C29.4932 16.3652 29.5899 16.3642 29.6855 16.369V16.368L29.6885 16.369L30.46 16.2606H30.459C30.3901 16.248 30.3201 16.2446 30.25 16.2469ZM10.8096 15.4061C10.8747 15.4808 10.3721 15.8749 10.2939 15.9315C10.0531 16.1056 9.7126 16.3163 9.42188 16.367L10.0791 15.9842L10.8096 15.4061ZM10.6504 13.3758C10.9089 13.6919 11.0428 14.0897 11.2783 14.4295C11.7424 15.0983 12.3376 15.5092 13.1582 15.619H13.1592C13.1224 15.7363 13.098 15.7059 13.0137 15.6883C11.7148 15.4259 11.0079 14.6255 10.6504 13.3758ZM23.6621 11.1434C24.6203 10.5444 26.1911 10.8956 26.5264 12.0516C26.6844 12.5962 26.5111 13.042 27.042 13.4578C27.4293 13.7606 27.8856 13.8003 28.3389 13.6317C28.855 13.439 29.1865 12.8112 29.7295 12.5135C31.4293 11.5824 33.7131 13.0159 32.7842 14.9266C32.7144 15.07 32.4747 15.4906 32.3281 15.4324C32.4094 15.3021 32.5109 15.1808 32.5791 15.0428C32.5994 15.0025 32.7065 14.8386 32.5693 14.8719C32.3922 15.0744 32.1921 15.4637 31.9268 15.5643C31.8351 15.5986 31.8197 15.4924 31.8477 15.4598C31.8691 15.4365 32.195 15.3435 32.0879 15.1912C31.6936 15.5756 31.1818 15.6651 30.6602 15.4979C30.2122 15.3544 29.5504 15.0397 29.0732 14.8426C29.0157 14.8188 28.8162 14.7728 28.8584 14.6854C28.8696 14.6655 29.1333 14.465 29.1631 14.4559C29.7177 14.2938 30.5438 15.0833 31.251 14.8885C31.4596 14.8309 31.6679 14.664 31.8857 14.5858C31.9045 14.5781 31.9004 14.5032 31.9248 14.5047C32.0475 14.511 32.2084 14.6467 32.2207 14.3914L32.1152 14.3387L32.2773 14.3055C32.386 14.0073 32.1297 13.8446 32.2207 13.5916L32.0615 13.6971C32.1064 13.5028 31.8678 13.5268 31.9004 13.324L31.7412 13.4305L31.6904 13.2401C31.4413 13.2584 31.2119 13.1266 30.9658 13.1111C30.3522 13.072 29.8546 13.3774 29.3652 13.6981C29.3945 13.554 29.6167 13.4615 29.7295 13.368C29.7772 13.3288 29.9015 13.2627 29.7393 13.2703C29.369 13.4207 29.056 13.8579 28.7471 14.0399C28.0498 14.4495 27.4357 14.3066 26.7891 13.9246C26.6841 13.8625 26.6137 13.7501 26.5088 13.6971C26.544 13.7692 26.5368 13.8617 26.6426 13.91L27.2559 14.284C27.049 14.3652 26.3596 13.8365 26.3496 13.7244C26.3429 13.6303 26.4536 13.6695 26.5088 13.6971L26.4492 13.5652C26.3186 13.2531 26.2462 12.9061 26.1885 12.576L26.0293 12.7361C25.9142 11.9056 25.2387 11.4618 24.4297 11.7498C24.2855 11.8012 24.1971 11.9146 24.0537 11.9354C24.0776 11.6824 24.404 11.6671 24.585 11.5858L25.335 11.5623C24.7482 11.3775 24.1619 11.5327 23.707 11.9354L23.6533 11.7742C23.5014 11.7604 23.4369 12.0136 23.3594 11.9354C23.2769 11.8517 23.7375 11.6184 23.7334 11.5086L23.2529 11.7205C23.2136 11.4746 23.4636 11.2676 23.6621 11.1434ZM3.60547 12.2303C2.97594 11.0919 4.18655 9.4314 5.45605 10.0057C5.96762 10.2373 6.2502 11.0647 5.79492 11.4568C5.87005 11.2023 5.87961 11.0349 5.73926 10.8026C5.53431 10.4647 5.03815 10.4 4.68848 10.5379C4.29197 10.6944 4.14593 11.224 4.19336 11.616L4.36035 11.0633L4.72656 10.8699C4.19055 11.2972 4.36362 11.9724 4.99316 12.1766C5.74803 12.4205 6.44147 11.7962 7.09277 11.5008C8.75051 10.7499 10.3296 11.0329 11.5049 12.4451C12.0695 13.1233 12.3533 14.1273 13.3721 14.3152C14.683 14.5567 15.5891 13.1434 17.3672 13.576C17.9509 13.7179 18.8115 14.3979 19.3125 14.327C19.541 14.2939 19.734 14.0915 19.9932 14.2332C20.0031 14.3051 19.9957 14.368 19.9463 14.4246C19.8712 14.5097 19.7315 14.4554 19.7275 14.5526H20.1279L19.46 14.7674L19.8867 14.8729C19.5139 14.991 19.1852 14.8848 18.8193 14.8211L19.5137 15.0867C19.058 15.0837 18.5649 14.9571 18.2588 14.6072C18.2365 14.8389 18.6333 14.9876 18.8066 15.075C18.9207 15.1324 18.9345 15.1433 18.7959 15.1395C18.483 15.1111 18.1709 14.7562 17.9385 14.6609C17.914 14.651 17.8511 14.6476 17.8594 14.6873L18.2324 15.0076C18.0906 15.0337 17.8878 14.8392 17.7344 14.7586C16.8445 14.2884 16.1766 14.2788 15.2285 14.6209C14.4454 14.9032 14.205 15.1735 13.29 15.1483C13.2272 15.1467 13.0955 15.0979 13.1074 15.1942C14.2351 15.4955 15.1568 14.4958 16.2285 14.4451C16.7294 14.4215 17.3961 14.5579 17.752 14.9276C17.4844 14.8563 17.1843 14.6633 16.9121 14.6209C15.0793 14.3355 13.867 16.222 12.0449 14.8426C11.4918 14.4237 11.3432 13.76 10.9727 13.4324C11.0432 13.5697 11.0955 13.7434 11.1768 13.8953C11.6954 14.8604 12.5091 15.4149 13.623 15.4578C13.7424 15.4623 13.8284 15.4165 13.9355 15.408C13.9939 15.4034 14.1339 15.3698 14.1211 15.4608C12.8478 15.6854 11.8529 15.2294 11.1963 14.1424C11.1065 13.9934 10.857 13.546 10.8125 13.4041C10.8042 13.3763 10.7984 13.3168 10.8379 13.325C10.8716 13.3733 10.931 13.3964 10.9717 13.4324C10.7508 13.0037 10.5764 12.643 10.167 12.3377C10.1471 12.3231 9.77389 12.1385 9.74121 12.1268C9.05017 11.8707 8.20659 11.8269 7.55469 12.2049C8.1446 12.04 8.92013 11.9547 9.51074 12.1434C9.58127 12.1663 9.67328 12.1619 9.68945 12.2576C9.01748 12.0735 8.42399 12.0631 7.75586 12.2733C7.48683 12.3584 7.2701 12.5342 6.99414 12.5779L7.27637 12.3699C7.42665 12.3813 7.501 12.2354 7.55469 12.2039L7.55566 12.2029C7.15602 12.3149 6.84702 12.5708 6.43359 12.6307C6.54536 12.9326 6.30653 12.832 6.16309 12.8641C6.06633 12.8865 6.07259 12.9863 6.02148 13.0018C5.73538 13.0853 5.02272 13.0519 4.73633 12.9676C4.33593 12.8502 3.85756 12.5001 3.71094 12.0975L3.60547 12.2303ZM28.8057 14.9246C29.2282 14.9385 29.5968 15.1545 29.9795 15.2986L29.7627 15.3279L28.8057 14.9246ZM15.834 14.8455L14.8203 15.1922C15.2783 14.8403 15.9562 14.6966 16.5283 14.7127L15.834 14.8455ZM2.8877 14.4666C2.82858 14.4608 2.75603 14.4971 2.7002 14.5838C2.57264 14.7828 2.6678 14.9356 2.78516 14.9246C2.84056 14.9233 2.90236 14.8868 2.94824 14.7986C3.05651 14.5909 2.98881 14.4689 2.8877 14.4666ZM11.5176 13.9783C11.5139 13.9737 11.5096 13.9693 11.5059 13.9647C11.6516 14.372 12.0587 14.7781 12.4668 14.9246C12.4657 14.9238 12.4649 14.9225 12.4639 14.9217C12.4665 14.9227 12.469 14.9246 12.4717 14.9256C12.1081 14.6372 11.8001 14.3282 11.5117 13.9647C11.5134 13.9693 11.5158 13.9737 11.5176 13.9783ZM9.63574 13.6443L9.7959 13.6971L9.47656 13.9119L9.7959 13.8582V13.9647C9.24134 14.26 8.61807 14.4366 7.98145 14.3914C7.96887 14.3098 8.0811 14.3286 8.1416 14.3133C8.34772 14.2597 8.57704 14.2523 8.77246 14.1942C8.86513 14.1667 8.91215 14.2129 8.8877 14.0721C8.49596 14.213 8.11632 14.1838 7.71387 14.1248V13.9656C8.42155 14.0191 9.02524 13.6348 9.68848 13.4852H9.68945L9.63574 13.6443ZM15.167 11.7772C16.3921 10.7486 18.0966 10.6684 19.3301 11.7215C19.6485 11.9931 20.15 12.6873 20.4775 12.8162C20.9716 13.0102 21.7399 12.5352 22.2715 12.4754C22.9257 12.4026 23.5772 12.5205 24.1025 12.9285C24.319 13.0969 24.7495 13.7586 24.8906 13.7977C25.0697 13.847 25.0945 13.613 25.1221 13.4842L25.123 13.4832C25.2976 13.5454 25.1897 13.6755 25.1758 13.8035L25.3359 13.4832C25.392 13.4282 25.7162 14.0175 25.417 14.285C25.0074 14.6493 24.299 14.0017 24.0273 13.6971L23.9482 13.8035C23.9648 13.5474 23.3752 13.2156 23.1611 13.1756C22.7209 13.0935 22.3104 13.2849 21.8916 13.3777L22.0781 13.2693C22.0908 13.1742 21.9632 13.2209 21.9062 13.2303C21.7045 13.2633 21.4637 13.3722 21.2627 13.4412C21.1724 13.472 21.1072 13.5498 21.0283 13.5721C20.9443 13.595 20.0781 13.3803 19.9697 13.3289C19.5294 13.1194 19.1246 12.3722 18.6367 12.0408C17.3743 11.1829 16.2552 11.7746 15.2197 12.6297C15.1231 12.5584 15.2804 12.4867 15.2988 12.4422C15.4147 12.1647 14.84 12.7064 14.8193 12.6834L15.0322 12.3358C14.8827 12.2821 14.6827 12.5908 14.6035 12.7352C14.5171 12.7429 14.4843 12.7604 14.498 12.657C14.5286 12.4305 14.9845 11.9305 15.167 11.7772ZM13.9355 11.2762C13.1814 12.1828 14.0915 13.3674 15.1348 13.4842C15.1516 13.5984 15.1393 13.5705 15.0674 13.6033C14.8419 13.7061 14.6239 13.7057 14.3877 13.6443L14.5469 13.8035C13.4907 13.7103 12.6862 11.9685 13.5322 11.242C13.5038 11.4069 13.4061 11.527 13.377 11.701C13.3646 11.7736 13.3277 12.0672 13.4258 12.0955C13.3754 11.7234 13.5674 11.154 14.0137 11.1893L13.9355 11.2762ZM13.1104 11.4031C13.2009 11.39 13.1668 11.5304 13.1621 11.5887C13.146 11.7825 13.1017 11.8932 13.1162 12.116C13.1576 12.7427 13.4606 13.3764 13.9629 13.7508L13.8037 13.6795C13.0453 13.2764 12.8421 12.177 13.1104 11.4031ZM12.9238 11.5096C12.955 11.6596 12.8668 11.7991 12.8643 11.9529C12.8574 12.4923 13.1246 13.2391 13.4844 13.6434C13.387 13.7361 13.0292 13.1688 12.9941 13.0936C12.7971 12.6626 12.6718 11.9392 12.9238 11.5096ZM27.041 12.5252C27.5074 12.5516 27.9061 13.0284 27.8926 13.4842C27.7614 13.3841 27.76 13.1942 27.6729 13.0399C27.6549 13.0088 27.4704 12.7704 27.4512 12.7547C27.3408 12.6642 27.1171 12.6485 27.041 12.5252ZM26.666 11.7234C27.3886 11.4543 28.2782 11.8928 28.6318 12.5594C28.8787 13.0256 28.8378 13.1714 28.375 13.4305L28.3486 13.324L28.2148 13.4305C28.1727 13.1883 28.1131 12.9044 27.9209 12.7371C27.912 12.9363 28.0736 13.0908 28.1035 13.3016C28.1196 13.4134 28.1312 13.4496 28.001 13.4305C27.9715 12.8409 27.4734 12.3591 26.8799 12.3621L27.0693 12.3074L27.4668 12.3104L26.8799 12.2029L26.9863 12.0428C26.8061 12.0612 26.6952 11.8814 26.666 11.7234ZM8.4375 12.743C8.80237 12.7517 8.63148 13.0196 8.36328 13.0096L8.78125 13.0555C8.40929 13.1728 8.01928 13.2746 7.62891 13.3192C7.52304 13.3314 7.55294 13.3085 7.55371 13.2156L7.71387 13.1629H7.2334C7.42616 12.9014 8.1307 12.7361 8.4375 12.743ZM15.8975 12.2381C17.4041 11.1627 18.6765 11.8642 19.6201 13.2166C19.1851 13.0463 18.9519 12.6099 18.5469 12.3406C17.4892 11.6353 16.6054 11.9679 15.6328 12.6229L15.5098 12.5233C15.6943 12.5504 15.7656 12.3324 15.8975 12.2381ZM12.8379 13.1092C12.7614 13.1212 12.7664 13.0157 12.748 12.9598C12.6775 12.7428 12.6193 12.4699 12.6055 12.243C12.6 12.161 12.5436 12.1115 12.6523 12.0418L12.8379 13.1092ZM3.87305 12.0428C3.91058 12.1646 3.97457 12.2716 4.05566 12.366C4.32587 12.6815 4.79602 12.8494 5.1875 12.8914C5.21756 12.8947 5.2842 12.9057 5.3457 12.907C5.36495 12.9074 5.38348 12.9066 5.40039 12.9041C5.42858 12.9001 5.4523 12.8932 5.46484 12.8768L5.47461 12.8445L5.47266 12.8436L5.22754 12.8318C4.92549 12.801 4.65452 12.7075 4.41406 12.5555C4.27488 12.4673 4.14487 12.361 4.02734 12.2322L3.87402 12.0438L3.87305 12.0428ZM24.9062 11.7781C25.2979 11.7192 25.712 12.0505 25.8145 12.4168C25.7462 12.4873 25.4084 12.069 25.332 12.0193C25.1916 11.9273 24.9853 11.9339 24.9062 11.7781ZM31.4424 11.4549C31.2615 11.119 32.0718 11.0336 32.3135 11.5467C32.4246 11.7831 32.4349 12.3063 32.1123 12.3602C32.0834 12.1738 32.0705 11.9009 31.9551 11.7449C31.8506 11.6039 31.5107 11.5821 31.4424 11.4549ZM20.7275 11.3602C21.2179 9.59058 23.7964 8.77043 25.251 9.90704C25.4127 10.0335 26.1712 10.7732 26.0264 10.9734V10.9744C25.9198 10.9131 25.8015 10.8704 25.6934 10.8113C24.8826 10.3718 24.2699 9.92285 23.249 10.1981C22.7728 10.3261 22.1584 10.8568 21.9434 11.2947C21.9004 11.3821 21.7147 12.1724 21.543 11.9891C21.5477 11.1685 22.183 10.5174 22.9023 10.2274C22.9878 10.1532 22.8508 10.1706 22.8076 10.1844C21.9654 10.4713 21.4354 11.2761 21.3809 12.1483L21.2754 11.6151L21.1953 11.993C21.0067 12.0213 20.9303 12.1145 20.9004 12.3084L20.8477 12.0428L20.7412 12.3084C20.5195 12.1151 20.6539 11.6271 20.7275 11.3602ZM25.9736 10.3621C27.1894 9.72729 28.8523 10.739 28.8818 12.0965L28.6143 11.7234L28.5615 11.8299C28.3122 11.4855 28.1837 11.2623 27.7871 11.0828C27.8501 11.132 28.2775 11.4915 28.2139 11.5633C27.9178 11.3094 27.606 11.0299 27.2002 10.9754C27.185 10.8858 27.334 10.9149 27.3838 10.9256C27.4836 10.9472 27.6844 11.0361 27.7871 11.0828C27.3516 10.7457 27.0359 10.8098 26.5068 10.7615L26.8271 10.6033C26.4205 10.6325 26.2398 10.7472 25.9736 10.3621ZM21.9707 11.8299C22.0353 10.726 23.3885 9.93413 24.4238 10.3358C24.3834 10.4626 24.1359 10.3504 24.0352 10.3553C23.193 10.3975 22.6668 10.716 22.2441 11.4354C22.1529 11.5911 22.1945 11.7884 21.9707 11.8299ZM31.3936 10.3387C31.64 10.3058 32.1048 10.3527 32.1611 10.6522C31.7354 10.5484 31.0609 10.7983 30.9893 11.2713C30.977 11.3546 31.0588 11.6565 31.042 11.6678C30.8381 11.7747 30.7098 11.4656 30.6914 11.2977C30.6486 10.9065 30.9955 10.3917 31.3936 10.3387ZM28.2842 9.09357C28.6294 8.45558 29.535 8.51113 30.0137 8.96661L30.0146 8.96564C30.5905 9.51336 30.586 10.4045 30.1396 11.0281L29.9541 10.8152C29.817 10.8689 29.7954 11.0823 29.7305 11.1395C29.6377 11.2208 29.079 11.4546 28.9736 11.3973L28.6465 10.949C29.0267 10.7422 29.2947 10.701 29.4512 10.2547C29.5023 10.109 29.4174 9.88694 29.7129 9.909C29.6244 10.0317 29.8039 10.1584 29.9258 10.0672L29.7666 9.93536C29.7215 9.7499 29.912 9.85543 29.8721 9.69513C29.7202 9.64064 29.6487 9.47774 29.4854 9.36115C28.9883 9.00598 28.5221 9.06086 28.2451 9.64142C28.0879 9.57163 28.2281 9.19731 28.2842 9.09357ZM21.1973 9.29767C21.2888 9.29704 21.7214 9.3373 21.7568 9.37482C21.7814 9.40089 21.7688 9.50228 21.6914 9.49396L20.958 9.58771C21.0063 9.69878 21.2533 9.59339 21.3555 9.58478C21.4123 9.58014 21.5583 9.55177 21.5439 9.64044C20.5544 9.65732 20.14 10.5085 20.1553 11.4022C20.0778 11.393 20.0649 11.1685 20.0557 11.1024C20.0381 10.972 20.0519 10.8391 20.0488 10.7088C19.9699 10.7195 19.9599 10.9385 19.9492 11.0086C19.9347 11.1037 19.9414 11.2006 19.9414 11.2957C19.6924 11.0978 19.9698 10.7496 19.9414 10.4949L19.7285 11.2957L19.6748 10.869L19.5156 11.242C19.4359 10.2478 20.1678 9.30994 21.1973 9.29767ZM20.584 10.2547L20.6904 10.3074L20.4521 10.657L20.3174 11.2957C20.1643 10.8315 20.4718 9.95057 21.0088 9.909L20.584 10.2547ZM9.63965 10.4412C8.61494 8.58018 10.7117 7.17213 12.4102 7.56329C12.4822 8.00568 11.8707 8.05588 11.5605 8.1463L11.6143 8.25275C11.3697 8.17914 10.8707 8.45622 10.6787 8.62579C10.3135 8.94801 10.3804 9.77113 10.8154 10.0389C11.5595 10.4968 12.6517 9.60861 13.4258 9.45197C14.5365 9.22652 15.8014 9.70337 16.1514 10.8416C15.9507 10.977 16.008 10.6776 15.8311 10.7088L15.8838 10.9227C15.3959 10.783 15.17 10.2497 14.627 10.1238C14.4894 10.12 14.5014 10.1301 14.6162 10.1883C14.9852 10.3739 15.3166 10.6011 15.5107 10.9754L14.6738 10.3983L13.7217 10.1707L13.1094 10.282C13.4308 10.3172 13.8421 10.2345 14.1504 10.282L14.1514 10.2811C14.4014 10.3205 14.7784 10.5981 14.9248 10.8143C14.7316 10.7475 14.5961 10.5896 14.3906 10.5213C13.5869 10.2531 12.937 10.5094 12.1494 10.6551L12.2549 10.7615C11.9307 10.7938 11.5987 10.9737 11.2676 10.9793C10.5748 10.9908 9.91074 10.5762 9.6123 9.96173C9.50733 10.0829 9.79879 10.3567 9.63965 10.4412ZM9.7207 9.69318C9.65015 9.98305 9.93596 10.3188 10.1484 10.493C10.2492 10.5753 10.3522 10.6423 10.457 10.6961C10.4625 10.6989 10.4682 10.7012 10.4736 10.7039C10.5173 10.7257 10.5611 10.7452 10.6055 10.7625C10.6561 10.7824 10.7072 10.799 10.7588 10.8133C10.7663 10.8154 10.7737 10.8182 10.7812 10.8201C11.1461 10.9153 11.5329 10.8769 11.9395 10.7625C11.9365 10.7266 11.9214 10.7094 11.9004 10.7029C11.8988 10.7023 11.8972 10.7015 11.8955 10.701C11.8869 10.6991 11.8773 10.6989 11.8672 10.7H11.8643C11.802 10.7065 11.7182 10.7602 11.6953 10.7615H11.6963C11.4372 10.7769 11.1577 10.7616 10.8955 10.7615C10.8775 10.7615 10.859 10.7591 10.8398 10.7567C10.8125 10.753 10.7842 10.7474 10.7549 10.7391C10.7376 10.7343 10.72 10.7288 10.7021 10.7225C10.2959 10.5773 9.76475 10.06 9.72461 9.69513C9.7239 9.69804 9.72329 9.701 9.72266 9.70392C9.72218 9.70035 9.72109 9.69672 9.7207 9.69318ZM5.20898 8.97247C5.74381 8.50043 6.82902 8.67643 7.20801 9.26837C7.38902 9.55063 7.41513 10.1297 7.69727 10.327C8.06321 10.5817 8.63979 10.3353 9.05176 10.3875L9.05566 10.4168C9.04432 10.4911 8.90715 10.6019 8.87793 10.6151C8.71148 10.691 8.29246 10.7936 8.11133 10.8074C7.94623 10.8196 7.48945 10.7444 7.3291 10.6961C7.03848 10.6087 6.88927 9.88625 6.78418 9.64044C6.66918 9.52928 6.6993 9.60801 6.72461 9.70001C6.76449 9.84792 6.83841 9.99069 6.8584 10.1531C6.8653 10.2107 6.90421 10.3475 6.81152 10.3338C6.69799 9.94336 6.51598 9.45096 6.06348 9.37189C6.04956 9.27902 6.18852 9.31709 6.23828 9.33087C6.35928 9.36543 6.44757 9.46006 6.56934 9.47931C6.4992 9.23355 6.14347 9.21849 5.94336 9.15411C5.90067 9.14013 5.90558 9.06153 5.86816 9.0545C5.80981 9.04399 5.29016 9.1294 5.26172 9.10529L5.30273 9.00665L5.20898 8.97247ZM14.377 7.62482C16.004 6.92408 18.1007 8.1133 18.2803 9.88751C18.2888 9.9688 18.3347 10.8427 18.127 10.6541L18.1289 10.6551L18.0742 10.3885L17.8867 10.4959L17.8613 10.2283L17.5947 10.4412C17.5341 9.52378 17.2278 8.79506 16.3848 8.367C16.3364 8.34219 16.2436 8.25668 16.2061 8.33282C16.8542 8.65501 17.3956 9.29192 17.4287 10.0467C17.431 10.0996 17.3771 10.5249 17.2744 10.3885C17.2513 8.69323 15.731 8.00393 14.2305 8.46564L14.5635 8.29181L15.1914 8.1463C14.8378 8.11792 14.4922 8.205 14.1562 8.30548C13.8962 8.03544 14.0386 7.77134 14.377 7.62482ZM15.2949 8.51935C16.3297 8.4274 17.1085 9.26372 17.0557 10.2801L16.8525 9.7088C16.6823 9.31083 16.4746 8.98172 16.0781 8.77618L15.2949 8.51935ZM24.1582 8.54572C24.4239 8.24758 25.1411 8.62469 25.4326 8.8172C25.6328 8.94915 26.4937 9.81525 26.291 10.0135H26.292C26.176 10.1272 26.0373 9.89356 26.0078 9.87286C25.6689 9.64895 25.3723 9.29907 24.9951 9.0965C24.8771 9.03291 24.7763 8.98771 24.6377 8.99982C24.6104 8.92329 24.8496 8.95546 24.7441 8.84064C24.7117 8.80607 24.1613 8.65616 24.1582 8.54572ZM20.1855 8.68829C20.7338 8.45908 21.1618 8.40691 21.7432 8.55646C21.8183 8.5756 22.0069 8.58852 22.0195 8.6795C21.9185 8.72849 21.7745 8.62723 21.7266 8.62677C21.4789 8.62677 21.1605 8.59925 20.9258 8.62677C20.4472 8.68352 19.8938 9.00795 19.5654 9.34845C19.4895 9.4274 19.4497 9.56663 19.3877 9.62579C19.2849 9.72292 19.0973 9.7138 19.0566 9.96271C19.056 9.392 19.6984 8.89234 20.1855 8.68829ZM18.4473 8.65314C19.6603 6.97785 22.6461 7.39721 23.9756 8.73126C24.021 8.77787 24.3595 9.17678 24.3193 9.21368L24.2783 9.2215C24.1433 9.2166 23.7526 9.06347 23.6787 9.0174C23.5515 8.93692 23.4334 8.69042 23.3047 8.75958L23.5176 8.97443C23.4172 9.05096 23.2937 8.83954 23.1934 8.76447C23.0178 8.63412 22.8238 8.52583 22.6367 8.41388C22.4748 8.40544 22.5989 8.47143 22.6465 8.51056C22.7938 8.63251 22.9943 8.71756 23.0918 8.8924L22.29 8.46661L22.3701 8.62677C21.0707 8.10224 19.6944 8.49465 18.9004 9.64044C18.9114 9.23578 19.3052 9.02547 19.5146 8.73419C19.4151 8.71126 19.3869 8.7898 19.3271 8.83966C19.0972 9.0329 18.8786 9.30463 18.7666 9.58673C18.6679 9.59884 18.7199 9.47522 18.7383 9.42462C18.8127 9.22078 18.9529 9.03894 19.0342 8.83966L18.624 9.32111L18.4473 9.2674C18.5906 9.27412 18.6226 9.00283 18.6602 8.8924L18.4199 9.15997C18.1684 9.08479 18.3544 8.7813 18.4473 8.65314ZM11.6162 5.42365C12.3569 5.37805 12.8834 6.11315 12.9502 6.78497C13.0345 7.63738 12.5809 8.72937 12.043 9.37091C12.548 8.18649 13.4721 6.47069 12.0371 5.56232L11.6162 5.42365ZM6.54297 7.21075C6.98328 6.85342 7.52551 6.73979 8.05859 6.97833C8.96568 7.38501 8.7474 8.53729 9.05176 9.31818L9.05078 9.3172C8.78534 9.43841 8.67994 9.24204 8.54492 9.05255C8.45363 9.06022 8.67478 9.42348 8.49219 9.26544C8.1556 8.79058 8.43751 8.1526 7.9834 7.74298C7.87329 7.68812 7.15896 7.92502 6.99609 7.98517C6.71687 8.08796 6.53943 8.31252 6.22266 8.25275C6.19291 8.09063 6.27279 8.17111 6.34863 8.14142C6.55642 8.06012 6.74225 7.93931 6.93164 7.86798C7.27831 7.7377 7.80003 7.83533 7.7168 7.29279C7.56055 7.48894 7.52156 7.62119 7.2627 7.71857C7.10779 7.77608 7.31283 7.56979 7.1582 7.61407C6.86837 7.69768 6.66055 7.8395 6.42285 7.94611C6.27701 8.01102 5.98207 7.9865 6.01465 7.80743C6.02775 7.73997 6.45637 7.28126 6.54297 7.21075ZM9.71484 6.65411C9.62978 5.13749 10.7119 3.91544 12.2969 4.39337C14.222 4.97436 14.3642 7.58857 13.3848 9.03693C13.289 9.17784 13.2545 9.24117 13.0547 9.21368H13.0527L13.3203 8.3338C13.2656 8.24993 13.2547 8.37486 13.2402 8.4129C13.1858 8.55777 13.1492 8.70058 13.0811 8.84161C13.0466 8.91282 12.9678 9.07816 12.8936 9.10626C12.9144 8.86497 13.0377 8.65102 13.083 8.41583C13.0938 8.36054 13.1523 8.24064 13.0537 8.25275C12.9517 8.51582 12.9342 8.89598 12.6797 9.05255L12.6533 8.89337L12.3604 9.2674C12.691 8.41434 13.2773 7.42935 13.0303 6.4881C12.8645 5.85538 12.1678 5.09491 11.4492 5.28693C11.3058 5.74945 11.2591 6.13913 10.8604 6.45978C10.7485 6.55022 10.3437 6.7431 10.3047 6.81232C10.1678 7.05955 10.4661 7.68557 9.9043 7.82599C9.87023 7.61473 10.1306 7.5462 10.1631 7.36017C10.1928 7.18696 10.0507 7.01942 10.1455 6.81329C10.2241 6.64375 10.8129 6.39813 11 6.17267C11.1871 5.94698 11.3954 5.47606 11.2666 5.21075L10.998 5.95782C10.92 5.83351 11.2435 5.4049 10.9727 5.42365C10.9726 5.68971 10.8777 5.93817 10.6807 6.11993C10.5803 6.21265 10.4677 6.23949 10.3887 6.30841C10.2077 6.46576 10.0661 6.84504 9.71484 6.65411ZM26.1211 5.59454C26.9341 5.44433 28.0517 6.10767 28.3496 6.8631C28.7232 7.81046 28.2716 8.77216 27.2568 8.94415L27.2549 8.94513L27.623 8.75372L27.8945 8.46564C27.7016 8.53701 27.5658 8.68344 27.3613 8.75861C26.9449 8.912 26.6437 8.87147 26.2227 8.77716C26.1537 8.76183 25.9739 8.76521 25.9736 8.6795C26.6065 8.75469 27.0763 8.90214 27.624 8.48712C27.6737 8.449 27.9 8.25931 27.8418 8.19806C27.3355 8.75572 26.7135 8.77229 26.0293 8.54376C25.7701 8.45711 25.46 8.18048 25.2773 8.11896C25.196 8.09134 25.1395 8.15554 25.0391 8.0965C24.7613 7.93439 24.3381 7.25052 24.2139 6.9422C24.3701 6.83442 24.3161 7.17881 24.4795 7.18341C24.2954 6.81907 24.3781 6.5733 24.5859 6.24884L25.1289 7.20099C25.6199 7.90219 27.0416 8.71587 27.4697 7.55743L27.5762 7.82404L27.6299 7.34357L27.4707 7.50275L27.5225 7.18341C27.3731 7.24755 27.257 7.1863 27.2568 7.02325L27.415 7.1297L27.3096 6.94318L27.4688 6.80939C27.113 6.83454 26.8147 6.65246 26.5088 6.54279L26.8281 6.75665C26.8251 6.87861 26.6425 6.77474 26.5957 6.74786C26.3205 6.59046 26.0311 6.22564 25.9199 5.93048C25.8295 5.69126 25.8689 5.64133 26.1211 5.59454ZM17.2197 6.99689C17.6463 6.38878 18.5684 6.19155 19.248 6.40997C19.6154 6.52812 20.1674 6.97826 20.3164 7.34259V7.34357C19.9499 7.54904 19.8108 7.07711 19.5166 7.10333L19.6758 7.28986C19.5001 7.25456 19.3636 7.09175 19.1787 7.01349C18.6533 6.79029 18.0298 6.89511 17.6201 7.29083L17.5674 7.18439L17.4863 7.39728C17.3561 7.42102 17.3985 7.37984 17.3574 7.29572C17.0132 7.45816 17.0695 7.21085 17.2197 6.99689ZM21.4062 3.39337C22.1717 2.96334 22.9753 3.14859 23.6426 3.67169C25.0453 4.77037 24.6105 7.07288 22.8232 7.39825C22.8916 7.27422 23.0334 7.32258 22.9844 7.13165C22.9458 7.09271 22.6232 7.22381 22.6631 7.02521C22.5404 7.08884 22.5336 7.28911 22.3438 7.2381L22.4502 7.07794L21.3818 6.97052C21.4405 6.84484 21.3701 6.67622 21.5244 6.60333C22.4036 6.83343 23.3605 6.39667 23.3574 5.3963C23.3539 4.43641 22.2962 4.51167 21.7002 4.17267C21.6082 4.12057 21.4745 4.06034 21.4902 3.9295C21.5246 3.89942 22.2074 4.26183 22.3154 4.30548C22.6029 4.42182 22.8658 4.37635 23.1211 4.62091C23.4737 4.95837 23.5138 5.4955 23.3613 5.93341C23.3015 6.10438 23.1893 6.21981 23.1455 6.38458C23.6064 5.95648 23.6932 5.21053 23.3281 4.68048C23.0673 4.30156 22.6101 4.28143 22.2373 4.08966C22.5494 4.23609 23.0973 4.08648 23.3506 4.44415L23.6787 4.99689C23.6816 4.65564 23.4097 4.35575 23.165 4.15021L22.2119 3.98322C22.158 3.97412 22.2205 4.06824 22.2354 4.08673C21.9681 3.94912 21.5103 3.68572 21.4062 3.39337ZM25.6533 6.27814C25.8994 6.22765 25.9415 6.45981 26.0527 6.54572C26.1639 6.6316 26.4464 6.82654 26.5654 6.88654C26.8441 7.0266 27.194 7.01516 27.3594 7.34357L26.4062 6.93927L25.6533 6.27814ZM14.0596 3.67755C14.3989 3.0528 15.3099 2.95388 15.9219 3.17169C17.3983 3.69801 17.5845 5.61981 16.9082 6.8465C16.856 6.94163 16.6215 7.40591 16.4727 7.29083H16.4717L16.6318 6.81134L16.5244 7.02521C16.2764 7.01809 16.4057 6.81011 16.418 6.65216C16.278 6.70673 16.3939 6.93281 16.1523 6.86505L16.2578 6.492L15.8848 6.91876C16.1877 6.25221 16.467 5.5107 16.2432 4.7713C16.1649 4.51218 15.9591 4.32552 15.8877 4.0672C15.6025 3.97976 15.3937 3.85505 15.084 3.98224C15.0531 3.95024 15.2263 3.67761 15.084 3.6629C14.9002 3.93435 14.9211 4.27108 14.8115 4.5379C14.6787 4.85994 14.2471 4.95001 14.3467 5.38556C14.3873 5.56425 14.6324 5.71533 14.4961 5.95685L14.2168 5.46271C14.0057 4.85089 14.9692 4.67098 14.7637 3.98224C14.4983 4.33048 14.3171 4.82081 13.9268 5.04181C13.527 5.07778 13.9606 3.86008 14.0596 3.67755ZM11.4521 5.0506C11.3671 5.11548 11.4515 5.14134 11.5742 5.15216C11.7233 5.16603 11.932 5.15671 11.96 5.16095C12.3704 5.22688 12.9057 5.69432 13.0625 6.08087L13.3184 6.91681C13.3186 6.90965 13.3173 6.90248 13.3174 6.89532L13.3242 6.91876C13.3477 6.0964 12.7983 5.29244 12.0205 5.08966C11.8419 5.04247 11.651 5.02709 11.4521 5.0506ZM16.041 4.73029C16.2481 5.31096 16.2348 5.96933 15.9365 6.51935C15.9089 6.57074 15.6912 6.93914 15.6152 6.86407C15.8729 6.38018 16.1315 5.85905 16.0947 5.29083C16.0862 5.15754 16.0334 5.02416 16.0127 4.8924C16.0034 4.83639 15.9418 4.71832 16.041 4.73029ZM17.5361 3.47638C17.4949 2.58059 18.401 1.91999 19.2109 2.38751C19.6618 2.64749 19.9386 3.53119 19.3535 3.76642L19.458 3.52814C19.4227 3.43854 19.3176 3.501 19.3076 3.49103C19.2694 3.45146 19.2517 3.24508 19.1689 3.12482C18.8773 2.70397 18.2067 2.6699 18.1797 3.2879L18.3916 3.18146C18.2055 4.43155 19.6073 4.18655 20.3506 4.45197C21.2685 4.78038 21.6557 5.80397 21.1406 6.64923C20.9841 6.67071 21.1489 6.53014 21.1113 6.41583C21.0799 6.32134 20.8449 6.29965 20.7939 6.33087C20.7923 6.33722 20.8385 6.40148 20.8164 6.43732C20.6556 6.69295 20.4504 6.4596 20.4199 6.49005V6.65021L20.207 6.59552C20.3764 6.36705 20.5143 6.15152 20.4736 5.84943C20.6 5.84176 20.5681 5.83284 20.5811 5.92853C20.6071 6.12095 20.5519 6.30376 20.5273 6.49005C20.6799 6.51532 20.6163 6.4573 20.6416 6.36603C20.7287 6.05034 20.6225 5.84422 20.6885 5.56134C20.5327 5.49766 20.4747 5.25155 20.4141 5.16486C20.4065 5.15557 20.3469 5.18647 20.3164 5.17072C19.6221 4.80938 18.8972 5.00155 18.2842 4.48907C18.0176 4.26608 18.0687 4.2207 17.7539 4.06134C17.5951 3.98079 17.5438 3.64209 17.5361 3.47638ZM26.9365 5.97833C26.853 5.94614 26.7554 5.95205 26.6797 6.02325C26.5579 6.13781 26.6863 6.31437 26.835 6.37677C26.9232 6.41543 27.0195 6.41438 27.0752 6.33575C27.1783 6.18912 27.0762 6.02962 26.9365 5.97833ZM22.7217 6.00861L22.5078 6.01056L22.6133 6.11505L21.6006 6.22247L21.6025 5.85236L22.7207 5.79669L22.7217 6.00861ZM25.1895 5.83868C25.4003 5.70081 25.5369 5.79951 25.7578 5.85626V5.85529L25.7607 6.01056C25.5223 5.99446 25.3656 5.83855 25.1211 5.95782C25.0935 5.83373 25.1373 5.87243 25.1895 5.83868ZM10.3799 5.43243C10.2088 5.4468 9.97256 5.73985 10.1289 5.89142C10.1738 5.93485 10.2276 5.94782 10.2822 5.9422C10.3763 5.93671 10.4737 5.87315 10.5283 5.79865C10.5717 5.51606 10.4923 5.42393 10.3896 5.43243H10.3799ZM18.9775 4.99786C19.3201 4.9864 19.6607 5.07274 19.9902 5.15704C20.0017 5.25876 19.8873 5.19165 19.8311 5.18439C19.637 5.15908 19.4174 5.12982 19.2256 5.09454C19.16 5.08239 18.9781 5.08242 18.9775 4.99786ZM22.2373 4.08868V4.09064C22.2369 4.0904 22.2367 4.08845 22.2354 4.08673L22.2373 4.08868ZM22.4727 3.45001C22.2848 3.43109 22.1558 3.65568 22.2891 3.74298H22.29L22.292 3.74396L22.5361 3.75665L22.6025 3.76154V3.76056L22.6064 3.76154L22.6562 3.59064L22.5596 3.47443C22.5298 3.46013 22.5005 3.45238 22.4727 3.45001ZM20.6357 3.60919C20.5833 3.30313 21.3249 3.54041 21.3291 3.58185C21.1059 3.86717 20.8881 3.45607 20.6357 3.60919Z" fill="white"/>
</svg>
