<svg width="36" height="36" viewBox="0 0 36 36" fill="none" xmlns="http://www.w3.org/2000/svg">
<path d="M0 18C0 8.05888 8.05888 0 18 0C27.9411 0 36 8.05888 36 18C36 27.9411 27.9411 36 18 36C8.05888 36 0 27.9411 0 18Z" fill="white" fill-opacity="0.06"/>
<path d="M28.1787 23.3071L24.7829 26.9481C24.7093 27.027 24.6203 27.09 24.5214 27.1331C24.4225 27.1763 24.3158 27.1987 24.2079 27.199H8.10929C8.03268 27.1986 7.95783 27.176 7.89385 27.1338C7.82987 27.0917 7.7795 27.0319 7.74888 26.9616C7.71825 26.8914 7.70868 26.8138 7.72133 26.7382C7.73398 26.6627 7.76831 26.5924 7.82014 26.536L11.2119 22.895C11.2855 22.8161 11.3744 22.7531 11.4733 22.71C11.5722 22.6668 11.6789 22.6444 11.7868 22.6441H27.8854C27.9629 22.6425 28.0391 22.6639 28.1044 22.7055C28.1698 22.7472 28.2213 22.8072 28.2527 22.878C28.284 22.9489 28.2937 23.0274 28.2806 23.1037C28.2674 23.1801 28.232 23.2508 28.1787 23.3071ZM24.7829 15.9728C24.709 15.8943 24.6199 15.8316 24.5211 15.7884C24.4223 15.7453 24.3157 15.7227 24.2079 15.7219H8.10929C8.03251 15.7219 7.95742 15.7444 7.8932 15.7864C7.82899 15.8285 7.77844 15.8884 7.74775 15.9588C7.71706 16.0292 7.70756 16.107 7.72042 16.1827C7.73328 16.2583 7.76793 16.3286 7.82014 16.3849L11.2119 20.0284C11.2858 20.1069 11.3748 20.1696 11.4736 20.2128C11.5725 20.2559 11.679 20.2785 11.7868 20.2793H27.8854C27.9619 20.2786 28.0365 20.2557 28.1003 20.2135C28.164 20.1712 28.2141 20.1113 28.2445 20.0412C28.2749 19.971 28.2844 19.8935 28.2717 19.8181C28.259 19.7427 28.2247 19.6726 28.1729 19.6163L24.7829 15.9728ZM8.10929 13.3572H24.2079C24.3158 13.3568 24.4225 13.3344 24.5214 13.2913C24.6203 13.2481 24.7093 13.1851 24.7829 13.1062L28.1787 9.46441C28.2182 9.42217 28.248 9.37177 28.2658 9.31677C28.2837 9.26177 28.2893 9.20351 28.2822 9.14612C28.275 9.08873 28.2554 9.03361 28.2246 8.98466C28.1938 8.9357 28.1526 8.89412 28.104 8.86284C28.0388 8.82116 27.9627 8.79976 27.8854 8.80135H11.7868C11.6789 8.80166 11.5722 8.82408 11.4733 8.86724C11.3744 8.9104 11.2855 8.97338 11.2119 9.05228L7.82014 12.6941C7.76793 12.7504 7.73328 12.8207 7.72042 12.8964C7.70756 12.9721 7.71706 13.0499 7.74775 13.1202C7.77844 13.1906 7.82899 13.2505 7.8932 13.2926C7.95742 13.3347 8.03251 13.3571 8.10929 13.3572Z" fill="white"/>
</svg>
